<svg width="498" height="424" viewBox="0 0 498 424" fill="none" xmlns="http://www.w3.org/2000/svg">
<path opacity="0.6" d="M368.997 50.7718C397.779 88.9158 481.718 222.31 398.588 305.007C315.458 387.705 281.62 302.748 152.647 389.187C102.549 422.763 50.0329 344.09 67.3879 278.727C84.7429 213.364 89.3809 216.673 75.9749 172.437C32.9429 30.4358 234.52 118.872 263.366 72.4538C278.984 47.3218 323.512 -9.50721 368.997 50.7718Z" fill="url(#paint0_linear)"/>
<path d="M138.851 101.509C138.851 101.509 124.909 84.1523 106.893 80.5813C99.0348 78.8853 95.5958 91.2203 94.0978 101.609C92.9668 109.447 96.8928 117.146 103.913 120.811L108.866 130.67L138.851 101.509Z" fill="#F19984"/>
<path d="M193.595 147.676C199.733 160.957 190.379 202.648 171.979 196.928C147.367 189.277 104.054 125.541 104.054 125.541C112.191 113.124 140.398 100.81 140.398 100.81C140.398 100.81 187.458 134.395 193.595 147.676Z" fill="#21A19A"/>
<path d="M107.595 129.252C106.617 128.165 108.179 126.497 109.163 127.591C127.917 148.454 144.284 171.778 166.666 189.07C167.831 189.969 166.251 191.622 165.098 190.732C142.716 173.44 126.349 150.115 107.595 129.252Z" fill="#107F8C"/>
<path d="M181.145 145.978C166.331 129.851 151.673 113.58 137.176 97.1673C136.207 96.0733 137.769 94.4043 138.743 95.5053C153.24 111.917 167.898 128.189 182.712 144.316C183.703 145.394 182.14 147.062 181.145 145.978Z" fill="#107F8C"/>
<path d="M179.457 139.644C178.429 138.595 179.995 136.931 181.025 137.982C184.235 141.262 187.656 144.284 191.305 147.066C192.476 147.958 190.895 149.61 189.737 148.728C186.088 145.946 182.667 142.924 179.457 139.644Z" fill="#107F8C"/>
<path d="M138.936 95.6699C138.936 95.6699 130.163 110.818 115.279 110.955C100.042 112.386 100.187 122.747 100.187 122.747L114.297 142.647L152.223 112.191L138.936 95.6699Z" fill="#31C2A7"/>
<path d="M113.64 76.2269C124.751 73.5519 135.899 73.1118 147.258 72.4428C155.78 71.9678 170.805 72.0328 183.864 72.2348C189.781 72.3298 195.311 72.4378 199.651 72.5418C205.225 72.6748 207.573 73.3209 207.573 73.3209L202.685 86.8268C200.989 87.1988 132.612 106.067 120.724 107.693C116.096 108.323 110.903 109.653 106.396 107.741C98.8475 104.525 94.8215 94.9898 98.0885 87.3488C100.91 80.7488 106.955 77.8159 113.64 76.2269Z" fill="#F19984"/>
<path d="M205.49 90.999C205.49 90.999 216.261 108.555 223.637 109.146C231.011 109.736 218.506 91.1281 218.506 91.1281" fill="#F19984"/>
<path d="M190.611 74.2215C190.611 74.2215 196.396 69.6115 201.823 69.6695C207.25 69.7285 210.902 70.9874 213.864 70.7444C216.828 70.5024 225.931 65.2004 228.425 65.1404C230.918 65.0804 230.654 68.5974 230.654 68.5974C230.654 68.5974 234.472 67.3064 237.591 67.0054C240.711 66.7044 241.602 69.9555 241.602 69.9555C241.602 69.9555 245.035 71.8684 243.35 74.4954C241.665 77.1204 231.296 83.8074 232.628 84.0014C233.96 84.1944 242.712 75.9345 244.37 79.4815C245.728 82.3865 240.751 86.8375 237.572 89.8405C234.572 92.6745 227.336 95.9374 222.307 97.3344C217.278 98.7304 199.222 87.3454 199.222 87.3454L190.611 74.2215Z" fill="#F39E7E"/>
<path d="M219.478 81.7314C219.668 82.5694 220.501 83.0913 221.336 82.9013C221.53 82.8553 226.13 81.7944 230.244 79.6534C234.285 77.5514 241.449 72.3223 241.75 72.1003C242.424 71.5933 242.593 70.6213 242.087 69.9283C241.58 69.2373 240.608 69.0863 239.916 69.5923C239.844 69.6453 232.64 74.9063 228.809 76.8983C225.059 78.8493 220.689 79.8612 220.643 79.8713C220.398 79.9283 220.18 80.0394 219.999 80.1894C219.563 80.5524 219.341 81.1414 219.478 81.7314Z" fill="#E27E66"/>
<path d="M217.679 75.7563C217.967 76.5643 218.857 76.9844 219.665 76.6944C221.787 75.9334 229.469 71.2503 230.337 70.7193C231.051 70.2843 231.301 69.3183 230.853 68.5843C230.405 67.8533 229.449 67.6224 228.718 68.0704C225.54 70.0124 219.987 73.2783 218.616 73.7703C218.441 73.8333 218.285 73.9253 218.15 74.0373C217.661 74.4433 217.452 75.1253 217.679 75.7563Z" fill="#E27E66"/>
<path d="M223.711 88.049C223.889 88.888 224.713 89.4249 225.553 89.2459L226.639 89.018C227.863 88.76 231.029 86.8459 232.333 86.0359C233.072 85.5689 233.286 84.626 232.834 83.895C232.382 83.167 231.424 82.9439 230.695 83.3959C228.875 84.5269 226.549 85.835 225.996 85.978L224.909 86.2079C224.653 86.2629 224.428 86.3759 224.241 86.5319C223.81 86.8899 223.589 87.465 223.711 88.049Z" fill="#E27E66"/>
<path d="M253.373 399C264.91 359.501 273.559 334.846 273.559 334.846L178.296 342.305C178.296 342.305 174.307 366.496 171.118 399H253.373Z" fill="#C78F27"/>
<path d="M287.34 398.999C281.087 365.165 274.987 334.736 274.987 334.736L241.176 337.246L229.302 399.206L287.34 398.999Z" fill="#C78F27"/>
<path d="M184.607 244.179C184.131 248.994 182.822 254.088 184.687 258.747C186.226 262.593 189.532 264.225 193.193 265.373C193.242 265.948 194.042 266.313 194.337 265.715C194.403 265.734 194.468 265.756 194.535 265.774C195.334 266 195.673 264.759 194.878 264.534C198.618 255.998 202.226 247.362 206.189 238.939C207.258 236.67 204.836 233.125 203.634 231.269C202.034 228.796 200.031 226.541 197.703 224.733C194.841 222.51 192.434 223.744 190.736 226.039C189.571 225.822 188.393 225.86 187.263 226.422C186.045 227.03 185.335 228.064 184.884 229.242C184.086 229.156 183.285 229.26 182.515 229.676C180.753 230.628 180.415 232.562 180.452 234.404C178.292 237.736 181.939 241.335 184.607 244.179Z" fill="#FFA587"/>
<path d="M176.168 309.708C184.046 317.568 192.25 310.701 194.979 304.355C196.719 300.309 197.13 295.849 197.496 291.508C197.976 285.804 198.314 280.087 198.561 274.368C198.975 264.762 199.127 255.146 199.244 245.532C199.738 245.312 199.653 244.628 199.257 244.461C199.271 243.171 199.288 241.879 199.303 240.59C199.31 239.847 198.158 239.848 198.15 240.59C198.135 241.957 198.116 243.326 198.1 244.693C195.176 245.573 192.236 245.815 189.176 245.42C188.934 245.389 188.675 245.624 188.62 245.843C185.5 258.322 178.45 270.634 175.093 285.359C173.307 293.194 169.177 302.733 176.168 309.708Z" fill="#FFA587"/>
<path d="M197.672 231.404L191.316 227.241C190.952 227.004 190.852 226.517 191.089 226.155C191.325 225.794 191.81 225.691 192.175 225.929L198.531 230.092C198.893 230.329 198.994 230.816 198.757 231.178C198.608 231.407 198.356 231.531 198.101 231.531C197.953 231.532 197.805 231.491 197.672 231.404Z" fill="#ED835C"/>
<path d="M192.213 233.56L185.364 230.292C184.974 230.106 184.808 229.639 184.995 229.248C185.181 228.858 185.646 228.69 186.04 228.879L192.889 232.146C193.279 232.332 193.445 232.8 193.258 233.19C193.123 233.474 192.842 233.636 192.549 233.636C192.436 233.635 192.322 233.612 192.213 233.56Z" fill="#ED835C"/>
<path d="M188.387 237.528L181.449 234.976C181.043 234.827 180.834 234.376 180.982 233.97C181.132 233.564 181.584 233.354 181.989 233.505L188.927 236.056C189.333 236.205 189.543 236.657 189.394 237.063C189.277 237.38 188.977 237.577 188.658 237.577C188.567 237.576 188.476 237.56 188.387 237.528Z" fill="#ED835C"/>
<path d="M160.078 241.19C159.943 240.51 157.619 222.969 157.521 222.223C157.483 221.937 157.684 221.674 157.971 221.636C158.256 221.599 158.517 221.798 158.558 222.085C159.229 227.159 160.995 240.449 161.103 240.986C161.159 241.268 160.976 241.544 160.692 241.6C160.658 241.607 160.624 241.61 160.589 241.61C160.345 241.61 160.126 241.437 160.078 241.19Z" fill="black"/>
<path d="M223.508 143.788H212.845L214.685 138.12C218.715 137.243 224.586 138.394 224.586 138.394L223.508 143.788Z" fill="#8BA8AC"/>
<path d="M279.856 345.163C244.647 356.647 208.681 358.682 172.211 352.27C170.727 352.009 171.359 349.754 172.833 350.013C208.884 356.35 244.438 354.255 279.233 342.906C280.671 342.436 281.281 344.698 279.856 345.163Z" fill="#77541B"/>
<path d="M257.3 135.768L254.097 151.285L266.808 155.91C262.868 164.292 254.749 208.551 237.587 208.456C220.425 208.361 197.928 150.535 197.928 150.535C197.928 150.535 205.622 145.352 214.124 143.574C224.392 141.426 224.649 118.104 224.649 118.104L257.3 135.768Z" fill="#F39E7E"/>
<path d="M228.547 209.946C208.454 202.289 213.89 156.918 213.89 156.918C234.346 180.396 261.475 164.834 261.475 164.834C267.72 176.297 248.641 217.604 228.547 209.946Z" fill="#FDEEF6"/>
<path d="M204.458 159.646C211.839 169.989 225.683 174.615 237.721 176.636C249.761 178.659 262.7 176.029 270.054 165.587C270.923 164.352 268.962 163.078 268.099 164.305C260.276 175.412 246.191 176.334 233.98 173.504C223.647 171.11 212.562 167.003 206.193 158.079C205.32 156.855 203.594 158.434 204.458 159.646Z" fill="#B4AFAC"/>
<path d="M196.179 186.459C196.179 186.459 158.847 329.34 173.439 334.26C248.234 359.473 281.906 334.177 281.906 334.177L262.996 184.105L196.179 186.459Z" fill="#FDEEF6"/>
<path d="M266.364 246.227C269.776 300.406 264.356 361.438 265.407 366.722C281.905 372.056 281.479 369.302 295.978 372.047C301.21 373.037 288.531 258.796 289.153 249.406C292.535 198.35 280.167 141.769 280.167 141.769L254.158 150.536C254.158 150.536 254.781 152.667 254.353 153.214C253.602 154.173 253.078 154.316 253.078 154.316C253.078 154.316 252.115 156.919 251.591 159.64C251.693 161.185 263.529 201.227 266.364 246.227Z" fill="#21A19A"/>
<path d="M155.17 374.176C159.12 379.626 227.113 381.681 226.165 374.775C229.647 367.261 231.891 162.33 231.667 158.923C231.315 156.45 231.315 150.642 231.315 150.642L211.764 143.67C211.764 143.67 176.913 130.083 160.725 143.825C139.908 156.69 163.209 226.452 169.821 291.168C171.249 305.133 151.205 368.706 155.17 374.176Z" fill="#21A19A"/>
<path d="M291.575 145.676C286.618 142.794 280.167 141.769 280.167 141.769C280.167 141.769 274.081 174.696 286.748 204.864C299.597 235.465 331.22 263.31 333.801 262.633C346.169 259.386 362.553 250.081 365.61 239.738C366.33 237.3 344.498 208.287 343.118 206.151C334.304 192.515 299.083 150.04 291.575 145.676Z" fill="#21A19A"/>
<path d="M214.684 138.119L211.764 143.668C212.272 151.538 225.145 161.558 225.145 161.558L231.312 150.642C218.403 144.549 214.685 138.118 214.684 138.119Z" fill="#31C2A7"/>
<path d="M254.642 148.49L256.321 151.721C256.658 155.576 254.639 163.281 254.639 163.281L252.926 154.498C253.711 152.793 254.642 148.491 254.642 148.49Z" fill="#31C2A7"/>
<path d="M223.384 201.507C223.413 202.84 224.363 204.157 225.826 203.885C227.037 203.659 227.844 202.375 227.211 201.241C227.188 201.199 227.16 201.168 227.136 201.132C227.137 200.845 227.094 200.559 226.984 200.279C226.755 199.696 226.249 199.257 225.643 199.095C224.936 198.905 224.19 199.185 223.792 199.8C223.48 200.281 223.371 200.941 223.384 201.507Z" fill="#31C2A7"/>
<path d="M224.465 168.311C224.494 169.644 225.443 170.962 226.906 170.689C228.117 170.463 228.924 169.179 228.291 168.045C228.268 168.004 228.241 167.972 228.216 167.936C228.217 167.649 228.174 167.363 228.064 167.083C227.835 166.5 227.329 166.061 226.725 165.9C226.016 165.71 225.271 165.989 224.873 166.604C224.56 167.085 224.451 167.745 224.465 168.311Z" fill="#31C2A7"/>
<path d="M221.671 228.924C221.7 230.258 222.649 231.575 224.111 231.302C225.322 231.076 226.129 229.792 225.497 228.659C225.474 228.617 225.447 228.586 225.422 228.55C225.423 228.263 225.38 227.977 225.27 227.696C225.041 227.114 224.535 226.675 223.93 226.513C223.222 226.323 222.476 226.603 222.078 227.218C221.767 227.698 221.659 228.358 221.671 228.924Z" fill="#31C2A7"/>
<path d="M221.022 258.881C221.051 260.215 222 261.532 223.462 261.259C224.673 261.033 225.48 259.749 224.848 258.616C224.825 258.574 224.798 258.543 224.773 258.507C224.774 258.22 224.731 257.934 224.621 257.653C224.392 257.071 223.886 256.632 223.282 256.47C222.572 256.28 221.827 256.56 221.428 257.175C221.117 257.655 221.01 258.315 221.022 258.881Z" fill="#31C2A7"/>
<path d="M233.773 56.2154C216.936 60.3944 206.209 76.7253 208.61 91.7183C211.011 106.711 220.334 119.407 227.391 127.884C234.449 136.36 244.905 138.707 248.571 138.94C252.238 139.172 269.319 143.884 276.888 136.397C282.187 131.154 282.018 105.725 279.386 99.0714C277.089 93.2644 275.333 92.9114 274.596 87.7164C273.859 82.5204 269.208 71.5034 269.208 71.5034C265.902 65.0054 250.608 52.0364 233.773 56.2154Z" fill="#F39E7E"/>
<path d="M270.976 94.9036C270.394 95.7336 269.275 95.9605 268.365 95.4955C267.506 95.0565 267.078 94.2155 266.876 93.2905C266.263 92.2755 265.949 91.0565 266.31 89.9525C266.63 88.9765 267.595 88.3546 268.594 88.5336C269.48 88.6926 270.17 89.3465 270.583 90.1825C271.23 91.4935 271.84 93.6706 270.976 94.9036Z" fill="#6E3F30"/>
<path d="M249.289 102.497C248.662 103.293 247.532 103.456 246.649 102.941C245.815 102.454 245.435 101.59 245.285 100.655C244.73 99.6073 244.486 98.3713 244.909 97.2893C245.282 96.3333 246.283 95.7663 247.269 96.0013C248.144 96.2093 248.797 96.9033 249.163 97.7603C249.735 99.1073 250.221 101.315 249.289 102.497Z" fill="#6E3F30"/>
<path d="M206.9 104.367C213.545 114.249 224.23 123.965 224.23 123.965C224.23 123.965 225.904 117.609 224.254 114.816C223.267 113.144 220.641 113.775 218.642 111.877C215.897 109.271 214.691 104.291 215.789 99.3246C216.372 96.6896 219.649 95.6397 221.823 95.9677C222.982 96.1427 223.763 97.0707 224.168 98.1707C224.578 99.2827 225.115 101.167 225.723 103.451C228.025 104.008 230.709 103.44 232.713 101.924C231.815 96.5846 228.982 85.2047 229.25 82.9357C229.596 80.0087 231.136 73.8007 236.315 73.4607C241.494 73.1197 250.871 77.8486 257.017 75.0156C262.787 72.3556 265.187 73.3916 269.534 72.2876C269.525 72.4506 272.186 78.9216 272.186 78.9216C272.186 78.9216 280.445 75.8966 282.339 72.4786C284.644 68.3156 284.021 63.5077 281.822 59.4577C279.908 55.9307 276.475 53.4526 272.761 52.0796C270.557 51.2646 268.249 50.9647 265.918 50.8687C265.462 48.6507 264.278 45.4836 261.214 43.2236C256.282 39.5866 250.486 40.5597 244.838 41.1537C244.806 41.1137 242.686 39.0317 240.175 38.4357C234.619 37.1157 227.869 40.2786 224.601 42.7246C222.228 44.5006 220.787 46.0897 219.418 48.6957C217.922 49.4177 216.388 50.0006 215.046 50.7666C200.788 58.9056 197.298 70.5617 196.824 79.1857C196.343 87.9157 200.571 94.9557 206.9 104.367Z" fill="#522C26"/>
<path d="M222.096 110.723C223.431 111.42 224.5 109.339 223.163 108.642C220.725 107.368 219.761 104.292 221.02 101.849C221.71 100.511 219.63 99.4416 218.939 100.782C217.097 104.357 218.536 108.863 222.096 110.723Z" fill="#CE6D46"/>
<path d="M229.934 69.1472C232.121 66.6292 233.69 63.5862 236.147 61.3082C239.095 58.5752 242.899 57.3542 246.875 57.4322C248.349 57.4612 248.207 55.1792 246.748 55.1502C242.828 55.0732 238.987 56.1793 235.846 58.5703C232.628 61.0193 230.821 64.6402 228.212 67.6452C227.247 68.7552 228.967 70.2602 229.934 69.1472Z" fill="#73453E"/>
<path d="M225.443 69.4291C227.218 66.4061 228.835 63.3002 230.294 60.1122C230.906 58.7752 228.861 57.756 228.248 59.096C226.79 62.284 225.173 65.3901 223.397 68.4131C222.651 69.6831 224.701 70.6921 225.443 69.4291Z" fill="#73453E"/>
<path d="M243.323 95.3678C245.709 93.1718 248.582 91.8837 251.271 90.1477C252.764 89.1837 254.665 87.4687 253.146 85.6737C251.454 83.6727 247.916 85.2437 246.114 86.2727C243.523 87.7527 241.468 89.8297 239.691 92.1987C237.804 94.7177 241.058 97.4528 243.323 95.3678Z" fill="#522C26"/>
<path d="M266.891 84.9174C267.803 85.4804 269.017 85.5774 270.046 85.8134C271 86.0324 271.843 86.4114 272.672 86.9334C273.473 87.4374 274.565 86.9915 275.051 86.2885C275.591 85.5085 275.416 84.4785 274.739 83.8425C272.721 81.9515 269.369 80.1335 266.675 81.6595C265.329 82.4225 265.791 84.2374 266.891 84.9174Z" fill="#522C26"/>
<path d="M233.514 135.023C236.291 138.163 240.258 139.807 244.109 141.239C248.464 142.858 252.955 143.941 257.556 144.562C259.007 144.757 259.522 142.531 258.066 142.335C254.007 141.788 250.017 140.895 246.143 139.557C242.17 138.185 237.898 136.552 235.052 133.333C234.079 132.232 232.549 133.932 233.514 135.023Z" fill="#CE6D46"/>
<path d="M281.621 116.37C281.621 116.37 283.254 129.083 282.007 134.276C280.441 140.797 277.181 144.694 271.026 145.739C267.512 146.336 259.724 146.678 256.346 145.432C248.241 142.444 239.821 138.088 235.266 130.75C229.773 121.902 227.899 113.471 225.483 102.795C227.392 101.099 230.169 100.301 232.079 98.6055C232.998 102.778 233.403 106.033 235.643 109.673C237.218 112.233 239.803 114.541 241.519 117.016C243.969 120.551 243.858 126.034 246.067 126.009C248.596 125.979 248.485 120.616 252.368 117.339C254.362 115.796 256.728 115.05 259.172 114.537C262.04 113.816 264.964 113.171 267.9 112.79C269.932 112.526 273.213 112.02 275.176 112.706C279.087 114.071 281.653 116.629 281.621 116.37Z" fill="#522C26"/>
<path d="M360.053 233.229L373.751 249.303C373.751 249.303 359.167 283.727 347.902 276.079C336.637 268.43 329.995 260.643 329.995 260.643L360.053 233.229Z" fill="#F19984"/>
<path d="M366.569 237.432C348.178 243.288 330.803 264.953 330.803 264.953L313.033 245.438C313.033 245.438 323.92 231.002 333.934 222.745C343.947 214.487 350.67 214.555 350.67 214.555L366.569 237.432Z" fill="#31C2A7"/>
<path d="M285.32 246.745C286.005 246.733 286.552 246.168 286.539 245.484C286.219 226.95 281.879 201.52 281.834 201.265C281.719 200.591 281.075 200.135 280.402 200.254C279.727 200.37 279.274 201.011 279.39 201.686C279.434 201.938 283.742 227.184 284.059 245.527C284.072 246.205 284.624 246.746 285.298 246.746C285.306 246.747 285.313 246.747 285.32 246.745Z" fill="#107F8C"/>
<path d="M285.47 202.707C286.148 202.613 286.622 201.987 286.528 201.308C286.256 199.34 285.719 193.682 286.485 191.171C286.686 190.516 286.317 189.823 285.662 189.623C285.009 189.424 284.313 189.79 284.113 190.446C283.029 193.993 284.027 201.337 284.07 201.647C284.156 202.267 284.688 202.718 285.297 202.718C285.353 202.718 285.411 202.715 285.47 202.707Z" fill="#107F8C"/>
<path d="M342.031 210.867C342.575 210.451 342.679 209.672 342.261 209.128L326.221 188.193C325.805 187.65 325.028 187.546 324.483 187.963C323.939 188.379 323.835 189.158 324.253 189.702L340.292 210.637C340.536 210.957 340.904 211.123 341.277 211.123C341.541 211.123 341.805 211.04 342.031 210.867Z" fill="#107F8C"/>
<path d="M345.678 274.415C351.456 280.388 361.806 280.372 367.697 274.66C371.206 271.247 371.993 265.944 373.205 261.433C376.314 249.844 380.078 226.885 382.963 209.011C383.858 203.543 384.664 198.569 385.332 194.528C385.332 194.528 385.332 194.528 385.328 194.506C385.788 191.888 389.452 180.98 389.766 179.273L375.18 168.052C375.18 168.052 373.675 169.965 371.392 175.052C369.614 179.013 367.371 184.069 364.99 189.486C359.743 201.446 353.859 215.272 350.994 223.312C347.208 234.042 343.293 244.489 341.453 255.769C340.326 262.546 340.687 269.255 345.678 274.415Z" fill="#F19984"/>
<path d="M399.836 162.4C399.836 162.4 421.574 156.913 418.529 163.655C415.482 170.398 395.32 174.608 395.32 174.608" fill="#F19984"/>
<path d="M386.601 179.49C386.601 179.49 407.783 182.133 411.743 178.734C415.703 175.334 420.87 169.307 422.383 165.468C423.986 161.4 426.602 155.257 424.14 153.203C421.133 150.696 416.715 161.89 415.427 162.281C414.138 162.671 420.687 152.215 421.099 149.122C421.51 146.028 417.589 145.753 417.589 145.753C417.589 145.753 415.402 143.188 412.705 144.785C410.009 146.382 407.1 149.171 407.1 149.171C407.1 149.171 405.845 145.875 403.614 146.988C401.382 148.102 395.39 156.767 392.809 158.244C390.23 159.721 386.389 160.132 381.45 162.383C376.512 164.635 373.231 171.265 373.231 171.265L386.601 179.49Z" fill="#F39E7E"/>
<path d="M402.372 164.193C402.472 163.981 402.622 163.787 402.82 163.632C402.857 163.604 406.384 160.832 408.951 157.474C411.574 154.044 415.863 146.222 415.905 146.143C416.317 145.391 417.261 145.115 418.014 145.525C418.766 145.937 419.026 146.889 418.631 147.634C418.452 147.963 414.186 155.739 411.42 159.358C408.604 163.043 404.89 165.957 404.734 166.081C404.058 166.607 403.082 166.488 402.555 165.81C402.181 165.334 402.131 164.707 402.372 164.193Z" fill="#E27E66"/>
<path d="M398.086 159.407C398.161 159.248 398.263 159.099 398.395 158.968C399.428 157.941 403.069 152.626 405.122 149.519C405.594 148.803 406.557 148.606 407.273 149.078C407.99 149.553 408.174 150.533 407.712 151.23C407.151 152.079 402.184 159.58 400.586 161.17C399.978 161.775 398.993 161.774 398.389 161.164C397.916 160.689 397.816 159.983 398.086 159.407Z" fill="#E27E66"/>
<path d="M408.907 168.134C409.011 167.913 409.167 167.716 409.375 167.557L410.262 166.887C410.701 166.523 412.252 164.351 413.42 162.554C413.888 161.835 414.85 161.63 415.568 162.097C416.288 162.566 416.494 163.511 416.023 164.248C415.186 165.535 413.132 168.612 412.133 169.365L411.246 170.033C410.561 170.551 409.587 170.415 409.07 169.731C408.713 169.256 408.669 168.641 408.907 168.134Z" fill="#E27E66"/>
<path d="M272.301 118.285C267.849 116.305 262.748 117.185 259.15 120.443C258.06 121.431 259.587 123.13 260.68 122.141C263.729 119.379 267.837 118.789 271.572 120.45C272.918 121.051 273.632 118.878 272.301 118.285Z" fill="#73453E"/>
<path d="M274.418 105.801C274.243 109.277 269.219 110.687 266.5 111.402C265.043 111.785 264.456 109.522 265.911 109.139C268.404 108.483 273.764 107.074 270.97 103.702C269.21 101.577 267.287 99.5661 265.45 97.5041C264.451 96.3811 266.105 94.7301 267.107 95.8541C268.945 97.9181 270.836 99.946 272.627 102.052C273.544 103.13 274.492 104.306 274.418 105.801Z" fill="#CE6D46"/>
<path d="M372.531 332.323C377.122 331.117 380.586 329.985 382.654 328.921C384.721 327.855 386.431 326.19 387.735 323.762C391.079 317.535 388.921 310.665 383.116 307.548C377.628 304.601 371.535 305.817 365.854 311.333L360.524 304.799C368.418 296.935 378.063 295.18 387.351 300.167C397.589 305.665 401.904 317.637 396.463 327.769C393.006 334.207 387.24 337.094 377.254 339.483C369.045 341.602 365.906 342.636 364.036 346.119C363.696 346.752 363.284 348.027 362.75 349.779L355.678 345.982C355.676 344.213 356.21 342.46 357.117 340.772C359.667 336.022 364.217 334.386 372.531 332.323ZM354.361 358.057C358.161 360.097 359.586 364.534 357.546 368.334C355.506 372.134 351.02 373.396 347.22 371.355C343.737 369.485 342.101 364.936 344.142 361.136C346.183 357.336 350.878 356.187 354.361 358.057Z" fill="#B40057"/>
<path d="M92.081 397.886C107.59 397.886 120.162 385.313 120.162 369.805C120.162 354.296 107.59 341.724 92.081 341.724C76.5723 341.724 64 354.296 64 369.805C64 385.313 76.5723 397.886 92.081 397.886Z" fill="white"/>
<path d="M98.51 197.233C100.039 193.193 101.027 190.028 101.328 187.932C101.63 185.837 101.297 183.691 100.186 181.443C97.334 175.678 91.101 173.653 85.727 176.312C80.646 178.826 78.332 183.984 79.423 191.107L71.766 191.611C70.102 181.609 73.89 173.531 82.49 169.276C91.969 164.587 103.121 167.705 107.762 177.086C110.711 183.047 109.809 188.845 106.311 197.51C103.55 204.714 102.659 207.587 104.256 210.812C104.545 211.397 105.273 212.377 106.291 213.697L99.744 216.936C98.431 216.005 97.413 214.683 96.64 213.119C94.464 208.722 95.652 204.486 98.51 197.233ZM108.001 224.284C111.518 222.544 115.56 223.829 117.301 227.347C119.041 230.865 117.61 234.856 114.093 236.597C110.868 238.193 106.631 237.005 104.891 233.488C103.15 229.969 104.776 225.88 108.001 224.284Z" fill="#B40057"/>
<path d="M94.5436 367.412C96.4556 366.106 97.8616 365.019 98.6386 364.191C99.4136 363.361 99.9266 362.317 100.128 360.987C100.645 357.577 98.5266 354.772 95.3486 354.291C92.3436 353.836 89.7436 355.393 88.0356 358.859L84.5166 356.73C86.8556 351.822 90.9996 349.437 96.0856 350.207C101.693 351.056 105.637 355.852 104.797 361.4C104.263 364.925 102.085 367.197 97.8867 369.931C94.4607 372.249 93.1866 373.238 92.8986 375.146C92.8466 375.493 92.8667 376.146 92.9077 377.039L89.0356 376.452C88.7436 375.639 88.7026 374.746 88.8436 373.822C89.2356 371.221 91.0596 369.723 94.5436 367.412ZM90.4086 382.218C92.4886 382.533 93.8706 384.338 93.5566 386.419C93.2406 388.499 91.3866 389.814 89.3056 389.499C87.3976 389.21 85.9016 387.387 86.2156 385.307C86.5296 383.226 88.5006 381.929 90.4086 382.218Z" fill="#17DA17"/>
<path d="M384.119 107.291C399.8 107.291 412.512 94.5788 412.512 78.8978C412.512 63.2168 399.8 50.5049 384.119 50.5049C368.438 50.5049 355.726 63.2168 355.726 78.8978C355.726 94.5788 368.438 107.291 384.119 107.291Z" fill="white"/>
<path d="M387.401 77.7692C389.713 77.3972 391.467 77.0061 392.534 76.5831C393.6 76.1571 394.519 75.4221 395.275 74.2921C397.215 71.3951 396.484 67.9181 393.783 66.1101C391.229 64.4011 388.18 64.7061 385.126 67.1421L382.822 63.6791C387.074 60.1951 391.892 59.7952 396.215 62.6872C400.979 65.8772 402.525 71.9621 399.37 76.6771C397.364 79.6731 394.394 80.8142 389.377 81.5102C385.245 82.1562 383.653 82.5151 382.569 84.1361C382.372 84.4311 382.11 85.0361 381.763 85.8711L378.472 83.6681C378.555 82.7981 378.902 81.9631 379.428 81.1781C380.906 78.9701 383.219 78.3842 387.401 77.7692ZM377.247 89.5362C379.014 90.7192 379.503 92.9661 378.32 94.7341C377.135 96.5011 374.873 96.9081 373.104 95.7241C371.483 94.6381 370.898 92.3261 372.081 90.5581C373.265 88.7901 375.626 88.4512 377.247 89.5362Z" fill="#17DA17"/>
<path d="M109.533 67.2806C116.235 67.2806 121.667 61.848 121.667 55.1466C121.667 48.4452 116.235 43.0127 109.533 43.0127C102.832 43.0127 97.3994 48.4452 97.3994 55.1466C97.3994 61.848 102.832 67.2806 109.533 67.2806Z" fill="white"/>
<path d="M109.154 53.7133C109.067 52.7163 108.956 51.9564 108.808 51.4884C108.66 51.0204 108.375 50.6064 107.917 50.2484C106.743 49.3314 105.238 49.5344 104.383 50.6294C103.575 51.6644 103.61 52.9733 104.553 54.3513L103.005 55.2253C101.652 53.3043 101.632 51.2383 103 49.4863C104.508 47.5553 107.15 47.0863 109.061 48.5783C110.275 49.5263 110.669 50.8284 110.809 52.9884C110.956 54.7694 111.059 55.4594 111.716 55.9724C111.836 56.0654 112.085 56.1963 112.431 56.3703L111.39 57.7043C111.022 57.6413 110.677 57.4683 110.359 57.2193C109.463 56.5183 109.286 55.5143 109.154 53.7133ZM113.853 58.4073C114.412 57.6913 115.385 57.5534 116.102 58.1124C116.818 58.6724 116.921 59.6493 116.361 60.3663C115.848 61.0233 114.844 61.2003 114.127 60.6413C113.41 60.0813 113.339 59.0643 113.853 58.4073Z" fill="#17DA17"/>
<path d="M416.277 286.915C422.978 286.915 428.411 281.482 428.411 274.781C428.411 268.079 422.978 262.646 416.277 262.646C409.575 262.646 404.143 268.079 404.143 274.781C404.143 281.482 409.575 286.915 416.277 286.915Z" fill="white"/>
<path d="M417.14 273.575C417.853 272.872 418.367 272.302 418.633 271.89C418.899 271.478 419.036 270.994 419.02 270.413C418.978 268.923 417.861 267.894 416.473 267.934C415.16 267.972 414.175 268.834 413.715 270.439L412.055 269.804C412.672 267.537 414.25 266.204 416.472 266.14C418.921 266.07 420.967 267.805 421.037 270.229C421.081 271.769 420.33 272.902 418.755 274.388C417.477 275.637 417.011 276.156 417.035 276.99C417.04 277.141 417.098 277.417 417.185 277.794L415.493 277.843C415.306 277.52 415.22 277.143 415.209 276.739C415.177 275.602 415.837 274.825 417.14 273.575ZM416.521 280.188C417.43 280.162 418.156 280.823 418.183 281.732C418.209 282.641 417.522 283.343 416.612 283.369C415.779 283.393 415.002 282.733 414.976 281.824C414.95 280.915 415.688 280.211 416.521 280.188Z" fill="#17DA17"/>
<path d="M132.298 283.621C136.159 283.621 139.289 280.491 139.289 276.63C139.289 272.769 136.159 269.639 132.298 269.639C128.437 269.639 125.307 272.769 125.307 276.63C125.307 280.491 128.437 283.621 132.298 283.621Z" fill="white"/>
<path d="M132.41 275.783C132.582 275.233 132.689 274.803 132.713 274.522C132.736 274.24 132.675 273.957 132.509 273.666C132.084 272.92 131.237 272.699 130.542 273.096C129.885 273.471 129.617 274.176 129.818 275.117L128.802 275.244C128.502 273.924 128.943 272.818 130.056 272.184C131.283 271.485 132.793 271.813 133.485 273.027C133.925 273.798 133.85 274.578 133.451 275.76C133.139 276.741 133.043 277.132 133.281 277.549C133.324 277.625 133.429 277.749 133.575 277.917L132.728 278.4C132.546 278.286 132.4 278.118 132.285 277.916C131.96 277.346 132.086 276.772 132.41 275.783ZM133.886 279.314C134.341 279.055 134.89 279.194 135.149 279.649C135.408 280.104 135.249 280.648 134.794 280.907C134.377 281.145 133.803 281.02 133.543 280.564C133.284 280.109 133.469 279.552 133.886 279.314Z" fill="#17DA17"/>
<defs>
<linearGradient id="paint0_linear" x1="434.359" y1="210.602" x2="64.001" y2="210.602" gradientUnits="userSpaceOnUse">
<stop offset="0.0064" stop-color="#FFFF00"/>
<stop offset="0.1184" stop-color="#D1F800"/>
<stop offset="0.253" stop-color="#92EF00"/>
<stop offset="0.3861" stop-color="#5EE700"/>
<stop offset="0.5058" stop-color="#35E100"/>
<stop offset="0.6001" stop-color="#18DD00"/>
<stop offset="0.665" stop-color="#06DA00"/>
<stop offset="0.7442" stop-color="#00D900"/>
</linearGradient>
</defs>
</svg>
