<svg width="498" height="424" viewBox="0 0 498 424" fill="none" xmlns="http://www.w3.org/2000/svg">
<path opacity="0.6" d="M324.005 397.385C357.284 404.181 402.689 395.23 430.573 256.264C458.457 117.299 312.394 -51.6001 157.306 60.5859C20.2335 159.739 50.4045 282.172 174.009 291.925C253.147 298.171 257.82 383.869 324.005 397.385Z" fill="url(#paint0_linear)"/>
<path d="M304.067 231.259C303.799 232.184 302.697 234.161 301.877 236.166C301.215 235.556 300.399 234.876 299.556 234.678C297.931 234.298 297.41 234.051 297.911 235.257C298.411 236.462 301.118 240.691 301.118 240.691C301.118 240.691 301.125 240.682 301.126 240.68C302.095 243.076 302.092 244.544 302.092 244.544C307.236 244.692 311.656 242.084 312.299 238.529C312.417 237.875 312.546 237.267 312.685 236.762C313.406 234.133 312.795 228.012 309.716 226.655C306.637 225.297 304.517 229.706 304.067 231.259Z" fill="#FFB27D"/>
<path d="M173.513 259.146C173.513 259.146 178.696 273.12 213.951 276.779C249.206 280.438 265.479 282.933 287.553 261.524C301.953 247.557 306.15 242.211 306.15 242.211L302.442 234.974C302.442 234.974 265.467 256.927 258.265 256.89C213.585 256.655 170.229 235.874 173.513 259.146Z" fill="#F2A470"/>
<path d="M193.71 246.983L228.243 254.259C228.243 254.259 229.28 269.842 219.781 277.387C216.486 277.018 203.728 276.989 200.064 272.851C192.081 263.834 193.71 246.983 193.71 246.983Z" fill="white"/>
<path d="M264.532 273.883C264.532 273.883 200.974 361.924 215.758 375.193C230.542 388.461 243.907 386.316 258.572 383.477C273.237 380.639 292.744 307.744 291.587 299.065C290.43 290.385 282.031 263.746 264.532 273.883Z" fill="#F2A470"/>
<path d="M264.532 273.883C264.532 273.883 264.861 304.683 271.335 328.612C277.809 352.542 286.524 385.609 286.524 385.609H303.883C303.883 385.609 296.506 295.111 296.939 284.069C297.373 273.027 284.41 254.764 264.532 273.883Z" fill="#F2A470"/>
<path d="M239.722 311.122C239.722 311.122 235.976 350.207 275.444 358.601C275.444 358.601 271.943 386.726 257.535 388.896C243.127 391.066 195.825 388.475 186.278 383.477C186.278 383.477 211.148 340.537 239.722 311.122Z" fill="#21A19A"/>
<path d="M303.211 377.258C303.211 377.258 311.26 387.883 315.6 388.461C319.94 389.04 329.487 391.065 328.619 394.826C327.751 398.587 312.52 400.315 303.211 398.583C293.902 396.851 284.354 401.851 286.525 385.609L282.128 368.986C282.128 368.986 291.906 370.386 302.307 365.826L303.16 374.864L303.211 377.258Z" fill="white"/>
<path d="M219.065 272.397C218.555 261.291 216.718 254.23 206.362 250.187C191.038 244.204 160.759 243.538 141.794 255.057C138.562 257.02 129.947 278.669 137.064 325.58C141.769 356.597 147.289 388.418 184.548 384.594C221.807 380.769 241.506 378.61 239.775 370.105C238.044 361.6 222.258 323.447 221.09 308.93C220.425 300.65 219.628 284.634 219.065 272.397Z" fill="white"/>
<path d="M239.881 273.883C239.881 273.883 176.323 361.924 191.107 375.193C205.891 388.461 219.256 386.316 233.921 383.477C248.585 380.639 268.093 307.744 266.936 299.065C265.779 290.385 257.38 263.746 239.881 273.883Z" fill="#F5A983"/>
<path d="M239.881 273.883C239.881 273.883 240.211 304.683 246.684 328.612C253.158 352.542 261.873 385.609 261.873 385.609H279.231C279.231 385.609 271.854 295.111 272.288 284.069C272.722 273.027 259.759 254.764 239.881 273.883Z" fill="#F5A983"/>
<path d="M215.071 311.122C215.071 311.122 211.325 350.207 250.793 358.601C250.793 358.601 247.292 386.726 232.884 388.896C218.476 391.066 171.174 388.475 161.626 383.477C161.627 383.477 186.496 340.537 215.071 311.122Z" fill="#31C2A7"/>
<path d="M278.56 377.258C278.56 377.258 286.61 387.883 290.949 388.461C295.289 389.04 304.836 391.065 303.968 394.826C303.1 398.587 287.869 400.315 278.56 398.583C269.251 396.851 259.703 401.851 261.874 385.609L257.477 368.986C257.477 368.986 267.255 370.386 277.655 365.826L278.509 374.864L278.56 377.258Z" fill="white"/>
<path d="M305.493 224.216L272.793 227.98C271.84 228.09 271.127 228.553 271.056 229.107L268.622 248.134C268.515 248.968 269.867 249.605 271.28 249.387L303.108 244.471C303.973 244.337 304.609 243.911 304.703 243.402L308.008 225.528C308.158 224.711 306.898 224.054 305.493 224.216Z" fill="#2B4366"/>
<path d="M308.332 223.887L275.632 227.651C274.679 227.761 273.966 228.224 273.895 228.778L271.461 247.805C271.355 248.639 272.706 249.276 274.119 249.057L305.947 244.141C306.811 244.008 307.447 243.581 307.542 243.072L310.847 225.197C310.998 224.382 309.737 223.725 308.332 223.887Z" fill="#071D41"/>
<path d="M142.001 265.739C142.001 265.739 147.362 279.646 182.66 282.854C217.959 286.061 234.263 288.349 256.062 266.659C270.282 252.509 274.411 247.11 274.411 247.11L270.611 239.921C270.611 239.921 233.919 262.345 226.718 262.4C182.038 262.736 138.419 242.51 142.001 265.739Z" fill="#F5A983"/>
<path d="M290.75 236.91C289.418 236.654 286.562 235.577 283.67 234.782C284.534 234.112 285.494 233.288 285.762 232.443C286.277 230.813 286.622 230.289 284.902 230.805C283.182 231.32 277.164 234.081 277.164 234.081C277.164 234.081 277.177 234.087 277.18 234.089C273.76 235.088 270.61 239.921 270.61 239.921L274.41 247.11C274.41 247.11 279.226 244.909 283.01 245.597C286.794 246.285 295.566 245.597 297.457 242.501C299.35 239.404 292.986 237.34 290.75 236.91Z" fill="#FFB27D"/>
<path d="M173.019 243.651C173.019 243.651 161.338 241.492 147.451 249.882C133.564 258.272 137.614 278.234 137.614 278.234L153.815 284.291C153.815 284.291 149.032 257.621 172.797 252.413L173.019 243.651Z" fill="white"/>
<path d="M187.479 256.081C192.407 255.34 194.833 249.81 192.26 245.543C191.434 244.174 190.829 242.682 190.394 241.14C190.265 240.683 190.155 240.233 190.05 239.776C189.224 235.971 189.323 231.983 189.638 228.865C189.664 228.596 189.697 228.34 189.729 228.09C190.087 225.116 190.621 223.099 190.621 223.099L168.843 211.815C169.223 217.53 168.88 222.692 168.216 227.122C167.075 234.681 164.974 240.123 163.881 242.588C163.881 242.588 163.881 242.588 163.881 242.594C163.2 251.31 173.566 253.198 182.326 255.676C183.993 256.146 185.637 256.335 187.188 256.123C187.285 256.109 187.382 256.095 187.479 256.081Z" fill="#F5A983"/>
<path d="M190.393 241.138C181.098 241.979 168.216 227.12 168.216 227.12C177.703 225.418 184.935 226.592 189.639 228.865C189.32 231.986 189.223 235.974 190.05 239.774C190.153 240.231 190.264 240.684 190.393 241.138Z" fill="#E8945B"/>
<path d="M196.103 232.887C196.103 232.887 171.31 239.31 162.859 219.581C153.738 198.288 163.923 182.852 172.337 181.846C189.115 179.841 198.826 186.279 201.741 193.052C204.657 199.824 209.783 229.464 196.103 232.887Z" fill="#F5A983"/>
<path d="M196.149 215.928C196.261 215.872 196.354 215.785 196.418 215.678C196.872 214.934 197.203 214.121 197.401 213.273C197.603 212.15 195.732 209.066 194.606 207.316C194.502 207.16 194.342 207.051 194.159 207.011C193.975 206.972 193.784 207.006 193.627 207.106C193.549 207.156 193.481 207.222 193.427 207.298C193.374 207.374 193.337 207.461 193.317 207.552C193.297 207.643 193.296 207.737 193.314 207.829C193.331 207.92 193.367 208.008 193.418 208.085C194.676 210.026 196.011 212.474 196.002 213.03C195.834 213.694 195.569 214.329 195.214 214.915C195.116 215.074 195.085 215.266 195.129 215.448C195.172 215.631 195.286 215.788 195.446 215.886C195.548 215.956 195.668 215.996 195.792 216.004C195.916 216.012 196.04 215.985 196.149 215.928Z" fill="#D56B49"/>
<path d="M201.25 221.558L201.51 221.416C201.671 221.32 201.789 221.164 201.837 220.981C201.886 220.799 201.86 220.606 201.765 220.442C201.72 220.36 201.659 220.287 201.585 220.229C201.51 220.172 201.425 220.13 201.334 220.106C201.242 220.083 201.148 220.078 201.054 220.094C200.961 220.11 200.873 220.144 200.793 220.195C199.361 220.965 197.786 221.429 196.166 221.558C194.901 221.698 193.621 221.52 192.443 221.038C192.278 220.945 192.084 220.922 191.902 220.972C191.72 221.023 191.566 221.143 191.473 221.308C191.381 221.472 191.357 221.666 191.407 221.849C191.458 222.03 191.578 222.185 191.743 222.277C193.155 222.899 194.705 223.141 196.238 222.979C197.988 222.851 199.694 222.367 201.25 221.558Z" fill="#D56B49"/>
<path d="M201.703 202.448C200.557 202.247 200.117 203.199 200.104 204.115C200.082 205.641 201.315 207.102 202.369 205.784C203.035 204.948 202.626 202.614 201.703 202.448Z" fill="#361A09"/>
<path d="M180.925 206.282C179.779 206.081 179.348 207.033 179.325 207.941C179.303 209.467 180.536 210.928 181.59 209.617C182.255 208.746 181.839 206.403 180.925 206.282Z" fill="#361A09"/>
<path d="M172.837 202.351C173.519 200.791 175.619 200.395 177.074 200.077C178.084 199.858 180.751 199.532 180.616 201.239C180.547 202.111 179.37 202.21 178.718 202.281C176.922 202.531 175.141 202.875 173.381 203.314C173.297 203.329 173.212 203.324 173.13 203.299C173.049 203.275 172.973 203.233 172.911 203.173C172.849 203.115 172.802 203.043 172.772 202.963C172.742 202.884 172.732 202.798 172.741 202.713C172.756 202.588 172.788 202.466 172.837 202.351Z" fill="#522C26"/>
<path d="M198.176 198.479C198.535 199.391 199.819 199.157 200.543 199.007C201.267 198.856 202.535 198.746 203.399 198.648C203.406 198.628 203.405 198.606 203.396 198.587C203.138 197.708 202.865 196.838 202.617 195.997C202.245 196.016 201.784 196.108 201.633 196.116C200.453 196.198 197.506 196.683 198.176 198.479Z" fill="#522C26"/>
<path d="M167.249 226.49C167.249 226.49 164.383 217.954 164.752 213.406C164.752 213.406 158.328 205.137 162.103 203.115C165.877 201.093 167.886 205.977 168.754 205.025C169.621 204.072 171.043 187.887 175.612 188.42C180.183 188.952 197.074 194.273 204.52 187.911C211.966 181.55 194.089 156.48 163.555 165.991C133.02 175.502 139.089 209.431 167.249 226.49Z" fill="#522C26"/>
<path d="M148.452 179.216C148.452 179.216 147.089 175.09 148.586 172.155C148.586 172.155 148.64 176.208 150.223 178.019C151.806 179.83 148.452 179.216 148.452 179.216Z" fill="#522C26"/>
<path d="M149.099 176.339C149.099 176.339 145.329 175.894 143.536 178.786C143.536 178.786 146.2 177.002 148.878 178.919L149.099 176.339Z" fill="#522C26"/>
<path d="M194.764 334.712C194.764 334.712 190.271 377.165 174.647 386.719C159.023 396.273 139.505 361.589 139.283 339.151C139.061 316.712 194.764 334.712 194.764 334.712Z" fill="white"/>
<path d="M202.698 189.14C202.698 189.14 212.735 185.335 208.735 166.335C208.735 166.335 202.86 171.736 189.235 165.973L202.698 189.14Z" fill="#522C26"/>
<path d="M147.884 192.835C147.884 192.835 148.61 205.085 155.11 210.127" stroke="#73453E" stroke-miterlimit="10" stroke-linecap="round" stroke-linejoin="round"/>
<path d="M170.193 182.001C170.193 182.001 177.226 186.558 188.56 187.225C199.894 187.892 204.56 182.001 204.56 182.001" stroke="#73453E" stroke-miterlimit="10" stroke-linecap="round" stroke-linejoin="round"/>
<path d="M168.753 205.024C168.753 205.024 164.703 199.888 160.828 201.61C156.953 203.332 160.175 211.728 164.751 213.405C164.752 213.406 167.553 212.216 168.753 205.024Z" fill="#FF924F"/>
<path opacity="0.5" d="M159.06 140.05H87.0779C82.0209 140.05 77.9219 135.951 77.9219 130.894V94.8337C77.9219 89.7767 82.0209 85.6777 87.0779 85.6777H159.06C164.117 85.6777 168.216 89.7767 168.216 94.8337V130.894C168.216 135.95 164.117 140.05 159.06 140.05Z" fill="white"/>
<path opacity="0.5" d="M397.953 191.804H325.932C320.192 191.804 315.539 187.151 315.539 181.411V146.312C315.539 140.572 320.192 135.919 325.932 135.919H397.953C403.693 135.919 408.346 140.572 408.346 146.312V181.411C408.346 187.151 403.693 191.804 397.953 191.804Z" fill="white"/>
<path opacity="0.5" d="M393.378 319.12H337.435C333.044 319.12 329.485 315.561 329.485 311.17V283.809C329.485 279.418 333.044 275.859 337.435 275.859H393.378C397.769 275.859 401.328 279.418 401.328 283.809V311.17C401.328 315.561 397.769 319.12 393.378 319.12Z" fill="white"/>
<path d="M376.935 313.125H355.31V310.305C355.31 304.333 360.151 299.493 366.122 299.493C372.094 299.493 376.934 304.334 376.934 310.305V313.125H376.935Z" fill="#17DA17"/>
<path d="M366.122 298.354C369.884 298.354 372.934 294.66 372.934 290.104C372.934 285.547 369.884 281.854 366.122 281.854C362.359 281.854 359.31 285.547 359.31 290.104C359.31 294.66 362.359 298.354 366.122 298.354Z" fill="#17DA17"/>
<path d="M325.338 121.4H193.107C188.245 121.4 184.303 117.458 184.303 112.596V39.9759C184.303 35.1139 188.245 31.1719 193.107 31.1719H325.338C330.2 31.1719 334.142 35.1139 334.142 39.9759V112.596C334.142 117.458 330.2 121.4 325.338 121.4Z" fill="white"/>
<path d="M119.106 247.109C127.166 247.109 133.7 240.575 133.7 232.515C133.7 224.455 127.166 217.921 119.106 217.921C111.046 217.921 104.512 224.455 104.512 232.515C104.512 240.575 111.046 247.109 119.106 247.109Z" fill="white"/>
<path d="M119.573 242.437L109.318 234.284L111.442 231.613L118.353 237.107L125.149 223.01L128.223 224.492L119.573 242.437Z" fill="#17DA17"/>
<path d="M279.231 158.263C285.043 158.263 289.755 153.551 289.755 147.739C289.755 141.927 285.043 137.215 279.231 137.215C273.419 137.215 268.707 141.927 268.707 147.739C268.707 153.551 273.419 158.263 279.231 158.263Z" fill="white"/>
<path d="M279.569 154.894L272.174 149.014L273.706 147.088L278.69 151.05L283.59 140.884L285.806 141.953L279.569 154.894Z" fill="#17DA17"/>
<path d="M394.419 294.061C405.656 294.061 414.765 284.952 414.765 273.715C414.765 262.478 405.656 253.369 394.419 253.369C383.182 253.369 374.073 262.478 374.073 273.715C374.073 284.952 383.182 294.061 394.419 294.061Z" fill="white"/>
<path d="M395.072 287.547L380.775 276.18L383.736 272.456L393.371 280.117L402.845 260.462L407.13 262.529L395.072 287.547Z" fill="#17DA17"/>
<path d="M107.152 101.083H102.789C101.545 101.083 101.293 101.667 101.293 102.31C101.293 103.46 102.772 109.162 108.18 116.702C111.788 121.855 116.864 124.644 121.489 124.644C124.261 124.644 124.604 124.025 124.604 122.956V119.065C124.604 117.824 124.866 117.576 125.744 117.576C126.391 117.576 127.502 117.898 130.089 120.383C133.046 123.326 133.536 124.644 135.2 124.644H139.563C140.807 124.644 141.433 124.025 141.073 122.802C140.678 121.582 139.266 119.813 137.392 117.716C136.375 116.52 134.85 115.231 134.389 114.587C133.742 113.758 133.928 113.391 134.389 112.657C134.389 112.657 139.703 105.207 140.258 102.676C140.534 101.757 140.258 101.082 138.937 101.082H134.578C133.466 101.082 132.956 101.666 132.68 102.309C132.68 102.309 130.46 107.689 127.317 111.185C126.3 112.195 125.838 112.517 125.282 112.517C125.006 112.517 124.604 112.195 124.604 111.276V102.676C124.604 101.571 124.282 101.082 123.356 101.082H116.501C115.809 101.082 115.393 101.592 115.393 102.078C115.393 103.123 116.963 103.364 117.127 106.308V112.702C117.127 114.104 116.872 114.359 116.316 114.359C114.837 114.359 111.24 108.951 109.108 102.767C108.687 101.569 108.268 101.083 107.152 101.083Z" fill="#50E217"/>
<path d="M377.542 155.31C375.987 155.265 374.567 154.708 373.439 153.806C372.146 152.771 371.239 151.282 370.952 149.588C370.881 149.169 370.849 148.738 370.857 148.298L366.414 148.17L366.064 160.31L365.867 166.96C365.816 168.738 364.614 170.212 362.994 170.696C362.524 170.836 362.019 170.895 361.496 170.851C360.828 170.795 360.208 170.575 359.673 170.234C358.534 169.508 357.785 168.228 357.805 166.789C357.836 164.54 359.706 162.76 361.953 162.825C362.396 162.838 362.82 162.923 363.215 163.066L363.311 159.748L363.345 158.555C362.926 158.481 362.499 158.436 362.067 158.423C359.608 158.352 357.28 159.308 355.583 161.101C354.3 162.456 353.504 164.21 353.335 166.068C353.114 168.509 353.941 170.859 355.627 172.624C355.875 172.883 356.136 173.124 356.409 173.348C357.864 174.536 359.664 175.209 361.58 175.264C362.013 175.277 362.442 175.257 362.864 175.207C364.661 174.994 366.336 174.222 367.676 172.972C369.323 171.436 370.268 169.36 370.342 167.125L370.606 157.194C371.353 157.805 372.174 158.317 373.059 158.721C374.436 159.349 375.905 159.69 377.427 159.734L377.52 156.508L377.555 155.311C377.556 155.311 377.543 155.31 377.542 155.31Z" fill="#17DA17"/>
<path d="M64 299.831C64 299.831 80.951 326.203 113.675 301.281L115.708 306.482L122.32 289.896L105.72 291.387L109.662 295.298C109.662 295.298 84.212 319.723 64 299.831Z" fill="#17DA17"/>
<path d="M159.276 47.5415C159.276 47.5415 129.061 20.0196 96.2173 62.4096L91.9093 56.5415L89.1543 79.6555L109.563 72.1986L103.284 68.5966C103.283 68.5956 127.133 29.2775 159.276 47.5415Z" fill="#17DA17"/>
<path d="M206.204 170.559C206.204 170.559 204.56 180.809 191.81 180.476" stroke="#73453E" stroke-miterlimit="10" stroke-linecap="round" stroke-linejoin="round"/>
<path d="M87.4233 199.17H80.4893V194.534H87.4233V187.439H92.6233V194.534H99.4773V199.17H92.6233V206.306H87.4233V199.17Z" fill="white"/>
<path d="M155.066 40.8902H148.132V36.2542H155.066V29.1592H160.266V36.2542H167.12V40.8902H160.266V48.0262H155.066V40.8902Z" fill="white"/>
<path d="M417.094 195.652H410.16V191.016H417.094V183.921H422.294V191.016H429.148V195.652H422.294V202.788H417.094V195.652Z" fill="white"/>
<path d="M329.094 339.792H322.16V335.156H329.094V328.061H334.294V335.156H341.148V339.792H334.294V346.928H329.094V339.792Z" fill="white"/>
<path d="M404.113 73.2237C393.058 80.2917 378.368 77.0597 371.3 66.0047C364.231 54.9497 367.464 40.2587 378.518 33.1907C389.573 26.1227 404.263 29.3547 411.333 40.4097C418.401 51.4647 415.168 66.1557 404.113 73.2237Z" fill="white"/>
<path d="M408.43 53.2078H405.159V45.1208C405.159 42.0168 402.63 39.4868 399.523 39.4868C396.419 39.4868 393.891 42.0168 393.891 45.1208V53.2078H390.62V45.1208C390.62 40.2108 394.614 36.2168 399.523 36.2168C404.436 36.2168 408.429 40.2108 408.429 45.1208V53.2078H408.43Z" fill="#17DA17"/>
<path d="M374.203 52.9086V65.5056C374.203 66.7136 375.178 67.6866 376.385 67.6866H394.667C395.874 67.6866 396.849 66.7136 396.849 65.5056V52.9086C396.849 51.7026 395.874 50.7256 394.667 50.7256H376.385C375.178 50.7256 374.203 51.7026 374.203 52.9086Z" fill="#17DA17"/>
<path d="M387.423 57.3862C387.423 56.3412 386.575 55.4922 385.526 55.4922C384.476 55.4922 383.628 56.3412 383.628 57.3862C383.628 58.1312 384.061 58.7712 384.683 59.0832V62.0872C384.683 62.5502 385.061 62.9272 385.525 62.9272C385.988 62.9272 386.366 62.5502 386.366 62.0872V59.0832C386.99 58.7712 387.423 58.1312 387.423 57.3862Z" fill="white"/>
<path d="M92.1338 162.036C84.2368 167.085 73.7428 164.776 68.6948 156.879C63.6448 148.982 65.9548 138.488 73.8508 133.439C81.7478 128.39 92.2418 130.699 97.2918 138.595C102.34 146.493 100.031 156.987 92.1338 162.036Z" fill="white"/>
<path d="M95.2171 147.739H92.8811V141.962C92.8811 139.744 91.0751 137.937 88.8551 137.937C86.6371 137.937 84.8321 139.744 84.8321 141.962V147.739H82.4951V141.962C82.4951 138.454 85.3481 135.602 88.8551 135.602C92.3651 135.602 95.2171 138.455 95.2171 141.962V147.739Z" fill="#17DA17"/>
<path d="M70.7676 147.525V156.524C70.7676 157.387 71.4646 158.082 72.3266 158.082H85.3856C86.2476 158.082 86.9436 157.387 86.9436 156.524V147.525C86.9436 146.664 86.2466 145.966 85.3856 145.966H72.3266C71.4646 145.966 70.7676 146.664 70.7676 147.525Z" fill="#17DA17"/>
<path d="M80.212 150.724C80.212 149.978 79.606 149.371 78.857 149.371C78.107 149.371 77.501 149.978 77.501 150.724C77.501 151.256 77.81 151.713 78.255 151.936V154.082C78.255 154.413 78.525 154.682 78.857 154.682C79.188 154.682 79.458 154.413 79.458 154.082V151.936C79.903 151.713 80.212 151.256 80.212 150.724Z" fill="white"/>
<path d="M308.02 251.77C303.968 251.982 300.974 251.658 297.328 249.819C297.297 249.803 297.402 248.637 297.408 248.607C297.925 246.174 299.823 244.713 303.271 243.612C307.123 244.303 308.489 248.265 308.02 251.77Z" fill="#E7FFFF"/>
<path d="M322.043 228.826C322.252 230.776 324.804 237.116 324.837 238.102C324.868 239.013 324.285 240.561 320.849 240.679C317.539 240.792 315.708 239.077 315.708 239.077L312.915 230.295C313.277 229.394 321.865 227.169 322.043 228.826Z" fill="#F39E7E"/>
<path d="M325.095 247.857C325.028 248.297 321.039 249.408 320.926 249.437C316.976 250.461 312.496 251.537 308.02 251.771C308.489 248.266 307.122 244.304 303.271 243.612C304.957 243.073 306.706 242.67 308.199 242.375C308.287 242.357 311.376 241.501 312.702 240.803C315.25 239.462 314.986 237.516 315.554 237.445C316 237.328 317.055 237.409 317.821 238.06C318.059 238.263 317.997 239.969 317.997 239.969C317.997 239.969 318.991 238.337 319.433 238.301C320.237 238.235 320.941 238.478 321.938 238.433C323.846 238.347 324.87 237.665 324.908 237.808C325.765 241.043 325.564 244.751 325.095 247.857Z" fill="#005E7F"/>
<path d="M308.582 251.738C308.278 251.758 307.974 251.774 307.67 251.787C308.167 248.002 306.631 244.662 302.998 243.701C303.492 243.543 303.633 243.488 304.236 243.32C307.458 244.717 309.007 248.112 308.582 251.738Z" fill="#107F8C"/>
<path d="M325.445 244.886C324.354 243.328 321.956 244.362 320.793 245.606C319.536 246.95 318.506 248.628 318.184 250.454C318.149 250.654 318.013 250.768 317.859 250.812C317.839 250.816 317.818 250.821 317.797 250.826C317.528 250.867 317.231 250.702 317.291 250.361C317.724 247.908 319.359 245.117 321.547 243.815C322.784 243.079 324.395 242.993 325.501 243.712C325.486 244.114 325.456 244.486 325.445 244.886Z" fill="#107F8C"/>
<path d="M324.774 248.673C323.273 249.321 321.969 249.76 320.394 250.197C320.353 250.237 312.624 252.279 308.03 252.49C302.711 252.733 300.157 252.26 297.52 250.818C297.063 250.568 297.327 249.822 297.327 249.822C299.292 250.891 304.639 251.827 308.675 251.656C312.488 251.495 319.943 249.482 320.019 249.461C321.64 249.019 323.462 248.317 325.095 247.765C325.289 247.698 325.25 248.468 324.774 248.673Z" fill="#E7FFFF"/>
<path d="M311.359 245.05C310.523 244.356 309.687 243.662 308.851 242.968C308.451 242.636 308.912 241.968 309.314 242.302C310.15 242.996 310.986 243.69 311.822 244.384C312.222 244.715 311.761 245.384 311.359 245.05Z" fill="#E7FFFF"/>
<path d="M313.441 244.07C312.667 243.372 311.844 242.741 310.969 242.174C310.531 241.89 311.056 241.27 311.489 241.55C312.364 242.117 313.186 242.748 313.96 243.447C314.349 243.797 313.829 244.421 313.441 244.07Z" fill="#E7FFFF"/>
<path d="M315.093 242.512C314.4 242.172 313.733 241.789 313.091 241.361C312.656 241.071 313.105 240.394 313.54 240.684C314.182 241.112 314.849 241.495 315.542 241.835C316.01 242.065 315.556 242.739 315.093 242.512Z" fill="#E7FFFF"/>
<path d="M316.517 241.267C315.824 240.927 315.157 240.544 314.515 240.116C314.08 239.825 314.529 239.149 314.964 239.439C315.606 239.867 316.273 240.25 316.966 240.59C317.435 240.819 316.98 241.493 316.517 241.267Z" fill="#E7FFFF"/>
<path d="M272.537 70.3154C274.121 69.3944 276.181 69.0674 276.181 69.0674C276.181 69.0674 278.125 79.5864 274.079 89.2234C269.975 98.9994 259.872 107.894 259.048 107.677C255.097 106.64 249.863 103.667 248.887 100.363C248.657 99.5844 255.631 90.3164 256.072 89.6344C258.887 85.2774 270.138 71.7094 272.537 70.3154Z" fill="#21A19A"/>
<path d="M250.663 98.2842L244.35 104.836C244.35 104.836 249.992 115.088 253.591 112.645C257.19 110.201 260.265 107.042 260.265 107.042L250.663 98.2842Z" fill="#F19984"/>
<path d="M248.581 99.6263C254.456 101.497 260.006 108.417 260.006 108.417L265.683 102.183C265.683 102.183 262.205 97.5713 259.006 94.9343C255.807 92.2963 253.66 92.3184 253.66 92.3184L248.581 99.6263Z" fill="#31C2A7"/>
<path d="M256.42 91.1405C256.246 91.0075 256.213 90.7585 256.346 90.5855L261.47 83.8975C261.603 83.7245 261.851 83.6905 262.025 83.8235C262.199 83.9565 262.232 84.2055 262.099 84.3785L256.975 91.0665C256.897 91.1685 256.779 91.2215 256.66 91.2215C256.576 91.2225 256.492 91.1955 256.42 91.1405Z" fill="#107F8C"/>
<path d="M257.009 108.693C256.444 111.287 253.629 113.022 251.069 112.461C249.542 112.124 248.437 110.816 247.349 109.794C244.556 107.169 239.674 101.565 235.886 97.1939C234.724 95.8589 233.668 94.6439 232.808 93.6579C232.808 93.6579 232.808 93.6579 232.805 93.6509C232.24 93.0169 231.761 92.4869 231.388 92.0759L230.879 84.3799C230.879 84.3799 231.845 85.0259 233.32 86.0239C234.469 86.8009 235.928 87.7969 237.485 88.8689C240.921 91.2359 244.843 94.0019 246.973 95.7049C249.805 97.9829 252.625 100.163 255.021 102.918C256.468 104.57 257.498 106.453 257.009 108.693Z" fill="#F19984"/>
<path d="M234.958 92.2432C234.958 92.2432 232.574 93.0622 230.839 92.4242C229.103 91.7862 228.074 90.9652 227.095 90.7042C226.116 90.4442 222.587 91.1063 221.78 90.8413C220.972 90.5763 221.459 89.4772 221.459 89.4772C221.459 89.4772 220.086 89.4552 219.05 89.1962C218.014 88.9362 218.099 87.7912 218.099 87.7912C218.099 87.7912 217.215 86.7852 218.056 86.1342C218.897 85.4832 222.989 84.5202 222.584 84.3062C222.178 84.0922 218.425 85.7452 218.298 84.4172C218.194 83.3292 220.3 82.4683 221.664 81.8673C222.95 81.2993 225.647 81.0782 227.421 81.2042C229.195 81.3302 233.693 87.0473 233.693 87.0473L234.958 92.2432Z" fill="#F19984"/>
<path d="M225.795 83.1607C225.795 83.1607 218.633 83.0767 220.082 84.9437C221.531 86.8107 228.108 86.6157 228.108 86.6157" fill="#F19984"/>
<path d="M225.271 83.1741L227.557 83.1592" stroke="#E27E66" stroke-width="2.1427" stroke-miterlimit="10" stroke-linecap="round"/>
<path d="M224.342 83.1598C224.342 83.1598 217.897 83.0757 219.201 84.9427C220.505 86.8107 226.424 86.6147 226.424 86.6147" fill="#CD8272"/>
<path d="M222.842 67.6558C222.851 67.4968 222.863 67.3379 222.876 67.1789C222.988 65.8609 223.735 64.0199 223.456 62.7279C223.442 62.6619 223.427 62.5959 223.413 62.5299C222.685 59.1779 221.684 55.7638 221.376 52.3358C221.121 49.4608 221.831 46.7479 223.838 44.6179C224.498 43.9149 225.238 43.3298 226.035 42.8458C226.853 42.3468 227.732 41.9599 228.649 41.6659C229.558 41.3699 230.509 41.1699 231.468 41.0529C234.997 39.7959 238.598 40.4379 241.636 42.2259C244.223 43.1889 246.576 44.6119 248.192 46.9959C248.814 47.9139 249.29 48.9409 249.528 50.0269C249.796 51.2499 249.494 52.4708 249.692 53.6818C249.905 54.9808 251.017 55.7949 251.672 56.8659C252.253 57.8159 252.35 58.9139 252.169 59.9959C251.97 61.1879 251.28 62.6099 250.83 64.0219C250.941 64.5299 251.082 65.0299 251.269 65.5189C252.049 67.5509 253.723 68.6399 255.092 70.2179C256.543 71.8949 256.474 74.2639 258.117 75.7859C258.164 75.8308 258.215 75.8779 258.262 75.9259C258.913 76.5599 259.559 77.3869 259.862 78.1989C259.495 78.3419 259.148 78.5229 258.823 78.7509C257.713 79.5369 257.158 80.4009 255.793 80.8809C254.681 81.2699 253.525 81.5548 252.394 81.8858C250.013 82.5748 248.189 83.6458 246.036 84.8278C245.793 84.4288 245.57 84.0158 245.368 83.5958C245.302 83.4638 245.241 83.3348 245.179 83.2008C244.909 82.6248 244.66 82.0409 244.409 81.4599C243.697 79.8209 242.982 78.1828 242.273 76.5438C242.197 76.3718 242.125 76.2028 242.05 76.0308C241.878 75.6358 241.702 75.2378 241.53 74.8388C241.358 74.4398 241.182 74.0418 241.004 73.6488C239.953 74.0688 238.844 74.3449 237.791 74.4929C236.44 74.6819 234.776 74.8899 233.417 74.4649C233.415 74.4689 233.415 74.4719 233.416 74.4759C233.397 74.5409 233.338 74.6018 233.271 74.6148C231.608 74.9108 229.741 75.1319 228.205 74.5669C227.437 75.4049 226.283 75.8098 225.179 75.0568C223.123 73.6528 222.71 69.9238 222.842 67.6558Z" fill="#6A433E"/>
<path d="M236.999 68.8917L237.186 78.1406L231.867 80.3746L226.652 78.0707L227.527 61.5146L235.75 65.7606L236.999 68.8917Z" fill="#FFA587"/>
<path d="M243.249 66.9686L244.162 66.7356C244.374 66.6816 244.502 66.4656 244.448 66.2536L243.012 60.6206C242.958 60.4086 242.742 60.2806 242.53 60.3346L241.616 60.5676C241.404 60.6216 241.276 60.8376 241.33 61.0496L242.766 66.6826C242.821 66.8936 243.037 67.0226 243.249 66.9686Z" fill="#8F0051"/>
<path d="M243.273 53.9124C243.273 53.9124 243.177 62.7464 242.789 64.1294C242.401 65.5124 238.811 70.8594 236.036 70.3334C233.261 69.8074 227.459 65.2514 227.459 65.2514L224.754 56.5544C224.754 56.5544 225.109 51.8594 225.625 51.1974C226.141 50.5344 232.594 44.5944 233.542 44.8394C234.49 45.0844 236.958 45.6504 238.41 46.9624C239.863 48.2744 243.273 53.9124 243.273 53.9124Z" fill="#FFA587"/>
<path d="M233.786 58.9317C233.853 58.2107 233.63 57.5997 233.287 57.5677C232.944 57.5357 232.612 58.0948 232.545 58.8158C232.478 59.5368 232.701 60.1477 233.044 60.1797C233.386 60.2127 233.719 59.6537 233.786 58.9317Z" fill="#36303A"/>
<path d="M240.885 59.295C240.818 60.016 240.486 60.575 240.143 60.543C239.8 60.511 239.577 59.9 239.644 59.179C239.711 58.458 240.044 57.899 240.386 57.931C240.73 57.963 240.953 58.574 240.885 59.295Z" fill="#36303A"/>
<path d="M240.087 55.1356C241.19 54.8706 242.926 55.0656 243.577 56.1266C243.612 56.1836 243.62 56.2616 243.585 56.3206C243.296 56.8026 242.336 56.2946 241.926 56.2296C241.292 56.1296 240.697 56.1646 240.066 56.1576C239.843 56.1556 239.612 56.1806 239.447 55.9866C239.05 55.5216 239.74 55.2186 240.087 55.1356Z" fill="#6A433E"/>
<path d="M234.537 55.9844C234.358 56.1644 234.129 56.1214 233.907 56.1054C233.277 56.0614 232.689 55.9804 232.05 56.0294C231.637 56.0604 230.641 56.4914 230.392 55.9874C230.362 55.9264 230.376 55.8484 230.415 55.7954C231.147 54.7914 232.891 54.7354 233.967 55.0864C234.305 55.1964 234.968 55.5524 234.537 55.9844Z" fill="#6A433E"/>
<path d="M224.462 58.8274C224.092 56.6774 223.839 54.4904 224.304 52.3724C224.201 52.1364 223.93 52.0184 223.793 51.8014C223.656 51.5834 223.863 51.1804 224.072 51.3304C223.975 49.6714 223.879 47.9884 224.229 46.3634C224.579 44.7394 225.438 43.1524 226.859 42.2904C228.177 41.4914 229.841 41.4064 231.333 41.7944C231.885 40.9114 233.116 40.7894 234.152 40.8934C236.072 41.0864 237.942 41.7364 239.574 42.7644C239.954 43.0044 240.39 43.2554 240.691 43.5924C240.979 43.9164 241.41 44.1254 241.744 44.4074C242.483 45.0314 243.101 45.7904 243.602 46.6144C244.084 47.4054 244.462 48.2584 244.747 49.1394C245.463 51.3504 245.628 53.6964 245.788 56.0144C245.914 57.8324 246.039 59.6504 246.165 61.4674C246.202 62.0004 246.237 62.5484 246.081 63.0594C245.925 63.5714 245.533 64.0464 245.006 64.1414C245.162 64.3304 244.962 64.6734 244.72 64.6314C243.865 62.6194 243.746 60.3864 243.411 58.2264C243.076 56.0664 242.645 54.9844 241.044 53.4954C238.566 51.1904 234.419 51.2904 232.177 48.7554C231.696 50.1234 230.345 50.9454 229.273 51.9224C228.348 52.7654 227.385 52.6204 226.843 53.7494C226.416 53.4494 225.779 53.6894 225.489 54.1234C225.199 54.5574 225.172 55.1124 225.192 55.6344C225.225 56.4864 225.359 57.3334 225.589 58.1544C225.761 58.7654 225.992 59.3714 226.373 59.8784C226.562 60.1304 226.787 60.3564 226.949 60.6264C227.129 60.9274 227.224 61.2694 227.308 61.6094C227.535 62.5194 227.389 66.5024 226.973 66.6374C225.574 64.7694 225.112 62.3844 224.688 60.0894C224.612 59.6704 224.535 59.2494 224.462 58.8274Z" fill="#6A433E"/>
<path d="M237.165 70.6266C237.701 70.4896 237.928 70.3196 237.962 70.2926C238.07 70.2056 238.087 70.0486 238 69.9406C237.914 69.8336 237.758 69.8166 237.651 69.8996C237.638 69.9096 237.215 70.2096 236.071 70.2856C235.209 70.3426 231.392 67.7056 229.189 66.0296C229.078 65.9456 228.921 65.9676 228.838 66.0776C228.754 66.1876 228.776 66.3446 228.885 66.4286C229.484 66.8836 234.773 70.8736 236.104 70.7856C236.546 70.7556 236.894 70.6956 237.165 70.6266Z" fill="#ED835C"/>
<path d="M237.317 63.2003C237.507 63.1523 237.681 63.0623 237.812 62.9083C238.247 62.3963 237.803 59.0554 237.592 57.6434C237.572 57.5064 237.443 57.4124 237.306 57.4324C237.171 57.4534 237.075 57.5803 237.096 57.7173C237.41 59.8133 237.627 62.2714 237.428 62.5894C237.188 62.8704 236.427 62.7094 236.18 62.6304C236.049 62.5884 235.907 62.6604 235.865 62.7924C235.823 62.9234 235.895 63.0644 236.026 63.1074C236.122 63.1374 236.78 63.3373 237.317 63.2003Z" fill="#FFA587"/>
<path d="M225.907 60.0496C226.072 60.6956 226.532 61.1357 226.935 61.0327C227.338 60.9297 227.531 60.3237 227.366 59.6777C227.201 59.0317 226.741 58.5916 226.338 58.6946C225.936 58.7976 225.743 59.4046 225.907 60.0496Z" fill="white"/>
<path d="M228.079 67.4286L228.993 67.1956C229.205 67.1416 229.333 66.9255 229.279 66.7135L227.842 61.0805C227.788 60.8685 227.572 60.7406 227.36 60.7946L226.446 61.0276C226.234 61.0816 226.106 61.2976 226.16 61.5096L227.597 67.1425C227.651 67.3545 227.867 67.4826 228.079 67.4286Z" fill="#8F0051"/>
<path d="M231.992 48.1431C232.079 48.1211 232.133 48.0341 232.114 47.9461C232.104 47.8991 231.861 46.7841 231.356 46.2161C231.159 45.9951 230.969 45.8861 230.802 45.7901C230.543 45.6421 230.339 45.5241 230.166 44.9931C230.042 44.6131 229.942 44.2241 229.853 43.8811C229.719 43.3631 229.604 42.9161 229.445 42.6231C229.165 42.1041 228.488 41.874 228.459 41.864C228.371 41.835 228.277 41.8821 228.248 41.9691C228.219 42.0561 228.266 42.1511 228.353 42.1801C228.359 42.1821 228.934 42.3791 229.151 42.7811C229.29 43.0391 229.401 43.4681 229.529 43.9641C229.619 44.3111 229.72 44.7061 229.847 45.0961C230.06 45.7491 230.352 45.9171 230.634 46.0781C230.794 46.1701 230.944 46.2561 231.105 46.4361C231.552 46.9371 231.784 48.0031 231.786 48.0131C231.805 48.1031 231.894 48.1611 231.984 48.1411C231.988 48.1441 231.99 48.1431 231.992 48.1431Z" fill="#36303A"/>
<path d="M254.77 81.7344C254.771 81.7344 254.772 81.7344 254.773 81.7334C254.862 81.7094 254.914 81.6164 254.89 81.5284C254.864 81.4324 254.232 79.1604 252.96 77.4854C252.559 76.9584 252.162 76.4724 251.742 75.9584C250.84 74.8564 249.908 73.7164 248.885 72.0754C248.113 70.8354 248.056 69.8594 247.997 68.8274C247.944 67.9224 247.89 66.9864 247.311 65.8904C246.717 64.7674 246.152 64.1454 245.697 63.6464C245.22 63.1224 244.876 62.7444 244.696 62.0394C244.561 61.5094 244.573 60.7664 244.587 59.9054C244.611 58.4574 244.64 56.6554 244.002 54.8084C242.973 51.8314 239.846 50.8924 239.714 50.8544C239.625 50.8284 239.533 50.8794 239.507 50.9684C239.481 51.0564 239.532 51.1494 239.621 51.1754C239.652 51.1844 242.716 52.1074 243.687 54.9184C244.306 56.7094 244.277 58.4784 244.254 59.9004C244.24 60.7854 244.227 61.5494 244.373 62.1224C244.573 62.9084 244.961 63.3334 245.451 63.8714C245.893 64.3574 246.443 64.9614 247.017 66.0464C247.563 67.0774 247.612 67.9364 247.665 68.8464C247.725 69.8754 247.786 70.9394 248.603 72.2514C249.637 73.9104 250.576 75.0584 251.484 76.1684C251.903 76.6794 252.298 77.1634 252.694 77.6854C253.926 79.3084 254.562 81.5914 254.568 81.6144C254.592 81.7044 254.682 81.7564 254.77 81.7344Z" fill="#36303A"/>
<path d="M246.292 57.1447C246.364 57.1267 246.417 57.0608 246.417 56.9828C246.417 56.8468 246.388 53.6147 243.668 50.2707C240.937 46.9147 236.594 46.7268 236.551 46.7248C236.458 46.7208 236.381 46.7937 236.378 46.8857C236.375 46.9777 236.447 47.0558 236.539 47.0588C236.581 47.0598 240.776 47.2457 243.409 50.4817C246.051 53.7287 246.084 56.9508 246.084 56.9828C246.084 57.0748 246.159 57.1498 246.251 57.1498C246.265 57.1498 246.279 57.1477 246.292 57.1447Z" fill="#36303A"/>
<path d="M226.449 52.8473C226.48 52.8393 226.509 52.8223 226.532 52.7963C226.541 52.7873 227.384 51.8483 228.879 50.9503C230.44 50.0123 231.173 48.5653 231.204 48.5043C231.245 48.4213 231.211 48.3223 231.129 48.2803C231.047 48.2393 230.946 48.2723 230.905 48.3553C230.898 48.3693 230.182 49.7783 228.707 50.6633C227.165 51.5893 226.317 52.5333 226.282 52.5733C226.221 52.6423 226.227 52.7473 226.296 52.8083C226.34 52.8493 226.397 52.8613 226.449 52.8473Z" fill="#36303A"/>
<path d="M241.476 73.351C241.482 73.349 241.488 73.348 241.494 73.345C241.58 73.312 241.624 73.2161 241.591 73.1301C241.584 73.1131 240.937 71.3891 240.689 70.1251C240.442 68.8621 240.402 68.477 240.402 68.473C240.393 68.381 240.311 68.3141 240.22 68.3231C240.125 68.3341 240.061 68.4141 240.07 68.5051C240.072 68.5211 240.11 68.9021 240.362 70.1881C240.615 71.4801 241.251 73.176 241.279 73.247C241.309 73.329 241.395 73.372 241.476 73.351Z" fill="#36303A"/>
<path d="M237.449 59.0557C237.763 61.1517 237.944 62.4376 237.511 62.7136C237.271 62.9946 236.511 62.8336 236.264 62.7546" stroke="#ED835C" stroke-opacity="0.2" stroke-width="1.5775" stroke-miterlimit="10" stroke-linecap="round"/>
<path d="M245.618 240.58C245.618 240.58 244.246 240.151 243.43 238.778C242.615 237.405 242.186 236.119 242.186 236.119C242.186 236.119 242.357 235.904 241.585 236.548C240.813 237.192 239.783 238.994 239.826 240.323C239.869 241.652 238.882 242.725 240.941 242.982C243 243.239 245.488 242.253 245.617 242.124C245.746 241.996 245.618 240.58 245.618 240.58Z" fill="#FFA587"/>
<path d="M244.331 224.824L242.572 241.521H237.307L236.495 223.337L244.331 224.824Z" fill="#FFA587"/>
<path d="M219.111 222.531L215.628 240.389L210.336 239.026L211.475 220.229L219.111 222.531Z" fill="#FFA587"/>
<path d="M242.1 76.9802C242.1 76.9802 239.937 76.3792 238.745 75.0502C237.553 73.7202 236.629 72.6902 236.629 72.6902L227.901 71.6611C227.901 71.6611 225.971 72.9912 224.469 73.8492C222.968 74.7072 222.024 74.8351 222.024 74.8351C222.024 74.8351 224.633 78.7392 225.624 79.0822C226.614 79.4252 229.188 80.5832 231.633 80.5832C234.078 80.5832 235.108 81.0122 237.467 79.8112C239.827 78.6102 242.1 76.9802 242.1 76.9802Z" fill="#FFA587"/>
<path d="M203.697 114.276C203.767 110.133 204.988 106.084 205.279 101.952C205.567 97.85 205.676 95.109 205.932 91.004C206.158 87.376 206.607 85.406 208.209 82.119C208.865 79.617 211.047 78.009 213.364 77.085C215.036 76.417 216.766 75.907 218.502 75.437C219.374 75.201 220.248 74.975 221.122 74.745C221.761 74.576 222.491 73.983 223.159 74.286C223.709 74.535 224.051 75.151 224.5 75.536C225.102 76.052 225.773 76.486 226.453 76.896C227.574 77.572 228.787 78.094 230.049 78.444C232.567 79.143 235.263 79.147 237.781 78.45C238.581 78.229 239.353 77.918 240.113 77.588C240.409 77.46 240.726 77.357 241.007 77.199C241.287 77.041 241.481 76.806 241.756 76.638C242.356 76.271 242.763 76.712 243.307 76.94C243.885 77.182 244.463 77.423 245.041 77.667C246.227 78.168 247.408 78.68 248.57 79.237C250.85 80.33 252.612 81.961 254.177 83.914C255.568 85.65 255.98 87.8591 256.736 89.9801C257.53 92.2051 258.509 93.072 259.031 95.382C259.489 97.41 258.892 101.351 259.701 103.338C260.531 105.375 261.832 109.194 261.977 111.425C262.109 113.453 261.812 115.616 260.907 117.453C259.981 119.331 258.324 120.564 256.206 120.677C255.942 120.691 255.681 120.686 255.422 120.67C255.874 120.698 256.815 124.42 256.948 124.902C257.732 127.723 258.555 131.262 258.025 134.194C257.03 139.69 251.65 141.915 251.368 141.235C250.975 140.287 251.725 127.701 250.465 124.633C246.301 122.664 241.503 122.61 236.958 122.681C232.455 122.751 227.958 123.042 223.483 123.543C222.058 127.776 220.634 132.009 219.21 136.241L218.006 139.818C217.746 140.592 217.552 141.668 216.875 142.211C216.739 142.32 216.582 142.391 216.421 142.43C216.406 142.522 216.331 142.599 216.22 142.555C216.149 142.526 216.081 142.495 216.011 142.464C215.687 142.438 215.392 142.292 215.234 142.06C210.958 142.568 210.138 137.882 209.843 134.371C209.497 130.262 210.935 123.988 211.585 119.92C210.531 120.139 209.448 120.226 208.361 120.159C207.047 120.078 205.56 119.805 204.662 118.75C203.664 117.575 203.672 115.725 203.697 114.276Z" fill="#B40057"/>
<path d="M237.861 74.3607C237.889 74.1297 237.935 73.9147 237.994 73.7107C237.872 72.8577 237.81 71.9937 237.754 71.1407C237.739 70.9237 238.076 70.8537 238.091 71.0747C238.134 71.7207 238.182 72.3817 238.258 73.0387C239.672 70.3077 244.21 70.5847 246.752 71.5477C249.357 72.5337 251.543 74.4517 252.862 76.8737C254.755 78.3957 256.557 80.1747 256.928 82.6727C257.127 84.0117 256.72 85.6877 255.722 86.5417C254.451 86.3397 253.281 85.8337 251.976 85.7627C250.594 85.6867 249.352 85.9817 248.039 86.3767C247.51 86.5357 246.869 86.7497 246.239 86.8347C246.018 86.7087 245.814 86.5457 245.635 86.3357C244.793 85.3517 244.847 83.9117 244.316 82.7807C243.683 81.4317 242.381 80.5937 241.256 79.6907C240.101 78.7647 239.182 77.7197 238.64 76.3227C238.412 75.7337 238.25 75.1247 238.129 74.5077C238.022 74.5777 237.842 74.5237 237.861 74.3607Z" fill="#6A433E"/>
<path d="M220.601 225.68C216.491 225.61 214.113 225.289 210.092 224.37C209.484 224.231 208.877 224.089 208.27 223.944C208.554 211.803 208.651 200.627 209.616 186.426C210.442 174.262 210.231 162.729 211.273 150.582C212.56 135.568 215.82 122.356 215.82 122.356C227.033 120.141 239.387 119.078 250.395 122.699C250.395 122.699 253.589 135.267 253.584 140.398C253.578 147.332 253.448 154.265 253.195 161.195C252.688 175.054 251.519 188.855 250.025 202.642C249.546 207.066 247.534 223.671 247.452 224.233C247.401 224.583 247.434 225.496 247.194 225.754C247.173 225.777 247.146 225.795 247.123 225.816C244.583 226.206 241.994 226.21 239.436 226.014C238.878 225.971 233.907 225.49 233.88 225.166C232.283 206.141 232.505 177.687 232.851 158.598C230.294 172.753 221.889 220.819 220.601 225.68Z" fill="#015E7E"/>
<path d="M222.997 120.956C222.997 120.956 218.822 141.89 214.761 142.119C210.7 142.348 210.123 136.656 210.123 136.656C210.123 136.656 212.931 123.587 212.988 123.415C213.045 123.243 215.161 119.812 216.82 119.812C218.479 119.812 222.997 120.956 222.997 120.956Z" fill="#B40057"/>
<path d="M237.014 245.512C237.071 246.006 237.185 246.342 237.388 246.372C238.262 246.51 256.58 246.572 257.129 246.342C257.336 246.256 257.442 245.919 257.471 245.51C257.524 244.831 257.369 243.943 257.129 243.655C256.747 243.192 248.016 240.825 246.755 240.084C246.052 239.669 244.856 238.729 244.344 238.729C243.832 238.729 242.945 239.151 241.905 239.738C239.539 241.069 237.279 240.302 237.279 240.302C237.279 240.302 236.819 243.834 237.014 245.512Z" fill="#69004A"/>
<path d="M237.015 245.513C237.072 246.007 237.186 246.343 237.389 246.374C238.263 246.511 256.581 246.573 257.13 246.343C257.337 246.257 257.443 245.921 257.471 245.513H237.015Z" fill="#FDEEF6"/>
<path d="M203.42 250.108C203.434 250.403 203.458 250.626 203.482 250.678C203.609 250.949 208.475 251.296 210.15 250.774C211.825 250.256 211.471 249.086 212.254 248.629C213.036 248.176 215.546 246.074 215.529 245.607C215.519 245.398 215.515 245.12 215.519 244.8C215.523 243.139 215.629 240.387 215.629 240.387C215.629 240.387 214.86 239.951 214.555 239.557C214.253 239.166 213.563 238.497 212.441 238.404C211.319 238.308 210.207 238.665 209.867 239.334C209.757 239.553 209.424 240.47 209.129 241.153C208.875 241.736 205.652 245.554 204.941 246.357C204.231 247.16 203.678 248.008 203.513 248.663C203.413 249.058 203.403 249.662 203.42 250.108Z" fill="#69004A"/>
<path d="M203.419 250.109C203.433 250.404 203.457 250.627 203.481 250.679C203.608 250.95 206.605 251.835 209.73 251.046C211.889 250.5 211.47 249.087 212.253 248.631C213.035 248.178 215.545 246.076 215.528 245.61C215.518 245.401 215.514 245.123 215.518 244.803C215.257 245.256 213.194 247.114 212.535 247.485C211.691 247.955 211.361 248.271 211.131 248.758C210.901 249.242 210.517 249.87 209.559 250.131C208.602 250.385 206.667 250.537 204.8 250.365C204.191 250.308 203.594 250.147 203.419 250.109Z" fill="#FDEEF6"/>
<path d="M223.395 98.7852C223.395 98.7852 208.847 108.984 206.983 111.476C205.119 113.968 203.88 119.061 209.185 120.106C214.49 121.152 226.008 102.138 226.008 102.138L223.395 98.7852Z" fill="#FFA587"/>
<path d="M253.939 109.86C255.012 105.156 257.263 101.223 258.26 97.2375C258.277 97.1675 258.36 97.0925 258.438 97.1025C259.415 97.2285 262.006 96.6135 261.436 106.349C261.357 108.176 261.249 110.002 261.096 111.824C260.979 113.211 260.848 114.636 260.292 115.928C259.42 117.955 256.8 120.149 254.283 117.638C252.049 115.41 253.369 112.363 253.939 109.86Z" fill="#FFA587"/>
<path d="M217.692 102.305C217.777 102.305 217.851 102.24 217.858 102.153C217.863 102.101 218.301 96.8951 217.642 93.0591C217.295 91.0421 210.186 82.7081 209.883 82.3551C209.823 82.2851 209.718 82.2771 209.648 82.3371C209.578 82.3971 209.57 82.5021 209.63 82.5721C209.703 82.6581 216.982 91.1891 217.313 93.1161C217.966 96.9091 217.531 102.073 217.526 102.125C217.518 102.217 217.586 102.298 217.678 102.305C217.683 102.305 217.687 102.305 217.692 102.305Z" fill="black"/>
<path d="M205.445 111.92C205.518 111.92 205.586 111.872 205.606 111.798C205.615 111.764 206.566 108.398 208.741 106.084C210.895 103.792 215.94 103.961 215.991 103.963C216.099 103.973 216.161 103.895 216.164 103.803C216.168 103.711 216.095 103.633 216.003 103.63C215.788 103.622 210.753 103.455 208.497 105.856C206.264 108.232 205.293 111.675 205.283 111.71C205.258 111.799 205.31 111.891 205.399 111.916C205.416 111.918 205.431 111.92 205.445 111.92Z" fill="black"/>
<path d="M204.247 110.226C204.331 110.226 204.403 110.162 204.413 110.077C204.415 110.061 204.602 108.524 206.332 106.877C208.075 105.216 210.72 104.794 210.747 104.79C210.838 104.776 210.901 104.691 210.887 104.6C210.873 104.509 210.788 104.447 210.697 104.46C210.585 104.477 207.922 104.902 206.103 106.635C204.278 108.373 204.09 109.974 204.082 110.041C204.072 110.133 204.139 110.214 204.23 110.224C204.235 110.226 204.241 110.226 204.247 110.226Z" fill="black"/>
<path d="M255.183 120.808C255.24 120.808 255.296 120.779 255.327 120.726C255.374 120.647 255.348 120.544 255.269 120.497C255.243 120.482 252.7 118.944 251.871 115.667C251.026 112.328 250.635 108.945 250.631 108.911C250.621 108.819 250.537 108.752 250.446 108.764C250.354 108.774 250.288 108.857 250.299 108.949C250.303 108.983 250.696 112.388 251.547 115.749C252.412 119.166 254.989 120.72 255.099 120.785C255.125 120.8 255.154 120.808 255.183 120.808Z" fill="black"/>
<path d="M249.306 95.8853C249.317 95.8853 249.328 95.8843 249.339 95.8823C249.43 95.8643 249.488 95.7763 249.47 95.6863C249.436 95.5143 248.872 91.2693 248.657 89.6483C248.644 89.5563 248.56 89.4934 248.469 89.5054C248.377 89.5174 248.313 89.6014 248.325 89.6934C248.356 89.9324 249.099 95.5353 249.142 95.7523C249.158 95.8303 249.228 95.8853 249.306 95.8853Z" fill="black"/>
<path d="M216.559 128.487C216.631 128.487 216.698 128.44 216.719 128.367C216.731 128.326 217.939 124.28 219.218 123.125C220.504 121.964 222.569 121.378 222.59 121.372C222.679 121.347 222.731 121.255 222.706 121.166C222.681 121.078 222.589 121.025 222.5 121.05C222.413 121.074 220.338 121.663 218.994 122.876C217.645 124.095 216.448 128.102 216.398 128.272C216.372 128.36 216.422 128.453 216.511 128.479C216.527 128.484 216.543 128.487 216.559 128.487Z" fill="black"/>
<path d="M250.465 125.569C250.542 125.569 250.611 125.516 250.628 125.438C250.648 125.348 250.591 125.259 250.502 125.239C250.44 125.225 244.275 123.857 237.249 123.305C231.119 122.823 223.387 123.811 223.309 123.821C223.218 123.833 223.153 123.917 223.165 124.008C223.177 124.099 223.259 124.163 223.352 124.152C223.429 124.142 231.126 123.159 237.223 123.638C244.225 124.188 250.368 125.551 250.429 125.565C250.441 125.568 250.453 125.569 250.465 125.569Z" fill="black"/>
<path d="M236.057 122.889C236.493 122.889 236.835 122.359 236.835 121.681C236.835 121.004 236.493 120.474 236.057 120.474C235.62 120.474 235.278 121.004 235.278 121.681C235.279 122.359 235.62 122.889 236.057 122.889ZM236.057 120.809C236.267 120.809 236.501 121.168 236.501 121.683C236.501 122.197 236.267 122.556 236.057 122.556C235.846 122.556 235.612 122.197 235.612 121.683C235.613 121.167 235.847 120.809 236.057 120.809Z" fill="black"/>
<path d="M234.893 147.754C234.982 147.754 235.055 147.685 235.06 147.596L236.225 123.702C236.23 123.61 236.159 123.532 236.066 123.527C235.96 123.523 235.895 123.593 235.891 123.686L234.726 147.579C234.721 147.671 234.792 147.75 234.885 147.754C234.888 147.755 234.89 147.754 234.893 147.754Z" fill="black"/>
<path d="M235.22 141.034C235.309 141.034 235.383 140.964 235.387 140.874C235.391 140.782 235.319 140.705 235.228 140.7C235.168 140.697 233.764 140.594 233.283 138.139C232.778 135.56 233.734 123.474 233.743 123.352C233.75 123.26 233.682 123.18 233.59 123.172C233.497 123.167 233.417 123.233 233.41 123.325C233.37 123.824 232.441 135.579 232.955 138.203C233.488 140.932 235.142 141.031 235.212 141.034C235.216 141.034 235.218 141.034 235.22 141.034Z" fill="black"/>
<path d="M251.308 132.962C251.335 132.962 251.362 132.956 251.388 132.942C251.469 132.898 251.499 132.796 251.455 132.715L247.051 124.634C247.006 124.553 246.905 124.523 246.824 124.567C246.743 124.611 246.713 124.712 246.757 124.793L251.161 132.874C251.192 132.93 251.249 132.962 251.308 132.962Z" fill="black"/>
<path d="M221.167 130.846C221.221 130.846 221.275 130.82 221.307 130.77L225.869 123.821C225.92 123.744 225.898 123.64 225.821 123.589C225.745 123.539 225.641 123.559 225.59 123.637L221.028 130.586C220.978 130.663 220.999 130.767 221.076 130.818C221.103 130.838 221.135 130.846 221.167 130.846Z" fill="black"/>
<path d="M238.267 65.1639C238.276 65.1439 236.788 65.2359 236.089 65.2779C236.034 65.2809 235.979 65.2839 235.924 65.2869C235.722 65.4169 235.501 65.4569 235.251 65.4709C234.831 65.4949 234.302 65.3679 233.933 65.1299C233.947 65.1529 233.961 65.1759 233.974 65.1989C233.975 65.2069 233.979 65.2139 233.986 65.2199C234.201 65.5739 234.447 65.9239 234.835 66.1629C235.236 66.4089 235.738 66.5209 236.238 66.5309C236.537 66.5359 236.992 66.4699 237.285 66.4139C237.877 66.2989 238.15 65.4119 238.267 65.1639Z" fill="#D56C4E"/>
<path d="M238.269 65.1369C238.113 64.8389 238.023 64.5479 237.622 64.5949C237.312 64.6309 237.078 64.8628 236.843 65.0548C236.868 64.9528 236.854 64.8499 236.757 64.7619C236.563 64.5839 236.234 64.6128 236 64.6738C235.69 64.7538 235.417 64.9229 235.125 65.0449C234.746 65.2029 234.354 65.2268 233.963 65.0928C233.928 65.0808 233.906 65.1179 233.916 65.1439C233.916 65.1549 233.92 65.1658 233.931 65.1738C234.569 65.6538 235.479 65.6858 236.26 65.7258C237.214 65.7738 237.908 65.7028 238.249 65.2238C238.269 65.1858 238.285 65.1679 238.269 65.1369Z" fill="#D56C4E"/>
<path d="M255.977 243.887C258.583 245.27 260.519 247.274 260.559 250.356C260.559 250.389 260.637 251.495 260.605 251.508C257.02 252.905 254.703 252.642 250.991 251.94C251.459 248.549 252.623 244.823 255.977 243.887Z" fill="#E7FFFF"/>
<path d="M250.582 251.858C250.89 248.938 252.106 244.364 255.155 243.467C255.526 243.65 255.608 243.691 256.239 244.025C253.079 244.22 251.731 248.954 251.431 252.018C251.148 251.97 250.865 251.916 250.582 251.858Z" fill="#107F8C"/>
<path d="M291.121 65.1321H294.527L293.939 63.3211C292.652 63.0411 290.776 63.4081 290.776 63.4081L291.121 65.1321Z" fill="#8BA8AC"/>
<path d="M258.684 252.659C254.632 252.871 251.638 252.547 247.992 250.708C247.961 250.692 248.066 249.526 248.072 249.496C248.589 247.063 250.487 245.602 253.935 244.501C257.786 245.192 259.153 249.154 258.684 252.659Z" fill="#E7FFFF"/>
<path d="M275.704 229.714C275.913 231.664 275.467 238.004 275.501 238.99C275.532 239.901 274.949 241.449 271.513 241.567C268.203 241.68 266.372 239.965 266.372 239.965L266.577 231.183C266.938 230.282 275.527 228.057 275.704 229.714Z" fill="#F39E7E"/>
<path d="M275.759 248.745C275.692 249.185 271.703 250.296 271.59 250.325C267.64 251.349 263.16 252.425 258.684 252.659C259.153 249.154 257.786 245.192 253.935 244.5C255.621 243.961 257.37 243.558 258.863 243.263C258.951 243.245 262.04 242.389 263.366 241.691C265.914 240.35 265.65 238.404 266.218 238.332C266.664 238.216 267.719 238.296 268.485 238.947C268.723 239.15 268.661 240.856 268.661 240.856C268.661 240.856 269.655 239.224 270.097 239.188C270.901 239.122 271.605 239.365 272.602 239.32C274.51 239.234 275.534 238.552 275.572 238.695C276.429 241.931 276.228 245.639 275.759 248.745Z" fill="#005E7F"/>
<path d="M259.246 252.625C258.942 252.645 258.638 252.661 258.334 252.674C258.831 248.889 257.295 245.549 253.662 244.588C254.156 244.43 254.297 244.375 254.9 244.207C258.122 245.604 259.671 249 259.246 252.625Z" fill="#107F8C"/>
<path d="M276.109 245.774C275.018 244.216 272.62 245.25 271.457 246.494C270.2 247.838 269.17 249.516 268.848 251.342C268.813 251.542 268.677 251.656 268.523 251.7C268.503 251.704 268.482 251.709 268.461 251.714C268.192 251.755 267.895 251.59 267.955 251.249C268.388 248.796 270.023 246.005 272.211 244.703C273.448 243.967 275.059 243.881 276.165 244.6C276.15 245.002 276.12 245.374 276.109 245.774Z" fill="#107F8C"/>
<path d="M275.438 249.559C273.937 250.207 272.633 250.646 271.058 251.083C271.017 251.123 263.288 253.165 258.694 253.376C253.375 253.619 250.821 253.146 248.184 251.704C247.727 251.454 247.991 250.708 247.991 250.708C249.956 251.777 255.303 252.713 259.339 252.542C263.152 252.381 270.607 250.368 270.683 250.347C272.304 249.905 274.126 249.203 275.759 248.651C275.953 248.585 275.914 249.354 275.438 249.559Z" fill="#E7FFFF"/>
<path d="M262.023 245.937C261.187 245.243 260.351 244.549 259.515 243.855C259.115 243.523 259.576 242.855 259.978 243.189C260.814 243.883 261.65 244.577 262.486 245.271C262.886 245.602 262.425 246.271 262.023 245.937Z" fill="#E7FFFF"/>
<path d="M264.105 244.958C263.331 244.26 262.508 243.629 261.633 243.061C261.195 242.777 261.72 242.157 262.153 242.437C263.028 243.004 263.85 243.635 264.624 244.334C265.013 244.684 264.493 245.308 264.105 244.958Z" fill="#E7FFFF"/>
<path d="M265.757 243.4C265.064 243.06 264.397 242.677 263.755 242.249C263.32 241.959 263.769 241.282 264.204 241.572C264.846 242 265.513 242.383 266.206 242.723C266.674 242.954 266.219 243.627 265.757 243.4Z" fill="#E7FFFF"/>
<path d="M267.181 242.154C266.488 241.814 265.821 241.431 265.179 241.003C264.744 240.712 265.193 240.036 265.628 240.326C266.27 240.754 266.937 241.137 267.63 241.477C268.098 241.707 267.643 242.38 267.181 242.154Z" fill="#E7FFFF"/>
<path d="M271.513 126.021C271.513 126.021 277.237 141.876 283.586 166.14C289.935 190.404 306.243 224.538 313.308 233.982C314.623 235.74 323.932 234.579 323.932 232.036C323.932 226.913 310.84 201.146 310.84 176.358C310.84 152.885 306.746 128.779 306.746 128.779L271.513 126.021Z" fill="#C78F27"/>
<path d="M283.489 126.908L270.984 125.98C270.984 125.98 261.346 172.949 261.491 183.216C261.635 193.483 264.663 228.292 265.13 233.385C265.354 235.834 275.024 235.27 276.345 233.521C278.679 230.431 276.562 203.728 279.304 192.684C282.046 181.64 290.271 161.783 290.271 161.783L283.489 126.908Z" fill="#C78F27"/>
<path d="M278.016 148.593C280.782 159.188 284.113 169.623 287.998 179.861C288.194 180.378 289.031 180.152 288.833 179.631C284.948 169.392 281.617 158.96 278.851 148.364C278.71 147.824 277.875 148.053 278.016 148.593Z" fill="#77541B"/>
<path d="M275.864 153.152C276.836 154.892 277.935 156.54 279.154 158.116C279.495 158.556 280.103 157.939 279.766 157.504C278.594 155.988 277.547 154.388 276.612 152.715C276.34 152.228 275.592 152.665 275.864 153.152Z" fill="#77541B"/>
<path d="M297.954 137.606C298.575 143.037 302.073 147.085 305.985 150.626C306.397 150.999 307.011 150.388 306.597 150.014C302.884 146.654 299.41 142.786 298.819 137.607C298.758 137.058 297.891 137.054 297.954 137.606Z" fill="#77541B"/>
<path d="M302.996 149.018C303.246 162.362 303.505 175.808 306.156 188.936C308.759 201.825 316.911 221.287 322.119 233.295C322.34 233.806 323.086 233.364 322.867 232.858C317.688 220.917 309.58 201.522 306.991 188.705C304.356 175.654 304.11 162.283 303.861 149.017C303.851 148.46 302.986 148.46 302.996 149.018Z" fill="#77541B"/>
<path d="M269.183 129.836C282.205 134.083 295.506 134.836 308.994 132.464C309.543 132.368 309.309 131.534 308.764 131.629C295.431 133.973 282.282 133.198 269.413 129.001C268.882 128.827 268.656 129.664 269.183 129.836Z" fill="#77541B"/>
<path d="M276.355 192.801C276.877 193.026 277.33 193.336 277.72 193.749C278.104 194.155 278.715 193.542 278.332 193.137C277.896 192.676 277.375 192.304 276.792 192.053C276.578 191.961 276.326 191.985 276.2 192.208C276.093 192.395 276.138 192.708 276.355 192.801Z" fill="#77541B"/>
<path d="M274.285 194.018C275.594 194.371 276.847 194.849 278.057 195.461C278.553 195.713 278.991 194.966 278.494 194.714C277.22 194.068 275.895 193.555 274.515 193.183C273.975 193.037 273.748 193.873 274.285 194.018Z" fill="#77541B"/>
<path d="M280.326 62.5707L281.349 67.5277L277.289 69.0057C278.548 71.6837 281.141 85.8217 286.624 85.7917C292.107 85.7617 299.293 67.2887 299.293 67.2887C299.293 67.2887 296.835 65.6337 294.119 65.0657C290.839 64.3797 290.757 56.9287 290.757 56.9287L280.326 62.5707Z" fill="#F39E7E"/>
<path d="M289.51 86.2662C295.929 83.8202 294.192 69.3262 294.192 69.3262C287.657 76.8262 278.991 71.8552 278.991 71.8552C276.996 75.5172 283.091 88.7122 289.51 86.2662Z" fill="#FDEEF6"/>
<path d="M297.206 70.1984C294.848 73.5024 290.426 74.9804 286.58 75.6254C282.734 76.2714 278.6 75.4313 276.251 72.0953C275.973 71.7003 276.6 71.2943 276.876 71.6863C279.375 75.2343 283.874 75.5294 287.775 74.6254C291.076 73.8604 294.617 72.5484 296.652 69.6984C296.931 69.3064 297.482 69.8114 297.206 70.1984Z" fill="#B4AFAC"/>
<path d="M299.851 78.7637C299.851 78.7637 311.777 124.407 307.115 125.979C283.222 134.033 272.465 125.953 272.465 125.953L278.506 78.0127L299.851 78.7637Z" fill="#FDEEF6"/>
<path d="M277.43 97.8561C276.34 115.163 278.071 134.66 277.736 136.348C272.466 138.052 272.602 137.172 267.97 138.049C266.299 138.365 270.349 101.871 270.15 98.8711C269.07 82.5611 274.874 69.5171 274.874 69.5171L281.329 67.2871C281.329 67.2871 281.13 67.9671 281.267 68.1421C281.507 68.4481 281.674 68.4941 281.674 68.4941C281.674 68.4941 281.982 69.3251 282.149 70.1951C282.117 70.6891 278.336 83.4811 277.43 97.8561Z" fill="#21A19A"/>
<path d="M312.951 138.73C311.689 140.471 289.969 141.127 290.272 138.921C289.16 136.521 288.443 71.0559 288.515 69.9669C288.627 69.1769 288.627 67.3218 288.627 67.3218L294.192 64.9229C294.192 64.9229 305.65 68.4258 310.017 71.1248C316.667 75.2348 310.384 91.5388 308.271 112.213C307.815 116.674 314.218 136.983 312.951 138.73Z" fill="#21A19A"/>
<path d="M298.738 84.1161C298.509 79.4481 306.267 68.2182 311.033 72.1132C317.408 77.3242 323.987 105.711 323.987 105.711C320.091 108.416 309.79 107.882 309.79 107.882C309.79 107.882 298.967 88.7841 298.738 84.1161Z" fill="#21A19A"/>
<path d="M293.94 63.3213L294.873 65.0943C294.711 67.6083 290.598 70.8093 290.598 70.8093L288.628 67.3223C292.751 65.3753 293.939 63.3213 293.94 63.3213Z" fill="#31C2A7"/>
<path d="M281.175 66.6348L280.639 67.6667C280.531 68.8977 281.176 71.3598 281.176 71.3598L281.723 68.5538C281.472 68.0098 281.175 66.6358 281.175 66.6348Z" fill="#31C2A7"/>
<path d="M322.007 99.8624C322.167 100.301 321.504 100.608 321.344 100.166C318.285 91.7434 316.227 82.8764 311.666 75.0774C311.429 74.6714 312.094 74.3714 312.329 74.7724C316.891 82.5714 318.948 91.4384 322.007 99.8624Z" fill="#107F8C"/>
<path d="M302.223 86.1085C304.682 92.6575 307.077 99.2305 309.407 105.827C309.563 106.267 308.901 106.574 308.744 106.132C306.413 99.5355 304.018 92.9625 301.56 86.4135C301.395 85.9755 302.058 85.6685 302.223 86.1085Z" fill="#107F8C"/>
<path d="M301.965 88.1866C302.144 88.6206 301.481 88.9256 301.302 88.4916C300.744 87.1366 300.092 85.8317 299.344 84.5707C299.104 84.1667 299.77 83.8656 300.007 84.2656C300.755 85.5266 301.407 86.8316 301.965 88.1866Z" fill="#107F8C"/>
<path d="M291.16 83.5702C291.151 83.9962 290.847 84.4171 290.38 84.3301C289.993 84.2581 289.735 83.8482 289.938 83.4852C289.945 83.4722 289.954 83.4621 289.962 83.4501C289.962 83.3581 289.975 83.2672 290.01 83.1772C290.083 82.9912 290.245 82.8501 290.438 82.7991C290.664 82.7381 290.902 82.8282 291.029 83.0242C291.13 83.1792 291.164 83.3892 291.16 83.5702Z" fill="#31C2A7"/>
<path d="M290.815 72.9666C290.806 73.3926 290.502 73.8136 290.035 73.7266C289.648 73.6546 289.39 73.2446 289.593 72.8816C289.6 72.8686 289.609 72.8586 289.617 72.8466C289.617 72.7546 289.63 72.6636 289.665 72.5736C289.738 72.3876 289.9 72.2466 290.093 72.1956C290.319 72.1346 290.558 72.2246 290.685 72.4206C290.785 72.5746 290.819 72.7856 290.815 72.9666Z" fill="#31C2A7"/>
<path d="M291.708 92.3299C291.699 92.7559 291.396 93.1769 290.928 93.0899C290.541 93.0179 290.283 92.6079 290.485 92.2459C290.492 92.2329 290.501 92.2229 290.509 92.2109C290.509 92.1189 290.522 92.0279 290.557 91.9379C290.63 91.7519 290.792 91.6119 290.985 91.5599C291.211 91.4989 291.45 91.5889 291.577 91.7849C291.677 91.9379 291.711 92.1489 291.708 92.3299Z" fill="#31C2A7"/>
<path d="M291.914 101.898C291.905 102.324 291.601 102.745 291.134 102.658C290.747 102.586 290.489 102.176 290.691 101.814C290.698 101.801 290.707 101.791 290.715 101.779C290.715 101.687 290.728 101.596 290.763 101.506C290.836 101.32 290.998 101.18 291.191 101.128C291.418 101.067 291.656 101.157 291.783 101.353C291.884 101.507 291.918 101.717 291.914 101.898Z" fill="#31C2A7"/>
<path d="M278.163 40.1077C283.553 38.8217 288.994 41.8808 290.514 46.4878C292.033 51.0938 291.252 56.0648 290.494 59.5058C289.736 62.9468 287.113 65.1477 286.107 65.7517C285.101 66.3557 280.946 70.1997 277.699 69.1867C275.426 68.4767 271.741 61.2377 271.511 58.9627C271.31 56.9777 271.757 56.6197 271.203 55.0377C270.649 53.4557 270.352 49.6467 270.352 49.6467C270.338 47.3177 272.773 41.3937 278.163 40.1077Z" fill="#F39E7E"/>
<path d="M272.681 57.5411C272.968 57.6911 273.319 57.5912 273.509 57.3262C273.688 57.0752 273.686 56.7742 273.608 56.4822C273.633 56.1042 273.543 55.7121 273.278 55.4521C273.044 55.2221 272.679 55.1871 272.422 55.3851C272.194 55.5601 272.094 55.8471 272.1 56.1451C272.109 56.6111 272.256 57.3181 272.681 57.5411Z" fill="#6E3F30"/>
<path d="M279.95 56.5129C280.245 56.6469 280.589 56.527 280.764 56.251C280.929 55.991 280.91 55.689 280.816 55.402C280.82 55.023 280.708 54.637 280.429 54.392C280.183 54.176 279.816 54.1609 279.57 54.3729C279.352 54.5609 279.269 54.853 279.291 55.15C279.325 55.617 279.512 56.3149 279.95 56.5129Z" fill="#6E3F30"/>
<path d="M273.91 60.1426C274.47 61.1026 276.102 60.7656 276.979 60.5696C277.449 60.4646 277.283 59.7366 276.814 59.8416C276.01 60.0216 274.283 60.4086 274.58 59.0416C274.768 58.1806 275.018 57.3276 275.236 56.4726C275.355 56.0076 274.643 55.7816 274.524 56.2476C274.305 57.1026 274.067 57.9566 273.868 58.8166C273.765 59.2566 273.669 59.7296 273.91 60.1426Z" fill="#CE6D46"/>
<path d="M292.855 49.8245C292.42 53.6035 290.815 57.9285 290.815 57.9285C290.815 57.9285 289.407 56.3706 289.465 55.3366C289.5 54.7176 290.337 54.5105 290.626 53.6795C291.022 52.5375 290.633 50.9475 289.593 49.6995C289.041 49.0375 287.957 49.2205 287.388 49.6325C287.085 49.8525 286.999 50.2305 287.046 50.6015C287.093 50.9775 287.217 51.5905 287.38 52.3275C286.809 52.8235 285.964 53.0565 285.173 52.9205C284.644 51.2735 283.777 47.6295 283.368 47.0245C282.84 46.2445 281.492 44.7095 279.973 45.3735C278.453 46.0375 276.487 48.7555 274.328 48.8535C272.3 48.9455 271.772 49.5926 270.376 49.9176C270.402 49.9626 270.597 52.1895 270.597 52.1895C270.597 52.1895 267.81 52.5435 266.771 51.8515C265.506 51.0085 264.977 49.5536 265.006 48.0816C265.031 46.7996 265.642 45.5925 266.494 44.6585C267 44.1035 267.61 43.6796 268.258 43.3106C268.062 42.6146 267.933 41.5415 268.471 40.4505C269.337 38.6945 271.124 38.1195 272.813 37.4595C272.816 37.4435 273.112 36.5416 273.737 36.0036C275.12 34.8136 277.499 34.7205 278.785 34.9345C279.719 35.0905 280.361 35.3296 281.132 35.8676C281.662 35.8526 282.183 35.7925 282.676 35.8135C287.916 36.0295 290.617 38.8245 292.018 41.2025C293.436 43.6075 293.27 46.2255 292.855 49.8245Z" fill="#522C26"/>
<path d="M289.476 53.8584C289.2 54.2524 288.591 53.8184 288.868 53.4244C289.373 52.7054 289.195 51.6904 288.479 51.1824C288.087 50.9044 288.52 50.2954 288.913 50.5744C289.96 51.3184 290.213 52.8084 289.476 53.8584Z" fill="#CE6D46"/>
<path d="M281.15 43.2131C280.16 42.8201 279.268 42.1862 278.237 41.9012C277 41.5582 275.741 41.7702 274.624 42.3762C274.21 42.6012 273.915 41.9321 274.325 41.7101C275.426 41.1131 276.678 40.8631 277.92 41.0801C279.193 41.3021 280.237 42.0652 281.418 42.5342C281.855 42.7072 281.588 43.3871 281.15 43.2131Z" fill="#73453E"/>
<path d="M282.466 42.6333C281.519 42.0363 280.604 41.3923 279.722 40.7013C279.352 40.4123 279.783 39.8223 280.153 40.1123C281.035 40.8033 281.949 41.4463 282.897 42.0443C283.296 42.2953 282.862 42.8833 282.466 42.6333Z" fill="#73453E"/>
<path d="M281.426 52.1345C280.39 52.1475 279.44 52.4795 278.435 52.6655C277.877 52.7695 277.059 52.7875 277.018 52.0375C276.972 51.2015 278.138 50.7905 278.782 50.6345C279.708 50.4095 280.641 50.4415 281.573 50.6015C282.565 50.7725 282.409 52.1225 281.426 52.1345Z" fill="#522C26"/>
<path d="M273.017 53.6537C272.731 53.8417 272.344 53.8827 272.017 53.9667C271.714 54.0447 271.448 54.1727 271.188 54.3467C270.937 54.5147 270.584 54.3816 270.423 54.1616C270.244 53.9176 270.291 53.5866 270.501 53.3776C271.129 52.7556 272.184 52.1467 273.057 52.6107C273.494 52.8427 273.363 53.4267 273.017 53.6537Z" fill="#522C26"/>
<path d="M288.539 63.4744C288.058 64.7244 287.054 65.6594 286.061 66.5174C284.938 67.4884 283.715 68.3134 282.407 69.0124C281.995 69.2324 281.592 68.6244 282.006 68.4024C283.16 67.7854 284.255 67.0734 285.265 66.2404C286.301 65.3864 287.398 64.4204 287.89 63.1394C288.059 62.7024 288.706 63.0404 288.539 63.4744Z" fill="#CE6D46"/>
<path d="M273.417 64.1987C273.417 64.1987 274.82 68.0457 275.936 69.3357C277.338 70.9557 278.835 71.5837 280.734 70.9767C281.819 70.6297 284.078 69.5847 284.854 68.7347C286.715 66.6977 288.465 64.2257 288.68 61.4747C288.94 58.1577 288.234 55.4907 287.352 52.1067C286.561 51.9057 285.657 52.0867 284.866 51.8867C285.218 53.2057 285.581 54.1887 285.479 55.5507C285.408 56.5087 285.013 57.5417 284.89 58.4967C284.714 59.8597 285.55 61.3987 284.92 61.7157C284.198 62.0787 283.442 60.5407 281.86 60.1807C281.068 60.0357 280.287 60.1717 279.518 60.3847C278.598 60.6007 277.674 60.8467 276.785 61.1697C276.17 61.3927 275.164 61.7307 274.708 62.2137C273.798 63.1747 273.446 64.2767 273.417 64.1987Z" fill="#522C26"/>
<path d="M323.799 112.801C321.351 119.936 302.182 139.652 302.182 139.652C302.182 139.652 297.68 139.886 298.23 137.64C298.97 134.617 312.005 111.713 312.005 111.713C312.005 111.713 313.34 110.645 315.657 110.113C323.634 108.479 324.052 112.063 323.799 112.801Z" fill="#F39E7E"/>
<path d="M303.793 134.818C303.793 134.818 304.861 136.926 304.492 138.62C304.123 140.314 303.492 141.375 303.377 142.317C303.261 143.26 304.33 146.451 304.188 147.235C304.046 148.019 302.962 147.709 302.962 147.709C302.962 147.709 303.119 148.987 303.011 149.982C302.903 150.978 301.829 151.046 301.829 151.046C301.829 151.046 301.008 151.996 300.296 151.299C299.584 150.602 298.163 146.926 298.016 147.33C297.87 147.734 299.887 151.007 298.67 151.296C297.673 151.533 296.603 149.688 295.869 148.499C295.177 147.377 294.624 144.902 294.512 143.239C294.401 141.575 299.131 136.664 299.131 136.664L303.793 134.818Z" fill="#F39E7E"/>
<path d="M299.576 143.362C299.302 143.367 299.084 143.594 299.09 143.868C299.092 143.932 299.126 145.439 299.53 146.865C299.926 148.265 301.098 150.844 301.148 150.953C301.263 151.197 301.556 151.312 301.806 151.199C302.055 151.085 302.165 150.791 302.052 150.541C302.04 150.515 300.86 147.921 300.485 146.594C300.117 145.295 300.083 143.862 300.083 143.847C300.081 143.767 300.06 143.691 300.025 143.625C299.94 143.465 299.77 143.358 299.576 143.362Z" fill="#E27E66"/>
<path d="M301.562 143.187C301.291 143.225 301.102 143.476 301.14 143.748C301.241 144.461 302.209 147.167 302.319 147.473C302.409 147.725 302.695 147.865 302.954 147.773C303.212 147.68 303.346 147.396 303.253 147.138C302.851 146.018 302.189 144.07 302.124 143.609C302.115 143.55 302.097 143.495 302.071 143.446C301.974 143.266 301.774 143.157 301.562 143.187Z" fill="#E27E66"/>
<path d="M297.326 144.278C297.052 144.279 296.831 144.502 296.832 144.777L296.833 145.132C296.834 145.531 297.228 146.646 297.397 147.106C297.495 147.367 297.776 147.495 298.034 147.401C298.291 147.307 298.423 147.022 298.328 146.764C298.092 146.122 297.833 145.309 297.824 145.127L297.823 144.772C297.822 144.688 297.802 144.611 297.765 144.542C297.682 144.384 297.516 144.277 297.326 144.278Z" fill="#E27E66"/>
<path d="M298.535 136.777C298.535 136.777 299.595 136.286 301.113 136.183C303.027 136.051 304.448 136.14 305.349 136.317C305.355 136.314 307.143 134.446 308.233 133.195C306.905 132.779 304.508 132.054 302.254 132.351C301.517 132.45 301.063 132.525 300.519 132.632C299.724 134.216 299.034 135.57 298.535 136.777Z" fill="#522C26"/>
<path d="M300.325 136.218C300.906 136.561 301.891 135.969 302.525 134.895C303.159 133.821 303.117 132.832 302.536 132.489C301.955 132.146 301.056 132.579 300.422 133.653C299.786 134.727 299.743 135.875 300.325 136.218Z" fill="#F4E6D7"/>
<path d="M322.288 104.393C322.969 105.696 324.052 112.062 323.799 112.8C321.351 119.935 312.004 111.712 312.004 111.712C312.004 111.712 311.016 109.483 310.452 108.498C313.903 109.459 318.754 103.737 322.288 104.393Z" fill="#F39E7E"/>
<path d="M309.815 110.828C309.815 110.828 313.589 111.491 317.746 110.442C321.903 109.392 324.532 107.444 324.532 107.444L322.733 99.8623L307.856 104.346L309.815 110.828Z" fill="#31C2A7"/>
<path d="M271.374 98.0221C271.155 98.0181 270.98 97.8381 270.985 97.6191C271.087 91.6981 272.474 83.5751 272.488 83.4931C272.525 83.2781 272.731 83.1321 272.945 83.1701C273.161 83.2071 273.305 83.4121 273.268 83.6271C273.254 83.7081 271.878 91.7721 271.776 97.6321C271.772 97.8491 271.596 98.0211 271.38 98.0211C271.378 98.0221 271.376 98.0221 271.374 98.0221Z" fill="#107F8C"/>
<path d="M271.327 83.9543C271.11 83.9243 270.959 83.7243 270.989 83.5073C271.076 82.8783 271.248 81.0713 271.003 80.2693C270.939 80.0603 271.057 79.8383 271.266 79.7743C271.475 79.7103 271.697 79.8273 271.761 80.0373C272.107 81.1703 271.788 83.5163 271.775 83.6163C271.748 83.8143 271.578 83.9583 271.383 83.9583C271.364 83.9573 271.346 83.9563 271.327 83.9543Z" fill="#107F8C"/>
<path d="M276.361 63.9802C276.361 63.9802 279.02 63.4892 280.627 62.4072" stroke="#73453E" stroke-miterlimit="10" stroke-linecap="round" stroke-linejoin="round"/>
<path d="M253.304 101H233.244C231.226 101 229.59 99.3644 229.59 97.3464V85.0983C229.59 83.0803 231.226 81.4443 233.244 81.4443H253.304C255.322 81.4443 256.958 83.0803 256.958 85.0983V97.3453C256.958 99.3643 255.322 101 253.304 101Z" fill="url(#paint1_linear)"/>
<path d="M253.302 96.6445C252.942 96.1785 252.661 95.6175 252.933 95.0385C253.052 94.7855 253.237 94.6065 253.458 94.4765C253.35 94.0885 253.335 93.6875 253.532 93.3005C253.715 92.9415 254.011 92.7075 254.351 92.5415C254.351 91.6295 254.734 90.8555 255.891 90.8815C256.832 90.9025 257.775 91.1015 258.656 91.4315C259.317 91.6795 260.613 92.1285 260.77 92.9145C261.355 95.8305 261.495 102.04 261.495 102.04C261.495 102.04 260.144 102.782 259.017 102.087C257.652 101.246 257.02 99.6895 256.226 98.3635C255.002 98.1415 253.382 97.9105 253.302 96.6445Z" fill="#FFA587"/>
<path d="M257.286 92.551C257.352 92.502 257.393 92.4231 257.387 92.3361C257.379 92.1981 257.261 92.092 257.123 92.1L254.7 92.24C254.561 92.248 254.456 92.367 254.464 92.504C254.472 92.642 254.59 92.748 254.729 92.74L257.152 92.6C257.203 92.597 257.249 92.579 257.286 92.551Z" fill="#ED835C"/>
<path d="M256.262 94.1479C256.337 94.0919 256.378 93.9968 256.359 93.8988C256.333 93.7628 256.201 93.6748 256.066 93.7008L253.687 94.1649C253.55 94.1919 253.463 94.3229 253.489 94.4589C253.516 94.5949 253.647 94.6829 253.783 94.6569L256.162 94.1928C256.199 94.1848 256.233 94.1689 256.262 94.1479Z" fill="#ED835C"/>
<path d="M256.012 95.8985C256.094 95.8375 256.134 95.7305 256.103 95.6265C256.064 95.4935 255.924 95.4175 255.792 95.4565L253.526 96.1215C253.393 96.1595 253.317 96.2995 253.356 96.4325C253.395 96.5655 253.534 96.6405 253.667 96.6025L255.933 95.9385C255.962 95.9295 255.989 95.9155 256.012 95.8985Z" fill="#ED835C"/>
<path d="M222.896 99.1527C222.896 99.1527 225.881 95.3457 227.282 94.5587C228.643 93.7947 230.21 93.4836 231.756 93.4006C233.228 93.3216 234.858 93.3447 236.304 93.6627C236.725 93.7557 237.812 93.9196 237.48 94.6116C237.2 95.1946 236.223 95.0657 235.729 95.0787C235.205 95.0917 234.68 95.1436 234.155 95.1616C234.018 95.1656 232.646 95.2737 232.631 95.2277C232.645 95.2707 235.276 95.3267 236.57 95.5377C237.099 95.6247 238.885 95.7887 238.919 96.6027C238.946 97.2577 237.999 97.4627 236.76 97.4577C237.665 97.7447 238.053 98.0967 237.838 98.7667C237.653 99.3427 234.939 99.3626 233.973 99.3226C233.933 99.3206 233.89 99.3207 233.85 99.3187C233.986 99.3907 235.914 99.5797 236.019 99.6857C236.29 99.9557 236.386 100.193 236.052 100.436C235.374 100.929 232.628 100.568 231.849 100.714C230.263 101.011 228.79 102.068 227.315 102.688C226.633 102.975 225.985 103.296 225.245 103.298C223.724 103.301 222.896 99.1527 222.896 99.1527Z" fill="#FFA587"/>
<path d="M230.908 97.5185C230.941 97.5185 230.975 97.5114 231.008 97.4974C231.011 97.4964 231.536 97.2844 233.064 97.2264C234.64 97.1654 236.397 97.5105 236.414 97.5135C236.55 97.5405 236.682 97.4524 236.708 97.3164C236.735 97.1804 236.647 97.0485 236.511 97.0215C236.437 97.0075 234.679 96.6615 233.044 96.7245C231.422 96.7865 230.865 97.0114 230.806 97.0374C230.68 97.0924 230.621 97.2405 230.677 97.3675C230.719 97.4625 230.811 97.5185 230.908 97.5185Z" fill="#ED835C"/>
<path d="M230.723 99.7318C230.743 99.7318 230.763 99.7288 230.784 99.7248C230.786 99.7248 231.042 99.6618 231.832 99.5198C232.469 99.4058 233.241 99.4827 233.532 99.5107C233.611 99.5187 233.664 99.5228 233.686 99.5228C233.824 99.5228 233.937 99.4108 233.937 99.2728C233.937 99.1348 233.826 99.0238 233.689 99.0218C233.67 99.0208 233.634 99.0178 233.582 99.0118C233.273 98.9808 232.451 98.8988 231.744 99.0258C230.931 99.1718 230.674 99.2348 230.663 99.2378C230.529 99.2708 230.447 99.4067 230.481 99.5417C230.508 99.6557 230.611 99.7318 230.723 99.7318Z" fill="#ED835C"/>
<path d="M230.907 95.6295C230.921 95.6295 230.936 95.6285 230.951 95.6255C230.955 95.6245 231.073 95.6045 231.427 95.5535C231.774 95.5035 232.63 95.4785 232.638 95.4775C232.776 95.4735 232.885 95.3585 232.881 95.2205C232.877 95.0845 232.765 94.9775 232.63 94.9775C232.628 94.9775 232.625 94.9775 232.623 94.9775C232.587 94.9785 231.731 95.0046 231.356 95.0576C230.985 95.1106 230.865 95.1315 230.865 95.1315C230.729 95.1555 230.638 95.2855 230.662 95.4215C230.682 95.5445 230.788 95.6295 230.907 95.6295Z" fill="#ED835C"/>
<path d="M217.22 110.38C217.22 110.38 257.619 116.568 245.311 168.761L252.583 168.421L236.343 185.097L229.309 164.539L236.058 167.157C236.056 167.157 251.633 123.89 217.22 110.38Z" fill="#17DA17"/>
<path d="M341.174 67.6865C341.174 67.6865 374.798 67.4636 371.582 111.465L377.446 110.244L366.419 125.902L358.033 110.115L363.856 111.365C363.855 111.364 370.887 74.1895 341.174 67.6865Z" fill="#17DA17"/>
<defs>
<linearGradient id="paint0_linear" x1="434.744" y1="190.534" x2="154.346" y2="232.971" gradientUnits="userSpaceOnUse">
<stop offset="0.0064" stop-color="#FFFF00"/>
<stop offset="0.1184" stop-color="#D1F800"/>
<stop offset="0.253" stop-color="#92EF00"/>
<stop offset="0.3861" stop-color="#5EE700"/>
<stop offset="0.5058" stop-color="#35E100"/>
<stop offset="0.6001" stop-color="#18DD00"/>
<stop offset="0.665" stop-color="#06DA00"/>
<stop offset="0.7442" stop-color="#00D900"/>
</linearGradient>
<linearGradient id="paint1_linear" x1="229.589" y1="91.2222" x2="256.958" y2="91.2222" gradientUnits="userSpaceOnUse">
<stop stop-color="#32387F"/>
<stop offset="1" stop-color="#1A1643"/>
</linearGradient>
</defs>
</svg>
