<svg width="498" height="424" viewBox="0 0 498 424" fill="none" xmlns="http://www.w3.org/2000/svg">
<g clip-path="url(#clip0)">
<path opacity="0.6" d="M400.803 497.061C389.35 516.833 345.51 555.061 279.51 533.061C213.51 511.061 226.102 438.133 179.306 408.097C132.51 378.061 52.2393 280.061 87.5393 216.061C122.839 152.061 320.586 145.441 407.298 251.441C452.899 307.186 434.983 438.05 400.803 497.061Z" fill="url(#paint0_linear)"/>
<path d="M124.942 278.172C124.975 277.618 125.015 277.064 125.061 276.511C125.45 271.924 128.053 265.512 127.079 261.015C127.029 260.785 126.979 260.555 126.929 260.325C124.396 248.654 120.909 236.771 119.838 224.837C118.951 214.83 121.423 205.384 128.409 197.968C130.707 195.52 133.281 193.483 136.059 191.8C138.908 190.062 141.967 188.715 145.158 187.692C148.323 186.663 151.634 185.966 154.97 185.56C167.256 181.183 179.79 183.42 190.367 189.645C199.374 192.996 207.564 197.95 213.189 206.249C215.356 209.445 217.012 213.022 217.84 216.802C218.773 221.06 217.72 225.308 218.412 229.526C219.154 234.048 223.024 236.88 225.304 240.61C227.325 243.917 227.663 247.74 227.034 251.507C226.343 255.658 223.939 260.609 222.372 265.522C222.757 267.29 223.25 269.032 223.902 270.732C226.619 277.806 232.443 281.598 237.21 287.09C242.262 292.928 242.023 301.175 247.739 306.473C247.903 306.629 248.079 306.794 248.245 306.961C250.51 309.169 252.76 312.048 253.813 314.874C252.535 315.372 251.327 316.002 250.198 316.795C246.333 319.531 244.4 322.54 239.648 324.208C235.778 325.564 231.752 326.555 227.816 327.706C219.526 330.103 213.177 333.832 205.684 337.949C204.838 336.561 204.063 335.12 203.357 333.66C203.128 333.2 202.914 332.75 202.698 332.286C201.757 330.283 200.892 328.247 200.019 326.226C197.54 320.521 195.05 314.819 192.584 309.111C192.32 308.512 192.07 307.923 191.808 307.324C191.209 305.948 190.598 304.562 189.996 303.176C189.396 301.788 188.785 300.403 188.164 299.033C184.505 300.496 180.644 301.455 176.978 301.971C172.276 302.629 166.481 303.354 161.751 301.873C161.742 301.887 161.745 301.899 161.748 301.91C161.682 302.135 161.478 302.348 161.244 302.395C155.457 303.426 148.955 304.195 143.608 302.228C140.934 305.147 136.916 306.557 133.072 303.934C125.92 299.05 124.484 286.068 124.942 278.172Z" fill="#6A433E"/>
<path d="M176.704 282.473L177.354 314.673L158.836 322.449L140.682 314.428L143.727 256.793L172.355 271.574L176.704 282.473Z" fill="#FFA587"/>
<path d="M193.688 278.93L196.968 279.049C197.73 279.077 198.369 278.481 198.397 277.72L199.13 257.497C199.157 256.735 198.561 256.095 197.8 256.067L194.52 255.948C193.758 255.92 193.118 256.516 193.091 257.277L192.358 277.5C192.331 278.262 192.926 278.902 193.688 278.93Z" fill="#8F0051"/>
<path d="M195.744 230.327C195.744 230.327 195.409 261.081 194.057 265.895C192.705 270.709 180.209 289.325 170.548 287.493C160.887 285.662 140.69 269.8 140.69 269.8L131.273 239.525C131.273 239.525 132.51 223.182 134.304 220.875C136.099 218.568 158.565 197.889 161.865 198.743C165.165 199.597 173.755 201.567 178.813 206.134C183.873 210.7 195.744 230.327 195.744 230.327Z" fill="#FFA587"/>
<path d="M159.982 245.043C160.216 242.531 159.439 240.405 158.246 240.294C157.053 240.183 155.896 242.129 155.661 244.64C155.427 247.152 156.204 249.278 157.397 249.39C158.591 249.501 159.748 247.555 159.982 245.043Z" fill="#36303A"/>
<path d="M184.697 246.306C184.464 248.818 183.306 250.763 182.113 250.652C180.92 250.54 180.144 248.415 180.378 245.903C180.612 243.391 181.769 241.446 182.962 241.557C184.156 241.668 184.931 243.795 184.697 246.306Z" fill="#36303A"/>
<path d="M178.861 234.073C182.7 233.151 188.744 233.829 191.01 237.524C191.131 237.721 191.159 237.994 191.037 238.199C190.031 239.878 186.688 238.107 185.262 237.883C183.055 237.536 180.985 237.656 178.786 237.634C178.009 237.626 177.204 237.712 176.63 237.038C175.25 235.415 177.654 234.362 178.861 234.073Z" fill="#6A433E"/>
<path d="M164.408 237.412C163.783 238.038 162.988 237.888 162.215 237.834C160.023 237.681 157.973 237.398 155.75 237.568C154.313 237.678 150.845 239.175 149.977 237.424C149.871 237.21 149.922 236.94 150.057 236.754C152.606 233.257 158.675 233.063 162.423 234.285C163.602 234.67 165.91 235.909 164.408 237.412Z" fill="#6A433E"/>
<path d="M130.581 247.438C129.291 239.952 128.412 232.339 130.03 224.968C129.671 224.147 128.728 223.737 128.25 222.979C127.772 222.221 128.494 220.817 129.222 221.338C128.883 215.563 128.55 209.704 129.769 204.048C130.989 198.393 133.978 192.87 138.925 189.871C143.514 187.09 149.307 186.793 154.499 188.146C156.419 185.071 160.706 184.647 164.313 185.009C170.996 185.68 177.507 187.942 183.187 191.522C184.509 192.356 186.029 193.231 187.075 194.404C188.079 195.532 189.577 196.258 190.741 197.241C193.312 199.413 195.464 202.054 197.211 204.924C198.889 207.678 200.206 210.648 201.197 213.713C203.688 221.411 204.263 229.577 204.82 237.648C205.258 243.976 205.694 250.304 206.132 256.633C206.259 258.49 206.383 260.396 205.84 262.177C205.297 263.958 203.931 265.611 202.099 265.942C202.641 266.601 201.946 267.793 201.105 267.647C198.127 260.644 197.715 252.87 196.547 245.35C195.38 237.83 193.879 234.064 188.308 228.882C179.68 220.857 165.245 221.206 157.439 212.379C155.764 217.142 151.061 220.002 147.329 223.403C144.109 226.338 140.755 225.834 138.87 229.763C137.382 228.72 135.165 229.553 134.156 231.064C133.147 232.575 133.053 234.507 133.122 236.323C133.237 239.287 133.702 242.239 134.505 245.095C135.103 247.223 135.906 249.331 137.235 251.097C137.894 251.973 138.678 252.759 139.241 253.699C139.868 254.745 140.198 255.938 140.492 257.121C141.281 260.289 140.774 274.155 139.325 274.623C134.454 268.121 132.845 259.817 131.369 251.827C131.102 250.372 130.834 248.908 130.581 247.438Z" fill="#6A433E"/>
<path d="M168.814 288.065C170.735 287.946 171.623 287.514 171.758 287.442C172.183 287.216 172.345 286.689 172.119 286.263C171.895 285.84 171.372 285.68 170.951 285.895C170.901 285.919 169.256 286.671 165.297 286.184C162.313 285.817 150.979 274.309 144.537 267.142C144.214 266.783 143.66 266.756 143.306 267.076C142.947 267.397 142.919 267.949 143.239 268.307C144.99 270.254 160.474 287.347 165.085 287.914C166.615 288.103 167.846 288.124 168.814 288.065Z" fill="#ED835C"/>
<path d="M173.851 262.663C174.51 262.495 175.118 262.182 175.574 261.647C177.09 259.864 175.541 248.234 174.803 243.317C174.732 242.84 174.287 242.513 173.811 242.584C173.341 242.657 173.007 243.099 173.078 243.576C174.172 250.872 174.923 259.431 174.232 260.535C173.397 261.512 170.752 260.952 169.892 260.676C169.435 260.53 168.942 260.78 168.794 261.239C168.647 261.697 168.897 262.188 169.355 262.336C169.689 262.444 171.976 263.142 173.851 262.663Z" fill="#FFA587"/>
<path d="M138.087 251.695C138.66 253.943 140.262 255.475 141.665 255.117C143.067 254.76 143.74 252.649 143.167 250.4C142.594 248.152 140.992 246.62 139.589 246.977C138.186 247.335 137.514 249.448 138.087 251.695Z" fill="white"/>
<path d="M139.2 277.287L142.481 277.368C143.243 277.387 143.876 276.784 143.895 276.022L144.396 255.792C144.415 255.03 143.812 254.397 143.05 254.378L139.769 254.297C139.007 254.278 138.374 254.881 138.355 255.643L137.854 275.873C137.836 276.635 138.438 277.268 139.2 277.287Z" fill="#8F0051"/>
<path d="M159.269 210.244C159.571 210.168 159.76 209.866 159.694 209.559C159.658 209.396 158.814 205.513 157.054 203.538C156.369 202.769 155.708 202.391 155.125 202.056C154.224 201.539 153.512 201.131 152.911 199.283C152.479 197.959 152.131 196.607 151.823 195.413C151.358 193.61 150.956 192.053 150.404 191.032C149.428 189.225 147.071 188.423 146.97 188.39C146.664 188.288 146.337 188.453 146.235 188.757C146.133 189.061 146.297 189.39 146.602 189.493C146.621 189.5 148.625 190.187 149.379 191.585C149.863 192.482 150.248 193.975 150.695 195.704C151.007 196.913 151.36 198.285 151.803 199.644C152.543 201.918 153.56 202.501 154.544 203.064C155.1 203.383 155.624 203.684 156.182 204.311C157.736 206.056 158.546 209.765 158.553 209.802C158.62 210.116 158.93 210.316 159.244 210.249C159.255 210.248 159.264 210.246 159.269 210.244Z" fill="#36303A"/>
<path d="M238.565 327.184C238.568 327.183 238.571 327.183 238.574 327.181C238.883 327.096 239.066 326.775 238.981 326.467C238.89 326.134 236.689 318.224 232.263 312.392C230.869 310.557 229.486 308.867 228.022 307.077C224.882 303.24 221.636 299.271 218.077 293.561C215.389 289.244 215.192 285.848 214.984 282.254C214.801 279.103 214.613 275.844 212.597 272.031C210.53 268.123 208.561 265.958 206.977 264.219C205.317 262.395 204.119 261.079 203.493 258.624C203.023 256.78 203.066 254.192 203.114 251.196C203.198 246.155 203.299 239.883 201.077 233.453C197.494 223.09 186.609 219.82 186.148 219.686C185.839 219.596 185.519 219.773 185.428 220.082C185.339 220.39 185.515 220.712 185.823 220.802C185.931 220.834 196.596 224.048 199.977 233.832C202.134 240.067 202.032 246.227 201.951 251.175C201.901 254.255 201.857 256.915 202.366 258.909C203.064 261.644 204.412 263.125 206.118 264.999C207.657 266.69 209.572 268.794 211.569 272.572C213.468 276.161 213.642 279.152 213.823 282.318C214.03 285.9 214.244 289.603 217.089 294.172C220.688 299.947 223.958 303.944 227.12 307.809C228.577 309.59 229.954 311.272 231.334 313.092C235.623 318.742 237.837 326.691 237.859 326.77C237.944 327.081 238.257 327.263 238.565 327.184Z" fill="#36303A"/>
<path d="M209.051 241.579C209.302 241.515 209.488 241.288 209.488 241.016C209.488 240.543 209.385 229.291 199.916 217.649C190.409 205.965 175.29 205.311 175.139 205.305C174.814 205.292 174.548 205.546 174.537 205.866C174.526 206.187 174.778 206.456 175.098 206.468C175.244 206.473 189.85 207.119 199.014 218.384C208.211 229.688 208.324 240.905 208.324 241.016C208.324 241.337 208.584 241.597 208.906 241.597C208.955 241.597 209.004 241.591 209.051 241.579Z" fill="#36303A"/>
<path d="M139.972 226.623C140.08 226.595 140.182 226.536 140.261 226.446C140.291 226.413 143.228 223.146 148.433 220.021C153.869 216.756 156.421 211.72 156.527 211.507C156.669 211.219 156.553 210.872 156.266 210.727C155.98 210.585 155.629 210.699 155.485 210.988C155.46 211.037 152.968 215.941 147.834 219.024C142.467 222.247 139.515 225.535 139.391 225.673C139.178 225.913 139.2 226.28 139.44 226.493C139.592 226.628 139.79 226.669 139.972 226.623Z" fill="#36303A"/>
<path d="M192.286 298.003C192.308 297.997 192.327 297.991 192.349 297.984C192.649 297.871 192.801 297.536 192.688 297.235C192.665 297.175 190.413 291.173 189.549 286.773C188.689 282.378 188.55 281.036 188.55 281.023C188.519 280.704 188.234 280.47 187.915 280.501C187.584 280.538 187.362 280.816 187.392 281.135C187.398 281.189 187.532 282.517 188.408 286.995C189.289 291.494 191.504 297.396 191.599 297.644C191.704 297.925 192.004 298.074 192.286 298.003Z" fill="#36303A"/>
<path d="M174.305 248.232C175.399 255.528 176.028 260.005 174.52 260.969C173.685 261.946 171.04 261.386 170.18 261.109" stroke="#ED835C" stroke-opacity="0.2" stroke-width="1.5775" stroke-miterlimit="10" stroke-linecap="round"/>
<path d="M194.463 310.635C194.463 310.635 186.933 308.544 182.783 303.916C178.634 299.286 175.416 295.702 175.416 295.702L145.033 292.119C145.033 292.119 138.313 296.749 133.086 299.736C127.859 302.722 124.574 303.17 124.574 303.17C124.574 303.17 133.657 316.76 137.105 317.954C140.553 319.148 149.512 323.18 158.024 323.18C166.536 323.18 170.12 324.673 178.334 320.492C186.548 316.31 194.463 310.635 194.463 310.635Z" fill="#FFA587"/>
<path d="M66.2723 397.565C67.2743 383.284 67.6554 373.742 68.5444 359.454C69.3294 346.825 70.8934 339.965 76.4714 328.523C78.7544 319.814 86.3524 314.216 94.4154 310.997C100.236 308.673 106.257 306.898 112.301 305.259C115.335 304.436 118.38 303.652 121.422 302.85C123.645 302.261 126.188 300.199 128.515 301.251C130.432 302.117 131.619 304.261 133.183 305.601C135.278 307.398 137.616 308.909 139.98 310.336C143.882 312.69 148.105 314.508 152.497 315.725C161.262 318.157 170.647 318.173 179.415 315.746C182.201 314.975 184.886 313.893 187.535 312.744C188.564 312.297 189.67 311.941 190.649 311.388C191.624 310.837 192.298 310.019 193.256 309.434C195.343 308.156 196.762 309.69 198.657 310.486C200.669 311.329 202.683 312.168 204.693 313.017C208.821 314.762 212.934 316.543 216.977 318.482C224.913 322.288 231.048 327.965 236.498 334.765C241.342 340.809 242.775 348.5 245.408 355.884C248.171 363.628 251.582 366.648 253.397 374.689C254.991 381.748 252.914 395.469 255.729 402.386C258.618 409.479 263.149 422.771 263.654 430.537C264.114 437.596 263.081 445.128 259.929 451.521C256.704 458.058 250.937 462.353 243.562 462.743C242.643 462.792 241.734 462.775 240.831 462.72C242.404 462.818 245.68 475.777 246.145 477.452C248.876 487.274 251.74 499.595 249.893 509.799C246.43 528.933 227.7 536.679 226.717 534.309C225.348 531.008 227.961 487.194 223.574 476.514C209.078 469.658 192.375 469.473 176.552 469.717C160.876 469.959 145.22 470.974 129.642 472.717C124.683 487.452 119.725 502.188 114.765 516.923L110.574 529.376C109.667 532.071 108.994 535.815 106.636 537.707C106.162 538.088 105.618 538.333 105.056 538.471C105.002 538.793 104.743 539.059 104.357 538.906C104.109 538.807 103.873 538.696 103.631 538.589C102.504 538.5 101.475 537.992 100.927 537.182C86.0423 538.951 83.1874 522.638 82.1594 510.416C80.9554 496.11 90.6004 452.511 92.8624 438.35C89.1934 439.114 63.3603 454.168 66.2723 397.565Z" fill="#B40057"/>
<path d="M179.705 301.514C179.803 300.711 179.964 299.961 180.167 299.251C179.743 296.282 179.528 293.274 179.33 290.303C179.279 289.546 180.452 289.305 180.502 290.073C180.652 292.323 180.819 294.623 181.084 296.911C186.005 287.404 201.803 288.37 210.655 291.721C219.723 295.153 227.335 301.83 231.927 310.262C238.516 315.56 244.79 321.754 246.083 330.451C246.776 335.113 245.359 340.947 241.886 343.918C237.461 343.215 233.388 341.455 228.845 341.205C224.034 340.941 219.709 341.967 215.138 343.341C213.298 343.893 211.064 344.639 208.87 344.936C208.101 344.497 207.391 343.929 206.767 343.201C203.834 339.776 204.022 334.761 202.176 330.826C199.972 326.129 195.441 323.212 191.522 320.069C187.5 316.844 184.3 313.209 182.416 308.344C181.621 306.292 181.058 304.175 180.636 302.026C180.266 302.27 179.637 302.081 179.705 301.514Z" fill="#6A433E"/>
<path d="M109.488 398.796C109.785 398.796 110.04 398.568 110.066 398.265C110.082 398.083 111.61 379.961 109.313 366.607C108.105 359.586 83.355 330.574 82.301 329.343C82.092 329.098 81.7249 329.073 81.4809 329.28C81.2359 329.487 81.2089 329.855 81.4169 330.098C81.6719 330.398 107.012 360.097 108.165 366.805C110.438 380.01 108.923 397.986 108.906 398.166C108.878 398.485 109.115 398.767 109.435 398.794C109.454 398.796 109.471 398.796 109.488 398.796Z" fill="black"/>
<path d="M240.003 463.209C240.201 463.209 240.396 463.107 240.504 462.923C240.666 462.647 240.576 462.291 240.301 462.127C240.211 462.075 231.359 456.721 228.471 445.312C225.529 433.69 224.169 421.91 224.155 421.793C224.119 421.474 223.828 421.241 223.511 421.282C223.192 421.318 222.962 421.606 222.999 421.924C223.013 422.044 224.38 433.897 227.344 445.596C230.355 457.491 239.328 462.903 239.708 463.128C239.8 463.184 239.903 463.209 240.003 463.209Z" fill="black"/>
<path d="M219.542 376.447C219.581 376.447 219.619 376.443 219.657 376.435C219.972 376.373 220.176 376.067 220.114 375.753C219.994 375.156 218.031 360.376 217.284 354.733C217.239 354.414 216.948 354.192 216.631 354.233C216.312 354.275 216.088 354.568 216.13 354.886C216.239 355.716 218.823 375.223 218.974 375.979C219.028 376.255 219.272 376.447 219.542 376.447Z" fill="black"/>
<path d="M177.152 269.497C177.184 269.429 172.004 269.746 169.571 269.893C169.38 269.904 169.188 269.914 168.997 269.926C168.295 270.377 167.526 270.516 166.654 270.565C165.193 270.647 163.352 270.207 162.065 269.379C162.113 269.458 162.161 269.538 162.209 269.618C162.212 269.646 162.226 269.671 162.252 269.69C163 270.923 163.856 272.141 165.209 272.974C166.604 273.832 168.354 274.222 170.093 274.254C171.133 274.273 172.719 274.041 173.738 273.845C175.798 273.448 176.746 270.36 177.152 269.497Z" fill="#D56C4E"/>
<path d="M177.161 269.402C176.617 268.365 176.304 267.353 174.906 267.515C173.827 267.641 173.013 268.447 172.195 269.117C172.281 268.761 172.232 268.404 171.896 268.096C171.22 267.477 170.076 267.578 169.261 267.788C168.183 268.066 167.232 268.654 166.214 269.079C164.896 269.629 163.53 269.713 162.17 269.245C162.05 269.204 161.971 269.331 162.006 269.422C162.006 269.46 162.021 269.499 162.06 269.527C164.282 271.199 167.446 271.311 170.166 271.447C173.486 271.613 175.906 271.367 177.091 269.7C177.16 269.572 177.216 269.509 177.161 269.402Z" fill="#D56C4E"/>
<path d="M158.651 391.748C158.651 391.748 153.622 374.472 126.407 380.952C99.1922 387.432 62.9792 406.13 66.0502 427.503C70.9952 461.919 102.421 444.283 121.558 439.608C140.695 434.933 160.795 435.279 166.476 418.717C172.157 402.155 158.651 391.748 158.651 391.748Z" fill="#B40057"/>
<path d="M203.47 419.175C203.47 419.175 139.444 406.975 106.472 402.66C95.6946 403.757 87.0216 418.778 98.0236 428.812C119.666 443.239 200.556 431.434 200.556 431.434L203.47 419.175Z" fill="#FFA587"/>
<path d="M343.532 413.957C343.532 413.957 278.852 421.994 246.147 428.006C236.227 432.357 232.582 449.315 246.132 455.489C271.157 462.578 344.521 426.519 344.521 426.519L343.532 413.957Z" fill="#FFA587"/>
<path d="M154.943 410.352C154.943 410.352 141.764 382.263 101.48 389.199" stroke="black" stroke-miterlimit="10"/>
<path d="M203.469 419.175C203.469 419.175 213.986 405.648 218.163 405.327C222.34 405.007 228.694 405.493 231.732 406.812C234.952 408.21 239.924 410.209 239.693 412.773C239.411 415.903 230.548 412.061 229.595 412.57C228.642 413.08 238.295 415.294 240.285 416.815C242.275 418.337 240.207 420.719 240.207 420.719C240.207 420.719 240.423 423.416 237.985 424.042C235.548 424.667 232.314 424.736 232.314 424.736C232.314 424.736 233.474 427.319 231.576 427.954C229.677 428.59 221.357 427.076 219.054 427.703C216.752 428.329 214.339 430.278 210.259 431.805C206.179 433.331 200.553 431.433 200.553 431.433L203.469 419.175Z" fill="#FFA587"/>
<path d="M221.104 418.899C221.281 418.963 221.476 418.987 221.677 418.963C221.714 418.958 225.289 418.528 228.652 418.976C232.088 419.433 238.963 421.435 239.032 421.456C239.693 421.649 240.385 421.269 240.579 420.609C240.772 419.948 240.379 419.26 239.731 419.062C239.443 418.977 232.607 416.987 228.982 416.505C225.292 416.013 221.53 416.469 221.371 416.488C220.689 416.573 220.203 417.195 220.288 417.879C220.348 418.36 220.675 418.744 221.104 418.899Z" fill="#E27E66"/>
<path d="M221.389 424.047C221.522 424.095 221.664 424.121 221.813 424.121C222.982 424.117 228.066 425.065 230.995 425.663C231.669 425.801 232.329 425.366 232.467 424.692C232.604 424.015 232.152 423.354 231.494 423.221C230.694 423.058 223.616 421.622 221.806 421.627C221.117 421.629 220.56 422.189 220.563 422.878C220.565 423.417 220.909 423.874 221.389 424.047Z" fill="#E27E66"/>
<path d="M222.573 412.952C222.757 413.018 222.958 413.042 223.166 413.014L224.05 412.89C224.506 412.847 226.619 413.199 228.302 413.555C228.976 413.697 229.638 413.267 229.78 412.594C229.922 411.919 229.503 411.266 228.817 411.115C227.611 410.86 224.698 410.281 223.704 410.42L222.822 410.545C222.139 410.64 221.664 411.27 221.759 411.952C221.826 412.426 222.15 412.8 222.573 412.952Z" fill="#E27E66"/>
<path d="M301.928 411.872C301.88 411.509 301.828 411.117 301.783 410.778C301.363 408.13 300.901 405.381 299.566 403.015C298.232 400.649 296.622 398.697 295.744 396.125C294.88 393.252 294.254 390.311 293.876 387.334C293.355 384.151 293.545 380.892 294.433 377.791C296.346 371.374 300.269 365.74 305.624 361.721C318.317 352.14 336.223 350.209 348.588 361.414C350.009 362.707 351.296 364.143 352.426 365.698C355.775 370.235 358.575 375.151 360.767 380.345C363.171 386.094 365.441 393.036 362.936 399.119C362.073 401.285 360.782 403.255 359.14 404.912C359.559 410.116 355.714 415.993 352.204 419.414C349.485 422.078 345.714 422.015 341.923 419.315C338.758 419.073 333.923 421.01 332.365 418.467C331.466 419.953 330.328 421.281 329 422.398C326.415 424.453 322.641 421.351 319.464 421.832C316.928 422.22 311.923 425.025 311.923 425.025C310.681 424.627 309.475 424.121 308.321 423.513C304.182 420.905 302.734 416.404 301.928 411.872Z" fill="#522C26"/>
<path d="M268.119 466.95C268.795 463.341 270.014 459.856 271.736 456.612C272.828 454.528 274.062 452.521 275.428 450.605C282.119 441.333 290.638 433.529 300.46 427.675C305.057 424.9 309.927 422.604 314.993 420.823L315.298 420.716C317.46 419.955 319.652 419.324 321.875 418.79C325.223 417.974 328.628 417.414 332.061 417.116C332.762 417.062 333.453 417.017 334.154 416.978C334.274 416.811 334.406 416.653 334.55 416.507C334.55 416.446 334.55 416.377 334.665 416.385C336.305 416.466 337.938 416.571 339.568 416.698L341.09 416.804C343.628 417.002 346.166 417.241 348.702 417.52H348.969C356.187 418.287 363.337 419.59 370.361 421.417C376.171 422.982 381.838 425.037 387.301 427.562C389.924 428.764 392.543 429.987 395.157 431.231C398.141 432.64 401.126 434.07 404.11 435.495L404.597 435.731C413.87 440.169 423.873 445.102 429.956 453.751C430.99 455.219 431.882 456.782 432.621 458.418C433.938 461.138 434.415 464.188 433.992 467.18C433.817 468.268 433.412 469.306 432.804 470.224C432.196 471.143 431.4 471.922 430.467 472.509C429.772 472.93 429.021 473.25 428.236 473.461C426.885 473.812 425.488 473.954 424.095 473.88C421.522 473.685 418.982 473.175 416.535 472.358C413.574 471.467 410.651 470.454 407.627 469.776L406.813 469.601L405.915 469.434C401.941 468.733 397.853 468.581 393.932 467.645C395.806 471.247 371.289 521.442 364.508 524.324L360.572 525.984C356.618 527.633 352.646 529.229 348.658 530.772L345.445 532.006L341.638 533.429C340.649 533.794 339.568 534.191 338.547 533.688C338.136 533.457 337.76 533.17 337.428 532.835L335.654 531.205L332.548 528.35L326.154 522.488C325.233 521.65 324.311 520.805 323.413 519.945C322.401 518.981 321.44 517.965 320.535 516.9C317.231 512.995 315.647 508.16 313.569 503.569C313.493 503.394 313.409 503.227 313.334 503.06C313.258 502.892 313.189 502.763 313.121 502.618C310.685 497.669 310.433 493.017 310.311 488.214C309.641 488.153 302.698 488.571 302.074 488.548C300.235 488.489 298.394 488.578 296.569 488.815C293.171 489.289 289.746 489.544 286.315 489.577C283.101 489.637 279.891 489.333 276.745 488.671C275.4 488.384 274.125 487.827 273 487.034C271.966 486.207 271.12 485.169 270.518 483.989C267.586 478.925 267.091 472.674 268.119 466.95Z" fill="#FDEEF6"/>
<path d="M274.994 377.904C275.048 377.921 275.095 377.958 275.125 378.006C275.155 378.054 275.167 378.112 275.159 378.169C275.151 378.226 275.123 378.278 275.081 378.316C275.038 378.354 274.983 378.376 274.926 378.379C274.871 378.36 274.826 378.324 274.795 378.276C274.765 378.228 274.752 378.171 274.76 378.113C274.768 378.057 274.796 378.004 274.838 377.966C274.883 377.928 274.936 377.906 274.994 377.904Z" fill="#C38F6C"/>
<path d="M314.992 420.807C320.245 423.814 326.411 424.841 332.41 424.484C338.287 424.133 345.512 422.9 348.93 417.533H348.663C346.814 420.366 343.738 422.048 340.548 422.969C337.389 423.838 334.132 424.299 330.857 424.34C327.546 424.432 324.241 424.026 321.052 423.137C319.045 422.565 317.114 421.761 315.297 420.739L314.992 420.807Z" fill="#1F2144"/>
<path d="M319.394 419.543C319.394 419.543 324.723 422.367 333.098 421.918C341.473 421.469 343.641 419.771 343.641 419.771L344.457 414.595L344.807 412.432L345.363 408.968L320.604 395.051L319.394 419.543Z" fill="#F5A983"/>
<path d="M338.944 416C341.219 416.415 341.623 417.293 343.922 417.04L345.362 409.438C343.163 409.861 341.039 409.415 338.801 409.326C335.158 409.162 334.302 409.722 333.564 411.285C332.825 412.846 335.222 415.16 338.944 416Z" fill="#ED9368"/>
<path d="M319.631 407.826C324.078 413.466 341.226 412.772 344.729 411.211C349.684 409.02 355.449 398.613 354.414 390.963C353.882 386.941 351.627 380.449 349.449 374.724C349.449 374.724 349.444 374.687 349.442 374.672C349.106 373.818 348.771 372.963 348.449 372.153C348.412 372.039 348.369 371.928 348.32 371.818C346.416 367.055 344.817 363.442 344.817 363.442L328.736 356.354C328.736 356.354 312.916 368.827 312.691 369.279C312.466 369.731 307.847 388.742 307.847 388.742C307.847 388.742 315.209 402.206 319.631 407.826Z" fill="#F5A983"/>
<path d="M307.898 388.805C307.898 388.805 305.041 388.806 304.123 392.376C303.3 395.556 307.065 400.273 311.538 401.985C315.428 403.475 319.714 402.493 319.634 402.235C319.554 401.978 317.927 393.568 317.633 392.916C317.34 392.263 307.898 388.805 307.898 388.805Z" fill="#FF924F"/>
<path d="M342.844 394.866C342.951 394.801 343.037 394.707 343.092 394.595C343.484 393.817 343.749 392.98 343.878 392.118C343.989 390.982 341.875 388.059 340.612 386.406C340.496 386.259 340.328 386.164 340.142 386.139C339.956 386.115 339.768 386.164 339.619 386.277C339.545 386.333 339.483 386.404 339.435 386.484C339.388 386.564 339.358 386.654 339.346 386.746C339.334 386.838 339.34 386.932 339.365 387.022C339.389 387.111 339.432 387.196 339.489 387.269C340.899 389.102 342.428 391.435 342.464 391.99C342.351 392.665 342.137 393.32 341.83 393.933C341.745 394.1 341.73 394.293 341.789 394.471C341.847 394.65 341.973 394.797 342.14 394.882C342.247 394.944 342.37 394.974 342.495 394.972C342.618 394.969 342.739 394.932 342.844 394.866Z" fill="#D56B49"/>
<path d="M348.402 398.168L348.606 397.954C348.731 397.814 348.796 397.629 348.785 397.44C348.776 397.252 348.692 397.075 348.552 396.948C348.485 396.884 348.403 396.832 348.315 396.8C348.226 396.768 348.132 396.754 348.038 396.759C347.944 396.765 347.852 396.789 347.768 396.832C347.684 396.875 347.61 396.935 347.55 397.007C346.42 398.175 345.06 399.096 343.556 399.712C342.394 400.229 341.119 400.449 339.851 400.348C339.666 400.309 339.473 400.346 339.316 400.45C339.158 400.554 339.048 400.715 339.009 400.901C338.971 401.086 339.007 401.278 339.111 401.436C339.214 401.593 339.376 401.704 339.561 401.742C341.095 401.906 342.645 401.665 344.057 401.045C345.686 400.391 347.164 399.412 348.402 398.168Z" fill="#D56B49"/>
<path d="M348.138 380.666C346.979 380.558 346.618 381.543 346.678 382.457C346.779 383.979 348.126 385.337 349.07 383.938C349.668 383.051 349.072 380.757 348.138 380.666Z" fill="#361A09"/>
<path d="M325.999 386.303C324.84 386.195 324.488 387.179 324.538 388.086C324.639 389.608 325.986 390.966 326.931 389.574C327.523 388.652 326.919 386.35 325.999 386.303Z" fill="#361A09"/>
<path d="M320.271 382.824C320.825 381.214 322.886 380.65 324.311 380.216C325.3 379.917 327.932 379.377 327.936 381.088C327.937 381.963 326.772 382.156 326.128 382.28C324.358 382.674 322.611 383.161 320.891 383.74C320.809 383.762 320.723 383.763 320.639 383.746C320.556 383.728 320.478 383.692 320.411 383.638C320.344 383.585 320.291 383.517 320.256 383.44C320.219 383.363 320.203 383.278 320.205 383.193C320.209 383.067 320.231 382.942 320.271 382.824Z" fill="#522C26"/>
<path d="M345.216 376.919C345.648 377.799 346.909 377.463 347.617 377.254C348.327 377.046 349.581 376.833 350.434 376.666C350.439 376.645 350.436 376.624 350.426 376.605C350.098 375.75 349.756 374.904 349.44 374.086C349.07 374.135 348.619 374.264 348.468 374.284C347.302 374.463 344.403 375.183 345.216 376.919Z" fill="#522C26"/>
<path d="M306.763 385.314C306.867 383.842 307.291 376.024 307.551 374.569C308.61 368.585 313.994 363.596 318.94 360.638C324.362 357.386 328.852 353.837 335.266 356.751L335.497 356.874C336.948 356.806 338.372 357.268 339.508 358.171C340.299 358.139 341.089 358.234 341.849 358.452C343.395 359.087 344.775 360.069 345.883 361.321C348.663 364.278 349.962 368.353 350.897 372.176C350.95 372.359 350.939 372.553 350.867 372.728C350.795 372.904 350.666 373.05 350.502 373.143C350.337 373.237 350.146 373.273 349.958 373.244C349.771 373.216 349.598 373.125 349.469 372.987C347.956 371.299 346.297 369.747 344.51 368.352C342.943 367.246 341.172 366.344 339.723 365.145C338.729 364.312 337.903 363.294 337.292 362.149C331.942 362.857 325.969 362.649 321.643 366.339C316.704 370.563 316.353 384.798 315.855 390.67C315.851 390.839 315.796 391.004 315.695 391.141C315.594 391.278 315.453 391.379 315.292 391.433C315.13 391.486 314.956 391.488 314.794 391.439C314.631 391.389 314.488 391.291 314.384 391.156C314.21 391.213 314.02 391.206 313.851 391.135C311.822 390.305 307.906 389.556 306.899 387.401C306.664 386.73 306.616 386.009 306.763 385.314Z" fill="#522C26"/>
<path d="M295.264 370.902C296.687 364.742 300.307 359.313 305.448 355.632C310.877 351.807 317.36 349.76 324.002 349.777C329.344 349.828 334.544 351.503 338.913 354.577C340.309 354.454 341.695 354.425 342.897 354.39C346.339 354.288 350.372 354.591 353.399 356.395C356.884 358.476 359.563 362.998 359.993 367.411C360.144 367.744 360.31 368.067 360.45 368.432C362.098 372.768 360.525 377.3 361.449 381.786C362.329 385.946 362.97 391.03 360.881 394.916C360.81 395.03 360.705 395.117 360.58 395.166C360.456 395.215 360.318 395.223 360.189 395.188C360.06 395.154 359.945 395.079 359.862 394.974C359.779 394.869 359.731 394.74 359.726 394.606C359.352 390.271 359.805 386.202 358.908 381.859C358.709 380.86 358.611 379.844 358.615 378.826C358.507 378.749 358.411 378.656 358.332 378.548C357.703 377.399 357.23 376.17 356.927 374.895L356.886 374.938C356.763 375.061 356.614 375.154 356.45 375.21C356.285 375.265 356.11 375.283 355.938 375.26C355.765 375.238 355.601 375.176 355.457 375.08C355.312 374.983 355.191 374.856 355.104 374.705C354.878 374.274 354.649 373.814 354.416 373.338C354.378 373.332 354.34 373.321 354.305 373.305C352.473 372.465 351.497 370.421 350.546 368.75C350.104 367.97 349.679 367.19 349.267 366.4C348.369 365.413 347.39 364.452 346.406 363.523C344.319 362.14 342.05 360.896 340.407 359.148C340.279 359.014 340.188 358.848 340.144 358.668C340.058 358.487 340.031 358.285 340.067 358.088C339.273 357.893 338.526 357.708 337.747 357.557L337.701 357.562C337.619 357.536 337.55 357.484 337.5 357.414C337.45 357.344 337.422 357.261 337.423 357.176C337.424 357.09 337.451 357.007 337.503 356.938C337.554 356.87 337.625 356.818 337.707 356.793C337.836 356.776 337.971 356.758 338.1 356.741C338.053 356.739 338.008 356.73 337.965 356.713L337.575 356.55C337.069 356.617 336.544 356.648 336.066 356.75C336.684 357.264 337.179 357.909 337.513 358.64C337.556 358.723 337.574 358.818 337.565 358.911C337.557 359.004 337.522 359.092 337.465 359.166C337.408 359.241 337.331 359.297 337.244 359.33C337.156 359.363 337.061 359.37 336.969 359.35C335.196 359.062 333.842 357.937 332.106 357.421C330.177 356.929 328.213 356.579 326.232 356.378C324.029 356.045 321.808 355.867 319.58 355.845C319.504 356.067 319.348 356.251 319.142 356.364L318.962 356.465C318.913 356.673 318.788 356.857 318.611 356.979C318.434 357.1 318.218 357.151 318.005 357.121C317.929 357.123 317.853 357.133 317.778 357.151C316.697 357.747 315.631 358.333 314.523 358.895C311.214 360.7 307.985 362.655 305.506 365.51C302.84 368.574 301.559 372.944 298.233 375.312C298.156 375.369 298.088 375.438 298.01 375.487C297.893 375.574 297.754 375.631 297.609 375.65C297.464 375.669 297.316 375.651 297.18 375.598C296.924 380.516 298.178 385.233 298.596 390.192C298.666 390.721 297.907 390.79 297.682 390.429C293.925 385.039 293.855 376.97 295.264 370.902Z" fill="#522C26"/>
<path d="M360.641 192.582H260.557C254.532 192.582 249.602 197.512 249.602 203.537V224.396C249.602 230.421 254.531 235.351 260.557 235.351H263.571C263.571 235.351 261.745 264.746 229.794 264.746C229.794 264.746 269.809 268.99 277.264 235.351H360.641C366.666 235.351 371.596 230.421 371.596 224.396V203.537C371.596 197.511 366.667 192.582 360.641 192.582Z" fill="white"/>
<path d="M299.873 218.029C301.493 218.029 302.739 219.306 302.739 220.927C302.739 222.578 301.493 223.824 299.873 223.824C298.159 223.824 296.943 222.578 296.943 220.927C296.943 219.307 298.159 218.029 299.873 218.029ZM297.286 202.887H302.303L301.525 215.911H298.097L297.286 202.887Z" fill="black"/>
<path d="M309.533 218.029C311.153 218.029 312.4 219.306 312.4 220.927C312.4 222.578 311.153 223.824 309.533 223.824C307.819 223.824 306.604 222.578 306.604 220.927C306.604 219.307 307.819 218.029 309.533 218.029ZM306.947 202.887H311.964L311.186 215.911H307.757L306.947 202.887Z" fill="black"/>
<path d="M319.195 218.029C320.815 218.029 322.061 219.306 322.061 220.927C322.061 222.578 320.815 223.824 319.195 223.824C317.481 223.824 316.265 222.578 316.265 220.927C316.265 219.307 317.481 218.029 319.195 218.029ZM316.608 202.887H321.625L320.847 215.911H317.419L316.608 202.887Z" fill="black"/>
<path d="M392.745 341.038C409.461 341.038 423.013 327.487 423.013 310.771C423.013 294.055 409.461 280.504 392.745 280.504C376.029 280.504 362.479 294.055 362.479 310.771C362.479 327.487 376.029 341.038 392.745 341.038Z" fill="white"/>
<path d="M382.943 294.253L390.625 291.793L395.818 312.116L390.57 313.798L382.943 294.253ZM394.329 316.171C396.809 315.376 399.345 316.722 400.139 319.202C400.95 321.73 399.653 324.25 397.171 325.044C394.547 325.885 392.075 324.572 391.266 322.044C390.47 319.563 391.705 317.011 394.329 316.171Z" fill="#17DA17"/>
<path d="M300.695 307.26C310.437 307.26 318.335 299.363 318.335 289.62C318.335 279.878 310.437 271.98 300.695 271.98C290.952 271.98 283.055 279.878 283.055 289.62C283.055 299.363 290.952 307.26 300.695 307.26Z" fill="white"/>
<path d="M299.615 292.719C301.06 293.182 301.807 294.678 301.344 296.123C300.872 297.596 299.404 298.352 297.958 297.889C296.429 297.399 295.701 295.939 296.174 294.466C296.636 293.021 298.087 292.229 299.615 292.719ZM301.639 278.469L306.114 279.904L301.695 291.3L298.636 290.32L301.639 278.469Z" fill="#17DA17"/>
<path d="M92.9271 222.944C102.669 222.944 110.567 215.046 110.567 205.304C110.567 195.562 102.669 187.664 92.9271 187.664C83.1848 187.664 75.2871 195.562 75.2871 205.304C75.2871 215.046 83.1848 222.944 92.9271 222.944Z" fill="white"/>
<path d="M91.8472 208.402C93.2922 208.865 94.0382 210.361 93.5762 211.806C93.1032 213.279 91.6351 214.035 90.1891 213.572C88.6611 213.082 87.9331 211.622 88.4051 210.149C88.8691 208.704 90.3182 207.912 91.8472 208.402ZM93.8711 194.152L98.3472 195.587L93.9271 206.983L90.8691 206.003L93.8711 194.152Z" fill="#17DA17"/>
<path d="M403.409 251.547C408.904 251.547 413.358 247.092 413.358 241.598C413.358 236.103 408.904 231.648 403.409 231.648C397.914 231.648 393.46 236.103 393.46 241.598C393.46 247.092 397.914 251.547 403.409 251.547Z" fill="white"/>
<path d="M402.801 243.346C403.616 243.607 404.037 244.45 403.776 245.266C403.509 246.097 402.683 246.524 401.867 246.262C401.006 245.986 400.596 245.162 400.862 244.331C401.123 243.516 401.938 243.068 402.801 243.346ZM403.942 235.309L406.466 236.119L403.973 242.547L402.249 241.993L403.942 235.309Z" fill="#17DA17"/>
</g>
<defs>
<linearGradient id="paint0_linear" x1="51.9314" y1="192.85" x2="567.967" y2="540.874" gradientUnits="userSpaceOnUse">
<stop offset="0.0064" stop-color="#FFFF00"/>
<stop offset="0.1184" stop-color="#D1F800"/>
<stop offset="0.253" stop-color="#92EF00"/>
<stop offset="0.3861" stop-color="#5EE700"/>
<stop offset="0.5058" stop-color="#35E100"/>
<stop offset="0.6001" stop-color="#18DD00"/>
<stop offset="0.665" stop-color="#06DA00"/>
<stop offset="0.7442" stop-color="#00D900"/>
</linearGradient>
<clipPath id="clip0">
<rect width="498" height="424" fill="white"/>
</clipPath>
</defs>
</svg>
