<svg width="498" height="424" viewBox="0 0 498 424" fill="none" xmlns="http://www.w3.org/2000/svg">
<path opacity="0.6" d="M376.336 334.482C316.827 405.235 137.498 436.811 79.6712 322.802C57.4332 278.959 95.7562 294.238 67.7902 147.598C60.9832 111.904 55.0602 41.2998 144.266 41.2998C213.025 41.2998 178.993 123.095 342.225 87.7429C426.887 69.4059 481.841 209.042 376.336 334.482Z" fill="url(#paint0_linear)"/>
<path d="M306.916 231.393C306.396 232.21 304.796 233.807 303.447 235.51C303.017 234.735 302.467 233.85 301.749 233.422C300.364 232.599 299.957 232.214 300.062 233.518C300.166 234.821 301.409 239.661 301.409 239.661C301.409 239.661 301.418 239.654 301.42 239.653C301.604 242.236 301.167 243.652 301.167 243.652L304.475 246.308C304.475 246.308 311.172 244.196 313.226 239.124C314.256 236.582 315.915 230.715 313.48 228.54C311.046 226.365 307.79 230.022 306.916 231.393Z" fill="#FFB27D"/>
<path d="M172.412 256.222C172.412 256.222 176.988 270.406 212.052 275.582C247.116 280.758 263.267 283.953 286.244 263.516C301.233 250.183 305.657 245.023 305.657 245.023L302.265 237.633C302.265 237.633 264.377 257.971 257.184 257.623C212.555 255.462 170.135 232.829 172.412 256.222Z" fill="#F2A470"/>
<path d="M193.114 244.941L227.301 253.7C227.301 253.7 227.665 269.313 217.849 276.442C214.573 275.932 201.828 275.352 198.346 271.06C190.759 261.706 193.114 244.941 193.114 244.941Z" fill="white"/>
<path d="M264.844 273.883C264.844 273.883 201.286 361.924 216.07 375.193C230.854 388.461 244.219 386.316 258.884 383.477C273.549 380.639 293.056 307.744 291.899 299.065C290.742 290.385 282.343 263.745 264.844 273.883Z" fill="#F2A470"/>
<path d="M264.845 273.883C264.845 273.883 265.174 304.683 271.648 328.612C278.122 352.542 286.837 385.609 286.837 385.609H304.196C304.196 385.609 296.819 295.111 297.252 284.069C297.686 273.026 284.723 254.764 264.845 273.883Z" fill="#F2A470"/>
<path d="M240.035 311.121C240.035 311.121 236.289 350.206 275.757 358.6C275.757 358.6 272.256 386.725 257.848 388.895C243.44 391.065 196.138 388.474 186.591 383.476C186.591 383.477 211.461 340.537 240.035 311.121Z" fill="#21A19A"/>
<path d="M303.523 377.257C303.523 377.257 311.572 387.882 315.912 388.46C320.252 389.039 329.799 391.064 328.931 394.825C328.063 398.586 312.832 400.314 303.523 398.582C294.214 396.85 284.666 401.85 286.837 385.608L282.44 368.985C282.44 368.985 292.218 370.385 302.619 365.825L303.472 374.863L303.523 377.257Z" fill="white"/>
<path d="M219.378 272.397C218.868 261.291 217.031 254.23 206.674 250.187C191.35 244.204 161.072 243.539 142.107 255.057C138.875 257.02 130.26 278.669 137.377 325.579C142.082 356.596 147.602 388.417 184.861 384.593C222.12 380.769 241.819 378.609 240.088 370.104C238.357 361.599 222.57 323.446 221.402 308.928C220.737 300.65 219.941 284.633 219.378 272.397Z" fill="white"/>
<path d="M240.194 273.883C240.194 273.883 176.636 361.924 191.42 375.193C206.204 388.461 219.569 386.316 234.234 383.477C248.898 380.639 268.406 307.744 267.249 299.065C266.092 290.385 257.693 263.745 240.194 273.883Z" fill="#F5A983"/>
<path d="M240.193 273.883C240.193 273.883 240.523 304.683 246.996 328.612C253.47 352.542 262.185 385.609 262.185 385.609H279.543C279.543 385.609 272.166 295.111 272.6 284.069C273.034 273.026 260.071 254.764 240.193 273.883Z" fill="#F5A983"/>
<path d="M215.383 311.121C215.383 311.121 211.637 350.206 251.105 358.6C251.105 358.6 247.604 386.725 233.196 388.895C218.788 391.065 171.486 388.474 161.938 383.476C161.939 383.477 186.808 340.537 215.383 311.121Z" fill="#31C2A7"/>
<path d="M278.872 377.257C278.872 377.257 286.922 387.882 291.261 388.46C295.601 389.039 305.148 391.064 304.28 394.825C303.412 398.586 288.181 400.314 278.872 398.582C269.563 396.85 260.015 401.85 262.186 385.608L257.789 368.985C257.789 368.985 267.567 370.385 277.967 365.825L278.821 374.863L278.872 377.257Z" fill="white"/>
<path d="M305.806 224.215L273.106 227.979C272.153 228.089 271.44 228.552 271.369 229.106L268.935 248.133C268.828 248.967 270.18 249.604 271.593 249.386L303.421 244.47C304.286 244.336 304.922 243.91 305.016 243.401L308.321 225.527C308.471 224.711 307.211 224.054 305.806 224.215Z" fill="#2B4366"/>
<path d="M308.644 223.886L275.944 227.65C274.991 227.76 274.278 228.223 274.207 228.777L271.773 247.804C271.667 248.638 273.018 249.275 274.431 249.056L306.259 244.14C307.123 244.007 307.759 243.58 307.854 243.071L311.159 225.196C311.31 224.382 310.049 223.725 308.644 223.886Z" fill="#071D41"/>
<path d="M142.314 265.739C142.314 265.739 147.675 279.646 182.973 282.854C218.272 286.061 234.576 288.349 256.375 266.658C270.595 252.508 274.724 247.109 274.724 247.109L270.924 239.92C270.924 239.92 234.232 262.344 227.031 262.399C182.351 262.735 138.732 242.51 142.314 265.739Z" fill="#F5A983"/>
<path d="M291.063 236.91C289.731 236.654 286.875 235.577 283.983 234.782C284.847 234.112 285.807 233.288 286.075 232.443C286.59 230.813 286.935 230.289 285.215 230.805C283.495 231.32 277.477 234.081 277.477 234.081C277.477 234.081 277.49 234.087 277.493 234.089C274.073 235.088 270.923 239.921 270.923 239.921L274.723 247.11C274.723 247.11 279.539 244.909 283.323 245.597C287.107 246.285 295.879 245.597 297.77 242.501C299.663 239.404 293.299 237.34 291.063 236.91Z" fill="#FFB27D"/>
<path d="M173.332 243.652C173.332 243.652 161.651 241.493 147.764 249.883C133.877 258.273 137.927 278.235 137.927 278.235L154.128 284.292C154.128 284.292 149.345 257.622 173.11 252.414L173.332 243.652Z" fill="white"/>
<path d="M187.792 256.08C192.72 255.339 195.146 249.809 192.573 245.542C191.747 244.173 191.142 242.682 190.707 241.14C190.578 240.683 190.468 240.233 190.363 239.776C189.537 235.971 189.636 231.983 189.951 228.865C189.977 228.596 190.01 228.339 190.042 228.089C190.4 225.115 190.934 223.099 190.934 223.099L169.156 211.814C169.536 217.529 169.193 222.691 168.529 227.121C167.388 234.681 165.287 240.123 164.194 242.588C164.194 242.588 164.194 242.588 164.194 242.594C163.513 251.31 173.879 253.197 182.639 255.675C184.306 256.145 185.95 256.334 187.501 256.122C187.598 256.109 187.695 256.095 187.792 256.08Z" fill="#F5A983"/>
<path d="M190.705 241.138C181.41 241.979 168.528 227.12 168.528 227.12C178.015 225.418 185.247 226.592 189.951 228.865C189.632 231.986 189.535 235.974 190.362 239.774C190.465 240.231 190.576 240.684 190.705 241.138Z" fill="#E8945B"/>
<path d="M196.416 232.888C196.416 232.888 171.623 239.311 163.172 219.582C154.051 198.289 164.236 182.853 172.65 181.847C189.428 179.842 199.139 186.28 202.054 193.053C204.97 199.824 210.096 229.464 196.416 232.888Z" fill="#F5A983"/>
<path d="M196.461 215.927C196.573 215.871 196.666 215.784 196.73 215.677C197.184 214.933 197.515 214.12 197.713 213.272C197.915 212.149 196.044 209.065 194.918 207.315C194.814 207.159 194.654 207.05 194.471 207.011C194.287 206.972 194.096 207.006 193.939 207.106C193.861 207.156 193.793 207.222 193.739 207.298C193.686 207.374 193.649 207.461 193.629 207.552C193.609 207.643 193.608 207.737 193.626 207.829C193.643 207.92 193.679 208.008 193.73 208.085C194.988 210.026 196.323 212.474 196.314 213.03C196.146 213.694 195.881 214.329 195.526 214.915C195.428 215.074 195.397 215.266 195.441 215.448C195.484 215.631 195.598 215.788 195.758 215.886C195.86 215.956 195.98 215.996 196.104 216.004C196.228 216.011 196.352 215.984 196.461 215.927Z" fill="#D56B49"/>
<path d="M201.563 221.558L201.823 221.416C201.984 221.32 202.102 221.164 202.15 220.981C202.199 220.799 202.173 220.606 202.078 220.442C202.033 220.36 201.972 220.287 201.898 220.229C201.823 220.172 201.738 220.13 201.647 220.106C201.555 220.083 201.461 220.078 201.367 220.094C201.274 220.11 201.186 220.144 201.106 220.195C199.674 220.965 198.099 221.429 196.479 221.558C195.214 221.698 193.934 221.52 192.756 221.038C192.591 220.945 192.397 220.922 192.215 220.972C192.033 221.023 191.879 221.143 191.786 221.308C191.694 221.473 191.67 221.666 191.72 221.849C191.771 222.03 191.891 222.185 192.056 222.277C193.468 222.899 195.018 223.141 196.551 222.979C198.301 222.851 200.007 222.367 201.563 221.558Z" fill="#D56B49"/>
<path d="M202.015 202.447C200.869 202.246 200.429 203.198 200.416 204.114C200.394 205.64 201.627 207.101 202.681 205.783C203.347 204.948 202.938 202.614 202.015 202.447Z" fill="#361A09"/>
<path d="M181.238 206.282C180.092 206.081 179.661 207.033 179.638 207.941C179.616 209.467 180.849 210.928 181.903 209.617C182.568 208.746 182.152 206.403 181.238 206.282Z" fill="#361A09"/>
<path d="M173.15 202.351C173.832 200.791 175.932 200.395 177.387 200.077C178.397 199.858 181.064 199.532 180.929 201.239C180.86 202.112 179.683 202.21 179.031 202.281C177.235 202.531 175.454 202.875 173.694 203.314C173.61 203.329 173.525 203.324 173.443 203.299C173.362 203.275 173.286 203.233 173.224 203.173C173.162 203.115 173.115 203.043 173.085 202.963C173.055 202.884 173.045 202.798 173.054 202.713C173.069 202.588 173.101 202.466 173.15 202.351Z" fill="#522C26"/>
<path d="M198.488 198.478C198.847 199.39 200.131 199.156 200.855 199.006C201.579 198.855 202.847 198.745 203.711 198.647C203.718 198.627 203.717 198.605 203.708 198.586C203.45 197.707 203.177 196.837 202.929 195.996C202.557 196.015 202.096 196.107 201.945 196.115C200.765 196.198 197.818 196.683 198.488 198.478Z" fill="#522C26"/>
<path d="M167.562 226.49C167.562 226.49 164.696 217.954 165.065 213.406C165.065 213.406 158.641 205.137 162.416 203.115C166.19 201.093 168.199 205.977 169.067 205.025C169.934 204.072 171.356 187.887 175.925 188.42C180.496 188.952 197.387 194.273 204.833 187.911C212.279 181.55 194.402 156.48 163.868 165.991C133.333 175.502 139.402 209.43 167.562 226.49Z" fill="#522C26"/>
<path d="M148.764 179.216C148.764 179.216 147.401 175.09 148.898 172.155C148.898 172.155 148.952 176.208 150.535 178.019C152.118 179.83 148.764 179.216 148.764 179.216Z" fill="#522C26"/>
<path d="M149.412 176.338C149.412 176.338 145.642 175.893 143.849 178.785C143.849 178.785 146.513 177.001 149.191 178.918L149.412 176.338Z" fill="#522C26"/>
<path d="M195.076 334.712C195.076 334.712 190.583 377.165 174.959 386.719C159.335 396.273 139.817 361.589 139.595 339.151C139.373 316.712 195.076 334.712 195.076 334.712Z" fill="white"/>
<path d="M203.011 189.14C203.011 189.14 213.048 185.335 209.048 166.335C209.048 166.335 203.173 171.736 189.548 165.973L203.011 189.14Z" fill="#522C26"/>
<path d="M148.196 192.835C148.196 192.835 148.922 205.085 155.422 210.127" stroke="#73453E" stroke-miterlimit="10" stroke-linecap="round" stroke-linejoin="round"/>
<path d="M170.506 182.001C170.506 182.001 177.539 186.558 188.873 187.225C200.206 187.892 204.873 182.001 204.873 182.001" stroke="#73453E" stroke-miterlimit="10" stroke-linecap="round" stroke-linejoin="round"/>
<path d="M169.066 205.024C169.066 205.024 165.016 199.888 161.141 201.61C157.266 203.332 160.488 211.728 165.064 213.405C165.065 213.406 167.866 212.215 169.066 205.024Z" fill="#FF924F"/>
<path opacity="0.5" d="M159.372 140.049H87.3904C82.3334 140.049 78.2344 135.95 78.2344 130.893V94.8328C78.2344 89.7758 82.3334 85.6768 87.3904 85.6768H159.372C164.429 85.6768 168.528 89.7758 168.528 94.8328V130.893C168.528 135.95 164.429 140.049 159.372 140.049Z" fill="white"/>
<path opacity="0.5" d="M398.266 191.804H326.245C320.505 191.804 315.852 187.151 315.852 181.411V146.312C315.852 140.572 320.505 135.919 326.245 135.919H398.266C404.006 135.919 408.659 140.572 408.659 146.312V181.411C408.659 187.151 404.006 191.804 398.266 191.804Z" fill="white"/>
<path opacity="0.5" d="M393.691 319.12H337.748C333.357 319.12 329.798 315.561 329.798 311.17V283.809C329.798 279.418 333.357 275.859 337.748 275.859H393.691C398.082 275.859 401.641 279.418 401.641 283.809V311.17C401.641 315.56 398.082 319.12 393.691 319.12Z" fill="white"/>
<path d="M377.248 313.125H355.623V310.305C355.623 304.333 360.464 299.493 366.435 299.493C372.407 299.493 377.247 304.334 377.247 310.305V313.125H377.248Z" fill="#17DA17"/>
<path d="M366.435 298.354C370.197 298.354 373.247 294.66 373.247 290.104C373.247 285.547 370.197 281.854 366.435 281.854C362.673 281.854 359.623 285.547 359.623 290.104C359.623 294.66 362.673 298.354 366.435 298.354Z" fill="#17DA17"/>
<path d="M107.464 101.083H103.101C101.857 101.083 101.605 101.667 101.605 102.31C101.605 103.46 103.084 109.162 108.492 116.702C112.1 121.855 117.176 124.644 121.801 124.644C124.573 124.644 124.916 124.025 124.916 122.956V119.065C124.916 117.824 125.178 117.576 126.056 117.576C126.703 117.576 127.814 117.898 130.401 120.383C133.358 123.326 133.848 124.644 135.512 124.644H139.875C141.119 124.644 141.745 124.025 141.385 122.802C140.99 121.582 139.578 119.813 137.704 117.716C136.687 116.52 135.162 115.231 134.701 114.587C134.054 113.759 134.24 113.391 134.701 112.657C134.701 112.657 140.015 105.207 140.57 102.677C140.846 101.758 140.57 101.083 139.249 101.083H134.89C133.778 101.083 133.268 101.667 132.992 102.31C132.992 102.31 130.772 107.69 127.629 111.186C126.612 112.196 126.15 112.518 125.594 112.518C125.318 112.518 124.916 112.196 124.916 111.277V102.677C124.916 101.572 124.594 101.083 123.668 101.083H116.813C116.121 101.083 115.705 101.593 115.705 102.079C115.705 103.124 117.275 103.365 117.439 106.309V112.703C117.439 114.105 117.184 114.36 116.628 114.36C115.149 114.36 111.552 108.952 109.42 102.768C108.999 101.568 108.58 101.083 107.464 101.083Z" fill="#50E217"/>
<path d="M377.854 155.31C376.299 155.265 374.879 154.708 373.751 153.806C372.458 152.771 371.551 151.282 371.264 149.588C371.193 149.169 371.161 148.738 371.169 148.298L366.726 148.17L366.376 160.31L366.179 166.96C366.128 168.738 364.926 170.212 363.306 170.695C362.836 170.836 362.331 170.894 361.808 170.85C361.14 170.794 360.52 170.574 359.985 170.233C358.846 169.507 358.097 168.227 358.117 166.788C358.148 164.539 360.018 162.759 362.265 162.824C362.708 162.837 363.132 162.922 363.527 163.065L363.623 159.747L363.657 158.554C363.238 158.48 362.811 158.435 362.379 158.422C359.92 158.351 357.592 159.307 355.895 161.1C354.612 162.455 353.816 164.209 353.647 166.067C353.426 168.508 354.253 170.858 355.939 172.623C356.187 172.882 356.448 173.123 356.721 173.347C358.176 174.535 359.976 175.208 361.892 175.263C362.325 175.276 362.754 175.256 363.176 175.206C364.973 174.993 366.648 174.221 367.988 172.971C369.635 171.435 370.58 169.359 370.654 167.124L370.918 157.193C371.665 157.804 372.486 158.316 373.371 158.72C374.748 159.348 376.217 159.689 377.739 159.732L377.832 156.506L377.867 155.309C377.868 155.311 377.855 155.31 377.854 155.31Z" fill="#17DA17"/>
<path d="M64.3125 299.831C64.3125 299.831 81.2635 326.203 113.987 301.281L116.021 306.482L122.632 289.896L106.033 291.387L109.974 295.298C109.974 295.299 84.5245 319.723 64.3125 299.831Z" fill="#17DA17"/>
<path d="M353.335 395.404C353.335 395.404 385.843 370.696 356.232 336.719L362.615 333.387L342.563 328.612L344 347.866L348.854 342.523C348.854 342.522 378.025 368.035 353.335 395.404Z" fill="#17DA17"/>
<path d="M206.517 170.559C206.517 170.559 204.873 180.809 192.123 180.476" stroke="#73453E" stroke-miterlimit="10" stroke-linecap="round" stroke-linejoin="round"/>
<path d="M89.8486 235.983L87.2626 239.335L78.9746 232.942C75.7936 230.488 71.2016 231.079 68.7456 234.263C66.2916 237.444 66.8866 242.034 70.0676 244.488L78.3556 250.881L75.7696 254.233L67.4816 247.84C62.4496 243.958 61.5136 236.709 65.3946 231.678C69.2786 226.643 76.5276 225.708 81.5596 229.59L89.8486 235.983Z" fill="#B40057"/>
<path d="M87.4916 233.779L73.0396 252.514C72.0856 253.751 72.3166 255.523 73.5516 256.476L86.4616 266.434C87.6996 267.389 89.4666 267.158 90.4206 265.922L104.873 247.187C105.827 245.951 105.601 244.182 104.363 243.227L91.4526 233.269C90.2176 232.316 88.4456 232.543 87.4916 233.779ZM89.4956 248.89L92.5746 251.265C93.0496 251.631 93.1366 252.317 92.7706 252.791C92.4036 253.267 91.7186 253.356 91.2436 252.99L88.1646 250.615C87.3526 251.006 86.3546 250.944 85.5916 250.355C84.5206 249.529 84.3206 247.988 85.1506 246.913C85.9796 245.839 87.5206 245.641 88.5906 246.467C89.3546 247.056 89.6676 248.006 89.4956 248.89Z" fill="#B40057"/>
<path d="M90.1492 160.52C100.269 160.52 108.473 152.316 108.473 142.196C108.473 132.076 100.269 123.872 90.1492 123.872C80.0291 123.872 71.8252 132.076 71.8252 142.196C71.8252 152.316 80.0291 160.52 90.1492 160.52Z" fill="white"/>
<path d="M90.1492 162.519C78.9432 162.519 69.8262 153.402 69.8262 142.196C69.8262 130.99 78.9432 121.873 90.1492 121.873C101.355 121.873 110.472 130.99 110.472 142.196C110.473 153.402 101.355 162.519 90.1492 162.519ZM90.1492 125.871C81.1472 125.871 73.8242 133.194 73.8242 142.196C73.8242 151.198 81.1472 158.521 90.1492 158.521C99.1512 158.521 106.474 151.198 106.474 142.196C106.475 133.194 99.1512 125.871 90.1492 125.871Z" fill="#D8005D"/>
<path d="M78.6287 127.849L75.8018 130.676L101.142 156.016L103.969 153.189L78.6287 127.849Z" fill="#D8005D"/>
<path d="M101.143 127.849L75.8027 153.189L78.6297 156.016L103.97 130.676L101.143 127.849Z" fill="#D8005D"/>
<path d="M315.851 205.602C325.971 205.602 334.175 197.398 334.175 187.278C334.175 177.158 325.971 168.954 315.851 168.954C305.731 168.954 297.527 177.158 297.527 187.278C297.527 197.398 305.731 205.602 315.851 205.602Z" fill="white"/>
<path d="M315.851 207.601C304.645 207.601 295.528 198.484 295.528 187.278C295.528 176.072 304.645 166.955 315.851 166.955C327.057 166.955 336.174 176.072 336.174 187.278C336.174 198.484 327.057 207.601 315.851 207.601ZM315.851 170.952C306.849 170.952 299.526 178.275 299.526 187.277C299.526 196.279 306.849 203.602 315.851 203.602C324.853 203.602 332.176 196.279 332.176 187.277C332.177 178.276 324.853 170.952 315.851 170.952Z" fill="#D8005D"/>
<path d="M304.329 172.932L301.502 175.759L326.842 201.099L329.669 198.272L304.329 172.932Z" fill="#D8005D"/>
<path d="M326.843 172.932L301.503 198.272L304.33 201.099L329.67 175.759L326.843 172.932Z" fill="#D8005D"/>
<path d="M396.799 293.195C406.919 293.195 415.123 284.991 415.123 274.871C415.123 264.751 406.919 256.547 396.799 256.547C386.679 256.547 378.475 264.751 378.475 274.871C378.475 284.991 386.679 293.195 396.799 293.195Z" fill="white"/>
<path d="M396.799 295.195C385.593 295.195 376.476 286.078 376.476 274.872C376.476 263.666 385.593 254.549 396.799 254.549C408.005 254.549 417.122 263.666 417.122 274.872C417.122 286.078 408.005 295.195 396.799 295.195ZM396.799 258.546C387.797 258.546 380.474 265.869 380.474 274.871C380.474 283.873 387.797 291.196 396.799 291.196C405.801 291.196 413.124 283.873 413.124 274.871C413.124 265.869 405.801 258.546 396.799 258.546Z" fill="#D8005D"/>
<path d="M385.275 260.526L382.448 263.353L407.789 288.693L410.616 285.866L385.275 260.526Z" fill="#D8005D"/>
<path d="M407.788 260.526L382.447 285.866L385.274 288.693L410.615 263.353L407.788 260.526Z" fill="#D8005D"/>
<path d="M170.513 31.5483C170.513 31.5483 211.015 26.0753 213.948 79.6203L220.828 77.2403L209.958 97.8233L197.404 80.0893L204.617 80.6943C204.618 80.6943 207.341 34.7893 170.513 31.5483Z" fill="#17DA17"/>
<path opacity="0.5" d="M342.729 107.086H240.209C235.347 107.086 231.405 103.144 231.405 98.282V43.554C231.405 38.692 235.347 34.75 240.209 34.75H342.728C347.59 34.75 351.532 38.692 351.532 43.554V98.282C351.533 103.144 347.591 107.086 342.729 107.086Z" fill="white"/>
<path d="M298.395 55.1738C300.118 55.2268 301.06 55.5019 301.685 55.7339C302.514 56.0419 303.108 56.4159 303.736 57.0249C304.364 57.6339 304.755 58.2168 305.087 59.0368C305.338 59.6548 305.641 60.5878 305.746 62.3088C305.857 64.1698 305.884 64.7278 305.954 69.4458C306.022 74.1618 306.014 74.7219 305.958 76.5869C305.904 78.3099 305.629 79.2489 305.396 79.8749C305.089 80.7049 304.714 81.2989 304.105 81.9259C303.496 82.5529 302.915 82.9458 302.094 83.2778C301.475 83.5288 300.544 83.8308 298.823 83.9348C296.961 84.0468 296.403 84.0738 291.685 84.1428C286.967 84.2128 286.409 84.2038 284.545 84.1459C282.822 84.0928 281.88 83.8178 281.255 83.5858C280.426 83.2778 279.832 82.9038 279.205 82.2948C278.577 81.6858 278.186 81.1028 277.854 80.2838C277.601 79.6638 277.3 78.7328 277.195 77.0108C277.084 75.1498 277.057 74.5919 276.987 69.8739C276.916 65.1569 276.927 64.5979 276.984 62.7329C277.038 61.0099 277.313 60.0708 277.546 59.4448C277.853 58.6148 278.228 58.0208 278.837 57.3938C279.446 56.7668 280.028 56.3738 280.848 56.0418C281.467 55.7908 282.398 55.4889 284.119 55.3849C285.981 55.2729 286.539 55.2459 291.257 55.1769C295.973 55.1079 296.531 55.1168 298.395 55.1738ZM283.925 52.2088C282.047 52.3228 280.765 52.6399 279.649 53.0939C278.494 53.5628 277.518 54.1818 276.551 55.1788C275.582 56.1738 274.992 57.1689 274.56 58.3379C274.138 59.4669 273.859 60.7559 273.803 62.6389C273.745 64.5239 273.733 65.1258 273.802 69.9228C273.874 74.7208 273.903 75.3228 274.016 77.2048C274.13 79.0848 274.45 80.3658 274.901 81.4808C275.371 82.6368 275.99 83.6128 276.985 84.5798C277.983 85.5488 278.977 86.1379 280.145 86.5719C281.276 86.9919 282.565 87.2718 284.447 87.3298C286.333 87.3878 286.934 87.3988 291.733 87.3288C296.53 87.2568 297.13 87.2268 299.015 87.1148C300.893 87.0008 302.172 86.6828 303.292 86.2298C304.447 85.7608 305.423 85.1419 306.389 84.1449C307.358 83.1489 307.948 82.1548 308.38 80.9858C308.8 79.8558 309.081 78.5678 309.137 76.6848C309.195 74.7998 309.207 74.1978 309.135 69.3988C309.066 64.6018 309.037 64.0008 308.921 62.1168C308.809 60.2388 308.49 58.9578 308.036 57.8408C307.568 56.6868 306.95 55.7108 305.952 54.7418C304.956 53.7748 303.962 53.1858 302.795 52.7518C301.664 52.3308 300.375 52.0519 298.493 51.9939C296.607 51.9359 296.006 51.9249 291.207 51.9949C286.41 52.0659 285.807 52.0938 283.925 52.2088ZM282.398 69.7959C282.472 74.8059 286.593 78.8069 291.605 78.7339C296.614 78.6589 300.615 74.5359 300.541 69.5259C300.467 64.5159 296.346 60.5149 291.334 60.5879C286.326 60.6639 282.322 64.7839 282.398 69.7959ZM285.58 69.7478C285.534 66.4968 288.131 63.8208 291.383 63.7728C294.634 63.7238 297.312 66.3228 297.358 69.5738C297.407 72.8268 294.809 75.5019 291.558 75.5509C288.303 75.5969 285.629 73.0008 285.58 69.7478ZM281.867 58.2499C283.04 58.2339 284.001 59.1678 284.02 60.3388C284.036 61.5088 283.101 62.4718 281.931 62.4898C280.76 62.5078 279.797 61.5718 279.781 60.4018C279.761 59.2298 280.696 58.2669 281.867 58.2499Z" fill="#17DA17"/>
<path d="M359.436 95.6585L355.363 94.5036L358.219 84.4336C359.315 80.5686 357.06 76.5246 353.192 75.4276C349.327 74.3316 345.286 76.5886 344.19 80.4546L341.334 90.5246L337.261 89.3696L340.117 79.2995C341.851 73.1855 348.234 69.6236 354.347 71.3576C360.464 73.0926 364.026 79.4756 362.292 85.5896L359.436 95.6585Z" fill="#B40057"/>
<path d="M360.606 92.652L337.843 86.1949C336.34 85.7689 334.781 86.6409 334.355 88.1429L329.906 103.828C329.479 105.332 330.35 106.887 331.853 107.314L354.616 113.771C356.118 114.197 357.676 113.33 358.103 111.827L362.552 96.142C362.977 94.639 362.108 93.078 360.606 92.652ZM347.321 100.126L346.26 103.867C346.096 104.444 345.492 104.78 344.916 104.616C344.338 104.452 344 103.849 344.164 103.272L345.225 99.531C344.56 98.923 344.247 97.973 344.51 97.046C344.879 95.745 346.235 94.987 347.542 95.358C348.847 95.728 349.603 97.085 349.234 98.386C348.971 99.314 348.206 99.958 347.321 100.126Z" fill="#B40057"/>
<defs>
<linearGradient id="paint0_linear" x1="249.316" y1="398.126" x2="249.316" y2="41.2993" gradientUnits="userSpaceOnUse">
<stop offset="0.0064" stop-color="#FFFF00"/>
<stop offset="0.1184" stop-color="#D1F800"/>
<stop offset="0.253" stop-color="#92EF00"/>
<stop offset="0.3861" stop-color="#5EE700"/>
<stop offset="0.5058" stop-color="#35E100"/>
<stop offset="0.6001" stop-color="#18DD00"/>
<stop offset="0.665" stop-color="#06DA00"/>
<stop offset="0.7442" stop-color="#00D900"/>
</linearGradient>
</defs>
</svg>
