<svg width="498" height="424" viewBox="0 0 498 424" fill="none" xmlns="http://www.w3.org/2000/svg">
<g clip-path="url(#clip0)">
<path opacity="0.6" d="M400.53 379.062C389.077 398.835 345.237 437.062 279.238 415.062C213.238 393.062 225.83 320.134 179.034 290.098C132.238 260.062 51.9685 162.062 87.2675 98.0624C122.566 34.0624 320.314 27.4424 407.026 133.442C452.627 189.186 434.711 320.051 400.53 379.062Z" fill="url(#paint0_linear)"/>
<path d="M305.987 424C306.008 420.47 306.041 416.94 306.044 413.41C306.06 395.548 294.942 351.796 294.942 351.796C256.622 339.19 213.613 342.89 174.579 350.601C174.579 350.601 166.626 382.837 161.407 424H305.987Z" fill="#015E7E"/>
<path d="M196.556 160.172C196.589 159.618 196.629 159.064 196.675 158.511C197.064 153.924 199.667 147.512 198.693 143.015C198.643 142.785 198.593 142.555 198.543 142.325C196.01 130.654 192.523 118.771 191.452 106.837C190.564 96.8297 193.037 87.3836 200.023 79.9676C202.321 77.5196 204.895 75.4827 207.673 73.7997C210.522 72.0617 213.581 70.7146 216.772 69.6916C219.937 68.6626 223.248 67.9657 226.584 67.5597C238.87 63.1827 251.404 65.4196 261.981 71.6446C270.988 74.9956 279.178 79.9496 284.803 88.2486C286.97 91.4446 288.626 95.0217 289.454 98.8017C290.387 103.06 289.334 107.309 290.026 111.526C290.768 116.048 294.638 118.88 296.918 122.61C298.939 125.917 299.277 129.74 298.648 133.507C297.957 137.658 295.553 142.609 293.986 147.522C294.371 149.29 294.864 151.032 295.516 152.732C298.233 159.806 304.057 163.598 308.824 169.09C313.876 174.928 313.637 183.175 319.353 188.473C319.516 188.629 319.693 188.794 319.859 188.961C322.124 191.169 324.374 194.048 325.427 196.874C324.148 197.372 322.941 198.002 321.812 198.795C317.947 201.531 316.014 204.54 311.262 206.208C307.392 207.564 303.366 208.555 299.43 209.706C291.14 212.103 284.791 215.832 277.298 219.949C276.452 218.561 275.677 217.12 274.971 215.66C274.742 215.2 274.528 214.75 274.312 214.286C273.371 212.283 272.506 210.247 271.633 208.226C269.155 202.521 266.664 196.819 264.198 191.111C263.934 190.512 263.684 189.923 263.422 189.324C262.823 187.948 262.212 186.562 261.61 185.176C261.01 183.788 260.398 182.403 259.778 181.033C256.119 182.496 252.258 183.455 248.592 183.971C243.89 184.629 238.095 185.354 233.365 183.873C233.356 183.887 233.359 183.899 233.362 183.91C233.296 184.135 233.092 184.348 232.858 184.395C227.07 185.426 220.569 186.195 215.222 184.228C212.548 187.147 208.53 188.557 204.686 185.934C197.533 181.05 196.097 168.068 196.556 160.172Z" fill="#6A433E"/>
<path d="M248.317 164.473L248.967 196.673L230.449 204.45L212.295 196.429L215.34 138.794L243.968 153.575L248.317 164.473Z" fill="#FFA587"/>
<path d="M265.302 160.931L268.582 161.05C269.344 161.078 269.983 160.482 270.011 159.721L270.744 139.498C270.771 138.736 270.175 138.096 269.414 138.068L266.134 137.949C265.372 137.921 264.732 138.517 264.704 139.278L263.971 159.501C263.944 160.263 264.54 160.903 265.302 160.931Z" fill="#8F0051"/>
<path d="M267.358 112.327C267.358 112.327 267.023 143.082 265.671 147.896C264.319 152.71 251.823 171.326 242.162 169.493C232.501 167.662 212.304 151.8 212.304 151.8L202.887 121.526C202.887 121.526 204.124 105.183 205.918 102.876C207.713 100.569 230.179 79.8885 233.479 80.7425C236.779 81.5965 245.369 83.5665 250.427 88.1335C255.487 92.6985 267.358 112.327 267.358 112.327Z" fill="#FFA587"/>
<path d="M231.595 127.043C231.829 124.531 231.052 122.405 229.859 122.294C228.666 122.183 227.509 124.129 227.274 126.64C227.04 129.152 227.817 131.278 229.01 131.389C230.203 131.501 231.36 129.555 231.595 127.043Z" fill="#36303A"/>
<path d="M256.311 128.306C256.078 130.818 254.92 132.763 253.727 132.652C252.534 132.54 251.757 130.415 251.991 127.903C252.225 125.391 253.382 123.446 254.575 123.557C255.769 123.668 256.546 125.794 256.311 128.306Z" fill="#36303A"/>
<path d="M250.473 116.071C254.312 115.149 260.356 115.827 262.622 119.522C262.743 119.719 262.771 119.992 262.649 120.197C261.644 121.876 258.3 120.105 256.875 119.881C254.668 119.534 252.598 119.654 250.399 119.632C249.622 119.624 248.817 119.71 248.243 119.036C246.863 117.414 249.266 116.361 250.473 116.071Z" fill="#6A433E"/>
<path d="M236.021 119.413C235.396 120.039 234.601 119.889 233.828 119.835C231.636 119.682 229.586 119.399 227.363 119.569C225.926 119.679 222.458 121.176 221.59 119.425C221.484 119.211 221.535 118.942 221.67 118.755C224.219 115.258 230.288 115.064 234.036 116.286C235.214 116.67 237.523 117.909 236.021 119.413Z" fill="#6A433E"/>
<path d="M202.194 129.438C200.904 121.952 200.025 114.34 201.643 106.968C201.284 106.147 200.341 105.737 199.863 104.979C199.385 104.221 200.107 102.817 200.835 103.338C200.496 97.5629 200.163 91.7038 201.382 86.0478C202.602 80.3928 205.591 74.8688 210.538 71.8708C215.127 69.0898 220.92 68.7928 226.112 70.1458C228.032 67.0708 232.319 66.6468 235.926 67.0088C242.609 67.6798 249.12 69.9418 254.8 73.5218C256.122 74.3558 257.642 75.2308 258.688 76.4038C259.692 77.5318 261.19 78.2578 262.354 79.2408C264.925 81.4128 267.077 84.0539 268.824 86.9239C270.502 89.6779 271.819 92.6469 272.81 95.7129C275.301 103.411 275.876 111.577 276.433 119.648C276.871 125.976 277.307 132.304 277.745 138.633C277.872 140.49 277.996 142.396 277.453 144.177C276.91 145.958 275.544 147.611 273.711 147.942C274.253 148.601 273.558 149.793 272.717 149.647C269.739 142.644 269.327 134.87 268.159 127.35C266.992 119.83 265.491 116.064 259.92 110.882C251.292 102.857 236.857 103.206 229.051 94.3788C227.376 99.1418 222.673 102.002 218.941 105.403C215.721 108.338 212.367 107.834 210.483 111.763C208.995 110.72 206.778 111.553 205.769 113.064C204.76 114.575 204.666 116.507 204.735 118.323C204.85 121.287 205.315 124.239 206.118 127.095C206.716 129.223 207.519 131.331 208.848 133.097C209.507 133.973 210.291 134.759 210.854 135.699C211.481 136.745 211.811 137.938 212.105 139.121C212.894 142.289 212.387 156.155 210.938 156.623C206.067 150.121 204.458 141.817 202.982 133.827C202.716 132.372 202.447 130.908 202.194 129.438Z" fill="#6A433E"/>
<path d="M240.427 170.065C242.348 169.946 243.236 169.514 243.371 169.442C243.796 169.216 243.958 168.689 243.732 168.263C243.508 167.84 242.985 167.68 242.564 167.895C242.514 167.919 240.869 168.672 236.91 168.184C233.926 167.817 222.592 156.309 216.15 149.142C215.827 148.783 215.273 148.756 214.919 149.076C214.56 149.397 214.532 149.949 214.852 150.307C216.603 152.254 232.087 169.347 236.698 169.914C238.227 170.103 239.459 170.124 240.427 170.065Z" fill="#ED835C"/>
<path d="M245.463 144.662C246.122 144.494 246.73 144.18 247.186 143.646C248.702 141.863 247.153 130.233 246.415 125.316C246.344 124.839 245.899 124.512 245.423 124.583C244.953 124.656 244.62 125.098 244.69 125.575C245.784 132.871 246.535 141.43 245.844 142.534C245.009 143.511 242.364 142.952 241.504 142.675C241.047 142.529 240.554 142.779 240.406 143.238C240.259 143.696 240.509 144.187 240.967 144.335C241.302 144.443 243.589 145.141 245.463 144.662Z" fill="#FFA587"/>
<path d="M209.7 133.695C210.273 135.943 211.875 137.475 213.278 137.117C214.68 136.76 215.353 134.647 214.78 132.399C214.207 130.151 212.605 128.62 211.202 128.977C209.8 129.334 209.127 131.448 209.7 133.695Z" fill="white"/>
<path d="M210.813 159.288L214.094 159.369C214.856 159.388 215.489 158.785 215.508 158.023L216.008 137.793C216.027 137.031 215.424 136.398 214.662 136.379L211.381 136.298C210.619 136.279 209.986 136.882 209.967 137.644L209.467 157.874C209.448 158.636 210.051 159.269 210.813 159.288Z" fill="#8F0051"/>
<path d="M230.883 92.2436C231.185 92.1676 231.374 91.8656 231.308 91.5586C231.272 91.3956 230.428 87.5126 228.668 85.5376C227.983 84.7686 227.322 84.3906 226.739 84.0556C225.838 83.5386 225.126 83.1306 224.526 81.2826C224.094 79.9586 223.746 78.6066 223.438 77.4126C222.973 75.6096 222.571 74.0526 222.019 73.0316C221.043 71.2246 218.686 70.4226 218.586 70.3896C218.28 70.2876 217.953 70.4526 217.851 70.7566C217.749 71.0606 217.913 71.3896 218.218 71.4926C218.237 71.4996 220.242 72.1866 220.995 73.5846C221.479 74.4816 221.864 75.9746 222.311 77.7036C222.623 78.9126 222.976 80.2846 223.419 81.6436C224.159 83.9176 225.176 84.5006 226.16 85.0636C226.716 85.3826 227.241 85.6836 227.798 86.3106C229.352 88.0556 230.162 91.7646 230.169 91.8016C230.236 92.1156 230.546 92.3156 230.86 92.2486C230.868 92.2466 230.877 92.2446 230.883 92.2436Z" fill="#36303A"/>
<path d="M310.178 209.183C310.181 209.182 310.184 209.182 310.187 209.18C310.496 209.095 310.679 208.774 310.594 208.465C310.503 208.132 308.302 200.222 303.876 194.39C302.482 192.555 301.099 190.865 299.635 189.075C296.495 185.238 293.249 181.269 289.69 175.559C287.002 171.242 286.805 167.846 286.597 164.252C286.414 161.101 286.226 157.842 284.21 154.029C282.144 150.121 280.174 147.956 278.59 146.217C276.93 144.393 275.732 143.077 275.106 140.622C274.636 138.778 274.679 136.19 274.728 133.194C274.812 128.154 274.913 121.881 272.691 115.451C269.108 105.088 258.224 101.818 257.762 101.684C257.452 101.594 257.132 101.771 257.042 102.08C256.953 102.388 257.129 102.71 257.437 102.8C257.545 102.832 268.21 106.046 271.591 115.83C273.748 122.065 273.646 128.225 273.565 133.173C273.515 136.253 273.471 138.913 273.98 140.907C274.678 143.642 276.026 145.123 277.732 146.997C279.271 148.688 281.186 150.792 283.183 154.57C285.082 158.159 285.256 161.15 285.438 164.316C285.645 167.898 285.859 171.601 288.704 176.17C292.303 181.944 295.573 185.942 298.735 189.807C300.193 191.588 301.569 193.27 302.949 195.09C307.238 200.74 309.452 208.689 309.474 208.768C309.558 209.08 309.871 209.262 310.178 209.183Z" fill="#36303A"/>
<path d="M280.665 123.579C280.916 123.515 281.101 123.288 281.101 123.016C281.101 122.543 280.999 111.291 271.53 99.6492C262.023 87.9652 246.903 87.3112 246.752 87.3052C246.427 87.2922 246.162 87.5461 246.151 87.8661C246.14 88.1871 246.391 88.4561 246.711 88.4681C246.857 88.4731 261.463 89.1191 270.627 100.384C279.824 111.688 279.938 122.905 279.938 123.016C279.938 123.337 280.198 123.597 280.52 123.597C280.57 123.597 280.619 123.59 280.665 123.579Z" fill="#36303A"/>
<path d="M211.585 108.623C211.693 108.595 211.795 108.536 211.874 108.446C211.904 108.413 214.841 105.146 220.046 102.021C225.482 98.757 228.034 93.7199 228.14 93.5069C228.282 93.2189 228.166 92.8719 227.879 92.7269C227.592 92.5849 227.243 92.6989 227.099 92.9879C227.074 93.0369 224.581 97.941 219.447 101.023C214.08 104.246 211.128 107.534 211.005 107.672C210.792 107.912 210.814 108.279 211.054 108.492C211.205 108.628 211.404 108.669 211.585 108.623Z" fill="#36303A"/>
<path d="M263.899 180.002C263.921 179.996 263.94 179.99 263.962 179.983C264.262 179.87 264.414 179.535 264.301 179.234C264.278 179.174 262.026 173.172 261.162 168.772C260.302 164.377 260.163 163.035 260.163 163.022C260.132 162.703 259.847 162.469 259.528 162.5C259.197 162.537 258.975 162.815 259.005 163.134C259.011 163.188 259.145 164.516 260.021 168.994C260.902 173.493 263.117 179.394 263.212 179.643C263.317 179.923 263.617 180.073 263.899 180.002Z" fill="#36303A"/>
<path d="M245.918 130.232C247.012 137.528 247.641 142.004 246.133 142.968C245.298 143.945 242.653 143.386 241.793 143.109" stroke="#ED835C" stroke-opacity="0.2" stroke-width="1.5775" stroke-miterlimit="10" stroke-linecap="round"/>
<path d="M266.076 192.635C266.076 192.635 258.546 190.544 254.396 185.916C250.247 181.286 247.029 177.702 247.029 177.702L216.646 174.119C216.646 174.119 209.925 178.749 204.698 181.736C199.471 184.722 196.187 185.17 196.187 185.17C196.187 185.17 205.27 198.76 208.718 199.954C212.166 201.147 221.124 205.18 229.636 205.18C238.148 205.18 241.733 206.674 249.947 202.492C258.162 198.31 266.076 192.635 266.076 192.635Z" fill="#FFA587"/>
<path d="M137.886 279.565C138.888 265.284 139.269 255.742 140.158 241.454C140.943 228.825 142.507 221.965 148.085 210.523C150.368 201.814 157.966 196.216 166.029 192.997C171.85 190.673 177.871 188.898 183.915 187.259C186.949 186.436 189.994 185.652 193.036 184.85C195.259 184.262 197.802 182.199 200.129 183.251C202.045 184.118 203.233 186.261 204.797 187.601C206.892 189.398 209.23 190.909 211.594 192.336C215.496 194.69 219.719 196.508 224.111 197.725C232.877 200.157 242.261 200.173 251.029 197.746C253.815 196.975 256.5 195.893 259.149 194.744C260.179 194.297 261.284 193.941 262.263 193.388C263.238 192.837 263.912 192.019 264.87 191.434C266.957 190.155 268.376 191.69 270.271 192.486C272.283 193.329 274.297 194.167 276.307 195.017C280.435 196.762 284.548 198.543 288.591 200.482C296.527 204.288 302.662 209.964 308.112 216.765C312.956 222.809 314.389 230.5 317.022 237.884C319.785 245.628 323.196 248.648 325.011 256.689C326.605 263.748 324.528 277.469 327.343 284.386C330.232 291.479 334.763 304.771 335.268 312.537C335.728 319.596 334.695 327.128 331.543 333.521C328.318 340.058 322.551 344.353 315.176 344.743C314.257 344.792 313.348 344.775 312.445 344.72C314.018 344.818 317.294 357.777 317.758 359.452C320.489 369.274 323.354 381.594 321.506 391.799C318.043 410.933 299.313 418.679 298.33 416.309C296.961 413.008 299.574 369.194 295.187 358.514C280.691 351.658 263.988 351.473 248.165 351.717C232.489 351.959 216.833 352.974 201.255 354.717C196.296 369.453 191.338 384.188 186.378 398.923L182.187 411.376C181.28 414.071 180.607 417.815 178.249 419.707C177.775 420.088 177.231 420.333 176.669 420.47C176.616 420.792 176.356 421.058 175.97 420.905C175.722 420.806 175.486 420.695 175.244 420.588C174.117 420.499 173.088 419.991 172.54 419.181C157.655 420.95 154.8 404.637 153.772 392.415C152.568 378.109 162.213 334.51 164.475 320.349C160.806 321.114 134.974 336.168 137.886 279.565Z" fill="#B40057"/>
<path d="M251.318 183.514C251.416 182.711 251.577 181.961 251.78 181.251C251.356 178.282 251.141 175.274 250.943 172.303C250.892 171.546 252.064 171.305 252.115 172.073C252.265 174.324 252.432 176.623 252.697 178.911C257.618 169.404 273.416 170.37 282.268 173.721C291.336 177.153 298.948 183.83 303.54 192.262C310.129 197.56 316.404 203.754 317.696 212.451C318.389 217.113 316.972 222.947 313.499 225.918C309.074 225.215 305.001 223.455 300.458 223.205C295.647 222.941 291.322 223.967 286.751 225.341C284.911 225.893 282.677 226.639 280.483 226.936C279.714 226.497 279.004 225.929 278.381 225.2C275.448 221.775 275.636 216.76 273.79 212.825C271.586 208.128 267.055 205.211 263.136 202.068C259.114 198.843 255.914 195.208 254.03 190.343C253.235 188.291 252.672 186.174 252.25 184.025C251.879 184.27 251.249 184.081 251.318 183.514Z" fill="#6A433E"/>
<path d="M199.567 345.723C199.567 345.723 185.032 418.598 170.895 419.395C156.758 420.192 154.748 400.379 154.748 400.379C154.748 400.379 164.523 354.882 164.723 354.285C164.922 353.688 172.289 341.742 178.063 341.742C183.838 341.742 199.567 345.723 199.567 345.723Z" fill="#B40057"/>
<path d="M181.1 280.797C181.397 280.797 181.652 280.569 181.678 280.267C181.694 280.085 183.222 261.963 180.925 248.609C179.717 241.588 154.967 212.576 153.913 211.345C153.704 211.1 153.337 211.075 153.093 211.282C152.848 211.489 152.821 211.858 153.029 212.1C153.284 212.4 178.624 242.099 179.777 248.807C182.05 262.012 180.535 279.988 180.518 280.168C180.49 280.487 180.727 280.769 181.047 280.796C181.067 280.797 181.084 280.797 181.1 280.797Z" fill="black"/>
<path d="M311.616 345.209C311.814 345.209 312.009 345.107 312.117 344.923C312.279 344.647 312.189 344.291 311.914 344.127C311.824 344.075 302.972 338.721 300.084 327.312C297.142 315.69 295.782 303.91 295.768 303.793C295.732 303.474 295.441 303.241 295.124 303.282C294.805 303.318 294.576 303.606 294.612 303.924C294.626 304.044 295.993 315.897 298.957 327.596C301.968 339.491 310.941 344.903 311.321 345.128C311.412 345.184 311.515 345.209 311.616 345.209Z" fill="black"/>
<path d="M291.155 258.447C291.194 258.447 291.232 258.443 291.27 258.435C291.585 258.373 291.789 258.067 291.727 257.753C291.607 257.156 289.644 242.376 288.897 236.733C288.852 236.414 288.561 236.192 288.244 236.233C287.925 236.275 287.701 236.568 287.743 236.886C287.852 237.716 290.436 257.223 290.587 257.979C290.641 258.255 290.884 258.447 291.155 258.447Z" fill="black"/>
<path d="M177.157 371.942C177.408 371.942 177.639 371.778 177.714 371.525C177.756 371.383 181.962 357.298 186.415 353.275C190.892 349.232 198.082 347.194 198.154 347.174C198.463 347.088 198.643 346.768 198.557 346.458C198.471 346.15 198.149 345.969 197.84 346.054C197.536 346.139 190.313 348.187 185.634 352.412C180.937 356.654 176.771 370.604 176.596 371.197C176.505 371.505 176.681 371.828 176.989 371.919C177.047 371.934 177.103 371.942 177.157 371.942Z" fill="black"/>
<path d="M295.191 361.787C295.458 361.787 295.698 361.602 295.759 361.332C295.828 361.019 295.632 360.708 295.319 360.638C295.104 360.589 273.64 355.828 249.182 353.904C227.841 352.228 200.923 355.664 200.654 355.699C200.336 355.74 200.111 356.032 200.152 356.35C200.194 356.668 200.48 356.891 200.804 356.852C201.072 356.817 227.869 353.396 249.091 355.064C273.468 356.98 294.851 361.723 295.065 361.771C295.108 361.782 295.15 361.787 295.191 361.787Z" fill="black"/>
<path d="M245.037 352.453C246.556 352.453 247.746 350.607 247.746 348.249C247.746 345.893 246.557 344.047 245.037 344.047C243.517 344.047 242.327 345.892 242.327 348.249C242.326 350.607 243.516 352.453 245.037 352.453ZM245.037 345.209C245.768 345.209 246.584 346.458 246.584 348.25C246.584 350.041 245.769 351.29 245.037 351.29C244.304 351.29 243.489 350.041 243.489 348.25C243.489 346.458 244.304 345.209 245.037 345.209Z" fill="black"/>
<path d="M240.982 423.999C241.29 423.999 241.548 423.8 241.562 423.545L245.618 355.176C245.634 354.913 245.387 354.688 245.066 354.676C244.698 354.664 244.472 354.865 244.457 355.13L240.402 423.498C240.386 423.761 240.633 423.987 240.954 423.999C240.963 423.999 240.972 423.999 240.982 423.999Z" fill="black"/>
<path d="M242.125 415.624C242.434 415.624 242.693 415.379 242.706 415.067C242.718 414.746 242.471 414.477 242.152 414.462C241.944 414.452 237.054 414.094 235.381 405.546C233.624 396.569 236.95 354.494 236.983 354.07C237.009 353.749 236.771 353.47 236.451 353.444C236.127 353.427 235.85 353.656 235.825 353.977C235.686 355.714 232.453 396.637 234.241 405.769C236.098 415.269 241.856 415.613 242.1 415.623C242.108 415.624 242.117 415.624 242.125 415.624Z" fill="black"/>
<path d="M298.126 387.521C298.22 387.521 298.315 387.499 298.404 387.451C298.686 387.297 298.789 386.944 298.637 386.662L283.307 358.531C283.151 358.249 282.8 358.146 282.518 358.299C282.236 358.452 282.132 358.805 282.285 359.087L297.615 387.218C297.721 387.411 297.92 387.521 298.126 387.521Z" fill="black"/>
<path d="M193.196 380.154C193.384 380.154 193.571 380.063 193.682 379.891L209.565 355.7C209.741 355.431 209.666 355.07 209.398 354.894C209.132 354.719 208.77 354.79 208.593 355.061L192.71 379.252C192.534 379.521 192.609 379.882 192.877 380.058C192.975 380.123 193.085 380.154 193.196 380.154Z" fill="black"/>
<path d="M248.766 151.496C248.797 151.428 243.617 151.745 241.185 151.892C240.994 151.903 240.802 151.913 240.611 151.925C239.909 152.376 239.14 152.515 238.269 152.564C236.808 152.646 234.966 152.206 233.68 151.378C233.728 151.457 233.776 151.537 233.824 151.617C233.827 151.645 233.841 151.671 233.867 151.689C234.615 152.922 235.471 154.14 236.824 154.973C238.219 155.831 239.969 156.221 241.708 156.253C242.748 156.272 244.334 156.04 245.353 155.844C247.411 155.447 248.36 152.358 248.766 151.496Z" fill="white"/>
<path d="M248.774 151.403C248.23 150.366 247.918 149.354 246.52 149.516C245.441 149.642 244.626 150.448 243.808 151.118C243.894 150.762 243.846 150.405 243.51 150.097C242.833 149.478 241.69 149.579 240.875 149.789C239.796 150.067 238.846 150.655 237.827 151.08C236.509 151.63 235.142 151.713 233.782 151.246C233.662 151.205 233.584 151.332 233.619 151.423C233.619 151.461 233.633 151.499 233.671 151.528C235.893 153.2 239.058 153.312 241.778 153.448C245.098 153.614 247.517 153.368 248.702 151.701C248.773 151.573 248.83 151.51 248.774 151.403Z" fill="#D56C4E"/>
<path d="M230.264 273.748C230.264 273.748 225.235 256.472 198.02 262.952C170.805 269.432 134.593 288.13 137.664 309.503C142.609 343.919 174.034 326.283 193.171 321.608C212.308 316.933 232.408 317.278 238.089 300.717C243.769 284.157 230.264 273.748 230.264 273.748Z" fill="#B40057"/>
<path d="M275.082 301.174C275.082 301.174 211.056 288.974 178.084 284.659C167.307 285.756 158.634 300.777 169.636 310.811C191.278 325.238 273.403 311.251 273.403 311.251L275.082 301.174Z" fill="#FFA587"/>
<path d="M226.556 292.351C226.556 292.351 213.378 264.262 173.094 271.198" stroke="black" stroke-miterlimit="10"/>
<path d="M215.38 317.057C215.38 317.057 213.226 332.558 169.881 332.222" stroke="black" stroke-miterlimit="10"/>
<path d="M258.645 349.678L253.221 422.635C253.221 422.635 318.167 422.635 361.138 422.635L359.692 367.24" fill="#FDEEF6"/>
<path d="M346.462 296.927C346.56 296.574 346.666 296.193 346.758 295.864C347.542 293.301 348.384 290.643 350.035 288.486C351.685 286.329 353.552 284.62 354.779 282.196C356.035 279.471 357.064 276.647 357.854 273.751C358.814 270.671 359.079 267.418 358.632 264.224C357.632 257.603 354.532 251.477 349.788 246.751C338.553 235.495 321.091 231.089 307.286 240.463C305.699 241.545 304.224 242.788 302.889 244.171C298.941 248.197 295.484 252.675 292.589 257.513C289.407 262.871 286.193 269.429 287.826 275.802C288.379 278.067 289.383 280.198 290.778 282.067C289.638 287.162 292.627 293.517 295.626 297.394C297.948 300.411 301.691 300.874 305.82 298.728C308.988 298.929 313.506 301.521 315.403 299.219C316.087 300.816 317.028 302.289 318.188 303.581C320.461 305.976 324.631 303.429 327.71 304.349C330.167 305.087 334.732 308.562 334.732 308.562C336.018 308.341 337.282 308.007 338.51 307.566C342.972 305.557 345.032 301.302 346.462 296.927Z" fill="#522C26"/>
<path d="M383.185 348.948C382.509 345.339 381.29 341.854 379.568 338.61C378.476 336.526 377.242 334.519 375.876 332.603C369.185 323.331 360.666 315.527 350.844 309.673C346.247 306.898 341.377 304.602 336.311 302.821L336.006 302.714C333.844 301.953 331.652 301.322 329.429 300.788C326.081 299.972 322.676 299.412 319.243 299.114C318.542 299.06 317.851 299.015 317.15 298.976C317.03 298.809 316.898 298.651 316.754 298.505C316.754 298.444 316.754 298.375 316.639 298.383C315 298.464 313.366 298.569 311.736 298.696L310.214 298.802C307.676 299 305.138 299.239 302.602 299.518H302.335C295.117 300.285 287.967 301.588 280.943 303.416C275.133 304.981 269.466 307.036 264.003 309.561C261.38 310.763 258.761 311.986 256.147 313.23C253.163 314.639 250.178 316.069 247.195 317.494L246.708 317.73C237.435 322.167 227.432 327.101 221.349 335.75C220.315 337.218 219.423 338.781 218.684 340.417C217.367 343.137 216.89 346.187 217.313 349.179C217.488 350.266 217.893 351.305 218.501 352.223C219.109 353.142 219.906 353.921 220.838 354.508C221.533 354.929 222.284 355.249 223.069 355.46C224.42 355.811 225.817 355.953 227.21 355.879C229.783 355.684 232.323 355.174 234.77 354.357C237.731 353.466 240.655 352.453 243.678 351.775L244.492 351.6L245.39 351.433C249.364 350.732 253.452 350.58 257.373 349.644C255.499 353.246 280.016 403.441 286.797 406.323L290.733 407.983C294.687 409.632 298.659 411.228 302.647 412.771L305.86 414.005L309.667 415.428C310.656 415.793 311.737 416.19 312.758 415.687C313.169 415.456 313.545 415.169 313.877 414.835L315.651 413.205L318.757 410.35L325.151 404.488C326.072 403.65 326.994 402.805 327.892 401.945C328.904 400.981 329.865 399.965 330.77 398.9C334.074 394.995 335.658 390.16 337.736 385.569C337.811 385.394 337.896 385.227 337.971 385.06C338.047 384.892 338.116 384.763 338.184 384.618C340.62 379.669 340.872 375.017 340.994 370.214C341.664 370.153 348.606 370.571 349.231 370.548C351.07 370.489 352.911 370.578 354.736 370.815C358.134 371.289 361.559 371.544 364.99 371.577C368.204 371.637 371.414 371.333 374.56 370.671C375.905 370.384 377.18 369.827 378.306 369.034C379.34 368.207 380.186 367.169 380.788 365.989C383.718 360.924 384.213 354.673 383.185 348.948Z" fill="#FDEEF6"/>
<path d="M262.564 301.475C262.564 301.475 274.616 295.027 277.764 296.148C280.912 297.27 285.385 299.684 287.172 301.63C289.065 303.693 292.041 306.763 291.041 308.556C289.82 310.746 284.607 305.071 283.747 305.133C282.887 305.196 289.205 309.94 290.161 311.694C291.118 313.449 288.838 314.514 288.838 314.514C288.838 314.514 288.12 316.55 286.141 316.215C284.163 315.88 281.783 314.882 281.783 314.882C281.783 314.882 281.791 317.14 280.201 316.988C278.611 316.836 273.038 313.034 271.157 312.744C269.276 312.454 266.886 313.092 263.417 312.881C259.948 312.67 256.464 309.462 256.464 309.462L262.564 301.475Z" fill="#F39E7E"/>
<path d="M275.506 306.993C275.615 307.097 275.749 307.178 275.903 307.225C275.932 307.233 278.677 308.079 280.983 309.496C283.339 310.943 287.7 314.632 287.744 314.669C288.163 315.024 288.791 314.972 289.146 314.554C289.501 314.135 289.437 313.506 289.03 313.152C288.848 312.996 284.511 309.33 282.026 307.803C279.496 306.248 276.606 305.36 276.485 305.322C275.96 305.163 275.404 305.458 275.245 305.985C275.13 306.355 275.244 306.741 275.506 306.993Z" fill="#E27E66"/>
<path d="M274.046 310.838C274.127 310.916 274.223 310.981 274.332 311.03C275.186 311.407 278.583 313.746 280.524 315.131C280.971 315.451 281.592 315.347 281.911 314.9C282.23 314.451 282.115 313.823 281.679 313.513C281.149 313.135 276.456 309.793 275.136 309.21C274.633 308.988 274.045 309.215 273.825 309.719C273.649 310.112 273.752 310.557 274.046 310.838Z" fill="#E27E66"/>
<path d="M278.506 303.135C278.619 303.243 278.757 303.325 278.918 303.372L279.602 303.568C279.948 303.684 281.374 304.626 282.485 305.431C282.93 305.753 283.552 305.655 283.874 305.21C284.196 304.764 284.103 304.152 283.652 303.82C282.856 303.243 280.921 301.876 280.151 301.656L279.468 301.461C278.939 301.309 278.389 301.614 278.237 302.142C278.132 302.509 278.247 302.887 278.506 303.135Z" fill="#E27E66"/>
<path d="M269.364 341C263.699 341.098 257.792 341.083 252.28 342.591C251.252 342.839 250.3 343.338 249.51 344.044C248.721 344.749 248.119 345.639 247.758 346.633C247.163 348.057 246.57 350.165 245.428 351.467C249.402 350.768 253.491 350.615 257.411 349.678L257.807 349.374C259.688 348.011 261.781 346.968 263.662 345.567C265.542 344.166 267.339 342.522 269.485 341.418C269.519 341.387 269.543 341.348 269.555 341.304C269.567 341.26 269.567 341.214 269.554 341.171C269.541 341.127 269.517 341.088 269.483 341.058C269.449 341.029 269.408 341.008 269.364 341Z" fill="#FDEEF6"/>
<path d="M246.713 322.364C246.667 321.656 246.317 320.575 245.404 320.742C244.855 320.848 244.467 321.397 244.118 321.785C243.592 322.379 243.059 322.973 242.527 323.559L239.185 327.297L238.423 328.119L237.244 329.437C236.785 329.898 236.379 330.409 236.033 330.96C235.696 331.654 235.507 332.411 235.478 333.183C235.386 334.005 235.325 334.834 235.288 335.664L235.227 335.619C235.105 335.527 234.945 335.702 235.067 335.802C235.424 336.063 235.869 336.175 236.307 336.113H236.376C236.848 336.08 237.318 336.022 237.784 335.938L238.805 335.74C239.278 335.711 239.733 335.538 240.107 335.245C240.495 334.708 240.805 334.118 241.028 333.494C241.681 332.131 242.42 330.811 243.243 329.543C244.004 328.363 244.948 327.259 245.649 326.034C245.912 325.583 246.134 325.109 246.311 324.617C246.592 323.9 246.729 323.135 246.713 322.364Z" fill="#F5A983"/>
<path d="M292.286 317.788L290.84 337.08L290.474 341.937C290.37 342.967 289.88 343.92 289.101 344.602C288.323 345.284 287.314 345.646 286.279 345.614L249.142 344.814C248.648 344.819 248.157 344.723 247.701 344.531C247.245 344.34 246.833 344.058 246.49 343.701C246.147 343.344 245.881 342.922 245.707 342.458C245.533 341.995 245.456 341.502 245.48 341.008L247.284 316.859C247.388 315.827 247.88 314.874 248.659 314.191C249.439 313.509 250.45 313.147 251.486 313.182L261.999 313.395L288.644 313.965C289.138 313.966 289.626 314.067 290.079 314.261C290.533 314.456 290.941 314.74 291.282 315.097C291.622 315.454 291.886 315.876 292.058 316.339C292.234 316.802 292.31 317.295 292.286 317.788Z" fill="#45477A"/>
<path d="M259.489 323.505C259.266 323.271 258.982 323.107 258.669 323.03C258.357 322.954 258.027 322.968 257.722 323.072C255.82 323.45 254.01 324.194 252.393 325.264C251.362 325.925 250.375 326.652 249.439 327.441L249.379 327.487C248.8 327.929 248.237 328.393 247.696 328.873C248.217 328.073 248.792 327.31 249.417 326.589C250.193 325.699 251.044 324.876 251.959 324.13C252.919 323.368 253.977 322.698 254.95 321.93C255.491 321.511 256.687 320.697 256.564 319.866C256.443 319.036 255.133 319.417 254.608 319.593C252.247 320.483 250.031 321.717 248.03 323.254C247.588 323.566 247.163 323.901 246.759 324.258C246.627 324.365 246.497 324.479 246.37 324.601C245.956 324.981 245.569 325.391 245.214 325.826C244.719 326.298 244.285 326.855 243.836 327.349L241.849 329.633C240.563 331.155 239.283 332.678 238.042 334.2L237.708 334.589C237.264 335.071 236.85 335.579 236.466 336.111L236.36 336.263C235.971 336.864 236.261 337.672 236.36 338.334C236.36 338.562 236.512 339.041 236.671 339.666C237.28 341.949 238.552 346.175 238.78 346.144C238.863 346.144 239.671 345.664 240.865 344.942C242.061 344.218 243.865 343.122 245.639 342.034L247.922 340.648C250.564 339.057 252.947 337.657 253.731 337.329C254.781 336.887 255.847 336.499 256.875 336.035C257.469 335.768 258.466 335.426 258.611 334.687C258.755 333.948 257.774 333.446 257.089 333.416C255.943 333.484 254.823 333.795 253.808 334.33C252 335.061 250.243 335.91 248.546 336.872C248.978 336.207 249.446 335.567 249.947 334.954C250.122 334.741 250.298 334.543 250.48 334.338C251.805 333.371 252.847 332.389 254.286 331.551C255.155 331.034 256.411 330.668 257.24 330.09C257.855 329.734 258.312 329.157 258.519 328.476C258.87 326.611 255.954 327.837 255.276 328.103C253.684 328.736 252.171 329.553 250.769 330.539L251.028 330.303C251.949 329.496 252.376 328.781 256.868 326.275C257.668 325.863 258.432 325.384 259.151 324.844C259.373 324.71 259.531 324.493 259.595 324.243C259.659 323.993 259.62 323.727 259.489 323.505Z" fill="#F5A983"/>
<path d="M244.071 350.614C243.961 350.351 243.832 350.096 243.683 349.853C243.432 349.449 243.157 349.091 242.921 348.657C242.51 347.964 242.107 347.271 241.719 346.578C241.094 345.457 240.503 344.322 239.945 343.176C239.147 341.528 238.465 339.826 237.904 338.083V337.984C237.508 336.739 237.206 335.467 236.998 334.178C236.998 333.994 236.937 333.804 236.914 333.614C236.892 333.424 236.854 333.104 236.831 332.853V332.556C236.831 332.176 236.831 331.794 236.892 331.414C236.99 330.106 237.165 328.804 237.417 327.517C237.494 327.128 237.584 326.755 237.661 326.344C237.857 325.551 237.939 324.733 237.905 323.915C237.904 323.894 237.897 323.875 237.886 323.856C237.875 323.839 237.86 323.824 237.841 323.814C237.822 323.804 237.802 323.799 237.781 323.799C237.76 323.8 237.739 323.806 237.722 323.815C235.595 324.97 233.535 326.241 231.548 327.622L231.167 327.896C229.706 328.936 228.285 330.04 226.904 331.208C225.247 332.588 223.671 334.063 222.184 335.624C221.17 336.672 220.281 337.835 219.535 339.088L219.414 339.301C219.402 339.289 219.388 339.278 219.372 339.27C219.357 339.263 219.339 339.26 219.322 339.26C219.305 339.26 219.288 339.263 219.272 339.27C219.257 339.278 219.242 339.289 219.23 339.301C216.855 343.618 217.251 349.267 221.21 352.791C221.56 353.1 221.928 353.388 222.314 353.651C223.982 354.788 225.893 355.518 227.894 355.783C230.612 356.148 241.91 352.174 242.427 352.045C243.25 351.908 244.413 351.384 244.071 350.614Z" fill="#FDEEF6"/>
<path d="M333.198 372.251C331.596 373.284 329.788 373.955 327.9 374.218C326.011 374.48 324.089 374.33 322.266 373.774C318.757 372.692 316.023 369.754 312.156 369.906C310.283 369.983 308.441 370.553 306.552 370.492C305.604 370.49 304.68 370.205 303.895 369.676C303.11 369.146 302.5 368.394 302.144 367.516C301.453 365.602 301.483 363.502 302.228 361.609C302.852 359.705 304.039 357.901 304.321 355.892C304.452 355.091 304.343 354.27 304.009 353.531C303.552 352.594 302.729 352.313 301.93 351.734C301.582 351.449 301.304 351.088 301.117 350.678C300.929 350.269 300.838 349.823 300.849 349.373C300.86 348.923 300.974 348.481 301.18 348.082C301.388 347.682 301.683 347.335 302.043 347.068C302.165 346.984 302.043 346.778 301.922 346.861C301.404 347.237 301.011 347.758 300.792 348.359C300.573 348.96 300.54 349.614 300.697 350.233C300.842 350.896 301.217 351.487 301.755 351.901C302.074 352.145 302.448 352.304 302.782 352.525C303.31 352.857 303.71 353.359 303.917 353.948C304.679 356.119 303.224 358.348 302.448 360.306C301.592 362.139 301.265 364.174 301.504 366.183C301.617 366.99 301.907 367.761 302.357 368.441C302.806 369.121 303.402 369.691 304.1 370.111C305.722 370.994 307.61 370.743 309.353 370.484C310.407 370.292 311.473 370.175 312.543 370.134C313.681 370.156 314.801 370.415 315.832 370.896C317.636 371.657 319.228 372.86 321.039 373.621C323.027 374.435 325.181 374.757 327.319 374.558C329.458 374.359 331.516 373.646 333.319 372.479C333.449 372.374 333.328 372.168 333.198 372.251Z" fill="#1F2144"/>
<path d="M235.142 329.437C231.952 329.209 228.465 329.574 226.166 332.048C226.06 332.163 226.235 332.33 226.334 332.215C228.617 329.786 232.013 329.452 235.142 329.673C235.294 329.688 235.294 329.444 235.142 329.437Z" fill="#1F2144"/>
<path d="M377.864 267.04C377.808 267.05 377.757 267.079 377.72 267.123C377.684 267.167 377.663 267.222 377.663 267.279C377.663 267.337 377.684 267.392 377.72 267.435C377.757 267.479 377.809 267.508 377.864 267.519C377.921 267.508 377.971 267.479 378.008 267.435C378.044 267.391 378.065 267.337 378.065 267.279C378.065 267.222 378.044 267.166 378.008 267.123C377.971 267.079 377.921 267.05 377.864 267.04Z" fill="#C38F6C"/>
<path d="M336.312 302.805C331.059 305.812 324.893 306.839 318.894 306.482C313.017 306.131 305.792 304.898 302.374 299.531H302.641C304.49 302.364 307.566 304.046 310.756 304.967C313.915 305.836 317.172 306.297 320.447 306.338C323.758 306.43 327.063 306.024 330.252 305.135C332.259 304.563 334.19 303.759 336.007 302.737L336.312 302.805Z" fill="#1F2144"/>
<path d="M327.526 338.854C327.077 338.911 326.632 338.994 326.194 339.104C324.123 339.613 321.869 340.217 320.271 341.708C319.288 342.622 318.451 343.77 317.15 344.243C315.711 344.768 314.683 344.059 313.854 342.925C313.352 342.083 312.628 341.396 311.76 340.938C310.851 340.54 309.823 340.507 308.89 340.847C308.746 340.893 308.807 341.13 308.951 341.076C309.483 340.881 310.053 340.812 310.616 340.875C311.179 340.938 311.719 341.132 312.194 341.44C313.039 341.996 313.48 342.925 314.135 343.672C315.331 345.027 317.036 344.844 318.399 343.823C319.29 343.153 319.96 342.248 320.82 341.54C321.823 340.795 322.961 340.249 324.17 339.933C325.261 339.557 326.381 339.275 327.52 339.089C327.519 339.013 327.519 338.93 327.526 338.854Z" fill="#1F2144"/>
<path d="M347.053 309.178C345.35 309.281 343.705 309.834 342.286 310.779C340.865 311.724 339.721 313.028 338.969 314.56C338.9 314.698 339.113 314.819 339.175 314.682C339.907 313.187 341.022 311.912 342.406 310.987C343.79 310.062 345.393 309.519 347.054 309.414C347.205 309.406 347.205 309.17 347.053 309.178Z" fill="#1F2144"/>
<path d="M362.621 339.577C357.543 336.242 351.202 336.958 345.675 338.527C345.643 338.535 345.616 338.554 345.6 338.583C345.584 338.61 345.579 338.644 345.587 338.675C345.596 338.707 345.615 338.733 345.644 338.75C345.671 338.766 345.705 338.771 345.736 338.762C351.225 337.239 357.476 336.479 362.485 339.783C362.629 339.866 362.75 339.66 362.621 339.577Z" fill="#1F2144"/>
<path d="M288.648 313.936L262.002 313.365C265.619 317.019 268.207 322.028 272.379 325.013C275.295 327.106 278.805 327.678 282.139 328.82C284.048 329.364 285.796 330.364 287.232 331.735C288.397 333.136 289.417 334.651 290.277 336.258C290.459 336.548 290.643 336.836 290.841 337.111L292.287 317.819C292.32 317.322 292.249 316.822 292.08 316.353C291.912 315.883 291.649 315.454 291.308 315.09C290.967 314.726 290.555 314.435 290.097 314.237C289.639 314.038 289.146 313.936 288.648 313.936Z" fill="#606295"/>
<path d="M307.268 342.022C307.116 341.443 306.957 340.872 306.788 340.301C306.218 338.375 305.548 336.494 304.809 334.621C303.869 332.345 302.804 330.126 301.62 327.968C300.747 326.398 299.767 324.89 298.689 323.454C298.112 322.631 297.428 321.889 296.656 321.246C295.347 320.241 293.71 320.157 292.088 320.348C291.228 320.446 290.383 320.614 289.591 320.767C288.921 320.896 288.251 321.041 287.596 321.209C286.965 321.333 286.35 321.524 285.762 321.78C285.229 322.07 284.733 322.785 285.167 323.364C285.304 323.531 285.495 323.645 285.708 323.684C285.052 323.805 284.412 323.997 283.796 324.254C283.31 324.46 282.784 324.726 282.822 325.343C282.951 327.201 285.661 326.341 286.712 326.28C288.368 326.194 290.025 326.426 291.592 326.965C293.725 327.715 295.727 328.797 297.522 330.17L296.761 331.472C295.046 330.617 293.264 329.903 291.432 329.34L291.28 329.295C289.554 328.676 287.712 328.455 285.889 328.647C285.265 328.746 282.242 329.6 283.651 330.666C283.897 330.835 284.191 330.919 284.488 330.902C285.029 330.902 285.569 330.901 286.102 330.955C287.274 331.047 288.437 331.228 289.581 331.496C290.137 331.626 290.693 331.769 291.241 331.921C292.672 332.324 294.08 332.813 295.482 333.316C295.375 333.59 295.261 333.863 295.147 334.137C293.83 333.757 292.498 333.422 291.15 333.155C290.32 332.987 289.491 332.843 288.653 332.722C288.151 332.653 284.481 331.87 285.235 333.483C285.569 334.184 286.834 334.298 287.519 334.473C288.554 334.74 289.597 334.937 290.639 335.15L291.036 335.233C291.934 335.386 292.813 335.643 293.655 335.996C293.734 336.033 293.81 336.076 293.883 336.124C295.591 337.631 297.164 339.289 298.581 341.074L298.687 341.21C299.486 342.2 300.271 343.19 301.108 344.142C301.557 344.652 302.304 345.824 303.11 345.764C303.567 345.642 303.984 345.402 304.32 345.071L305.988 343.897C306.451 343.642 306.877 343.325 307.251 342.954C307.332 342.813 307.377 342.654 307.379 342.491C307.383 342.325 307.345 342.165 307.268 342.022Z" fill="#F5A983"/>
<path d="M297.889 327.724C297.083 326.923 296.322 326.079 295.605 325.197C294.973 324.358 294.166 323.666 293.238 323.172C292.242 322.849 291.184 322.757 290.147 322.905C288.876 322.974 287.612 323.111 286.34 323.301C286.188 323.301 286.257 323.56 286.401 323.537C287.599 323.347 288.807 323.218 290.018 323.149C291.153 323.088 292.408 322.967 293.436 323.552C295.187 324.557 296.223 326.545 297.677 327.892C297.828 327.991 298.003 327.862 297.889 327.724Z" fill="#D56B49"/>
<path d="M244.026 325.88C242.287 327.13 240.689 328.564 239.261 330.159C239.154 330.273 239.329 330.441 239.428 330.326C240.844 328.75 242.425 327.329 244.141 326.085C244.269 325.995 244.148 325.79 244.026 325.88Z" fill="#D56B49"/>
<path d="M331.91 301.542C331.91 301.542 326.581 304.366 318.207 303.917C309.833 303.468 307.663 301.77 307.663 301.77L306.848 296.594L306.498 294.431L305.942 290.967L330.7 277.05L331.91 301.542Z" fill="#F5A983"/>
<path d="M329.495 290.454C324.306 295.419 307.422 292.344 304.17 290.31C299.569 287.45 295.309 276.341 297.4 268.909C298.487 265 301.624 258.887 304.579 253.521C304.579 253.521 304.589 253.484 304.593 253.469C305.044 252.67 305.496 251.871 305.927 251.114C305.98 251.006 306.037 250.901 306.102 250.8C308.651 246.348 310.738 242.993 310.738 242.993L327.649 238.214C327.649 238.214 341.577 252.77 341.737 253.249C341.897 253.728 343.823 273.197 343.823 273.197C343.823 273.197 334.657 285.505 329.495 290.454Z" fill="#F5A983"/>
<path d="M343.763 273.253C343.763 273.253 346.591 273.652 347.003 277.315C347.375 280.579 342.99 284.725 338.322 285.797C334.262 286.73 330.155 285.162 330.27 284.917C330.385 284.673 333.168 276.573 333.55 275.967C333.932 275.361 343.763 273.253 343.763 273.253Z" fill="#FF924F"/>
<path d="M312.359 297.998C310.083 298.413 309.68 299.291 307.381 299.038L305.942 291.436C308.141 291.859 310.265 291.413 312.503 291.324C316.146 291.16 317.002 291.72 317.74 293.283C318.478 294.845 316.081 297.159 312.359 297.998Z" fill="#ED9368"/>
<path d="M308.314 274.386C308.217 274.307 308.145 274.202 308.107 274.083C307.827 273.258 307.681 272.392 307.674 271.521C307.722 270.381 310.223 267.781 311.704 266.319C311.84 266.19 312.019 266.119 312.206 266.119C312.394 266.121 312.573 266.196 312.705 266.328C312.771 266.394 312.822 266.473 312.859 266.559C312.894 266.645 312.911 266.738 312.91 266.831C312.909 266.924 312.89 267.016 312.853 267.102C312.817 267.187 312.762 267.265 312.696 267.329C311.044 268.948 309.206 271.045 309.093 271.59C309.111 272.275 309.231 272.952 309.45 273.602C309.511 273.779 309.499 273.973 309.416 274.14C309.334 274.309 309.188 274.437 309.011 274.498C308.896 274.544 308.77 274.557 308.647 274.537C308.523 274.519 308.409 274.466 308.314 274.386Z" fill="#D56B49"/>
<path d="M302.35 276.881L302.178 276.64C302.074 276.484 302.035 276.292 302.072 276.107C302.107 275.922 302.214 275.759 302.371 275.652C302.447 275.597 302.534 275.558 302.626 275.538C302.719 275.519 302.814 275.518 302.906 275.536C302.999 275.555 303.086 275.592 303.163 275.646C303.24 275.7 303.305 275.769 303.354 275.85C304.31 277.164 305.529 278.266 306.932 279.084C308.011 279.758 309.242 280.153 310.512 280.23C310.701 280.217 310.886 280.281 311.028 280.405C311.17 280.53 311.257 280.705 311.269 280.894C311.281 281.082 311.218 281.267 311.094 281.41C310.97 281.551 310.794 281.639 310.606 281.65C309.064 281.599 307.563 281.145 306.251 280.333C304.729 279.46 303.402 278.284 302.35 276.881Z" fill="#D56B49"/>
<path d="M305.049 259.586C306.211 259.64 306.432 260.666 306.245 261.562C305.933 263.056 304.41 264.212 303.67 262.695C303.202 261.735 304.111 259.547 305.049 259.586Z" fill="#361A09"/>
<path d="M326.187 268.253C327.349 268.307 327.562 269.331 327.385 270.222C327.073 271.715 325.55 272.872 324.808 271.362C324.351 270.366 325.27 268.171 326.187 268.253Z" fill="#361A09"/>
<path d="M332.343 265.604C332.018 263.932 330.056 263.087 328.706 262.459C327.768 262.025 325.237 261.123 324.995 262.818C324.872 263.685 325.999 264.038 326.62 264.25C328.318 264.887 329.98 265.612 331.602 266.425C331.68 266.458 331.765 266.471 331.851 266.466C331.935 266.46 332.018 266.435 332.092 266.391C332.165 266.348 332.227 266.288 332.273 266.217C332.32 266.146 332.348 266.064 332.358 265.98C332.37 265.853 332.366 265.727 332.343 265.604Z" fill="#522C26"/>
<path d="M308.464 256.285C307.914 257.096 306.712 256.587 306.039 256.282C305.365 255.977 304.153 255.592 303.331 255.308C303.329 255.287 303.335 255.266 303.347 255.249C303.791 254.448 304.248 253.658 304.674 252.892C305.033 252.992 305.462 253.183 305.608 253.223C306.74 253.562 309.511 254.679 308.464 256.285Z" fill="#522C26"/>
<path d="M345.374 269.951C345.476 268.479 346.145 260.678 346.09 259.201C345.874 253.127 341.238 247.438 336.752 243.819C331.836 239.844 327.884 235.703 321.126 237.696L320.88 237.785C319.453 237.515 317.978 237.774 316.727 238.511C315.948 238.369 315.153 238.353 314.369 238.463C312.75 238.877 311.246 239.657 309.975 240.742C306.81 243.283 304.956 247.138 303.497 250.793C303.419 250.966 303.403 251.16 303.449 251.344C303.495 251.528 303.603 251.691 303.753 251.806C303.903 251.923 304.088 251.984 304.278 251.982C304.467 251.98 304.651 251.914 304.798 251.795C306.532 250.334 308.391 249.029 310.354 247.896C312.06 247.019 313.939 246.372 315.541 245.387C316.642 244.7 317.601 243.808 318.366 242.759C323.566 244.205 329.508 244.831 333.279 249.088C337.582 253.959 335.946 268.104 335.622 273.988C335.602 274.156 335.634 274.327 335.715 274.477C335.796 274.627 335.921 274.747 336.074 274.822C336.227 274.897 336.399 274.924 336.566 274.898C336.735 274.871 336.89 274.794 337.012 274.675C337.177 274.756 337.365 274.775 337.543 274.728C339.668 274.189 343.65 273.993 344.948 271.999C345.275 271.368 345.422 270.661 345.374 269.951Z" fill="#522C26"/>
<path d="M358.766 257.284C358.215 250.985 355.387 245.105 350.81 240.744C345.967 236.2 339.831 233.27 333.251 232.362C327.954 231.668 322.571 232.603 317.817 235.039C316.452 234.723 315.084 234.5 313.899 234.298C310.505 233.717 306.469 233.456 303.221 234.82C299.48 236.396 296.197 240.5 295.156 244.81C294.96 245.119 294.75 245.416 294.561 245.759C292.325 249.823 293.252 254.529 291.712 258.843C290.261 262.84 288.918 267.785 290.445 271.924C290.499 272.047 290.591 272.148 290.708 272.215C290.823 272.281 290.959 272.308 291.092 272.291C291.224 272.276 291.348 272.217 291.446 272.125C291.543 272.033 291.608 271.912 291.631 271.78C292.605 267.539 292.724 263.447 294.218 259.272C294.555 258.311 294.793 257.318 294.931 256.31C295.049 256.249 295.157 256.17 295.249 256.074C296.032 255.024 296.671 253.872 297.149 252.651L297.182 252.7C297.286 252.839 297.423 252.952 297.577 253.03C297.733 253.107 297.903 253.149 298.077 253.151C298.251 253.153 298.422 253.115 298.578 253.04C298.735 252.965 298.872 252.855 298.979 252.718C299.263 252.323 299.555 251.898 299.852 251.46C299.891 251.459 299.93 251.454 299.967 251.444C301.898 250.867 303.148 248.979 304.323 247.457C304.869 246.747 305.399 246.033 305.917 245.308C306.944 244.456 308.047 243.641 309.151 242.857C311.41 241.778 313.831 240.863 315.702 239.36C315.848 239.245 315.961 239.094 316.029 238.921C316.139 238.754 316.194 238.556 316.186 238.357C317 238.275 317.764 238.195 318.557 238.154L318.602 238.166C318.686 238.152 318.763 238.11 318.822 238.048C318.881 237.986 318.92 237.907 318.931 237.823C318.942 237.738 318.926 237.652 318.885 237.576C318.844 237.501 318.78 237.44 318.703 237.404C318.578 237.369 318.447 237.333 318.322 237.298C318.368 237.303 318.414 237.3 318.459 237.289L318.869 237.181C319.361 237.318 319.876 237.421 320.336 237.589C319.652 238.012 319.073 238.582 318.64 239.259C318.586 239.335 318.555 239.426 318.551 239.519C318.546 239.612 318.568 239.705 318.614 239.786C318.66 239.868 318.728 239.935 318.81 239.979C318.893 240.024 318.985 240.044 319.079 240.037C320.875 239.999 322.374 239.072 324.164 238.803C326.143 238.584 328.135 238.512 330.125 238.589C332.353 238.566 334.577 238.7 336.787 238.987C336.831 239.217 336.961 239.422 337.149 239.562L337.312 239.687C337.331 239.9 337.43 240.1 337.588 240.245C337.746 240.39 337.954 240.47 338.17 240.47C338.245 240.483 338.318 240.503 338.39 240.531C339.377 241.272 340.35 242.001 341.37 242.711C344.395 244.959 347.321 247.345 349.378 250.517C351.592 253.922 352.25 258.428 355.214 261.235C355.283 261.302 355.341 261.381 355.411 261.44C355.515 261.543 355.644 261.617 355.785 261.656C355.926 261.695 356.075 261.698 356.217 261.664C355.785 266.57 353.886 271.067 352.781 275.919C352.638 276.433 353.381 276.608 353.654 276.281C358.125 271.47 359.316 263.489 358.766 257.284Z" fill="#522C26"/>
<path d="M350.609 370.562C350.609 370.562 344.518 370.829 341.199 371.042C338.412 371.086 335.673 371.776 333.199 373.06C329.864 374.583 325.319 377.308 316.579 372.025C316.579 372.025 314.295 370.099 308.806 371.386C303.317 372.672 301.063 368.737 301.642 365.585C302.221 362.433 310.017 357.15 310.017 357.15H348.325L350.609 370.562Z" fill="#FDEEF6"/>
<path d="M333.198 372.251C331.596 373.284 329.788 373.955 327.9 374.218C326.011 374.48 324.089 374.33 322.266 373.774C318.757 372.692 316.023 369.754 312.156 369.906C310.283 369.983 308.441 370.553 306.552 370.492C305.604 370.49 304.68 370.205 303.895 369.676C303.11 369.146 302.5 368.394 302.144 367.516C301.453 365.602 301.483 363.502 302.228 361.609C302.852 359.705 304.039 357.901 304.321 355.892C304.452 355.091 304.343 354.27 304.009 353.531C303.552 352.594 302.729 352.313 301.93 351.734C301.582 351.449 301.304 351.088 301.117 350.678C300.929 350.269 300.838 349.823 300.849 349.373C300.86 348.923 300.974 348.481 301.18 348.082C301.388 347.682 301.683 347.335 302.043 347.068C302.165 346.984 302.043 346.778 301.922 346.861C301.404 347.237 301.011 347.758 300.792 348.359C300.573 348.96 300.54 349.614 300.697 350.233C300.842 350.896 301.217 351.487 301.755 351.901C302.074 352.145 302.448 352.304 302.782 352.525C303.31 352.857 303.71 353.359 303.917 353.948C304.679 356.119 303.224 358.348 302.448 360.306C301.592 362.139 301.265 364.174 301.504 366.183C301.617 366.99 301.907 367.761 302.357 368.441C302.806 369.121 303.402 369.691 304.1 370.111C305.722 370.994 307.61 370.743 309.353 370.484C310.407 370.292 311.473 370.175 312.543 370.134C313.681 370.156 314.801 370.415 315.832 370.896C317.636 371.657 319.228 372.86 321.039 373.621C323.027 374.435 325.181 374.757 327.319 374.558C329.458 374.359 331.516 373.646 333.319 372.479C333.449 372.374 333.328 372.168 333.198 372.251Z" fill="#1F2144"/>
<path d="M73.955 74.5811H174.039C180.064 74.5811 184.994 79.5111 184.994 85.5361V106.395C184.994 112.42 180.065 117.35 174.039 117.35H171.025C171.025 117.35 172.851 146.745 204.802 146.745C204.802 146.745 164.787 150.989 157.332 117.35H73.955C67.93 117.35 63 112.42 63 106.395V85.5361C63 79.5111 67.93 74.5811 73.955 74.5811Z" fill="white"/>
<path d="M424.15 212.024H386.698C381.073 212.024 376.47 216.626 376.47 222.252V241.726C376.47 247.351 381.072 251.954 386.698 251.954H389.512C389.512 251.954 387.807 279.398 357.976 279.398C357.976 279.398 395.336 283.36 402.296 251.954H424.15C429.775 251.954 434.378 247.352 434.378 241.726V222.252C434.378 216.627 429.775 212.024 424.15 212.024Z" fill="#D8005D"/>
<path d="M134.176 99.2532C136.388 99.2532 138.181 97.4601 138.181 95.2482C138.181 93.0363 136.388 91.2432 134.176 91.2432C131.964 91.2432 130.171 93.0363 130.171 95.2482C130.171 97.4601 131.964 99.2532 134.176 99.2532Z" fill="#17DA17"/>
<path d="M118.474 99.2532C120.686 99.2532 122.479 97.4601 122.479 95.2482C122.479 93.0363 120.686 91.2432 118.474 91.2432C116.262 91.2432 114.469 93.0363 114.469 95.2482C114.469 97.4601 116.262 99.2532 118.474 99.2532Z" fill="#17DA17"/>
<path d="M102.771 99.2532C104.983 99.2532 106.776 97.4601 106.776 95.2482C106.776 93.0363 104.983 91.2432 102.771 91.2432C100.559 91.2432 98.7656 93.0363 98.7656 95.2482C98.7656 97.4601 100.559 99.2532 102.771 99.2532Z" fill="#17DA17"/>
<path d="M420.364 236.125C422.429 236.125 424.103 234.45 424.103 232.385C424.103 230.321 422.429 228.646 420.364 228.646C418.299 228.646 416.625 230.321 416.625 232.385C416.625 234.45 418.299 236.125 420.364 236.125Z" fill="white"/>
<path d="M405.703 236.125C407.768 236.125 409.442 234.45 409.442 232.385C409.442 230.321 407.768 228.646 405.703 228.646C403.638 228.646 401.964 230.321 401.964 232.385C401.964 234.45 403.638 236.125 405.703 236.125Z" fill="white"/>
<path d="M391.042 236.125C393.107 236.125 394.781 234.45 394.781 232.385C394.781 230.321 393.107 228.646 391.042 228.646C388.977 228.646 387.303 230.321 387.303 232.385C387.303 234.45 388.977 236.125 391.042 236.125Z" fill="white"/>
<path d="M424.954 117.946C424.954 139.77 407.257 157.461 385.433 157.461C363.603 157.461 345.912 139.77 345.912 117.946C345.912 96.11 363.603 78.415 385.433 78.415C407.257 78.415 424.954 96.11 424.954 117.946Z" fill="white"/>
<path d="M385.167 139.614C365.832 129.377 365.992 104.351 365.992 104.351C379.643 104.351 385.412 96.2275 385.412 96.2275H385.452C385.452 96.2275 391.219 104.351 404.87 104.351C404.87 104.351 405.033 129.377 385.693 139.614H385.167Z" fill="#17DA17"/>
<path d="M385.693 141.028H385.167C384.937 141.028 384.711 140.973 384.506 140.865C364.639 130.347 364.573 105.397 364.58 104.342C364.584 103.565 365.214 102.936 365.992 102.936C378.678 102.936 384.042 95.7104 384.263 95.4024C384.793 94.6634 386.077 94.6634 386.603 95.4064C386.822 95.7104 392.184 102.936 404.87 102.936C405.647 102.936 406.276 103.565 406.287 104.342C406.291 105.398 406.226 130.348 386.36 140.865C386.153 140.973 385.925 141.028 385.693 141.028ZM367.462 105.736C367.781 110.964 370 129.687 385.431 138.15C400.858 129.687 403.083 110.964 403.402 105.736C393.372 105.322 387.686 100.7 385.431 98.3674C383.176 100.7 377.487 105.322 367.462 105.736Z" fill="#17DA17"/>
<path d="M99.3416 223.233C93.1536 232.093 80.9525 234.257 72.0925 228.07C63.2295 221.88 61.0635 209.682 67.2515 200.822C73.4425 191.957 85.6425 189.789 94.5055 195.979C103.366 202.166 105.534 214.368 99.3416 223.233Z" fill="white"/>
<path d="M77.0448 220.748C72.0978 211.11 79.2588 200.995 79.2588 200.995C84.8008 204.866 89.4458 203.203 89.4458 203.203L89.4618 203.214C89.4618 203.214 89.4997 208.147 95.0417 212.017C95.0417 212.017 88.0118 222.223 77.2578 220.896L77.0448 220.748Z" fill="#17DA17"/>
<path d="M76.8572 221.472L76.6433 221.323C76.5503 221.258 76.4732 221.171 76.4212 221.07C71.3372 211.167 78.3852 201.019 78.6872 200.592C78.9092 200.278 79.3432 200.201 79.6592 200.422C84.8092 204.019 89.0352 202.606 89.2132 202.544C89.6382 202.394 90.1592 202.758 90.1622 203.209C90.1652 203.395 90.2932 207.848 95.4432 211.445C95.7592 211.665 95.8362 212.099 95.6202 212.418C95.3222 212.848 88.2222 222.958 77.1752 221.596C77.0602 221.58 76.9522 221.538 76.8572 221.472ZM79.4632 201.975C78.1102 204.188 73.7032 212.418 77.5682 220.229C86.2302 221.167 92.4432 214.197 94.0552 212.165C90.1002 209.153 89.1022 205.664 88.8482 204.078C87.2702 204.386 83.6502 204.649 79.4632 201.975Z" fill="#17DA17"/>
<path d="M128.786 343.24C136.468 357.55 131.092 375.379 116.782 383.061C102.468 390.746 84.641 385.373 76.959 371.064C69.272 356.746 74.6431 338.916 88.9571 331.232C103.267 323.549 121.1 328.922 128.786 343.24Z" fill="white"/>
<path d="M110.325 371.453C94.0438 371.547 85.3398 355.081 85.3398 355.081C94.2908 350.276 95.2139 342.919 95.2139 342.919L95.2399 342.906C95.2399 342.906 101.881 346.201 110.831 341.396C110.831 341.396 119.747 357.748 110.67 371.268L110.325 371.453Z" fill="#17DA17"/>
<path d="M111.168 372.196L110.823 372.381C110.672 372.462 110.505 372.506 110.332 372.507C93.6032 372.604 84.7772 356.268 84.4102 355.574C84.1392 355.063 84.3302 354.429 84.8412 354.155C93.1592 349.689 94.1322 343.064 94.1692 342.783C94.2572 342.112 95.0981 341.66 95.7051 341.962C95.9561 342.084 102.015 344.935 110.333 340.469C110.843 340.195 111.477 340.387 111.757 340.892C112.131 341.583 120.871 357.965 111.548 371.854C111.451 371.998 111.32 372.114 111.168 372.196ZM86.7912 355.473C88.8412 358.789 96.8862 370.284 109.983 370.401C117.119 359.422 111.988 346.362 110.356 342.821C103.634 346.08 98.2782 345.051 95.9782 344.315C95.3222 346.639 93.2192 351.672 86.7912 355.473Z" fill="#17DA17"/>
</g>
<defs>
<linearGradient id="paint0_linear" x1="51.6594" y1="74.8509" x2="567.695" y2="422.875" gradientUnits="userSpaceOnUse">
<stop offset="0.0064" stop-color="#FFFF00"/>
<stop offset="0.1184" stop-color="#D1F800"/>
<stop offset="0.253" stop-color="#92EF00"/>
<stop offset="0.3861" stop-color="#5EE700"/>
<stop offset="0.5058" stop-color="#35E100"/>
<stop offset="0.6001" stop-color="#18DD00"/>
<stop offset="0.665" stop-color="#06DA00"/>
<stop offset="0.7442" stop-color="#00D900"/>
</linearGradient>
<clipPath id="clip0">
<rect width="498" height="424" fill="white"/>
</clipPath>
</defs>
</svg>
