<svg width="498" height="424" viewBox="0 0 498 424" fill="none" xmlns="http://www.w3.org/2000/svg">
<path opacity="0.6" d="M368.996 50.7722C397.778 88.9152 481.717 222.31 398.587 305.007C315.457 387.704 281.619 302.748 152.646 389.187C102.548 422.763 50.0319 344.09 67.3869 278.727C84.7419 213.364 89.3799 216.673 75.9739 172.437C32.9419 30.4362 234.519 118.872 263.365 72.4542C278.983 47.3222 323.511 -9.50777 368.996 50.7722Z" fill="url(#paint0_linear)"/>
<path d="M253.371 399.001C264.908 359.503 273.557 334.847 273.557 334.847L178.294 342.306C178.294 342.306 174.305 366.497 171.116 399.001H253.371Z" fill="#C78F27"/>
<path d="M287.339 399C281.086 365.166 274.986 334.737 274.986 334.737L241.175 337.247L229.301 399.207L287.339 399Z" fill="#C78F27"/>
<path d="M184.605 244.18C184.129 248.995 182.82 254.089 184.685 258.748C186.224 262.594 189.53 264.226 193.191 265.374C193.24 265.949 194.04 266.314 194.335 265.715C194.401 265.734 194.466 265.756 194.533 265.774C195.332 266 195.671 264.759 194.876 264.534C198.616 255.998 202.224 247.362 206.187 238.939C207.256 236.67 204.834 233.125 203.632 231.269C202.032 228.796 200.029 226.541 197.701 224.732C194.839 222.509 192.432 223.743 190.734 226.038C189.569 225.822 188.391 225.859 187.261 226.421C186.043 227.029 185.333 228.063 184.882 229.241C184.084 229.155 183.283 229.26 182.513 229.675C180.751 230.627 180.413 232.561 180.45 234.403C178.29 237.737 181.937 241.336 184.605 244.18Z" fill="#FFA587"/>
<path d="M176.166 309.709C184.044 317.569 192.248 310.702 194.977 304.356C196.717 300.31 197.128 295.85 197.494 291.509C197.974 285.805 198.312 280.088 198.559 274.369C198.973 264.763 199.125 255.147 199.242 245.533C199.736 245.313 199.651 244.629 199.255 244.462C199.269 243.172 199.286 241.88 199.301 240.59C199.308 239.847 198.156 239.848 198.148 240.59C198.133 241.957 198.114 243.326 198.098 244.693C195.174 245.573 192.234 245.815 189.174 245.42C188.932 245.389 188.673 245.624 188.618 245.843C185.498 258.322 178.448 270.634 175.091 285.359C173.305 293.195 169.175 302.734 176.166 309.709Z" fill="#FFA587"/>
<path d="M197.67 231.404L191.314 227.241C190.95 227.004 190.85 226.517 191.087 226.155C191.323 225.794 191.808 225.691 192.173 225.929L198.529 230.092C198.891 230.329 198.992 230.816 198.755 231.178C198.606 231.407 198.354 231.531 198.099 231.531C197.951 231.532 197.803 231.491 197.67 231.404Z" fill="#ED835C"/>
<path d="M192.211 233.561L185.362 230.294C184.972 230.108 184.806 229.64 184.993 229.249C185.179 228.859 185.644 228.691 186.038 228.88L192.887 232.147C193.277 232.333 193.443 232.801 193.256 233.191C193.121 233.475 192.84 233.638 192.547 233.638C192.434 233.637 192.32 233.613 192.211 233.561Z" fill="#ED835C"/>
<path d="M188.385 237.529L181.447 234.977C181.041 234.828 180.832 234.377 180.98 233.971C181.13 233.565 181.582 233.355 181.987 233.506L188.925 236.056C189.331 236.205 189.541 236.657 189.392 237.063C189.275 237.38 188.975 237.577 188.656 237.577C188.565 237.577 188.474 237.561 188.385 237.529Z" fill="#ED835C"/>
<path d="M160.076 241.191C159.941 240.511 157.617 222.97 157.519 222.224C157.481 221.938 157.682 221.675 157.969 221.637C158.254 221.6 158.515 221.799 158.556 222.086C159.227 227.16 160.993 240.45 161.101 240.987C161.157 241.269 160.974 241.545 160.69 241.601C160.656 241.608 160.622 241.611 160.587 241.611C160.343 241.611 160.124 241.438 160.076 241.191Z" fill="black"/>
<path d="M223.507 143.789H212.844L214.684 138.121C218.714 137.244 224.585 138.395 224.585 138.395L223.507 143.789Z" fill="#8BA8AC"/>
<path d="M279.854 345.164C244.645 356.648 208.679 358.683 172.209 352.271C170.725 352.01 171.357 349.755 172.831 350.014C208.882 356.351 244.436 354.256 279.231 342.907C280.669 342.437 281.279 344.699 279.854 345.164Z" fill="#77541B"/>
<path d="M257.299 135.768L254.096 151.286L266.807 155.911C262.867 164.293 254.748 208.552 237.586 208.457C220.424 208.362 197.927 150.536 197.927 150.536C197.927 150.536 205.621 145.354 214.123 143.576C224.391 141.427 224.648 118.104 224.648 118.104L257.299 135.768Z" fill="#F39E7E"/>
<path d="M228.546 209.947C208.453 202.29 213.889 156.919 213.889 156.919C234.345 180.397 261.474 164.835 261.474 164.835C267.719 176.298 248.64 217.605 228.546 209.947Z" fill="#FDEEF6"/>
<path d="M204.456 159.647C211.837 169.99 225.681 174.616 237.719 176.637C249.759 178.66 262.698 176.03 270.052 165.588C270.921 164.353 268.96 163.079 268.097 164.306C260.274 175.413 246.189 176.335 233.978 173.505C223.645 171.111 212.56 167.004 206.191 158.08C205.318 156.856 203.592 158.435 204.456 159.647Z" fill="#B4AFAC"/>
<path d="M196.177 186.46C196.177 186.46 158.845 329.34 173.437 334.26C248.232 359.473 281.904 334.178 281.904 334.178L262.994 184.106L196.177 186.46Z" fill="#FDEEF6"/>
<path d="M266.363 246.228C269.775 300.407 264.355 361.439 265.406 366.723C281.904 372.057 281.478 369.304 295.977 372.049C301.209 373.039 288.53 258.796 289.152 249.406C292.534 198.35 280.166 141.77 280.166 141.77L254.157 150.538C254.157 150.538 254.78 152.668 254.352 153.215C253.601 154.174 253.077 154.317 253.077 154.317C253.077 154.317 252.114 156.92 251.59 159.641C251.692 161.186 263.528 201.228 266.363 246.228Z" fill="#21A19A"/>
<path d="M155.168 374.177C159.118 379.626 227.111 381.681 226.163 374.776C229.645 367.262 231.889 162.331 231.665 158.924C231.313 156.451 231.313 150.643 231.313 150.643L211.762 143.671C211.762 143.671 176.911 130.084 160.723 143.826C139.906 156.691 163.207 226.453 169.819 291.169C171.247 305.134 151.203 368.707 155.168 374.177Z" fill="#21A19A"/>
<path d="M291.574 145.677C286.617 142.795 280.166 141.77 280.166 141.77C280.166 141.77 274.08 174.697 286.747 204.865C299.596 235.465 331.219 263.311 333.8 262.634C346.168 259.387 362.552 250.082 365.609 239.739C366.329 237.301 344.497 208.288 343.117 206.152C334.303 192.516 299.082 150.041 291.574 145.677Z" fill="#21A19A"/>
<path d="M214.683 138.121L211.763 143.67C212.271 151.539 225.144 161.56 225.144 161.56L231.311 150.644C218.402 144.551 214.684 138.12 214.683 138.121Z" fill="#31C2A7"/>
<path d="M254.641 148.491L256.32 151.722C256.657 155.577 254.638 163.282 254.638 163.282L252.925 154.499C253.71 152.794 254.641 148.492 254.641 148.491Z" fill="#31C2A7"/>
<path d="M223.382 201.508C223.411 202.841 224.361 204.158 225.824 203.886C227.035 203.66 227.842 202.376 227.209 201.242C227.186 201.2 227.158 201.169 227.134 201.133C227.135 200.846 227.092 200.56 226.982 200.28C226.753 199.697 226.247 199.258 225.641 199.096C224.934 198.906 224.188 199.186 223.79 199.801C223.478 200.282 223.369 200.942 223.382 201.508Z" fill="#31C2A7"/>
<path d="M224.463 168.312C224.492 169.645 225.441 170.963 226.904 170.69C228.115 170.464 228.922 169.18 228.289 168.046C228.266 168.005 228.239 167.973 228.214 167.937C228.215 167.65 228.172 167.364 228.062 167.084C227.833 166.501 227.327 166.062 226.723 165.901C226.014 165.711 225.269 165.99 224.871 166.605C224.558 167.086 224.449 167.746 224.463 168.312Z" fill="#31C2A7"/>
<path d="M221.67 228.925C221.699 230.259 222.648 231.576 224.11 231.303C225.321 231.077 226.128 229.793 225.496 228.66C225.473 228.618 225.446 228.587 225.421 228.551C225.422 228.264 225.379 227.978 225.269 227.697C225.04 227.115 224.534 226.676 223.929 226.514C223.221 226.324 222.475 226.604 222.077 227.219C221.766 227.699 221.658 228.359 221.67 228.925Z" fill="#31C2A7"/>
<path d="M221.021 258.882C221.05 260.216 221.999 261.533 223.461 261.26C224.672 261.034 225.479 259.75 224.847 258.617C224.824 258.575 224.797 258.544 224.772 258.508C224.773 258.221 224.73 257.935 224.62 257.654C224.391 257.072 223.885 256.633 223.281 256.471C222.571 256.281 221.826 256.561 221.427 257.176C221.116 257.656 221.009 258.316 221.021 258.882Z" fill="#31C2A7"/>
<path d="M233.771 56.2164C216.934 60.3954 206.207 76.7264 208.608 91.7194C211.009 106.712 220.332 119.409 227.389 127.885C234.447 136.361 244.903 138.708 248.569 138.941C252.236 139.173 269.317 143.885 276.886 136.398C282.185 131.155 282.016 105.726 279.384 99.0724C277.087 93.2654 275.331 92.9124 274.594 87.7174C273.857 82.5214 269.206 71.5044 269.206 71.5044C265.9 65.0064 250.606 52.0374 233.771 56.2164Z" fill="#F39E7E"/>
<path d="M270.974 94.9036C270.392 95.7336 269.273 95.9606 268.363 95.4956C267.504 95.0566 267.076 94.2156 266.874 93.2906C266.261 92.2756 265.947 91.0566 266.308 89.9526C266.628 88.9766 267.593 88.3546 268.592 88.5336C269.478 88.6926 270.168 89.3466 270.581 90.1826C271.228 91.4946 271.838 93.6716 270.974 94.9036Z" fill="#6E3F30"/>
<path d="M249.288 102.498C248.661 103.294 247.531 103.457 246.648 102.942C245.814 102.455 245.434 101.591 245.284 100.656C244.729 99.6072 244.485 98.3723 244.908 97.2903C245.281 96.3343 246.282 95.7672 247.268 96.0022C248.143 96.2102 248.796 96.9043 249.162 97.7613C249.734 99.1083 250.22 101.316 249.288 102.498Z" fill="#6E3F30"/>
<path d="M274.416 105.801C274.241 109.277 269.217 110.687 266.498 111.402C265.041 111.785 264.454 109.522 265.909 109.139C268.402 108.483 273.762 107.074 270.968 103.702C269.208 101.577 267.285 99.5661 265.448 97.5041C264.449 96.3811 266.103 94.7301 267.105 95.8541C268.943 97.9181 270.834 99.946 272.625 102.052C273.542 103.131 274.49 104.307 274.416 105.801Z" fill="#CE6D46"/>
<path d="M206.899 104.368C213.544 114.25 224.229 123.966 224.229 123.966C224.229 123.966 225.903 117.61 224.253 114.816C223.266 113.144 220.64 113.775 218.641 111.877C215.896 109.271 214.69 104.291 215.788 99.3246C216.371 96.6896 219.648 95.6397 221.822 95.9677C222.981 96.1427 223.762 97.0707 224.167 98.1707C224.577 99.2827 225.114 101.168 225.722 103.451C228.024 104.008 230.708 103.44 232.712 101.924C231.814 96.5846 228.981 85.2047 229.249 82.9357C229.595 80.0087 231.135 73.8007 236.314 73.4597C241.493 73.1187 250.87 77.8476 257.016 75.0146C262.786 72.3546 265.186 73.3906 269.533 72.2866C269.524 72.4496 272.185 78.9207 272.185 78.9207C272.185 78.9207 280.444 75.8957 282.338 72.4777C284.643 68.3147 284.02 63.5067 281.821 59.4567C279.907 55.9297 276.474 53.4516 272.76 52.0786C270.556 51.2636 268.248 50.9636 265.917 50.8676C265.461 48.6496 264.277 45.4827 261.213 43.2227C256.281 39.5857 250.485 40.5587 244.837 41.1527C244.805 41.1127 242.685 39.0306 240.174 38.4346C234.618 37.1146 227.868 40.2786 224.6 42.7236C222.227 44.4996 220.786 46.0886 219.417 48.6946C217.921 49.4166 216.387 49.9996 215.045 50.7656C200.787 58.9046 197.297 70.5606 196.823 79.1846C196.342 87.9166 200.57 94.9566 206.899 104.368Z" fill="#522C26"/>
<path d="M222.094 110.724C223.429 111.421 224.498 109.34 223.161 108.643C220.723 107.369 219.759 104.293 221.018 101.85C221.708 100.512 219.628 99.4426 218.937 100.783C217.095 104.357 218.534 108.864 222.094 110.724Z" fill="#CE6D46"/>
<path d="M229.933 69.1483C232.12 66.6303 233.689 63.5873 236.146 61.3093C239.094 58.5763 242.898 57.3553 246.874 57.4333C248.348 57.4623 248.206 55.1803 246.747 55.1513C242.827 55.0733 238.986 56.1803 235.845 58.5713C232.627 61.0203 230.82 64.6413 228.211 67.6463C227.246 68.7563 228.966 70.2613 229.933 69.1483Z" fill="#73453E"/>
<path d="M225.441 69.43C227.216 66.407 228.833 63.3011 230.292 60.1131C230.904 58.7761 228.859 57.757 228.246 59.097C226.788 62.285 225.171 65.3911 223.395 68.4141C222.649 69.6841 224.699 70.693 225.441 69.43Z" fill="#73453E"/>
<path d="M243.322 95.3687C245.708 93.1727 248.581 91.8847 251.27 90.1487C252.763 89.1847 254.664 87.4697 253.145 85.6747C251.453 83.6737 247.915 85.2447 246.113 86.2737C243.522 87.7537 241.467 89.8307 239.69 92.1997C237.803 94.7187 241.057 97.4537 243.322 95.3687Z" fill="#522C26"/>
<path d="M266.889 84.9184C267.801 85.4814 269.015 85.5784 270.044 85.8144C270.998 86.0334 271.841 86.4124 272.67 86.9344C273.471 87.4384 274.563 86.9925 275.049 86.2895C275.589 85.5095 275.414 84.4794 274.737 83.8434C272.719 81.9524 269.367 80.1345 266.673 81.6605C265.327 82.4235 265.789 84.2384 266.889 84.9184Z" fill="#522C26"/>
<path d="M233.512 135.024C236.289 138.164 240.256 139.808 244.107 141.24C248.462 142.859 252.953 143.942 257.554 144.563C259.005 144.758 259.52 142.532 258.064 142.336C254.005 141.789 250.015 140.896 246.141 139.558C242.168 138.186 237.896 136.553 235.05 133.334C234.077 132.233 232.547 133.933 233.512 135.024Z" fill="#CE6D46"/>
<path d="M281.62 116.37C281.62 116.37 283.253 129.083 282.006 134.276C280.44 140.797 277.18 144.694 271.025 145.739C267.511 146.336 259.723 146.678 256.345 145.432C248.24 142.444 239.82 138.089 235.265 130.751C229.772 121.903 227.898 113.471 225.482 102.795C227.391 101.099 230.168 100.302 232.078 98.6064C232.997 102.779 233.402 106.035 235.642 109.674C237.217 112.234 239.802 114.541 241.518 117.016C243.968 120.551 243.857 126.034 246.066 126.009C248.595 125.979 248.484 120.617 252.367 117.34C254.361 115.797 256.727 115.051 259.171 114.538C262.039 113.817 264.963 113.171 267.899 112.79C269.931 112.526 273.212 112.02 275.175 112.706C279.086 114.071 281.652 116.629 281.62 116.37Z" fill="#522C26"/>
<path d="M260.593 125.383C264.653 128.078 269.829 128.061 273.92 125.447C275.16 124.655 273.937 122.725 272.695 123.517C269.228 125.732 265.08 125.629 261.673 123.368C260.446 122.553 259.38 124.577 260.593 125.383Z" fill="#73453E"/>
<path d="M199.212 181.398C199.93 166.785 175.643 131.63 160.724 143.825C140.768 160.136 124.477 235.455 124.477 235.455C136.672 243.922 167.438 244.776 167.438 244.776C167.438 244.776 198.495 196.011 199.212 181.398Z" fill="#21A19A"/>
<path d="M126.37 230.688C125.87 232.062 127.943 233.023 128.446 231.641C138.022 205.274 144.464 177.517 158.741 153.101C159.484 151.831 157.4 150.89 156.665 152.147C142.387 176.562 135.946 204.319 126.37 230.688Z" fill="#107F8C"/>
<path d="M188.304 187.634C180.607 208.135 173.11 228.712 165.814 249.359C165.325 250.737 167.399 251.699 167.89 250.313C175.186 229.666 182.684 209.089 190.38 188.588C190.894 187.217 188.82 186.256 188.304 187.634Z" fill="#107F8C"/>
<path d="M189.111 194.14C188.551 195.498 190.626 196.454 191.187 195.094C192.935 190.851 194.975 186.768 197.317 182.821C198.068 181.556 195.984 180.615 195.241 181.867C192.899 185.814 190.859 189.897 189.111 194.14Z" fill="#107F8C"/>
<path d="M168.007 250.09C168.007 250.09 154.199 239.33 140.347 244.777C125.682 249.156 121.937 239.496 121.937 239.496L127.568 215.76L174.14 229.796L168.007 250.09Z" fill="#31C2A7"/>
<path d="M360.051 233.229L373.749 249.305C373.749 249.305 359.165 283.728 347.9 276.08C336.635 268.431 329.993 260.643 329.993 260.643L360.051 233.229Z" fill="#F19984"/>
<path d="M366.567 237.432C348.176 243.288 330.801 264.953 330.801 264.953L313.031 245.438C313.031 245.438 323.918 231.002 333.932 222.745C343.945 214.487 350.668 214.555 350.668 214.555L366.567 237.432Z" fill="#31C2A7"/>
<path d="M285.318 246.746C286.003 246.734 286.55 246.169 286.537 245.485C286.217 226.951 281.877 201.521 281.832 201.266C281.717 200.592 281.073 200.136 280.4 200.255C279.725 200.371 279.272 201.012 279.388 201.687C279.432 201.939 283.74 227.185 284.057 245.528C284.07 246.206 284.622 246.747 285.296 246.747C285.304 246.748 285.311 246.748 285.318 246.746Z" fill="#107F8C"/>
<path d="M285.469 202.708C286.147 202.614 286.621 201.988 286.527 201.309C286.255 199.341 285.718 193.683 286.484 191.172C286.685 190.517 286.316 189.823 285.661 189.623C285.008 189.424 284.312 189.79 284.112 190.446C283.028 193.993 284.026 201.338 284.069 201.648C284.155 202.269 284.687 202.719 285.296 202.719C285.352 202.72 285.41 202.716 285.469 202.708Z" fill="#107F8C"/>
<path d="M342.03 210.868C342.574 210.452 342.678 209.673 342.26 209.129L326.22 188.194C325.804 187.651 325.027 187.547 324.482 187.964C323.938 188.38 323.834 189.159 324.252 189.703L340.291 210.638C340.535 210.958 340.903 211.124 341.276 211.124C341.54 211.124 341.804 211.041 342.03 210.868Z" fill="#107F8C"/>
<path d="M345.676 274.416C351.454 280.389 361.804 280.373 367.695 274.661C371.204 271.248 371.991 265.945 373.203 261.434C376.312 249.845 380.076 226.885 382.961 209.012C383.856 203.544 384.662 198.57 385.33 194.529C385.33 194.529 385.33 194.529 385.326 194.507C385.786 191.889 389.45 180.981 389.764 179.274L375.178 168.053C375.178 168.053 373.673 169.966 371.39 175.053C369.612 179.014 367.369 184.07 364.988 189.488C359.741 201.448 353.857 215.274 350.992 223.314C347.206 234.044 343.291 244.491 341.451 255.771C340.324 262.547 340.685 269.256 345.676 274.416Z" fill="#F19984"/>
<path d="M399.835 162.401C399.835 162.401 421.573 156.914 418.528 163.656C415.481 170.399 395.319 174.609 395.319 174.609" fill="#F19984"/>
<path d="M165.74 244.706C165.74 244.706 159.312 266.021 143.945 276.079C137.294 280.594 129.486 270.445 124.206 261.373C120.222 254.529 120.979 245.92 126.115 239.893L127.015 228.897L165.74 244.706Z" fill="#F19984"/>
<path d="M389.764 179.273C389.764 179.273 406.578 166.122 406.962 160.917C407.345 155.712 406.717 147.798 405.063 144.018C403.31 140.012 400.801 133.825 397.608 134.122C393.71 134.485 398.529 145.512 397.897 146.701C397.265 147.89 394.472 135.872 392.57 133.399C390.667 130.926 387.706 133.511 387.706 133.511C387.706 133.511 384.345 133.252 383.575 136.291C382.805 139.329 382.731 143.358 382.731 143.358C382.731 143.358 379.509 141.923 378.724 144.289C377.939 146.657 379.855 157.016 379.082 159.887C378.31 162.757 375.892 165.77 374.004 170.858C372.117 175.946 374.503 182.949 374.503 182.949L389.764 179.273Z" fill="#F39E7E"/>
<path d="M390.043 157.303C389.963 157.082 389.932 156.839 389.961 156.59C389.968 156.544 390.49 152.088 389.92 147.9C389.338 143.621 386.819 135.064 386.793 134.978C386.55 134.156 387.021 133.291 387.842 133.047C388.664 132.804 389.523 133.292 389.772 134.098C389.879 134.457 392.382 142.965 392.996 147.479C393.622 152.074 393.067 156.763 393.045 156.961C392.941 157.812 392.169 158.419 391.316 158.315C390.717 158.243 390.238 157.836 390.043 157.303Z" fill="#E27E66"/>
<path d="M383.629 156.966C383.569 156.801 383.536 156.623 383.535 156.437C383.535 154.98 382.336 148.651 381.581 145.004C381.406 144.164 381.946 143.343 382.785 143.168C383.628 142.995 384.452 143.556 384.621 144.375C384.827 145.371 386.641 154.183 386.641 156.437C386.641 157.295 385.945 157.992 385.087 157.99C384.418 157.991 383.846 157.564 383.629 156.966Z" fill="#E27E66"/>
<path d="M397.447 155.451C397.364 155.222 397.333 154.972 397.368 154.712L397.519 153.611C397.571 153.043 397.125 150.411 396.675 148.317C396.496 147.478 397.029 146.652 397.867 146.472C398.707 146.293 399.522 146.813 399.713 147.666C400.035 149.167 400.767 152.794 400.597 154.033L400.445 155.133C400.329 155.984 399.546 156.579 398.696 156.463C398.105 156.38 397.638 155.977 397.447 155.451Z" fill="#E27E66"/>
<path d="M158.261 272.023C167.331 265.069 174.687 256.681 182.353 248.273C188.084 241.948 197.487 230.227 205.546 219.95C209.195 215.291 212.59 210.924 215.24 207.486C218.644 203.07 219.618 200.839 219.618 200.839L206.045 196.141C204.689 197.225 147.004 238.502 138.26 246.719C134.858 249.92 130.557 253.119 129.208 257.825C126.959 265.716 131.837 274.844 139.831 277.113C146.738 279.072 152.821 276.219 158.261 272.023Z" fill="#F19984"/>
<path d="M205.954 188.888C205.954 188.888 195.988 170.862 199.11 164.154C202.231 157.447 212.258 177.5 212.258 177.5" fill="#F19984"/>
<path d="M208.795 169.992L194.922 151.554L195.443 149.814L221.912 134.328L252.662 180.808L251.59 183.308L226.163 197.355L208.795 169.992Z" fill="#2B4366"/>
<path d="M208.274 171.731L194.922 151.553L221.391 136.067L251.59 183.307L225.642 199.094L208.274 171.731Z" fill="#071D41"/>
<path d="M213.22 210.103C213.22 210.103 220.082 207.341 222.707 202.592C225.331 197.841 226.036 194.043 227.707 191.585C229.378 189.126 238.479 183.818 239.761 181.678C241.042 179.539 237.852 178.034 237.852 178.034C237.852 178.034 240.857 175.349 242.656 172.783C244.456 170.217 242.067 167.839 242.067 167.839C242.067 167.839 242.094 163.909 238.978 164.08C235.863 164.252 224.934 169.978 225.422 168.723C225.911 167.469 237.411 163.925 235.143 160.734C233.284 158.121 226.959 160.257 222.779 161.542C218.835 162.755 212.429 167.443 208.735 171.13C205.042 174.818 206.047 196.14 206.047 196.14L213.22 210.103Z" fill="#F39E7E"/>
<path d="M220.912 181.285C220.277 180.707 220.233 179.725 220.81 179.091C220.946 178.945 224.137 175.465 228.027 172.941C231.848 170.461 239.929 166.806 240.271 166.653C241.045 166.316 241.974 166.649 242.327 167.43C242.678 168.212 242.33 169.132 241.549 169.485C241.468 169.522 233.339 173.196 229.717 175.547C226.171 177.848 223.136 181.152 223.105 181.186C222.935 181.371 222.731 181.506 222.511 181.59C221.98 181.792 221.359 181.695 220.912 181.285Z" fill="#E27E66"/>
<path d="M225.225 185.796C224.664 185.147 224.737 184.165 225.388 183.605C227.096 182.134 234.957 177.759 235.847 177.265C236.577 176.858 237.54 177.117 237.959 177.869C238.375 178.619 238.104 179.564 237.354 179.98C234.097 181.788 228.519 185.009 227.415 185.96C227.274 186.081 227.117 186.172 226.953 186.234C226.359 186.459 225.663 186.305 225.225 185.796Z" fill="#E27E66"/>
<path d="M217.503 174.487C216.861 173.918 216.8 172.937 217.369 172.294L218.103 171.461C218.93 170.523 222.156 168.712 223.504 167.976C224.275 167.563 225.201 167.842 225.613 168.595C226.024 169.347 225.746 170.29 224.993 170.702C223.112 171.728 220.827 173.107 220.431 173.517L219.695 174.35C219.521 174.545 219.312 174.685 219.084 174.772C218.561 174.972 217.951 174.881 217.503 174.487Z" fill="#E27E66"/>
<path d="M361.615 340.884C366.206 339.678 369.67 338.546 371.738 337.482C373.805 336.416 375.515 334.751 376.819 332.323C380.163 326.096 378.005 319.226 372.2 316.109C366.712 313.162 360.619 314.378 354.938 319.894L349.608 313.36C357.502 305.496 367.147 303.741 376.435 308.728C386.673 314.226 390.988 326.198 385.547 336.33C382.09 342.768 376.324 345.655 366.338 348.044C358.129 350.163 354.99 351.197 353.12 354.68C352.78 355.313 352.368 356.588 351.834 358.34L344.762 354.543C344.76 352.774 345.294 351.021 346.201 349.333C348.751 344.583 353.3 342.947 361.615 340.884ZM343.445 366.619C347.245 368.659 348.67 373.096 346.63 376.896C344.59 380.696 340.104 381.958 336.304 379.917C332.821 378.047 331.185 373.498 333.226 369.698C335.265 365.898 339.962 364.749 343.445 366.619Z" fill="#B40057"/>
<path d="M92.0796 383.743C99.7773 383.743 106.018 377.503 106.018 369.805C106.018 362.107 99.7773 355.867 92.0796 355.867C84.3818 355.867 78.1416 362.107 78.1416 369.805C78.1416 377.503 84.3818 383.743 92.0796 383.743Z" fill="white"/>
<path d="M108.776 65.155C110.305 61.115 111.293 57.9499 111.594 55.8539C111.896 53.7589 111.563 51.613 110.452 49.365C107.6 43.6 101.367 41.575 95.9926 44.234C90.9116 46.748 88.5976 51.906 89.6886 59.029L82.0316 59.533C80.3676 49.531 84.1556 41.453 92.7556 37.198C102.235 32.509 113.387 35.627 118.028 45.008C120.977 50.969 120.075 56.767 116.577 65.432C113.816 72.636 112.925 75.509 114.522 78.734C114.811 79.319 115.539 80.299 116.557 81.619L110.01 84.858C108.697 83.927 107.679 82.605 106.906 81.041C104.73 76.645 105.918 72.408 108.776 65.155ZM118.268 92.206C121.785 90.466 125.828 91.751 127.568 95.269C129.308 98.787 127.877 102.778 124.36 104.519C121.135 106.115 116.898 104.927 115.158 101.409C113.417 97.891 115.042 93.802 118.268 92.206Z" fill="#B40057"/>
<path d="M378.255 87.1628C385.109 87.1628 390.665 81.6067 390.665 74.7528C390.665 67.899 385.109 62.3428 378.255 62.3428C371.401 62.3428 365.845 67.899 365.845 74.7528C365.845 81.6067 371.401 87.1628 378.255 87.1628Z" fill="white"/>
<path d="M156.952 108.311C168.63 108.311 178.097 98.8445 178.097 87.1664C178.097 75.4884 168.63 66.0215 156.952 66.0215C145.274 66.0215 135.807 75.4884 135.807 87.1664C135.807 98.8445 145.274 108.311 156.952 108.311Z" fill="white"/>
<path d="M108.201 307.712L104.345 313.119L101.569 311.14L103.636 308.241L95.1858 302.215L93.1188 305.114L90.3438 303.135L94.1998 297.727L95.2888 298.504C97.1498 298.373 99.6228 295.95 103.245 290.871L104.844 288.631L114.282 295.36L106.393 306.422L108.201 307.712ZM103.615 304.441L109.715 295.888L105.665 292.999C102.611 297.149 100.263 299.661 98.3108 300.659L103.615 304.441Z" fill="#17DA17"/>
<path d="M117.731 315.624L112.18 311.665L110.158 312.892L107.177 310.765L123.095 301.275L124.021 301.934L120.213 320.062L117.231 317.935L117.731 315.624ZM119.853 306.778L114.774 310.072L118.392 312.653L119.853 306.778Z" fill="#17DA17"/>
<path d="M415.76 339.459L419.631 344.855L416.861 346.843L414.786 343.95L406.353 350.001L408.429 352.894L405.659 354.882L401.786 349.486L402.874 348.706C403.353 346.903 401.856 343.779 398.22 338.711L396.616 336.475L406.033 329.718L413.953 340.756L415.76 339.459ZM411.183 342.743L405.059 334.208L401.017 337.108C403.958 341.338 405.578 344.373 405.89 346.541L411.183 342.743Z" fill="#17DA17"/>
<path d="M426.328 332.995L420.788 336.97L421.296 339.28L418.32 341.415L414.479 323.283L415.401 322.621L431.328 332.08L428.352 334.215L426.328 332.995ZM418.641 328.13L420.119 334.002L423.729 331.411L418.641 328.13Z" fill="#17DA17"/>
<path d="M67.9609 177.821L71.2079 176.781L73.1559 182.865L80.179 180.616L78.23 174.532L81.4769 173.492L86.5599 189.365L83.314 190.405L81.119 183.551L74.097 185.8L76.291 192.654L73.045 193.694L67.9609 177.821Z" fill="white"/>
<path d="M85.1143 172.327L95.7933 168.907L96.7322 171.841L89.2993 174.221L90.3312 177.445L95.7913 175.697L96.6772 178.462L91.2173 180.21L92.5032 184.227L100.224 181.755L101.163 184.689L90.1963 188.202L85.1143 172.327Z" fill="white"/>
<path d="M103.422 169.699L98.3482 171.324L97.4092 168.39L110.829 164.092L111.768 167.026L106.669 168.66L110.813 181.598L107.567 182.638L103.422 169.699Z" fill="white"/>
<path d="M304.294 75.661L307.541 74.621L309.489 80.705L316.512 78.456L314.563 72.372L317.81 71.332L322.893 87.205L319.647 88.245L317.452 81.391L310.43 83.64L312.624 90.494L309.378 91.534L304.294 75.661Z" fill="#B40057"/>
<path d="M321.447 70.1681L332.126 66.748L333.065 69.6821L325.632 72.0621L326.664 75.2851L332.124 73.537L333.01 76.3021L327.55 78.0511L328.836 82.0681L336.557 79.5961L337.496 82.5301L326.529 86.0431L321.447 70.1681Z" fill="#B40057"/>
<path d="M339.755 67.5386L334.681 69.1636L333.742 66.2296L347.162 61.9316L348.101 64.8657L343.002 66.4987L347.146 79.4366L343.9 80.4766L339.755 67.5386Z" fill="#B40057"/>
<path d="M373.762 67.5378L377.633 66.2988L380.252 76.5438L377.607 77.3909L373.762 67.5378ZM379.503 78.5878C380.753 78.1878 382.03 78.8648 382.431 80.1158C382.839 81.3898 382.185 82.6609 380.935 83.0609C379.613 83.4849 378.367 82.8229 377.958 81.5479C377.557 80.2979 378.178 79.0118 379.503 78.5878Z" fill="#B40057"/>
<path d="M150.104 75.6311L155.469 73.9131L159.096 88.1091L155.431 89.2831L150.104 75.6311ZM158.056 90.9401C159.788 90.3851 161.559 91.3241 162.114 93.0571C162.679 94.8231 161.773 96.5821 160.041 97.1381C158.209 97.7251 156.482 96.8081 155.917 95.0431C155.362 93.3101 156.223 91.5271 158.056 90.9401Z" fill="#17DA17"/>
<defs>
<linearGradient id="paint0_linear" x1="434.358" y1="210.602" x2="64" y2="210.602" gradientUnits="userSpaceOnUse">
<stop offset="0.0064" stop-color="#FFFF00"/>
<stop offset="0.1184" stop-color="#D1F800"/>
<stop offset="0.253" stop-color="#92EF00"/>
<stop offset="0.3861" stop-color="#5EE700"/>
<stop offset="0.5058" stop-color="#35E100"/>
<stop offset="0.6001" stop-color="#18DD00"/>
<stop offset="0.665" stop-color="#06DA00"/>
<stop offset="0.7442" stop-color="#00D900"/>
</linearGradient>
</defs>
</svg>
