<svg width="498" height="424" viewBox="0 0 498 424" fill="none" xmlns="http://www.w3.org/2000/svg">
<g clip-path="url(#clip0)">
<g clip-path="url(#clip1)">
<path opacity="0.6" d="M355.248 382.25C315.788 396.055 150.498 376.476 99.9614 315.195C53.7792 259.194 104.877 178.345 79.4622 121.505C45.0115 44.4539 137.238 0.683533 205.057 42.4708C272.876 84.258 313.731 132.88 354.523 145.774C429.466 169.462 470.381 341.971 355.248 382.25Z" fill="url(#paint0_linear)"/>
<path d="M256.029 161.572C259.24 157.109 264.484 153.688 264.484 153.688C264.484 153.688 282.69 180.132 283.405 211.501C284.131 243.32 267.348 280.071 264.826 280.489C252.732 282.485 234.754 280.75 228.034 272.892C226.451 271.039 234.207 237.095 234.58 234.685C236.958 219.299 251.166 168.331 256.029 161.572Z" fill="#21A19A"/>
<path d="M230.35 265.021L224.651 284.454C224.651 284.454 250.879 308.884 257.745 297.779C264.611 286.675 267.377 277.258 267.377 277.258L230.35 265.021Z" fill="#F19984"/>
<path d="M226.293 271.248C244.677 269.178 268.356 281.346 268.356 281.346L276.274 257.307C276.274 257.307 261.1 248.93 249.107 245.619C237.114 242.307 231.258 244.998 231.258 244.998L226.293 271.248Z" fill="#31C2A7"/>
<path d="M262.404 279.909C265.536 287.237 261.678 296.38 254.443 299.465C250.123 301.299 245.145 300.024 240.709 299.42C229.314 297.862 207.627 292.66 190.762 288.568C185.597 287.328 180.903 286.192 177.083 285.281C177.083 285.281 177.083 285.281 177.065 285.269C174.581 284.703 166.609 282.955 164.985 282.599L156.224 265.951C156.224 265.951 159.708 265.848 165.051 265.721C169.211 265.621 174.512 265.517 180.183 265.424C192.7 265.23 207.103 265.166 215.272 265.621C226.16 266.261 236.846 266.683 247.496 269.246C253.904 270.768 259.698 273.58 262.404 279.909Z" fill="#F19984"/>
<path d="M283.674 385.908C272.616 348.032 264.325 324.388 264.325 324.388L355.638 331.54C355.638 331.54 359.462 354.738 362.518 385.908H283.674Z" fill="#C78F27"/>
<path d="M251.115 385.908C257.109 353.463 262.956 324.283 262.956 324.283L295.365 326.69L306.747 386.107L251.115 385.908Z" fill="#C78F27"/>
<path d="M349.59 237.443C350.047 242.06 351.301 246.945 349.514 251.413C348.038 255.101 344.869 256.666 341.36 257.767C341.313 258.318 340.547 258.668 340.264 258.095C340.2 258.113 340.138 258.134 340.074 258.151C339.308 258.368 338.983 257.178 339.745 256.962C336.16 248.777 332.702 240.495 328.903 232.418C327.879 230.242 330.2 226.842 331.352 225.063C332.886 222.691 334.806 220.529 337.037 218.794C339.781 216.662 342.088 217.846 343.715 220.046C344.832 219.839 345.961 219.875 347.044 220.414C348.212 220.997 348.892 221.988 349.325 223.118C350.09 223.035 350.857 223.136 351.596 223.534C353.284 224.447 353.608 226.302 353.573 228.068C355.642 231.264 352.147 234.715 349.59 237.443Z" fill="#FFA587"/>
<path d="M357.679 300.282C350.128 307.819 342.264 301.234 339.648 295.148C337.98 291.268 337.586 286.991 337.236 282.829C336.775 277.359 336.451 271.876 336.215 266.392C335.818 257.181 335.672 247.959 335.56 238.74C335.087 238.529 335.168 237.873 335.548 237.713C335.534 236.476 335.518 235.237 335.504 234.001C335.497 233.288 336.601 233.289 336.609 234.001C336.623 235.312 336.641 236.624 336.657 237.935C339.459 238.779 342.277 239.011 345.211 238.633C345.443 238.603 345.691 238.828 345.744 239.038C348.734 251.005 355.492 262.812 358.71 276.932C360.421 284.445 364.379 293.593 357.679 300.282Z" fill="#FFA587"/>
<path d="M337.066 225.192L343.159 221.2C343.508 220.972 343.603 220.505 343.376 220.158C343.15 219.812 342.685 219.713 342.335 219.941L336.243 223.934C335.896 224.161 335.799 224.628 336.026 224.975C336.169 225.195 336.411 225.313 336.655 225.313C336.796 225.314 336.939 225.275 337.066 225.192Z" fill="#ED835C"/>
<path d="M342.298 227.26L348.863 224.127C349.237 223.948 349.396 223.5 349.217 223.125C349.038 222.751 348.593 222.59 348.215 222.771L341.65 225.904C341.276 226.082 341.117 226.531 341.296 226.905C341.426 227.177 341.695 227.334 341.976 227.334C342.084 227.334 342.194 227.31 342.298 227.26Z" fill="#ED835C"/>
<path d="M345.966 231.065L352.617 228.618C353.006 228.475 353.206 228.042 353.064 227.653C352.92 227.264 352.487 227.062 352.099 227.207L345.449 229.653C345.06 229.796 344.858 230.23 345.001 230.619C345.113 230.923 345.401 231.112 345.707 231.112C345.793 231.111 345.881 231.096 345.966 231.065Z" fill="#ED835C"/>
<path d="M373.102 234.577C373.231 233.925 375.459 217.104 375.552 216.388C375.589 216.114 375.396 215.862 375.121 215.826C374.848 215.79 374.598 215.981 374.559 216.256C373.914 221.122 372.223 233.866 372.119 234.381C372.065 234.652 372.241 234.916 372.513 234.97C372.546 234.977 372.578 234.98 372.612 234.98C372.845 234.98 373.055 234.815 373.102 234.577Z" fill="black"/>
<path d="M312.302 141.172H322.523L320.759 135.737C316.896 134.896 311.269 136 311.269 136L312.302 141.172Z" fill="#8BA8AC"/>
<path d="M258.291 334.281C292.04 345.294 326.514 347.245 361.472 341.097C362.894 340.846 362.289 338.684 360.876 338.932C326.32 345.009 292.24 343 258.888 332.117C257.509 331.666 256.925 333.835 258.291 334.281Z" fill="#77541B"/>
<path d="M279.911 133.482L282.981 148.362L270.797 152.797C274.574 160.835 282.356 203.277 298.806 203.186C315.257 203.095 336.822 147.643 336.822 147.643C336.822 147.643 329.447 142.673 321.297 140.968C311.455 138.908 311.209 116.544 311.209 116.544L279.911 133.482Z" fill="#F39E7E"/>
<path d="M307.471 204.615C326.73 197.272 321.52 153.764 321.52 153.764C301.912 176.278 275.908 161.355 275.908 161.355C269.923 172.347 288.21 211.959 307.471 204.615Z" fill="#FDEEF6"/>
<path d="M330.561 156.38C323.486 166.298 310.216 170.734 298.677 172.672C287.136 174.612 274.734 172.09 267.685 162.077C266.852 160.893 268.732 159.671 269.559 160.848C277.057 171.499 290.558 172.383 302.263 169.669C312.168 167.373 322.793 163.435 328.898 154.877C329.736 153.703 331.39 155.218 330.561 156.38Z" fill="#B4AFAC"/>
<path d="M338.497 182.093C338.497 182.093 374.281 319.108 360.294 323.826C288.6 348.004 256.324 323.748 256.324 323.748L274.451 179.836L338.497 182.093Z" fill="#FDEEF6"/>
<path d="M271.222 239.406C267.952 291.361 273.147 349.888 272.14 354.955C256.326 360.07 256.734 357.43 242.836 360.063C237.821 361.012 249.975 251.46 249.378 242.455C246.137 193.495 263.553 154.337 263.553 154.337L282.922 147.645C282.922 147.645 282.325 149.687 282.735 150.212C283.455 151.131 283.958 151.268 283.958 151.268C283.958 151.268 284.881 153.765 285.383 156.374C285.284 157.855 273.94 196.254 271.222 239.406Z" fill="#21A19A"/>
<path d="M377.806 362.104C374.019 367.329 308.846 369.3 309.754 362.678C306.417 355.473 304.266 158.954 304.481 155.687C304.818 153.315 304.818 147.746 304.818 147.746L321.515 140.545C321.515 140.545 355.894 151.06 368.999 159.162C388.952 171.499 370.098 220.444 363.76 282.503C362.394 295.895 381.607 356.858 377.806 362.104Z" fill="#21A19A"/>
<path d="M335.159 198.161C334.471 184.148 357.751 150.436 372.052 162.131C391.18 177.772 406.796 249.999 406.796 249.999C395.106 258.119 365.616 258.938 365.616 258.938C365.616 258.938 335.846 212.175 335.159 198.161Z" fill="#21A19A"/>
<path d="M320.76 135.737L323.559 141.059C323.072 148.605 310.733 158.214 310.733 158.214L304.821 147.746C317.194 141.903 320.759 135.736 320.76 135.737Z" fill="#31C2A7"/>
<path d="M282.459 145.683L280.85 148.781C280.527 152.478 282.462 159.866 282.462 159.866L284.104 151.444C283.352 149.809 282.459 145.684 282.459 145.683Z" fill="#31C2A7"/>
<path d="M404.979 245.427C405.458 246.745 403.471 247.666 402.989 246.341C393.81 221.055 387.635 194.439 373.95 171.025C373.238 169.807 375.235 168.905 375.94 170.11C389.627 193.524 395.8 220.142 404.979 245.427Z" fill="#107F8C"/>
<path d="M345.614 204.14C352.992 223.8 360.178 243.532 367.171 263.331C367.64 264.653 365.652 265.575 365.181 264.246C358.188 244.447 351.001 224.714 343.624 205.055C343.131 203.741 345.118 202.82 345.614 204.14Z" fill="#107F8C"/>
<path d="M344.841 210.379C345.378 211.681 343.389 212.598 342.851 211.294C341.176 207.225 339.22 203.309 336.975 199.524C336.255 198.311 338.253 197.41 338.965 198.61C341.21 202.394 343.166 206.31 344.841 210.379Z" fill="#107F8C"/>
<path d="M312.419 196.523C312.392 197.801 311.481 199.064 310.079 198.803C308.918 198.586 308.144 197.355 308.751 196.268C308.773 196.227 308.8 196.198 308.823 196.163C308.822 195.888 308.863 195.614 308.969 195.345C309.188 194.786 309.673 194.365 310.254 194.21C310.932 194.027 311.647 194.296 312.028 194.886C312.327 195.347 312.432 195.98 312.419 196.523Z" fill="#31C2A7"/>
<path d="M311.383 164.689C311.356 165.967 310.446 167.231 309.044 166.969C307.883 166.752 307.109 165.521 307.716 164.434C307.738 164.394 307.764 164.364 307.788 164.329C307.787 164.054 307.828 163.78 307.934 163.511C308.153 162.952 308.638 162.531 309.217 162.377C309.897 162.195 310.611 162.462 310.992 163.052C311.292 163.513 311.397 164.146 311.383 164.689Z" fill="#31C2A7"/>
<path d="M314.062 222.814C314.035 224.093 313.125 225.356 311.723 225.094C310.562 224.877 309.788 223.646 310.394 222.56C310.416 222.519 310.442 222.49 310.466 222.455C310.465 222.18 310.506 221.906 310.612 221.636C310.831 221.078 311.316 220.657 311.896 220.502C312.576 220.319 313.29 220.588 313.671 221.178C313.97 221.638 314.074 222.271 314.062 222.814Z" fill="#31C2A7"/>
<path d="M314.683 251.541C314.655 252.82 313.745 254.083 312.343 253.822C311.182 253.605 310.408 252.374 311.014 251.287C311.036 251.247 311.062 251.217 311.086 251.183C311.085 250.907 311.126 250.633 311.232 250.364C311.451 249.806 311.936 249.385 312.515 249.229C313.196 249.047 313.91 249.316 314.292 249.905C314.592 250.366 314.695 250.998 314.683 251.541Z" fill="#31C2A7"/>
<path d="M269.869 65.6139C285.76 60.7156 302.645 68.8235 308.088 82.3275C313.532 95.8314 312.157 110.874 310.554 121.329C308.951 131.784 301.525 138.885 298.631 140.891C295.734 142.896 284.04 155.217 274.122 152.812C267.177 151.127 254.74 130.155 253.61 123.387C252.625 117.48 253.892 116.321 251.927 111.689C249.962 107.056 248.332 95.7048 248.332 95.7048C247.835 88.7313 253.978 70.5103 269.869 65.6139Z" fill="#F39E7E"/>
<path d="M256.836 118.903C257.725 119.297 258.756 118.929 259.273 118.098C259.761 117.312 259.697 116.409 259.405 115.55C259.407 114.412 259.061 113.256 258.218 112.528C257.473 111.884 256.373 111.852 255.642 112.492C254.993 113.061 254.75 113.939 254.824 114.831C254.942 116.228 255.517 118.317 256.836 118.903Z" fill="#6E3F30"/>
<path d="M278.4 114.41C279.308 114.754 280.317 114.329 280.787 113.469C281.231 112.656 281.116 111.758 280.777 110.916C280.713 109.78 280.303 108.644 279.42 107.965C278.641 107.365 277.539 107.394 276.846 108.075C276.23 108.679 276.037 109.572 276.16 110.457C276.357 111.847 277.05 113.901 278.4 114.41Z" fill="#6E3F30"/>
<path d="M261.018 126.455C262.881 129.223 267.704 127.896 270.289 127.137C271.675 126.731 271.038 124.582 269.654 124.987C267.282 125.683 262.184 127.177 262.811 123.024C263.206 120.407 263.79 117.804 264.278 115.201C264.543 113.785 262.369 113.247 262.102 114.665C261.613 117.271 261.063 119.872 260.634 122.488C260.415 123.829 260.218 125.265 261.018 126.455Z" fill="#CE6D46"/>
<path d="M315.746 91.8721C315.177 103.277 311.209 116.545 311.209 116.545C311.209 116.545 306.691 112.152 306.664 109.041C306.647 107.18 309.115 106.398 309.818 103.85C310.783 100.351 309.31 95.6638 305.953 92.1281C304.171 90.2515 300.961 91.0109 299.337 92.3554C298.473 93.0727 298.29 94.2215 298.502 95.3253C298.715 96.4415 299.206 98.2558 299.836 100.432C298.221 102.028 295.736 102.889 293.342 102.636C291.438 97.8061 288.137 87.0562 286.794 85.3244C285.063 83.091 280.727 78.7536 276.307 81.0359C271.886 83.3182 266.525 91.8424 260.078 92.5558C254.025 93.2261 252.567 95.2639 248.451 96.5086C248.539 96.6381 249.554 103.27 249.554 103.27C249.554 103.27 241.276 104.872 238.031 103.001C234.08 100.722 232.214 96.4635 232.016 92.0485C231.843 88.2041 233.436 84.4709 235.807 81.5049C237.213 79.7442 238.96 78.3566 240.827 77.1244C240.104 75.077 239.51 71.8895 240.908 68.5168C243.16 63.0882 248.399 61.0207 253.331 58.7135C253.337 58.6646 254.048 55.9057 255.815 54.1738C259.724 50.3409 266.831 49.5996 270.724 49.9918C273.552 50.2767 275.52 50.8693 277.932 52.3326C279.518 52.1859 281.066 51.905 282.547 51.8704C298.279 51.5012 306.91 59.3502 311.564 66.1991C316.278 73.1342 316.288 81.0091 315.746 91.8721Z" fill="#522C26"/>
<path d="M306.414 104.611C305.662 105.844 303.756 104.663 304.508 103.429C305.88 101.176 305.15 98.1731 302.908 96.7884C301.681 96.0308 302.86 94.1235 304.09 94.882C307.369 96.9073 308.417 101.321 306.414 104.611Z" fill="#CE6D46"/>
<path d="M279.415 74.3377C276.374 73.3509 273.582 71.6277 270.438 70.9718C266.666 70.1854 262.938 71.0638 259.712 73.0958C258.515 73.8496 257.503 71.9048 258.687 71.1588C261.867 69.1555 265.568 68.164 269.331 68.5734C273.184 68.9925 276.458 71.0734 280.086 72.251C281.428 72.6864 280.759 74.773 279.415 74.3377Z" fill="#73453E"/>
<path d="M283.243 72.3464C280.291 70.7411 277.426 68.9901 274.651 67.0923C273.488 66.2973 274.663 64.4475 275.829 65.2454C278.603 67.1431 281.467 68.8942 284.42 70.4994C285.661 71.1736 284.476 73.0167 283.243 72.3464Z" fill="#73453E"/>
<path d="M282.099 100.245C279.06 100.901 276.463 102.441 273.619 103.589C272.039 104.227 269.645 104.767 269.078 102.585C268.445 100.153 271.631 98.2485 273.432 97.4056C276.023 96.1926 278.784 95.7303 281.621 95.6479C284.638 95.5606 284.983 99.6227 282.099 100.245Z" fill="#522C26"/>
<path d="M257.092 107.123C256.282 107.756 255.137 107.977 254.181 108.31C253.296 108.62 252.533 109.07 251.797 109.656C251.088 110.221 250 109.911 249.462 109.292C248.866 108.607 248.924 107.605 249.502 106.927C251.224 104.912 254.226 102.825 256.953 103.995C258.317 104.58 258.069 106.358 257.092 107.123Z" fill="#522C26"/>
<path d="M300.927 136.023C298.631 139.321 295.034 141.326 291.526 143.115C287.559 145.139 283.402 146.667 279.09 147.767C277.731 148.113 276.994 146.051 278.359 145.702C282.163 144.732 285.864 143.44 289.404 141.737C293.035 139.991 296.923 137.963 299.276 134.582C300.081 133.427 301.725 134.877 300.927 136.023Z" fill="#CE6D46"/>
<path d="M260.33 138.703C260.33 138.703 265.277 149.953 268.869 153.603C273.38 158.184 277.984 159.773 283.554 157.586C286.735 156.338 293.299 152.766 295.457 150.071C300.634 143.607 305.394 135.863 305.505 127.582C305.639 117.595 303.007 109.741 299.711 99.777C297.305 99.3282 294.631 100.047 292.223 99.5996C293.533 103.482 294.81 106.356 294.771 110.455C294.744 113.338 293.762 116.511 293.578 119.393C293.315 123.509 296.117 127.959 294.291 129.031C292.2 130.257 289.639 125.798 284.829 125.027C282.429 124.746 280.117 125.304 277.857 126.092C275.145 126.918 272.425 127.834 269.825 128.974C268.027 129.762 265.082 130.971 263.81 132.505C261.273 135.56 260.432 138.931 260.33 138.703Z" fill="#522C26"/>
<path d="M404.252 251.514C406.296 255.427 411.116 282.05 410.356 284.266C403.012 305.685 374.965 281.001 374.965 281.001C374.965 281.001 367.704 256.674 366.012 253.714C376.367 256.601 393.646 249.546 404.252 251.514Z" fill="#F39E7E"/>
<path d="M365.069 264.032C365.069 264.032 378.305 253.714 391.582 258.937C405.639 263.136 409.229 253.873 409.229 253.873L403.831 231.111L359.19 244.571L365.069 264.032Z" fill="#31C2A7"/>
<path d="M253.052 239.904C252.396 239.893 251.872 239.351 251.884 238.695C252.191 220.922 256.351 196.536 256.394 196.291C256.504 195.645 257.121 195.208 257.767 195.322C258.414 195.433 258.848 196.048 258.737 196.695C258.694 196.937 254.565 221.146 254.261 238.736C254.249 239.387 253.72 239.905 253.074 239.905C253.066 239.906 253.059 239.906 253.052 239.904Z" fill="#107F8C"/>
<path d="M252.908 197.674C252.258 197.584 251.804 196.984 251.894 196.332C252.155 194.445 252.67 189.02 251.935 186.612C251.743 185.983 252.096 185.318 252.724 185.126C253.35 184.935 254.017 185.286 254.209 185.915C255.248 189.317 254.292 196.36 254.25 196.658C254.168 197.253 253.658 197.685 253.074 197.685C253.02 197.685 252.965 197.682 252.908 197.674Z" fill="#107F8C"/>
<path d="M237.375 238.39C236.737 238.24 236.341 237.598 236.494 236.958L242.342 212.352C242.493 211.714 243.132 211.319 243.772 211.471C244.41 211.621 244.806 212.263 244.654 212.904L238.807 237.508C238.717 237.883 238.461 238.174 238.135 238.32C237.904 238.423 237.64 238.454 237.375 238.39Z" fill="#107F8C"/>
<path d="M257.723 280.531L283.538 275.012C286.491 274.381 288.373 271.474 287.742 268.52L275.769 212.464C275.138 209.509 272.233 207.627 269.28 208.258L243.465 213.776C240.511 214.407 238.63 217.314 239.26 220.268L251.233 276.325C251.864 279.279 254.77 281.162 257.723 280.531Z" fill="#151730"/>
<path d="M405.861 292.202C383.524 295.85 304.202 273.113 304.202 273.113C304.202 273.113 297.196 261.534 303.916 259.803C312.958 257.47 392.01 259.456 392.01 259.456C392.01 259.456 396.728 261.472 401.421 266.847C417.053 285.633 408.171 291.824 405.861 292.202Z" fill="#F39E7E"/>
<path d="M308.312 274.199C308.312 274.199 301.75 276.885 296.772 275.373C291.795 273.858 288.773 271.717 285.983 271.144C283.191 270.569 273.389 273 271.078 272.385C268.768 271.77 269.957 268.603 269.957 268.603C269.957 268.603 266.098 268.765 263.147 268.203C260.195 267.641 260.249 264.408 260.249 264.408C260.249 264.408 257.605 261.723 259.862 259.759C262.118 257.796 273.456 254.43 272.282 253.894C271.108 253.358 260.835 258.606 260.263 254.895C259.795 251.855 265.571 249.098 269.303 247.189C272.825 245.388 280.361 244.331 285.362 244.399C290.365 244.467 303.916 259.804 303.916 259.804L308.312 274.199Z" fill="#F39E7E"/>
<path d="M283.774 259.521C283.825 258.698 283.199 257.995 282.379 257.944C282.188 257.934 277.671 257.673 273.31 258.537C269.027 259.385 261.031 262.27 260.693 262.394C259.937 262.68 259.52 263.53 259.799 264.302C260.08 265.074 260.934 265.475 261.706 265.196C261.787 265.167 269.83 262.263 273.89 261.459C277.864 260.673 282.159 260.916 282.203 260.919C282.443 260.933 282.674 260.89 282.88 260.8C283.378 260.583 283.74 260.1 283.774 259.521Z" fill="#E27E66"/>
<path d="M283.823 265.503C283.776 264.682 283.068 264.056 282.248 264.105C280.091 264.236 271.764 266.479 270.823 266.734C270.049 266.942 269.56 267.764 269.774 268.561C269.99 269.355 270.807 269.823 271.6 269.608C275.046 268.675 281.033 267.162 282.427 267.079C282.605 267.067 282.773 267.025 282.927 266.959C283.486 266.717 283.862 266.146 283.823 265.503Z" fill="#E27E66"/>
<path d="M281.577 252.565C281.638 251.746 281.025 251.029 280.204 250.968L279.142 250.885C277.947 250.793 274.519 251.703 273.102 252.098C272.296 252.33 271.845 253.14 272.066 253.934C272.286 254.726 273.107 255.188 273.899 254.969C275.878 254.417 278.37 253.839 278.916 253.856L279.978 253.938C280.228 253.956 280.466 253.913 280.68 253.82C281.174 253.606 281.532 253.136 281.577 252.565Z" fill="#E27E66"/>
<path d="M306.63 259.385C306.63 259.385 309.432 261.492 311.858 265.362C314.922 270.238 316.702 274.124 317.51 276.759C317.527 276.771 325.001 278.851 329.856 279.957C329.074 275.853 327.59 268.484 323.609 262.943C322.3 261.133 321.46 260.038 320.405 258.751C315.09 258.897 310.53 258.993 306.63 259.385Z" fill="#522C26"/>
<path d="M310.644 263.329C310.561 265.353 313.524 267.119 317.262 267.273C321 267.426 323.557 265.911 323.64 263.887C323.723 261.864 321.303 260.098 317.565 259.944C313.825 259.79 310.727 261.304 310.644 263.329Z" fill="#F4E6D7"/>
<path d="M273.661 131.362C273.371 131.569 267.935 133.539 267.935 133.539" stroke="#73453E" stroke-width="2" stroke-miterlimit="10" stroke-linecap="round" stroke-linejoin="round"/>
<path d="M94.6849 331.54C94.5967 331.093 94.5009 330.611 94.4184 330.194C93.6871 326.942 92.8934 323.567 91.0492 320.739C89.2059 317.909 87.0531 315.615 85.759 312.493C84.4583 308.997 83.447 305.398 82.7406 301.734C81.8396 297.825 81.8166 293.766 82.6697 289.848C84.5302 281.732 88.9462 274.428 95.2687 269.013C110.249 256.11 132.305 252.286 148.534 265.203C150.401 266.693 152.111 268.373 153.637 270.212C158.152 275.575 162.017 281.452 165.152 287.722C168.593 294.664 171.961 303.097 169.339 310.845C168.441 313.602 166.998 316.149 165.093 318.336C166.029 324.761 161.728 332.36 157.647 336.885C154.487 340.408 149.804 340.631 144.888 337.583C140.943 337.536 135.101 340.326 132.965 337.294C131.968 339.21 130.664 340.948 129.105 342.441C126.063 345.197 121.135 341.648 117.232 342.5C114.116 343.185 108.133 347.065 108.133 347.065C106.56 346.67 105.025 346.138 103.545 345.476C98.2008 342.568 96.047 337.099 94.6849 331.54Z" fill="#522C26"/>
<path d="M181.229 357.063C181.229 357.063 182.253 363.807 170.485 369.442C165.063 372.037 156.705 375.006 152.517 377.586C148.429 381.663 154.971 368.462 177.77 359.12C178.649 358.761 181.229 357.063 181.229 357.063Z" fill="#ED9368"/>
<path d="M151.479 363.846C155.171 362.862 156.725 362.356 159.132 360.912C161.539 359.468 162.8 358.91 165.117 358.081C167.434 357.253 168.553 358.008 169.265 359.515C170.623 358.835 175.508 356.558 177.549 355.63C178.92 355.007 180.191 355.155 181.022 355.552C181.6 355.828 181.689 356.619 181.228 357.063C180.295 357.961 178.596 359.361 177.585 360.146C176.107 361.295 179.072 360.021 177.409 360.98C175.745 361.939 174.687 362.726 173.238 363.411C171.788 364.097 169.127 366.214 166.718 368.499C164.308 370.784 163.021 371.449 158.601 373.597C154.181 375.745 151.529 378.219 150.898 379.548C150.601 380.174 151.485 383.158 151.374 386.46H139.604C140.034 382.645 140.647 375.325 141.115 372.31C142.159 367.983 147.787 364.83 151.479 363.846Z" fill="#F5A983"/>
<path d="M169.268 359.52C169.268 359.518 169.267 359.516 169.267 359.515C169.267 359.516 169.268 359.518 169.268 359.52L169.665 359.439C169.714 359.628 169.798 359.944 169.675 360.396C169.596 360.69 169.432 361.005 169.187 361.331C168.977 361.613 168.704 361.914 168.352 362.248C168.036 362.55 167.677 362.863 167.291 363.179C166.911 363.493 166.507 363.821 166.086 364.154C165.294 364.781 164.364 365.506 163.37 366.175C162.889 366.497 162.398 366.803 161.906 367.094C161.521 367.321 161.135 367.534 160.758 367.742L160.2 368.052C159.828 368.259 159.468 368.458 159.128 368.657C158.713 368.901 158.323 369.136 157.97 369.368C156.94 370.042 156.419 370.47 155.741 371.049L155.202 370.445C156 369.702 156.765 369.086 157.468 368.621C157.826 368.374 158.224 368.123 158.651 367.86C159.074 367.603 159.526 367.339 159.995 367.077L160.328 366.89C160.687 366.689 161.052 366.484 161.414 366.268C161.887 365.982 162.362 365.682 162.829 365.366C163.757 364.748 164.66 364.059 165.497 363.406L166.707 362.456C167.084 362.16 167.429 361.87 167.736 361.589C168.073 361.28 168.315 361.028 168.499 360.8C168.683 360.569 168.81 360.351 168.866 360.166C168.941 359.919 168.91 359.777 168.872 359.601L169.268 359.52Z" fill="#ED9368"/>
<path d="M391.612 80.8927C402.383 80.8927 411.114 72.1574 411.114 61.3819C411.114 50.6064 402.383 41.8711 391.612 41.8711C380.841 41.8711 372.109 50.6064 372.109 61.3819C372.109 72.1574 380.841 80.8927 391.612 80.8927Z" fill="white"/>
<path d="M392.237 74.647L378.533 63.7466L381.371 60.1755L390.608 67.521L399.688 48.6738L403.796 50.655L392.237 74.647Z" fill="#17DA17"/>
<path d="M209.862 181.893C214.618 181.893 218.474 178.035 218.474 173.277C218.474 168.519 214.618 164.662 209.862 164.662C205.106 164.662 201.251 168.519 201.251 173.277C201.251 178.035 205.106 181.893 209.862 181.893Z" fill="white"/>
<path d="M366.013 136.812C368.42 136.812 370.372 134.86 370.372 132.451C370.372 130.042 368.42 128.09 366.013 128.09C363.605 128.09 361.653 130.042 361.653 132.451C361.653 134.86 363.605 136.812 366.013 136.812Z" fill="white"/>
<path d="M121.429 210.891C132.2 210.891 140.931 202.155 140.931 191.38C140.931 180.604 132.2 171.869 121.429 171.869C110.658 171.869 101.927 180.604 101.927 191.38C101.927 202.155 110.658 210.891 121.429 210.891Z" fill="white"/>
<path d="M122.055 204.644L108.351 193.744L111.189 190.173L120.425 197.519L129.505 178.672L133.614 180.653L122.055 204.644Z" fill="#17DA17"/>
<path d="M170.274 105.591C189.127 105.591 204.41 90.3013 204.41 71.4402C204.41 52.579 189.127 37.2891 170.274 37.2891C151.421 37.2891 136.138 52.579 136.138 71.4402C136.138 90.3013 151.421 105.591 170.274 105.591Z" fill="white"/>
<path d="M171.37 94.6591L147.382 75.5789L152.35 69.3275L168.517 82.1861L184.411 49.1953L191.602 52.6638L171.37 94.6591Z" fill="#17DA17"/>
</g>
</g>
<defs>
<linearGradient id="paint0_linear" x1="72" y1="206.381" x2="427.001" y2="206.381" gradientUnits="userSpaceOnUse">
<stop offset="0.0064" stop-color="#FFFF00"/>
<stop offset="0.1184" stop-color="#D1F800"/>
<stop offset="0.253" stop-color="#92EF00"/>
<stop offset="0.3861" stop-color="#5EE700"/>
<stop offset="0.5058" stop-color="#35E100"/>
<stop offset="0.6001" stop-color="#18DD00"/>
<stop offset="0.665" stop-color="#06DA00"/>
<stop offset="0.7442" stop-color="#00D900"/>
</linearGradient>
<clipPath id="clip0">
<rect width="498" height="424" fill="white"/>
</clipPath>
<clipPath id="clip1">
<rect width="355" height="466" fill="white" transform="translate(72 10)"/>
</clipPath>
</defs>
</svg>
