<svg width="498" height="424" viewBox="0 0 498 424" fill="none" xmlns="http://www.w3.org/2000/svg">
<g clip-path="url(#clip0)">
<path opacity="0.6" d="M356.773 107.996C427.526 167.505 459.102 346.834 345.093 404.661C301.25 426.899 316.529 388.576 169.889 416.542C134.194 423.349 63.5908 429.272 63.5908 340.066C63.5908 271.307 145.386 305.339 110.034 142.107C91.6968 57.4454 231.333 2.49141 356.773 107.996Z" fill="url(#paint0_linear)"/>
<path d="M299.604 256.393C299.084 257.21 297.484 258.807 296.135 260.51C295.705 259.735 295.155 258.85 294.437 258.422C293.052 257.599 292.645 257.214 292.75 258.518C292.854 259.821 294.097 264.661 294.097 264.661C294.097 264.661 294.106 264.654 294.108 264.653C294.292 267.236 293.855 268.652 293.855 268.652L297.163 271.308C297.163 271.308 303.86 269.196 305.914 264.124C306.944 261.582 308.603 255.715 306.168 253.54C303.733 251.365 300.477 255.021 299.604 256.393Z" fill="#FFB27D"/>
<path d="M165.099 281.222C165.099 281.222 169.674 295.406 204.739 300.583C239.803 305.759 255.954 308.954 278.931 288.517C293.92 275.184 298.344 270.024 298.344 270.024L294.952 262.634C294.952 262.634 257.064 282.972 249.871 282.624C205.242 280.461 162.822 257.829 165.099 281.222Z" fill="#F2A470"/>
<path d="M185.803 269.941L219.99 278.7C219.99 278.7 220.353 294.313 210.537 301.442C207.261 300.932 194.517 300.352 191.035 296.06C183.448 286.706 185.803 269.941 185.803 269.941Z" fill="white"/>
<path d="M257.533 298.884C257.533 298.884 193.975 386.925 208.759 400.194C223.543 413.462 236.908 411.317 251.573 408.478C266.238 405.64 285.745 332.745 284.588 324.066C283.43 315.386 275.031 288.746 257.533 298.884Z" fill="#F2A470"/>
<path d="M257.533 298.883C257.533 298.883 257.862 329.683 264.336 353.612C270.81 377.542 279.524 410.609 279.524 410.609H296.883C296.883 410.609 289.506 320.111 289.939 309.069C290.373 298.026 277.41 279.763 257.533 298.883Z" fill="#F2A470"/>
<path d="M232.723 336.121C232.723 336.121 228.977 375.206 268.445 383.6C268.445 383.6 264.944 411.725 250.536 413.895C236.128 416.065 188.826 413.474 179.279 408.476C179.279 408.476 204.148 365.537 232.723 336.121Z" fill="#21A19A"/>
<path d="M296.211 402.257C296.211 402.257 304.26 412.882 308.6 413.46C312.94 414.039 322.487 416.064 321.619 419.825C320.751 423.586 305.52 425.314 296.211 423.582C286.902 421.85 277.354 426.85 279.524 410.608L275.127 393.985C275.127 393.985 284.905 395.385 295.306 390.825L296.159 399.863L296.211 402.257Z" fill="white"/>
<path d="M212.065 297.397C211.555 286.291 209.718 279.23 199.362 275.187C184.038 269.204 153.759 268.538 134.794 280.057C131.562 282.02 122.947 303.669 130.064 350.58C134.769 381.597 140.289 413.418 177.548 409.594C214.807 405.769 234.506 403.61 232.775 395.105C231.044 386.6 215.258 348.447 214.09 333.93C213.425 325.649 212.628 309.633 212.065 297.397Z" fill="white"/>
<path d="M232.881 298.884C232.881 298.884 169.323 386.925 184.107 400.194C198.891 413.462 212.256 411.317 226.921 408.478C241.585 405.64 261.093 332.745 259.936 324.066C258.779 315.386 250.38 288.746 232.881 298.884Z" fill="#F5A983"/>
<path d="M232.881 298.883C232.881 298.883 233.211 329.683 239.684 353.612C246.158 377.542 254.873 410.609 254.873 410.609H272.231C272.231 410.609 264.854 320.111 265.288 309.069C265.722 298.026 252.759 279.763 232.881 298.883Z" fill="#F5A983"/>
<path d="M208.072 336.121C208.072 336.121 204.326 375.206 243.794 383.6C243.794 383.6 240.294 411.725 225.885 413.895C211.477 416.065 164.175 413.474 154.627 408.476C154.627 408.476 179.496 365.537 208.072 336.121Z" fill="#31C2A7"/>
<path d="M271.56 402.257C271.56 402.257 279.609 412.882 283.948 413.46C288.288 414.039 297.836 416.064 296.968 419.825C296.1 423.586 280.869 425.314 271.56 423.582C262.251 421.85 252.703 426.85 254.874 410.608L250.477 393.985C250.477 393.985 260.255 395.385 270.655 390.825L271.509 399.863L271.56 402.257Z" fill="white"/>
<path d="M298.493 249.215L265.793 252.979C264.84 253.089 264.126 253.552 264.056 254.106L261.622 273.133C261.515 273.967 262.867 274.604 264.28 274.386L296.108 269.47C296.973 269.336 297.609 268.91 297.703 268.401L301.008 250.527C301.159 249.71 299.898 249.054 298.493 249.215Z" fill="#2B4366"/>
<path d="M301.332 248.886L268.632 252.65C267.679 252.76 266.966 253.223 266.895 253.777L264.461 272.804C264.355 273.638 265.706 274.275 267.119 274.056L298.947 269.14C299.811 269.007 300.447 268.58 300.542 268.071L303.847 250.196C303.998 249.381 302.737 248.724 301.332 248.886Z" fill="#071D41"/>
<path d="M135.001 290.738C135.001 290.738 140.362 304.645 175.66 307.853C210.959 311.06 227.263 313.348 249.062 291.657C263.282 277.507 267.411 272.108 267.411 272.108L263.611 264.919C263.611 264.919 226.919 287.343 219.718 287.398C175.038 287.735 131.419 267.509 135.001 290.738Z" fill="#F5A983"/>
<path d="M283.75 261.909C282.418 261.653 279.562 260.576 276.67 259.781C277.534 259.111 278.494 258.287 278.762 257.442C279.277 255.812 279.622 255.288 277.902 255.804C276.182 256.319 270.164 259.08 270.164 259.08C270.164 259.08 270.177 259.086 270.18 259.088C266.761 260.087 263.61 264.92 263.61 264.92L267.41 272.109C267.41 272.109 272.226 269.908 276.009 270.596C279.793 271.284 288.565 270.596 290.456 267.5C292.35 264.404 285.986 262.339 283.75 261.909Z" fill="#FFB27D"/>
<path d="M166.02 268.65C166.02 268.65 154.338 266.491 140.452 274.881C126.565 283.271 130.615 303.233 130.615 303.233L146.816 309.29C146.816 309.29 142.033 282.62 165.798 277.412L166.02 268.65Z" fill="white"/>
<path d="M180.479 281.08C185.406 280.339 187.833 274.809 185.26 270.542C184.434 269.173 183.829 267.681 183.394 266.139C183.265 265.682 183.155 265.232 183.05 264.775C182.224 260.97 182.323 256.982 182.638 253.864C182.664 253.595 182.697 253.339 182.729 253.089C183.087 250.115 183.62 248.098 183.62 248.098L161.843 236.814C162.223 242.529 161.88 247.691 161.216 252.121C160.075 259.68 157.973 265.122 156.88 267.587C156.88 267.587 156.88 267.587 156.88 267.593C156.199 276.309 166.566 278.197 175.326 280.675C176.993 281.145 178.637 281.334 180.188 281.122C180.286 281.109 180.382 281.094 180.479 281.08Z" fill="#F5A983"/>
<path d="M183.393 266.137C174.097 266.978 161.216 252.119 161.216 252.119C170.703 250.417 177.935 251.591 182.639 253.864C182.32 256.985 182.223 260.973 183.05 264.773C183.153 265.231 183.264 265.684 183.393 266.137Z" fill="#E8945B"/>
<path d="M189.104 257.886C189.104 257.886 164.311 264.309 155.86 244.58C146.74 223.287 156.924 207.851 165.338 206.845C182.116 204.84 191.827 211.278 194.742 218.051C197.657 224.823 202.783 254.463 189.104 257.886Z" fill="#F5A983"/>
<path d="M189.149 240.927C189.261 240.871 189.354 240.784 189.418 240.677C189.871 239.933 190.203 239.12 190.401 238.272C190.603 237.149 188.732 234.065 187.606 232.315C187.502 232.159 187.342 232.05 187.159 232.01C186.975 231.971 186.784 232.005 186.627 232.105C186.549 232.155 186.481 232.221 186.427 232.297C186.374 232.373 186.337 232.46 186.317 232.551C186.297 232.642 186.296 232.736 186.314 232.828C186.331 232.919 186.367 233.007 186.418 233.084C187.676 235.025 189.011 237.473 189.002 238.029C188.834 238.693 188.569 239.328 188.214 239.914C188.116 240.073 188.085 240.265 188.129 240.447C188.172 240.63 188.286 240.787 188.446 240.885C188.548 240.955 188.668 240.995 188.792 241.003C188.915 241.011 189.039 240.984 189.149 240.927Z" fill="#D56B49"/>
<path d="M194.184 245.857L194.419 245.677C194.564 245.558 194.657 245.386 194.676 245.198C194.697 245.011 194.641 244.824 194.523 244.676C194.466 244.602 194.394 244.539 194.312 244.493C194.229 244.448 194.138 244.419 194.045 244.41C193.951 244.402 193.857 244.411 193.767 244.441C193.677 244.471 193.595 244.518 193.525 244.58C192.227 245.559 190.741 246.257 189.16 246.632C187.931 246.963 186.639 246.982 185.401 246.685C185.224 246.618 185.028 246.625 184.857 246.703C184.685 246.781 184.551 246.924 184.484 247.1C184.418 247.277 184.424 247.472 184.502 247.644C184.58 247.815 184.723 247.95 184.899 248.016C186.389 248.416 187.958 248.419 189.449 248.025C191.156 247.632 192.769 246.894 194.184 245.857Z" fill="#D56B49"/>
<path d="M194.703 227.447C193.557 227.246 193.117 228.198 193.104 229.114C193.082 230.64 194.315 232.101 195.369 230.783C196.035 229.948 195.626 227.613 194.703 227.447Z" fill="#361A09"/>
<path d="M173.925 231.281C172.779 231.08 172.348 232.032 172.325 232.94C172.303 234.466 173.536 235.927 174.59 234.616C175.255 233.745 174.839 231.402 173.925 231.281Z" fill="#361A09"/>
<path d="M166.276 228.515C166.432 226.819 168.301 225.783 169.581 225.023C170.471 224.497 172.899 223.349 173.309 225.01C173.518 225.86 172.431 226.324 171.835 226.597C170.209 227.4 168.627 228.287 167.094 229.258C167.019 229.299 166.936 229.32 166.851 229.323C166.766 229.325 166.681 229.309 166.604 229.273C166.527 229.237 166.459 229.184 166.406 229.118C166.352 229.052 166.316 228.974 166.297 228.89C166.274 228.765 166.266 228.639 166.276 228.515Z" fill="#522C26"/>
<path d="M191.176 223.478C191.535 224.39 192.819 224.156 193.543 224.006C194.267 223.855 195.535 223.745 196.399 223.647C196.406 223.627 196.405 223.605 196.396 223.586C196.138 222.707 195.865 221.837 195.616 220.996C195.244 221.015 194.783 221.107 194.632 221.115C193.453 221.198 190.506 221.682 191.176 223.478Z" fill="#522C26"/>
<path d="M160.249 251.489C160.249 251.489 157.382 242.953 157.751 238.405C157.751 238.405 151.328 230.136 155.103 228.114C158.877 226.092 160.886 230.976 161.754 230.024C162.621 229.071 164.043 212.886 168.613 213.419C173.184 213.951 190.075 219.272 197.521 212.91C204.967 206.549 187.089 181.479 156.556 190.99C126.02 200.501 132.09 234.43 160.249 251.489Z" fill="#522C26"/>
<path d="M141.452 204.216C141.452 204.216 140.089 200.09 141.586 197.155C141.586 197.155 141.64 201.208 143.223 203.019C144.806 204.829 141.452 204.216 141.452 204.216Z" fill="#522C26"/>
<path d="M142.099 201.338C142.099 201.338 138.329 200.893 136.536 203.785C136.536 203.785 139.2 202.001 141.878 203.918L142.099 201.338Z" fill="#522C26"/>
<path d="M187.764 359.711C187.764 359.711 183.271 402.164 167.647 411.718C152.023 421.272 132.505 386.588 132.283 364.15C132.061 341.712 187.764 359.711 187.764 359.711Z" fill="white"/>
<path d="M195.698 214.14C195.698 214.14 205.735 210.335 201.735 191.335C201.735 191.335 195.86 196.736 182.235 190.973L195.698 214.14Z" fill="#522C26"/>
<path d="M140.884 217.834C140.884 217.834 141.61 230.084 148.11 235.126" stroke="#73453E" stroke-miterlimit="10" stroke-linecap="round" stroke-linejoin="round"/>
<path d="M163.193 207.001C163.193 207.001 170.226 211.558 181.56 212.225C192.893 212.892 197.56 207.001 197.56 207.001" stroke="#73453E" stroke-miterlimit="10" stroke-linecap="round" stroke-linejoin="round"/>
<path d="M161.754 230.024C161.754 230.024 157.703 224.888 153.828 226.61C149.953 228.332 153.175 236.728 157.751 238.405C157.752 238.405 160.554 237.215 161.754 230.024Z" fill="#FF924F"/>
<path d="M311.339 258.01C311.339 258.01 347.012 260.017 345.914 213.15L352.073 214.755L341.195 197.557L331.464 213.87L337.709 212.85C337.71 212.851 343.215 252.673 311.339 258.01Z" fill="#17DA17"/>
<path d="M253.944 295.663C253.944 295.663 251.493 339.244 308.748 337.903L306.788 345.427L327.798 332.138L307.869 320.25L309.115 327.88C309.115 327.879 260.465 334.604 253.944 295.663Z" fill="#17DA17"/>
<path d="M233.025 196.068C233.025 196.068 235.317 155.3 190.25 155.786L191.855 148.768L175.211 160.928L190.794 172.326L189.877 165.166C189.879 165.166 228.218 159.522 233.025 196.068Z" fill="#17DA17"/>
<path d="M199.204 195.558C199.204 195.558 197.559 205.808 184.809 205.475" stroke="#73453E" stroke-miterlimit="10" stroke-linecap="round" stroke-linejoin="round"/>
<path opacity="0.5" d="M411.51 185.134H258.991C254.129 185.134 250.188 181.192 250.188 176.33V81.6731C250.188 76.8111 254.129 72.8691 258.991 72.8691H411.51C416.372 72.8691 420.314 76.8111 420.314 81.6731V176.33C420.314 181.192 416.372 185.134 411.51 185.134Z" fill="white"/>
<path opacity="0.2" d="M254.502 85.4141H410.502" stroke="white" stroke-miterlimit="10"/>
<path d="M348.046 100.945C348.046 100.945 356.084 107.16 347.772 115.709C347.772 115.709 355.246 118.026 357.579 116.19C357.579 116.19 357.109 117.097 356.683 117.501C356.683 117.501 364.266 117.92 367.444 115.614C370.623 113.308 369.357 74.4461 348.213 78.3801C348.213 78.3801 330.388 76.6891 331.653 97.3761C332.918 118.063 326.178 117.934 326.178 117.934C326.178 117.934 328.035 118.894 328.94 118.911C328.94 118.911 330.272 118.432 330.548 117.706C330.548 117.706 330.265 118.85 329.918 119.209C329.918 119.209 337.18 120.038 340.865 117.362C344.551 114.686 349.001 105.227 348.046 100.945Z" fill="#2C3A64"/>
<path d="M279.806 159.155C279.806 159.155 276.274 152.053 273.985 152.81C270.028 154.119 263.624 150.433 263.078 151.524C262.532 152.615 263.692 157.101 265.329 158.52C266.966 159.939 278.06 163.412 278.06 163.412L279.806 159.155Z" fill="#F4AC75"/>
<path d="M340.203 125.951C340.144 125.977 345.9 128.966 350.229 127.782C354.301 126.672 356.962 121.391 356.906 121.38C355.181 121.037 354.684 118.668 354.721 108.484L353.941 108.638L340.832 111.234C340.832 111.234 341.13 115.36 341.139 119.246C341.148 122.508 340.95 125.603 340.203 125.951Z" fill="#F4AC75"/>
<path d="M340.832 111.233C340.832 111.233 341.13 115.359 341.139 119.245C348.475 119.038 352.352 112.347 353.941 108.637L340.832 111.233Z" fill="#E79A60"/>
<path d="M338.382 114.913C338.382 114.913 355.738 115.199 355.75 104.388C355.762 93.5771 358.01 86.3331 346.929 85.6931C335.848 85.0531 333.691 89.1761 332.809 92.7831C331.928 96.3911 333.868 114.56 338.382 114.913Z" fill="#F4AC75"/>
<path d="M385.925 213.933C384.989 216.532 382.118 217.201 378.271 216.749C370.935 215.892 359.622 212.701 351.502 209.993C341.72 206.729 333.199 206.541 332.06 206.541C328.491 206.541 335.566 200.724 334.682 185.135C334.317 178.703 330.306 169.156 328.239 159.195C325.839 147.631 341.044 122.837 341.044 122.837C341.044 122.837 342.358 130.015 356.905 121.381C357.419 121.076 363.144 129.555 368.66 140.006C374.739 151.538 380.562 165.467 378.85 172.645C375.586 186.328 388.647 206.382 385.925 213.933Z" fill="#F4DABA"/>
<path d="M341.045 122.835L332.076 159.623C332.076 159.623 330.96 161.61 329.211 164.437C325.105 171.076 317.505 182.355 312.64 183.501C310.24 184.067 305.135 182.07 299.486 179.216C288.806 173.82 276.178 165.363 276.178 165.363C275.362 160.465 279.623 156.473 279.623 156.473C279.623 156.473 305.2 166.086 307.742 166.269C313.279 166.663 318.914 139.938 324.09 131.032C327.832 124.59 341.045 122.835 341.045 122.835Z" fill="#F4DABA"/>
<path d="M278.054 156.421C278.054 156.421 275.866 152.126 273.398 150.607C270.93 149.089 269.412 148.614 270.266 149.753C271.12 150.892 273.398 154.119 273.398 154.119L278.054 157.315V156.421Z" fill="#F4AC75"/>
<path d="M337.295 82.9667C337.295 82.9667 343.687 99.0697 352.134 101.416C360.581 103.763 363.162 100.326 363.162 100.326C363.162 100.326 356.75 95.0277 355.573 85.9727C355.573 85.9737 341.603 76.0207 337.295 82.9667Z" fill="#2C3A64"/>
<path d="M339.555 86.4751C339.555 86.4751 334.561 87.8581 333.522 90.9531C332.483 94.0481 332.043 100.829 332.601 101.281C332.601 101.281 327.367 90.2571 332.024 84.8291C333.801 82.7581 340.303 79.6001 342.167 79.0651C344.225 78.4771 339.555 86.4751 339.555 86.4751Z" fill="#2C3A64"/>
<path d="M337.882 85.2027C337.882 85.2027 341.422 100.3 351.738 105.312C351.738 105.312 341.508 95.8807 340.815 85.9467C340.122 76.0127 337.882 85.2027 337.882 85.2027Z" fill="#2C3A64"/>
<path d="M349.531 180.758C349.531 180.758 345.858 177.901 342.388 178.581C338.919 179.261 337.218 181.642 337.355 182.73C337.491 183.819 339.327 186.88 341.98 187.152C344.633 187.424 352.184 185.519 352.184 185.519L349.531 180.758Z" fill="#F4AC75"/>
<path d="M356.905 121.38C356.905 121.38 371.051 122.251 375.948 129.081C382.841 138.695 394.814 177.946 391.548 186.925C391.548 186.925 379.775 189.372 369.309 188.735C363.915 188.407 348.511 186.743 348.511 186.743C348.511 186.743 347.468 181.868 348.919 179.51C350.37 177.152 373.953 173.342 375.041 172.254C376.13 171.166 361.436 151.03 361.436 147.765C361.435 144.5 356.905 121.38 356.905 121.38Z" fill="#F4DABA"/>
<path opacity="0.5" d="M261.501 82.331C263.066 82.331 264.334 81.0627 264.334 79.498C264.334 77.9334 263.066 76.665 261.501 76.665C259.936 76.665 258.668 77.9334 258.668 79.498C258.668 81.0627 259.936 82.331 261.501 82.331Z" fill="white"/>
<path opacity="0.5" d="M269.814 82.331C271.379 82.331 272.647 81.0627 272.647 79.498C272.647 77.9334 271.379 76.665 269.814 76.665C268.25 76.665 266.981 77.9334 266.981 79.498C266.981 81.0627 268.25 82.331 269.814 82.331Z" fill="white"/>
<path opacity="0.5" d="M278.126 82.331C279.691 82.331 280.959 81.0627 280.959 79.498C280.959 77.9334 279.691 76.665 278.126 76.665C276.561 76.665 275.293 77.9334 275.293 79.498C275.293 81.0627 276.561 82.331 278.126 82.331Z" fill="white"/>
<path d="M361.436 147.767L372.632 167.187" stroke="#CCA881" stroke-miterlimit="10"/>
<path d="M353.05 177.659C353.05 177.659 364.669 171.665 375.835 172.499" stroke="#CCA881" stroke-miterlimit="10"/>
<path d="M327.252 145.164C327.252 145.164 327.12 158.076 329.211 164.437" stroke="#CCA881" stroke-miterlimit="10"/>
<path d="M339.168 126.664C339.168 126.664 346.335 131.331 359.001 124.164" stroke="#CCA881" stroke-miterlimit="10"/>
<path d="M177.689 99.6751H76.9562C71.4072 99.6751 66.8672 95.1351 66.8672 89.5861C66.8672 84.0371 71.4072 79.4971 76.9562 79.4971H177.689C183.238 79.4971 187.778 84.0371 187.778 89.5861C187.778 95.1351 183.238 99.6751 177.689 99.6751Z" fill="#17DA17"/>
<path d="M151.127 164.889H76.9562C71.4072 164.889 66.8672 160.349 66.8672 154.8C66.8672 149.251 71.4072 144.711 76.9562 144.711H151.127C156.676 144.711 161.216 149.251 161.216 154.8C161.216 160.349 156.676 164.889 151.127 164.889Z" fill="#17DA17"/>
<path d="M209.66 129.975H140.173C134.624 129.975 130.084 125.435 130.084 119.886C130.084 114.337 134.624 109.797 140.173 109.797H209.66C215.209 109.797 219.749 114.337 219.749 119.886C219.749 125.436 215.209 129.975 209.66 129.975Z" fill="white"/>
<path d="M399.501 394.313H352.168C345.568 394.313 340.168 388.913 340.168 382.313V275.861C340.168 269.261 345.568 263.861 352.168 263.861H399.501C406.101 263.861 411.501 269.261 411.501 275.861V382.313C411.501 388.913 406.101 394.313 399.501 394.313Z" fill="#071D41"/>
<path d="M395.703 391.182H355.966C349.366 391.182 343.966 385.782 343.966 379.182V278.992C343.966 272.392 349.366 266.992 355.966 266.992H395.703C402.303 266.992 407.703 272.392 407.703 278.992V379.182C407.703 385.782 402.303 391.182 395.703 391.182Z" fill="white"/>
<path d="M381.687 334.11C384.966 335.837 388.166 335.945 390.941 335.356C393.479 334.822 395.659 333.702 397.211 332.71C398.804 331.692 399.74 330.805 399.74 330.805C399.74 330.805 399.629 330.644 399.442 330.329C398.473 328.672 395.536 322.715 396.842 313.142C396.86 313.017 395.911 313.194 394.479 313.533C390.217 314.542 381.648 316.973 381.269 317.081C381.26 317.081 381.254 317.081 381.254 317.081C381.254 317.081 381.149 319.094 380.796 322.703C380.767 323.021 380.734 323.354 380.7 323.698C380.656 324.121 380.612 324.57 380.56 325.031C380.164 328.783 381.687 334.11 381.687 334.11Z" fill="#F4AC75"/>
<path d="M380.798 322.703C387.161 324.162 396.657 314.768 396.657 314.768C395.963 314.252 395.233 313.843 394.481 313.534C390.219 314.543 381.65 316.974 381.271 317.082C381.262 317.082 381.256 317.082 381.256 317.082C381.256 317.082 381.151 319.094 380.798 322.703Z" fill="#E19054"/>
<path d="M378.636 316.573C378.636 316.573 381.252 317.512 384.588 317.961C389.466 318.62 395.88 318.231 397.895 312.329C401.289 302.395 405.625 296.438 395.637 292.382C390.29 290.21 386.87 290.095 384.546 290.924C382.527 291.639 381.337 293.068 380.436 294.482C378.497 297.522 374.595 314.834 378.636 316.573Z" fill="#F4AC75"/>
<path d="M372.575 295.265C378.359 299.422 386.359 295.335 388.846 296.441C391.33 297.544 391.776 301.711 391.821 303.034C391.865 304.359 392.04 305.476 395.413 304.684C395.966 304.555 396.364 304.593 396.638 304.757C398.037 305.587 396.249 309.611 395.709 310.482C395.709 310.482 394.933 313.365 396.656 314.768C396.864 314.936 400.248 316.415 408.403 303.936C409.685 301.977 410.908 297.564 408.929 293.316C406.952 289.067 398.687 284.961 391.68 282.784C389.053 281.968 387.106 281.998 385.583 282.557C383.042 283.486 381.687 285.887 380.343 288.299C378.088 292.35 372.575 295.265 372.575 295.265Z" fill="#9D3F3A"/>
<path d="M386.454 350.189C394.576 330.424 376.054 326.535 367.93 332.003C362.314 335.783 360.007 341.512 357.957 347.451C355.53 354.481 351.504 364.504 346.133 372.194C346.132 372.198 346.132 372.198 346.132 372.198L346.127 372.194L316.174 382.699L317.59 389.004C318.429 390.268 342.72 388.832 347.675 386.802C347.676 386.802 375.525 376.783 386.454 350.189Z" fill="#35488B"/>
<path d="M365.157 414.448C365.157 414.448 377.781 418.888 392.864 419.005C395.814 419.028 399.985 418.456 403.448 417.876C406.987 417.278 409.785 416.671 409.785 416.671C412.816 415.971 416.166 414.098 415.716 410.641C414.357 400.138 415.235 372.624 414.537 355.44C414.537 355.44 414.502 352.088 416.635 349.742C416.638 349.739 416.641 349.739 416.641 349.736C416.991 349.354 413.813 331.96 410.329 328.709C408.314 326.829 398.962 325.866 398.25 326.018C398.037 325.972 397.824 325.922 397.602 325.884C397.602 325.884 387.916 331.343 380.725 327.302C380.725 327.302 380.655 327.313 380.521 327.334C378.767 327.611 370.02 329.631 367 332.823C365.958 333.923 361.799 340.669 361.689 348.083C361.528 358.411 361.931 370.148 361.931 370.15C361.201 381.396 357.376 414.448 365.157 414.448Z" fill="#35488B"/>
<path d="M398.201 326.029C398.201 326.029 387.483 337.083 379.821 334.819C379.821 334.819 378.8 333.326 382.251 332.848C385.702 332.368 389.427 332.565 398.201 326.029Z" fill="#2C3A64"/>
<path d="M403.448 417.876C406.987 417.278 409.785 416.671 409.785 416.671C412.816 415.971 416.166 414.098 415.716 410.641C414.357 400.138 415.235 372.624 414.537 355.44C414.537 355.44 414.502 352.088 416.635 349.742C413.291 352.695 404.201 362.047 397.443 369.028C388.063 378.717 387.371 396.386 403.448 417.876Z" fill="#2C3A64"/>
<path d="M410.329 328.709C410.329 328.709 426.912 336.294 441.589 388.538L427.524 383.81C426.163 384.546 401.149 355.146 401.814 348.068C402.479 340.989 410.329 328.709 410.329 328.709Z" fill="#35488B"/>
<path d="M385.784 271.332H366.61C364.555 271.332 362.874 269.651 362.874 267.596C362.874 265.541 364.555 263.86 366.61 263.86H385.784C387.839 263.86 389.52 265.541 389.52 267.596C389.52 269.651 387.838 271.332 385.784 271.332Z" fill="#071D41"/>
<path d="M83.0967 85.4141H166.272" stroke="white" stroke-miterlimit="10"/>
<path d="M83.0967 91.0049H166.272" stroke="white" stroke-miterlimit="10"/>
<path d="M83.0967 152.005H142.1" stroke="white" stroke-miterlimit="10"/>
<path d="M83.0967 158.596H110.847" stroke="white" stroke-miterlimit="10"/>
<path d="M143.835 116.591H202.838" stroke="#17DA17" stroke-miterlimit="10"/>
<path d="M143.835 123.182H171.585" stroke="#17DA17" stroke-miterlimit="10"/>
</g>
<defs>
<linearGradient id="paint0_linear" x1="420.417" y1="235.017" x2="63.5904" y2="235.017" gradientUnits="userSpaceOnUse">
<stop offset="0.0064" stop-color="#FFFF00"/>
<stop offset="0.1184" stop-color="#D1F800"/>
<stop offset="0.253" stop-color="#92EF00"/>
<stop offset="0.3861" stop-color="#5EE700"/>
<stop offset="0.5058" stop-color="#35E100"/>
<stop offset="0.6001" stop-color="#18DD00"/>
<stop offset="0.665" stop-color="#06DA00"/>
<stop offset="0.7442" stop-color="#00D900"/>
</linearGradient>
<clipPath id="clip0">
<rect width="498" height="424" fill="white"/>
</clipPath>
</defs>
</svg>
