<svg width="498" height="424" viewBox="0 0 498 424" fill="none" xmlns="http://www.w3.org/2000/svg">
<path opacity="0.6" d="M98.5249 73.2921C110.206 53.5191 154.919 15.2921 222.233 37.2921C289.547 59.2921 276.705 132.22 324.433 162.256C372.161 192.292 454.03 290.292 418.028 354.292C382.026 418.292 180.34 424.912 91.9009 318.912C45.3909 263.168 63.6639 132.303 98.5249 73.2921Z" fill="url(#paint0_linear)"/>
<path d="M306.603 230.392C306.083 231.209 304.483 232.806 303.134 234.509C302.704 233.734 302.154 232.849 301.436 232.421C300.051 231.598 299.644 231.213 299.749 232.517C299.853 233.82 301.096 238.66 301.096 238.66C301.096 238.66 301.105 238.653 301.107 238.652C301.291 241.235 300.854 242.651 300.854 242.651L304.162 245.307C304.162 245.307 310.859 243.195 312.913 238.123C313.943 235.581 315.602 229.714 313.167 227.539C310.733 225.365 307.477 229.021 306.603 230.392Z" fill="#FFB27D"/>
<path d="M172.099 255.222C172.099 255.222 176.675 269.406 211.739 274.583C246.803 279.759 262.954 282.954 285.931 262.517C300.92 249.184 305.344 244.024 305.344 244.024L301.952 236.634C301.952 236.634 264.064 256.972 256.871 256.624C212.242 254.461 169.822 231.829 172.099 255.222Z" fill="#F2A470"/>
<path d="M192.802 243.941L226.989 252.7C226.989 252.7 227.353 268.313 217.537 275.442C214.261 274.932 201.516 274.352 198.034 270.06C190.447 260.706 192.802 243.941 192.802 243.941Z" fill="white"/>
<path d="M264.532 272.882C264.532 272.882 200.974 360.923 215.758 374.192C230.542 387.46 243.907 385.315 258.572 382.476C273.237 379.638 292.744 306.743 291.587 298.064C290.43 289.385 282.031 262.745 264.532 272.882Z" fill="#F2A470"/>
<path d="M264.532 272.883C264.532 272.883 264.861 303.683 271.335 327.612C277.809 351.542 286.524 384.609 286.524 384.609H303.883C303.883 384.609 296.506 294.111 296.939 283.069C297.373 272.027 284.41 253.764 264.532 272.883Z" fill="#F2A470"/>
<path d="M239.722 310.121C239.722 310.121 235.976 349.206 275.444 357.6C275.444 357.6 271.943 385.725 257.535 387.895C243.127 390.065 195.825 387.474 186.278 382.476C186.278 382.476 211.148 339.537 239.722 310.121Z" fill="#21A19A"/>
<path d="M303.211 376.257C303.211 376.257 311.26 386.882 315.6 387.46C319.94 388.039 329.487 390.064 328.619 393.825C327.751 397.586 312.52 399.314 303.211 397.582C293.902 395.85 284.354 400.85 286.525 384.608L282.128 367.985C282.128 367.985 291.906 369.385 302.307 364.825L303.16 373.863L303.211 376.257Z" fill="white"/>
<path d="M219.065 271.397C218.555 260.291 216.718 253.23 206.362 249.187C191.038 243.204 160.759 242.538 141.794 254.057C138.562 256.02 129.947 277.669 137.064 324.579C141.769 355.596 147.289 387.417 184.548 383.593C221.807 379.769 241.506 377.609 239.775 369.104C238.044 360.599 222.258 322.446 221.09 307.928C220.425 299.649 219.628 283.633 219.065 271.397Z" fill="white"/>
<path d="M239.881 272.882C239.881 272.882 176.323 360.923 191.107 374.192C205.891 387.46 219.256 385.315 233.921 382.476C248.585 379.638 268.093 306.743 266.936 298.064C265.779 289.385 257.38 262.745 239.881 272.882Z" fill="#F5A983"/>
<path d="M239.881 272.883C239.881 272.883 240.211 303.683 246.684 327.612C253.158 351.542 261.873 384.609 261.873 384.609H279.231C279.231 384.609 271.854 294.111 272.288 283.069C272.722 272.027 259.759 253.764 239.881 272.883Z" fill="#F5A983"/>
<path d="M215.071 310.121C215.071 310.121 211.325 349.206 250.793 357.6C250.793 357.6 247.292 385.725 232.884 387.895C218.476 390.065 171.174 387.474 161.626 382.476C161.627 382.476 186.496 339.537 215.071 310.121Z" fill="#31C2A7"/>
<path d="M278.56 376.257C278.56 376.257 286.61 386.882 290.949 387.46C295.289 388.039 304.836 390.064 303.968 393.825C303.1 397.586 287.869 399.314 278.56 397.582C269.251 395.85 259.703 400.85 261.874 384.608L257.477 367.985C257.477 367.985 267.255 369.385 277.655 364.825L278.509 373.863L278.56 376.257Z" fill="white"/>
<path d="M305.493 223.215L272.793 226.979C271.84 227.089 271.127 227.552 271.056 228.106L268.622 247.133C268.515 247.967 269.867 248.604 271.28 248.386L303.108 243.47C303.973 243.336 304.609 242.91 304.703 242.401L308.008 224.527C308.158 223.71 306.898 223.054 305.493 223.215Z" fill="#2B4366"/>
<path d="M308.332 222.886L275.632 226.65C274.679 226.76 273.966 227.223 273.895 227.777L271.461 246.804C271.355 247.638 272.706 248.275 274.119 248.056L305.947 243.14C306.811 243.007 307.447 242.58 307.542 242.071L310.847 224.196C310.998 223.381 309.737 222.724 308.332 222.886Z" fill="#071D41"/>
<path d="M142.001 264.738C142.001 264.738 147.362 278.645 182.66 281.853C217.959 285.061 234.263 287.348 256.062 265.658C270.282 251.508 274.411 246.109 274.411 246.109L270.611 238.92C270.611 238.92 233.919 261.344 226.718 261.399C182.038 261.735 138.419 241.509 142.001 264.738Z" fill="#F5A983"/>
<path d="M290.75 235.909C289.418 235.653 286.562 234.576 283.67 233.781C284.534 233.111 285.494 232.287 285.762 231.442C286.277 229.812 286.622 229.288 284.902 229.804C283.182 230.319 277.164 233.08 277.164 233.08C277.164 233.08 277.177 233.086 277.18 233.088C273.76 234.087 270.61 238.92 270.61 238.92L274.41 246.109C274.41 246.109 279.226 243.908 283.01 244.596C286.794 245.284 295.566 244.596 297.457 241.5C299.35 238.403 292.986 236.339 290.75 235.909Z" fill="#FFB27D"/>
<path d="M173.019 242.65C173.019 242.65 161.338 240.491 147.451 248.881C133.564 257.271 137.614 277.233 137.614 277.233L153.815 283.29C153.815 283.29 149.032 256.62 172.797 251.412L173.019 242.65Z" fill="white"/>
<path d="M187.479 255.08C192.407 254.339 194.833 248.809 192.26 244.542C191.434 243.173 190.829 241.681 190.394 240.139C190.265 239.682 190.155 239.232 190.05 238.775C189.224 234.97 189.323 230.982 189.638 227.864C189.664 227.595 189.697 227.339 189.729 227.089C190.087 224.115 190.621 222.098 190.621 222.098L168.843 210.814C169.223 216.529 168.88 221.691 168.216 226.121C167.075 233.68 164.974 239.122 163.881 241.587C163.881 241.587 163.881 241.587 163.881 241.593C163.2 250.309 173.566 252.197 182.326 254.675C183.993 255.145 185.637 255.335 187.188 255.122C187.285 255.109 187.382 255.094 187.479 255.08Z" fill="#F5A983"/>
<path d="M190.393 240.137C181.098 240.978 168.216 226.119 168.216 226.119C177.703 224.417 184.935 225.591 189.639 227.864C189.32 230.985 189.223 234.973 190.05 238.773C190.153 239.231 190.264 239.684 190.393 240.137Z" fill="#E8945B"/>
<path d="M196.103 231.886C196.103 231.886 171.31 238.309 162.859 218.58C153.738 197.287 163.923 181.851 172.337 180.845C189.115 178.84 198.826 185.278 201.741 192.051C204.657 198.823 209.783 228.463 196.103 231.886Z" fill="#F5A983"/>
<path d="M196.149 214.927C196.261 214.871 196.354 214.784 196.418 214.677C196.872 213.933 197.203 213.12 197.401 212.272C197.603 211.149 195.732 208.065 194.606 206.315C194.502 206.159 194.342 206.05 194.159 206.011C193.975 205.972 193.784 206.006 193.627 206.106C193.549 206.156 193.481 206.222 193.427 206.298C193.374 206.374 193.337 206.461 193.317 206.552C193.297 206.643 193.296 206.737 193.314 206.829C193.331 206.92 193.367 207.008 193.418 207.085C194.676 209.026 196.011 211.474 196.002 212.03C195.834 212.694 195.569 213.329 195.214 213.915C195.116 214.074 195.085 214.266 195.129 214.448C195.172 214.631 195.286 214.788 195.446 214.886C195.548 214.956 195.668 214.996 195.792 215.004C195.916 215.011 196.04 214.984 196.149 214.927Z" fill="#D56B49"/>
<path d="M201.25 220.557L201.51 220.415C201.671 220.319 201.789 220.163 201.837 219.98C201.886 219.798 201.86 219.605 201.765 219.441C201.72 219.359 201.659 219.286 201.585 219.228C201.51 219.171 201.425 219.129 201.334 219.105C201.242 219.082 201.148 219.077 201.054 219.093C200.961 219.109 200.873 219.143 200.793 219.194C199.361 219.964 197.786 220.428 196.166 220.557C194.901 220.697 193.621 220.519 192.443 220.037C192.278 219.943 192.084 219.921 191.902 219.971C191.72 220.022 191.566 220.142 191.473 220.307C191.381 220.472 191.357 220.665 191.407 220.848C191.458 221.029 191.578 221.184 191.743 221.276C193.155 221.898 194.705 222.14 196.238 221.978C197.988 221.85 199.694 221.366 201.25 220.557Z" fill="#D56B49"/>
<path d="M201.703 201.447C200.557 201.246 200.117 202.198 200.104 203.114C200.082 204.64 201.315 206.101 202.369 204.783C203.035 203.948 202.626 201.613 201.703 201.447Z" fill="#361A09"/>
<path d="M180.925 205.281C179.779 205.08 179.348 206.032 179.325 206.94C179.303 208.466 180.536 209.927 181.59 208.616C182.255 207.745 181.839 205.402 180.925 205.281Z" fill="#361A09"/>
<path d="M172.837 201.35C173.519 199.79 175.619 199.394 177.074 199.076C178.084 198.857 180.751 198.531 180.616 200.238C180.547 201.11 179.37 201.209 178.718 201.28C176.922 201.53 175.141 201.874 173.381 202.313C173.297 202.328 173.212 202.323 173.13 202.298C173.049 202.274 172.973 202.232 172.911 202.172C172.849 202.114 172.802 202.042 172.772 201.962C172.742 201.883 172.732 201.797 172.741 201.712C172.756 201.587 172.788 201.465 172.837 201.35Z" fill="#522C26"/>
<path d="M198.176 197.478C198.535 198.39 199.819 198.156 200.543 198.006C201.267 197.855 202.535 197.745 203.399 197.647C203.406 197.627 203.405 197.605 203.396 197.586C203.138 196.707 202.865 195.837 202.617 194.996C202.245 195.015 201.784 195.107 201.633 195.115C200.453 195.197 197.506 195.682 198.176 197.478Z" fill="#522C26"/>
<path d="M167.249 225.489C167.249 225.489 164.383 216.953 164.752 212.405C164.752 212.405 158.328 204.136 162.103 202.114C165.877 200.093 167.886 204.976 168.754 204.024C169.621 203.071 171.043 186.886 175.612 187.419C180.183 187.951 197.074 193.272 204.52 186.91C211.966 180.549 194.089 155.479 163.555 164.99C133.02 174.501 139.089 208.43 167.249 225.489Z" fill="#522C26"/>
<path d="M148.452 178.216C148.452 178.216 147.089 174.091 148.586 171.155C148.586 171.155 148.64 175.208 150.223 177.019C151.806 178.829 148.452 178.216 148.452 178.216Z" fill="#522C26"/>
<path d="M149.099 175.338C149.099 175.338 145.329 174.893 143.536 177.785C143.536 177.785 146.2 176.001 148.878 177.918L149.099 175.338Z" fill="#522C26"/>
<path d="M194.764 333.712C194.764 333.712 190.271 376.165 174.647 385.719C159.023 395.273 139.505 360.589 139.283 338.151C139.061 315.712 194.764 333.712 194.764 333.712Z" fill="white"/>
<path d="M202.698 188.14C202.698 188.14 212.735 184.335 208.735 165.335C208.735 165.335 202.86 170.736 189.235 164.973L202.698 188.14Z" fill="#522C26"/>
<path d="M147.884 191.834C147.884 191.834 148.61 204.084 155.11 209.126" stroke="#73453E" stroke-miterlimit="10" stroke-linecap="round" stroke-linejoin="round"/>
<path d="M170.193 181.001C170.193 181.001 177.226 185.558 188.56 186.225C199.893 186.892 204.56 181.001 204.56 181.001" stroke="#73453E" stroke-miterlimit="10" stroke-linecap="round" stroke-linejoin="round"/>
<path d="M168.753 204.023C168.753 204.023 164.703 198.887 160.828 200.609C156.953 202.331 160.175 210.727 164.751 212.404C164.752 212.405 167.553 211.215 168.753 204.023Z" fill="#FF924F"/>
<path opacity="0.5" d="M159.06 139.049H87.0779C82.0209 139.049 77.9219 134.95 77.9219 129.893V93.8328C77.9219 88.7758 82.0209 84.6768 87.0779 84.6768H159.06C164.117 84.6768 168.216 88.7758 168.216 93.8328V129.893C168.216 134.95 164.117 139.049 159.06 139.049Z" fill="white"/>
<path opacity="0.5" d="M410.317 216.082H338.296C332.556 216.082 327.903 211.429 327.903 205.689V170.59C327.903 164.85 332.556 160.197 338.296 160.197H410.317C416.057 160.197 420.71 164.85 420.71 170.59V205.689C420.71 211.429 416.056 216.082 410.317 216.082Z" fill="white"/>
<path d="M368.843 175.145V198.801L387.118 186.973L368.843 175.145Z" fill="#17DA17"/>
<path d="M64 298.832C64 298.832 80.951 325.203 113.675 300.281L115.708 305.483L122.32 288.896L105.72 290.388L109.662 294.298C109.662 294.299 84.212 318.724 64 298.832Z" fill="#17DA17"/>
<path d="M353.022 394.404C353.022 394.404 385.531 369.696 355.92 335.719L362.302 332.387L342.251 327.612L343.689 346.865L348.543 341.522C348.542 341.522 377.712 367.034 353.022 394.404Z" fill="#17DA17"/>
<path d="M206.204 169.558C206.204 169.558 204.56 179.808 191.81 179.475" stroke="#73453E" stroke-miterlimit="10" stroke-linecap="round" stroke-linejoin="round"/>
<path d="M333.502 71.6157H255.939C253.885 71.6157 252.22 69.9507 252.22 67.8967C252.22 65.8427 253.885 64.1777 255.939 64.1777H333.502C335.556 64.1777 337.221 65.8427 337.221 67.8967C337.221 69.9507 335.556 71.6157 333.502 71.6157Z" fill="#17DA17"/>
<path d="M333.502 87.3657H255.939C253.885 87.3657 252.22 85.7007 252.22 83.6467C252.22 81.5927 253.885 79.9277 255.939 79.9277H333.502C335.556 79.9277 337.221 81.5927 337.221 83.6467C337.221 85.7007 335.556 87.3657 333.502 87.3657Z" fill="#17DA17"/>
<path d="M333.502 103.616H255.939C253.885 103.616 252.22 101.951 252.22 99.8967C252.22 97.8427 253.885 96.1777 255.939 96.1777H333.502C335.556 96.1777 337.221 97.8427 337.221 99.8967C337.221 101.951 335.556 103.616 333.502 103.616Z" fill="#17DA17"/>
<path d="M97.7207 126.155L111.471 97.7334L125.471 126.155H97.7207Z" fill="#17DA17"/>
<path d="M114.096 126.155C114.471 126.155 125.471 107.484 125.471 107.484L136.596 126.155H114.096Z" fill="#17DA17"/>
<path d="M139.971 106.233C142.87 106.233 145.221 103.883 145.221 100.983C145.221 98.0839 142.87 95.7334 139.971 95.7334C137.071 95.7334 134.721 98.0839 134.721 100.983C134.721 103.883 137.071 106.233 139.971 106.233Z" fill="#17DA17"/>
<path d="M170.2 30.5473C170.2 30.5473 210.702 25.0743 213.635 78.6193L220.515 76.2393L209.645 96.8223L197.091 79.0883L204.304 79.6933C204.305 79.6933 207.028 33.7883 170.2 30.5473Z" fill="#17DA17"/>
<path opacity="0.5" d="M346.506 123.53H243.986C239.124 123.53 235.182 119.588 235.182 114.726V59.9984C235.182 55.1364 239.124 51.1943 243.986 51.1943H346.505C351.367 51.1943 355.309 55.1364 355.309 59.9984V114.726C355.31 119.588 351.368 123.53 346.506 123.53Z" fill="white"/>
<path d="M163.858 218.137C169.369 217.193 172.768 210.193 171.451 202.502C170.134 194.81 164.598 189.34 159.088 190.284C153.577 191.228 150.177 198.228 151.495 205.92C152.812 213.611 158.347 219.081 163.858 218.137Z" fill="#071D41"/>
<path d="M160.928 217.547C166.019 216.675 169.16 210.208 167.943 203.103C166.726 195.998 161.612 190.945 156.521 191.817C151.43 192.689 148.289 199.155 149.506 206.261C150.723 213.366 155.837 218.419 160.928 217.547Z" fill="#2B4366"/>
<path d="M158.265 190.572C158.265 190.572 154.911 168.11 168.754 163.672C168.754 163.672 166.691 162.61 163.331 163.672C159.971 164.734 150.906 176.743 154.251 192.738L158.265 190.572Z" fill="#071D41"/>
<path d="M422.114 296.81L410.945 278.043L410.942 278.046C407.381 271.46 399.292 268.67 392.361 271.799C388.201 273.677 385.337 277.214 384.336 281.412L372.305 286.844C368.494 284.818 363.948 284.628 359.788 286.506C352.857 289.635 349.605 297.558 352.19 304.585L352.184 304.58L358.874 325.366C359.656 327.795 361.938 329.423 364.489 329.373L367.14 329.32C369.619 329.271 371.788 327.643 372.536 325.279L377.794 308.641L397.056 299.944L413.014 307.003C415.282 308.006 417.937 307.453 419.613 305.625L421.406 303.672C423.131 301.791 423.419 299.003 422.114 296.81Z" fill="#D8005D"/>
<g opacity="0.3">
<path opacity="0.3" d="M365.856 309.074C371.05 309.074 375.261 304.863 375.261 299.669C375.261 294.474 371.05 290.264 365.856 290.264C360.662 290.264 356.451 294.474 356.451 299.669C356.451 304.863 360.662 309.074 365.856 309.074Z" fill="url(#paint1_linear)"/>
</g>
<g opacity="0.3">
<path opacity="0.3" d="M398.87 294.166C404.064 294.166 408.275 289.956 408.275 284.761C408.275 279.567 404.064 275.356 398.87 275.356C393.676 275.356 389.465 279.567 389.465 284.761C389.465 289.956 393.676 294.166 398.87 294.166Z" fill="url(#paint2_linear)"/>
</g>
<path d="M397.948 282.138C398.989 281.538 399.347 280.207 398.747 279.165C398.147 278.124 396.816 277.766 395.774 278.366C394.732 278.966 394.374 280.298 394.975 281.339C395.575 282.381 396.906 282.739 397.948 282.138Z" fill="#17DA17"/>
<path d="M402.414 290.394C403.238 289.517 403.194 288.139 402.318 287.316C401.441 286.493 400.063 286.536 399.24 287.413C398.417 288.289 398.461 289.667 399.337 290.49C400.214 291.313 401.591 291.27 402.414 290.394Z" fill="#17DA17"/>
<path d="M404.196 284.605C405.248 284.022 405.627 282.696 405.043 281.645C404.46 280.594 403.135 280.215 402.083 280.798C401.032 281.381 400.653 282.707 401.236 283.758C401.82 284.809 403.145 285.189 404.196 284.605Z" fill="#17DA17"/>
<path d="M395.431 288.46C396.527 287.965 397.014 286.676 396.519 285.58C396.025 284.484 394.735 283.997 393.639 284.492C392.544 284.987 392.056 286.276 392.551 287.372C393.046 288.468 394.335 288.955 395.431 288.46Z" fill="#17DA17"/>
<path d="M369.379 296.858L366.531 298.144L364.425 294.517C364.21 294.146 363.751 294.005 363.361 294.181L362.414 294.609C362.204 294.704 362.024 294.839 361.949 295.057C361.874 295.275 361.899 295.529 362.006 295.733L363.897 299.333L360.347 300.936C359.926 301.126 359.547 301.621 359.737 302.041L360.063 302.763C360.253 303.184 360.938 303.366 361.358 303.176L365.043 301.511L366.972 305.18C367.178 305.571 367.65 305.729 368.053 305.547L369.411 304.933C369.627 304.836 369.778 304.625 369.85 304.399C369.922 304.173 369.904 303.948 369.786 303.743L367.772 300.279L370.39 299.097C370.811 298.907 370.833 298.406 370.643 297.985L370.317 297.263C370.127 296.844 369.8 296.668 369.379 296.858Z" fill="#17DA17"/>
<path d="M379.273 290.217C379.382 290.458 379.275 290.741 379.034 290.849L376.545 291.973C376.304 292.082 376.021 291.975 375.913 291.734C375.804 291.493 375.911 291.21 376.152 291.102L378.641 289.978C378.881 289.869 379.165 289.976 379.273 290.217Z" fill="#17DA17"/>
<path d="M385.122 287.577C385.231 287.818 385.124 288.101 384.883 288.209L382.394 289.333C382.153 289.442 381.87 289.335 381.762 289.094C381.653 288.853 381.76 288.57 382.001 288.462L384.49 287.338C384.731 287.229 385.014 287.336 385.122 287.577Z" fill="#17DA17"/>
<path d="M130.531 71.0717C130.363 70.9537 130.215 70.8047 130.098 70.6287L106.38 35.3297C106.029 34.8067 105.994 34.1336 106.291 33.5786C106.588 33.0236 107.167 32.6767 107.797 32.6787L148.95 32.7847C149.538 32.7857 150.084 33.0907 150.394 33.5907C150.703 34.0907 150.732 34.7147 150.471 35.2417L133.036 70.4347C132.766 70.9787 132.228 71.3377 131.623 71.3777C131.228 71.4027 130.844 71.2907 130.531 71.0717ZM110.992 36.0897L131.287 66.2957L146.206 36.1807L110.992 36.0897Z" fill="white"/>
<path d="M97.7202 245.838C85.2332 245.838 75.0732 235.678 75.0732 223.191C75.0732 210.702 85.2332 200.542 97.7202 200.542C110.208 200.542 120.368 210.702 120.368 223.191C120.368 235.678 110.208 245.838 97.7202 245.838ZM97.7202 204.209C87.2542 204.209 78.7392 212.724 78.7392 223.191C78.7392 233.657 87.2542 242.171 97.7202 242.171C108.186 242.171 116.701 233.656 116.701 223.191C116.702 212.723 108.186 204.209 97.7202 204.209Z" fill="white"/>
<defs>
<linearGradient id="paint0_linear" x1="452.636" y1="379.849" x2="-69.722" y2="27.5609" gradientUnits="userSpaceOnUse">
<stop offset="0.0064" stop-color="#FFFF00"/>
<stop offset="0.1184" stop-color="#D1F800"/>
<stop offset="0.253" stop-color="#92EF00"/>
<stop offset="0.3861" stop-color="#5EE700"/>
<stop offset="0.5058" stop-color="#35E100"/>
<stop offset="0.6001" stop-color="#18DD00"/>
<stop offset="0.665" stop-color="#06DA00"/>
<stop offset="0.7442" stop-color="#00D900"/>
</linearGradient>
<linearGradient id="paint1_linear" x1="357.281" y1="303.532" x2="374.425" y2="295.791" gradientUnits="userSpaceOnUse">
<stop stop-color="#7CB4FB"/>
<stop offset="1" stop-color="#4768DE"/>
</linearGradient>
<linearGradient id="paint2_linear" x1="390.295" y1="288.625" x2="407.439" y2="280.885" gradientUnits="userSpaceOnUse">
<stop stop-color="#7CB4FB"/>
<stop offset="1" stop-color="#4768DE"/>
</linearGradient>
</defs>
</svg>
