<svg width="498" height="424" viewBox="0 0 498 424" fill="none" xmlns="http://www.w3.org/2000/svg">
<g clip-path="url(#clip0)">
<path opacity="0.6" d="M391.92 60.67C411.717 72.74 449.991 118.942 427.964 188.499C405.937 258.055 332.92 244.785 302.847 294.103C272.775 343.421 174.655 428.017 110.577 390.815C46.4991 353.613 39.8711 145.21 146 53.825C201.813 5.76597 332.837 24.648 391.92 60.67Z" fill="url(#paint0_linear)"/>
<path d="M422.593 67.29H337.568C330.968 67.29 325.568 72.69 325.568 79.29V102.139C325.568 108.739 330.968 114.139 337.568 114.139H340.87C340.87 114.139 338.87 146.339 303.87 146.339C303.87 146.339 347.703 150.988 355.87 114.139H422.593C429.193 114.139 434.593 108.739 434.593 102.139V79.29C434.593 72.69 429.193 67.29 422.593 67.29Z" fill="white"/>
<path d="M411.946 366.525H354.192C349.628 366.525 345.894 362.791 345.894 358.227V342.427C345.894 337.863 349.628 334.129 354.192 334.129H356.475C356.475 334.129 355.092 311.863 330.89 311.863C330.89 311.863 361.201 308.648 366.848 334.129H411.946C416.51 334.129 420.244 337.863 420.244 342.427V358.227C420.244 362.791 416.51 366.525 411.946 366.525Z" fill="#D8005D"/>
<path d="M76 45.0225H119.942C126.542 45.0225 131.942 50.4225 131.942 57.0225V79.8715C131.942 86.4715 126.542 91.8715 119.942 91.8715H116.64C116.64 91.8715 118.64 124.071 153.64 124.071C153.64 124.071 109.807 128.72 101.64 91.8715H76C69.4 91.8715 64 86.4715 64 79.8715V57.0225C64 50.4225 69.4 45.0225 76 45.0225Z" fill="#D8005D"/>
<path d="M365.454 94.316C367.877 94.316 369.841 92.3519 369.841 89.929C369.841 87.5061 367.877 85.542 365.454 85.542C363.032 85.542 361.067 87.5061 361.067 89.929C361.067 92.3519 363.032 94.316 365.454 94.316Z" fill="#17DA17"/>
<path d="M382.657 94.316C385.079 94.316 387.044 92.3519 387.044 89.929C387.044 87.5061 385.079 85.542 382.657 85.542C380.234 85.542 378.27 87.5061 378.27 89.929C378.27 92.3519 380.234 94.316 382.657 94.316Z" fill="#17DA17"/>
<path d="M399.858 94.316C402.281 94.316 404.245 92.3519 404.245 89.929C404.245 87.5061 402.281 85.542 399.858 85.542C397.435 85.542 395.471 87.5061 395.471 89.929C395.471 92.3519 397.435 94.316 399.858 94.316Z" fill="#17DA17"/>
<path d="M80.4417 73.3004C82.8646 73.3004 84.8287 71.3362 84.8287 68.9134C84.8287 66.4905 82.8646 64.5264 80.4417 64.5264C78.0188 64.5264 76.0547 66.4905 76.0547 68.9134C76.0547 71.3362 78.0188 73.3004 80.4417 73.3004Z" fill="white"/>
<path d="M97.6429 73.3004C100.066 73.3004 102.03 71.3362 102.03 68.9134C102.03 66.4905 100.066 64.5264 97.6429 64.5264C95.22 64.5264 93.2559 66.4905 93.2559 68.9134C93.2559 71.3362 95.22 73.3004 97.6429 73.3004Z" fill="white"/>
<path d="M114.845 73.3004C117.268 73.3004 119.232 71.3362 119.232 68.9134C119.232 66.4905 117.268 64.5264 114.845 64.5264C112.422 64.5264 110.458 66.4905 110.458 68.9134C110.458 71.3362 112.422 73.3004 114.845 73.3004Z" fill="white"/>
<path d="M365.584 355.483C367.772 355.483 369.545 353.709 369.545 351.522C369.545 349.334 367.772 347.561 365.584 347.561C363.396 347.561 361.623 349.334 361.623 351.522C361.623 353.709 363.396 355.483 365.584 355.483Z" fill="white"/>
<path d="M381.116 355.483C383.304 355.483 385.077 353.709 385.077 351.522C385.077 349.334 383.304 347.561 381.116 347.561C378.929 347.561 377.155 349.334 377.155 351.522C377.155 353.709 378.929 355.483 381.116 355.483Z" fill="white"/>
<path d="M396.648 355.483C398.835 355.483 400.609 353.709 400.609 351.522C400.609 349.334 398.835 347.561 396.648 347.561C394.46 347.561 392.687 349.334 392.687 351.522C392.687 353.709 394.46 355.483 396.648 355.483Z" fill="white"/>
<path d="M261.993 399.486C270.738 359.277 277.64 334.077 277.64 334.077L183.132 348.184C183.132 348.184 181.139 367.352 180.233 400L261.993 399.486Z" fill="#C78F27"/>
<path d="M297.75 399.999C289.145 366.685 279.056 333.867 279.056 333.867L245.504 338.737L238.161 399.999H297.75Z" fill="#C78F27"/>
<path d="M177.731 240.396C177.565 238.561 177.767 236.608 179.458 235.535C180.197 235.067 180.989 234.907 181.791 234.936C182.159 233.729 182.795 232.648 183.967 231.956C185.055 231.316 186.228 231.196 187.405 231.331C188.939 228.923 191.253 227.524 194.264 229.541C196.713 231.182 198.869 233.292 200.638 235.647C201.967 237.414 204.631 240.781 203.724 243.119C200.36 251.799 197.365 260.666 194.232 269.443C195.041 269.611 194.79 270.873 193.977 270.704C193.909 270.69 193.842 270.673 193.775 270.659C193.522 271.277 192.699 270.969 192.61 270.398C188.878 269.51 185.465 268.113 183.661 264.384C181.474 259.867 182.424 254.694 182.562 249.857C179.702 247.207 175.812 243.872 177.731 240.396Z" fill="#FFA587"/>
<path d="M175.952 291.6C178.271 276.676 184.441 263.901 186.681 251.234C186.72 251.012 186.962 250.759 187.206 250.774C190.286 250.954 193.201 250.507 196.057 249.424C195.977 248.059 195.9 246.693 195.82 245.328C195.776 244.587 196.925 244.505 196.97 245.247C197.045 246.535 197.118 247.825 197.195 249.112C197.602 249.251 197.735 249.927 197.257 250.181C197.813 259.779 198.335 269.383 198.594 278.994C198.748 284.716 198.811 290.443 198.731 296.167C198.67 300.523 198.572 305.001 197.119 309.159C194.841 315.681 187.138 323.105 178.729 315.816C171.267 309.347 174.719 299.543 175.952 291.6Z" fill="#FFA587"/>
<path d="M195.136 236.297C195.391 236.279 195.633 236.138 195.766 235.899C195.977 235.521 195.843 235.043 195.465 234.831L188.833 231.123C188.453 230.911 187.976 231.047 187.766 231.424C187.555 231.802 187.689 232.28 188.068 232.491L194.7 236.199C194.839 236.277 194.989 236.307 195.136 236.297Z" fill="#ED835C"/>
<path d="M189.748 238.784C190.04 238.763 190.308 238.581 190.424 238.289C190.583 237.887 190.385 237.432 189.983 237.273L182.922 234.493C182.515 234.332 182.064 234.532 181.905 234.935C181.746 235.338 181.944 235.793 182.347 235.952L189.408 238.732C189.518 238.776 189.634 238.792 189.748 238.784Z" fill="#ED835C"/>
<path d="M186.139 242.987C186.458 242.965 186.743 242.747 186.838 242.423C186.959 242.007 186.718 241.571 186.302 241.451L179.202 239.392C178.787 239.27 178.351 239.511 178.23 239.927C178.111 240.343 178.35 240.777 178.766 240.898L185.866 242.958C185.957 242.984 186.049 242.994 186.139 242.987Z" fill="#ED835C"/>
<path d="M158.421 248.975C158.456 248.973 158.49 248.967 158.523 248.957C158.802 248.882 158.965 248.594 158.89 248.316C158.745 247.788 156.054 234.654 155.029 229.639C154.968 229.355 154.694 229.175 154.412 229.232C154.128 229.29 153.946 229.566 154.004 229.849C154.154 230.587 157.7 247.922 157.882 248.591C157.948 248.836 158.179 248.992 158.421 248.975Z" fill="black"/>
<path d="M223.345 138.113C223.345 138.113 217.474 136.962 213.444 137.839L211.604 143.507H222.267L223.345 138.113Z" fill="#8BA8AC"/>
<path d="M283.864 341.72C249.948 355.476 214.628 360.054 178.222 356.255C176.733 356.1 176.261 358.393 177.759 358.55C214.588 362.394 250.324 357.847 284.643 343.928C286.032 343.365 285.265 341.151 283.864 341.72Z" fill="#77541B"/>
<path d="M213.68 121.291C213.68 121.291 215.056 144.574 204.963 147.436C196.607 149.805 189.294 155.512 189.294 155.512C189.294 155.512 215.783 211.621 232.909 210.515C250.036 209.409 255.038 164.69 258.382 156.053L245.379 152.329L247.489 136.625L213.68 121.291Z" fill="#F39E7E"/>
<path d="M253.689 165.327C253.689 165.327 227.715 182.75 205.666 160.761C205.666 160.761 203.419 206.401 223.998 212.633C244.578 218.867 260.719 176.326 253.689 165.327Z" fill="#FDEEF6"/>
<path d="M198.07 162.457C205.048 170.914 216.393 174.234 226.868 175.9C239.247 177.868 253.233 175.963 260.259 164.336C261.035 163.051 263.08 164.185 262.299 165.478C255.694 176.41 242.971 179.938 230.818 178.763C218.668 177.589 204.534 173.943 196.448 164.142C195.501 162.993 197.112 161.297 198.07 162.457Z" fill="#B4AFAC"/>
<path d="M256.554 184.445L285.92 332.826C285.92 332.826 254.1 360.416 177.724 340.498C162.823 336.611 190.066 191.469 190.066 191.469L256.554 184.445Z" fill="#FDEEF6"/>
<path d="M243.465 160.837C243.797 158.085 244.575 155.422 244.575 155.422C244.575 155.422 245.087 155.243 245.769 154.234C246.158 153.658 245.388 151.577 245.388 151.577L266.034 157.125C266.034 157.125 287.017 196.587 287.216 247.755C287.253 257.165 307.895 370.24 302.606 369.618C287.95 367.894 288.568 370.611 271.737 366.445C270.32 361.248 271.455 299.985 264.26 246.178C258.283 201.487 243.675 162.371 243.465 160.837Z" fill="#21A19A"/>
<path d="M171.1 297.766C159.976 233.671 136.782 184.132 156.648 169.842C169.695 160.457 204.706 147.009 204.706 147.009L222.608 153.28C222.608 153.28 223.014 159.073 223.539 161.516C224.001 164.899 236.104 369.485 233.156 377.224C234.585 384.047 166.615 386.755 162.293 381.595C157.955 376.417 173.501 311.596 171.1 297.766Z" fill="#21A19A"/>
<path d="M329.154 215.823C330.68 217.857 354.49 245.271 353.942 247.754C351.617 258.286 335.924 268.714 323.813 272.819C321.286 273.675 287.791 248.112 272.833 218.484C258.086 189.276 261.853 156.004 261.853 156.004C261.853 156.004 268.36 156.575 273.507 159.103C281.302 162.931 319.408 202.838 329.154 215.823Z" fill="#21A19A"/>
<path d="M167.451 273.386C167.451 273.386 136.701 274.687 123.943 267.094C123.943 267.094 134.924 190.82 153.689 173.152C167.718 159.944 194.405 193.312 194.712 207.94C195.02 222.567 167.451 273.386 167.451 273.386Z" fill="#21A19A"/>
<path d="M222.606 153.281L217.218 164.602C217.218 164.602 203.675 155.507 202.618 147.693L205.142 141.953C205.143 141.952 209.302 148.107 222.606 153.281Z" fill="#31C2A7"/>
<path d="M244.437 155.617L246.761 164.258C246.761 164.258 248.236 156.431 247.63 152.609L245.729 149.503C245.729 149.504 245.101 153.861 244.437 155.617Z" fill="#31C2A7"/>
<path d="M150.225 181.739C150.87 180.433 153.015 181.226 152.363 182.545C139.829 207.9 135.346 236.039 127.639 263.012C127.235 264.426 125.099 263.613 125.502 262.207C133.208 235.233 137.69 207.093 150.225 181.739Z" fill="#107F8C"/>
<path d="M186.406 215.731C180.163 236.721 174.124 257.771 168.29 278.878C167.897 280.295 165.762 279.48 166.153 278.072C171.986 256.965 178.026 235.914 184.269 214.925C184.687 213.514 186.823 214.328 186.406 215.731Z" fill="#107F8C"/>
<path d="M190.784 208.684C191.438 207.384 193.582 208.176 192.921 209.49C190.861 213.591 189.112 217.807 187.665 222.162C187.201 223.558 185.064 222.75 185.528 221.356C186.974 217.001 188.724 212.785 190.784 208.684Z" fill="#107F8C"/>
<path d="M218.544 202.843C218.898 202.202 219.622 201.87 220.341 202.01C220.956 202.129 221.492 202.532 221.761 203.098C221.89 203.37 221.953 203.652 221.972 203.939C221.999 203.973 222.029 204.002 222.055 204.042C222.766 205.129 222.051 206.467 220.859 206.777C219.419 207.151 218.379 205.903 218.257 204.576C218.204 204.011 218.267 203.346 218.544 202.843Z" fill="#31C2A7"/>
<path d="M217.298 169.654C217.652 169.013 218.376 168.682 219.097 168.822C219.711 168.94 220.247 169.343 220.516 169.909C220.645 170.181 220.708 170.463 220.727 170.75C220.755 170.784 220.784 170.814 220.81 170.853C221.521 171.94 220.806 173.278 219.614 173.588C218.174 173.963 217.135 172.714 217.013 171.387C216.959 170.822 217.021 170.156 217.298 169.654Z" fill="#31C2A7"/>
<path d="M218.753 230.316C219.107 229.675 219.831 229.343 220.552 229.483C221.166 229.602 221.702 230.005 221.971 230.57C222.1 230.843 222.163 231.125 222.182 231.412C222.21 231.446 222.239 231.475 222.265 231.515C222.975 232.601 222.26 233.939 221.068 234.249C219.628 234.624 218.589 233.376 218.467 232.048C218.415 231.483 218.476 230.817 218.753 230.316Z" fill="#31C2A7"/>
<path d="M220.203 260.244C220.557 259.603 221.281 259.271 222.003 259.411C222.617 259.53 223.153 259.933 223.422 260.498C223.551 260.771 223.614 261.053 223.633 261.34C223.661 261.374 223.69 261.403 223.716 261.443C224.426 262.529 223.711 263.867 222.519 264.177C221.079 264.552 220.04 263.304 219.918 261.976C219.864 261.411 219.926 260.745 220.203 260.244Z" fill="#31C2A7"/>
<path d="M269.68 80.8051C269.68 80.8051 271.625 92.6041 271.126 97.8281C270.627 103.052 272.252 103.805 273.127 109.989C274.129 117.074 268.347 141.837 261.968 145.695C252.857 151.204 237.353 142.628 233.841 141.545C230.331 140.461 220.714 135.734 215.834 125.842C210.955 115.95 204.861 101.425 206.033 86.2861C207.205 71.1471 221.454 57.7781 238.801 57.6531C256.149 57.5281 267.985 73.7141 269.68 80.8051Z" fill="#F39E7E"/>
<path d="M268.138 101.279C267.932 100.37 267.414 99.572 266.59 99.21C265.661 98.802 264.577 99.181 264.038 100.055C263.429 101.044 263.448 102.303 263.807 103.433C263.787 104.379 264.007 105.298 264.739 105.925C265.515 106.59 266.657 106.631 267.416 105.96C268.545 104.965 268.461 102.705 268.138 101.279Z" fill="#6E3F30"/>
<path d="M245.539 103.636C245.384 102.717 244.912 101.89 244.109 101.482C243.205 101.023 242.1 101.34 241.513 102.182C240.848 103.135 240.797 104.393 241.091 105.543C241.019 106.487 241.186 107.416 241.883 108.084C242.621 108.791 243.758 108.897 244.554 108.27C245.736 107.34 245.781 105.08 245.539 103.636Z" fill="#6E3F30"/>
<path d="M265.86 111.305C264.611 108.839 263.247 106.424 261.942 103.988C261.231 102.662 259.237 103.88 259.945 105.205C261.249 107.639 262.648 110.044 263.863 112.522C265.791 116.453 260.25 116.57 257.672 116.625C256.168 116.657 256.209 118.994 257.716 118.963C260.526 118.904 265.741 118.708 266.724 115.369C267.145 113.933 266.499 112.568 265.86 111.305Z" fill="#CE6D46"/>
<path d="M197.507 71.3416C199.985 63.0676 206.103 52.5506 221.87 47.9726C223.354 47.5416 224.982 47.3346 226.605 46.9816C228.545 44.7686 230.317 43.5606 233.04 42.3886C236.789 40.7756 244.092 39.2786 249.185 41.8606C251.487 43.0276 253.061 45.5466 253.083 45.5936C258.713 46.3376 264.576 46.7466 268.521 51.4366C270.971 54.3506 271.382 57.7066 271.307 59.9696C273.551 60.6086 275.725 61.4396 277.677 62.7476C280.967 64.9516 283.725 68.1636 284.761 72.0406C285.951 76.4926 285.433 81.3136 282.218 84.8216C279.578 87.7026 270.84 88.7116 270.84 88.7116C270.84 88.7116 269.767 81.7976 269.813 81.6406C265.328 81.6966 263.237 80.1286 257.005 81.3646C250.367 82.6816 242.357 75.8906 237.241 75.0106C232.126 74.1306 229.176 79.8066 228.156 82.5706C227.365 84.7146 227.458 96.4416 227.082 101.843C224.78 102.847 222.037 102.772 219.929 101.692C219.873 99.3296 219.791 97.3716 219.652 96.1946C219.516 95.0306 218.974 93.9456 217.888 93.5046C215.851 92.6776 212.419 92.9316 211.236 95.3576C209.008 99.9296 209.015 105.054 211.075 108.229C212.574 110.541 215.275 110.542 215.844 112.399C216.795 115.501 213.681 121.289 213.681 121.289C213.681 121.289 205.565 109.344 201.416 98.1816C197.462 87.5526 194.999 79.7196 197.507 71.3416Z" fill="#522C26"/>
<path d="M213.957 97.5139C214.943 96.3729 216.715 97.8979 215.731 99.0379C213.935 101.119 214.153 104.335 216.226 106.144C217.362 107.135 215.837 108.908 214.702 107.918C211.675 105.276 211.33 100.558 213.957 97.5139Z" fill="#CE6D46"/>
<path d="M230.724 67.4649C233.963 65.1539 236.567 62.0559 240.268 60.4269C243.881 58.8369 247.875 58.6599 251.668 59.6519C253.08 60.0219 252.684 62.2739 251.257 61.8999C247.409 60.8939 243.425 61.1919 239.92 63.1599C236.999 64.7999 234.762 67.3919 232.046 69.3289C230.846 70.1849 229.526 68.3189 230.724 67.4649Z" fill="#73453E"/>
<path d="M225.863 67.085C228.297 64.561 230.595 61.919 232.759 59.161C233.668 58.002 235.418 59.471 234.511 60.628C232.347 63.387 230.048 66.028 227.615 68.552C226.598 69.606 224.841 68.145 225.863 67.085Z" fill="#73453E"/>
<path d="M236.143 94.023C238.424 92.135 240.908 90.596 243.773 89.764C245.765 89.185 249.573 88.484 250.75 90.826C251.807 92.927 249.558 94.15 247.881 94.738C244.86 95.796 241.765 96.377 238.932 97.954C236.243 99.451 233.718 96.03 236.143 94.023Z" fill="#522C26"/>
<path d="M264.843 90.0866C267.819 89.2326 270.653 91.7836 272.173 94.0946C272.683 94.8716 272.612 95.9136 271.905 96.5456C271.268 97.1156 270.102 97.2936 269.441 96.6156C268.757 95.9136 268.026 95.3486 267.149 94.9126C266.204 94.4426 265.046 94.0646 264.291 93.3036C263.38 92.3856 263.356 90.5136 264.843 90.0866Z" fill="#522C26"/>
<path d="M235.857 136.637C238.312 140.162 242.367 142.278 246.156 144.099C249.85 145.875 253.711 147.222 257.679 148.233C259.102 148.596 258.334 150.748 256.916 150.387C252.417 149.24 248.081 147.646 243.942 145.536C240.282 143.67 236.53 141.579 234.134 138.14C233.302 136.943 235.017 135.432 235.857 136.637Z" fill="#CE6D46"/>
<path d="M265.848 122.259C264.1 121.133 260.791 120.857 258.754 120.639C255.81 120.322 252.816 120.267 249.859 120.297C247.363 120.225 244.888 120.396 242.589 121.43C238.047 123.708 236.901 128.948 234.435 128.385C232.281 127.893 233.671 122.588 232.116 118.578C231.027 115.77 229.053 112.923 228.12 110.065C226.793 106.002 227.161 102.743 227.244 98.4697C224.99 99.6717 222.104 99.7977 219.851 101C219.703 111.944 219.553 120.581 222.824 130.469C225.537 138.669 232.705 144.873 239.886 149.673C242.879 151.675 250.531 153.163 254.087 153.405C260.315 153.829 264.396 150.802 267.444 144.828C269.87 140.071 271.256 127.329 271.256 127.329C271.227 127.589 269.33 124.502 265.848 122.259Z" fill="#522C26"/>
<path d="M250.225 129.467C253.008 132.462 257.017 133.532 260.906 132.19C262.299 131.71 263.036 133.872 261.646 134.353C257.057 135.937 252.021 134.743 248.704 131.174C247.712 130.105 249.222 128.387 250.225 129.467Z" fill="#73453E"/>
<path d="M166.657 267.981C165.112 271.182 157.205 299.021 157.205 299.021C157.205 299.021 131.943 324.744 122.737 303C121.785 300.75 124.858 272.704 126.7 268.485C137.594 265.663 156.092 271.74 166.657 267.981Z" fill="#F39E7E"/>
<path d="M173.089 257.973L125.649 247.23L121.693 271.302C121.693 271.302 126.105 280.677 140.427 275.282C153.864 268.879 168.391 278.646 168.391 278.646L173.089 257.973Z" fill="#31C2A7"/>
<path d="M319.876 271.1C319.876 271.1 327.047 278.403 338.819 285.246C350.591 292.087 362.731 256.727 362.731 256.727L347.942 241.65L319.876 271.1Z" fill="#F19984"/>
<path d="M337.276 223.678C337.276 223.678 330.565 224.08 321.154 233.019C311.743 241.956 301.893 257.119 301.893 257.119L320.985 275.342C320.985 275.342 336.802 252.514 354.737 245.386L337.276 223.678Z" fill="#31C2A7"/>
<path d="M283.185 245.374C282.513 245.421 281.924 244.92 281.864 244.245C280.264 225.969 274.199 201.087 274.137 200.838C273.974 200.173 274.382 199.501 275.047 199.339C275.71 199.173 276.384 199.583 276.545 200.247C276.608 200.498 282.717 225.562 284.333 244.028C284.394 244.71 283.888 245.311 283.205 245.371C283.2 245.373 283.193 245.373 283.185 245.374Z" fill="#107F8C"/>
<path d="M280.103 201.453C279.496 201.496 278.934 201.084 278.805 200.471C278.741 200.164 277.231 192.908 278.064 189.293C278.218 188.624 278.885 188.211 279.551 188.363C280.219 188.517 280.637 189.183 280.482 189.851C279.893 192.41 280.825 198.016 281.234 199.96C281.375 200.63 280.945 201.288 280.275 201.429C280.216 201.441 280.159 201.449 280.103 201.453Z" fill="#107F8C"/>
<path d="M327.665 220.912C327.293 220.938 326.914 220.798 326.648 220.496L309.183 200.734C308.728 200.22 308.777 199.436 309.291 198.983C309.806 198.529 310.588 198.579 311.041 199.091L328.507 218.853C328.962 219.367 328.913 220.151 328.399 220.604C328.186 220.792 327.929 220.894 327.665 220.912Z" fill="#107F8C"/>
<path d="M151.389 188.96C151.389 188.96 162.259 261.812 157.206 299.022C154.42 310.835 132.339 318.552 122.788 304.778C110.875 276.635 134.81 189.42 134.81 189.42L151.389 188.96Z" fill="#FFA587"/>
<path d="M162.596 175.154C163.333 173.016 163.667 170.628 161.966 168.853C161.223 168.077 160.326 167.654 159.362 167.454C159.278 165.907 158.839 164.432 157.644 163.263C156.536 162.18 155.173 161.693 153.73 161.507C152.61 158.186 150.262 155.838 146.082 157.357C142.681 158.593 139.491 160.474 136.691 162.76C134.588 164.476 130.423 167.705 130.817 170.759C132.275 182.093 133.239 193.542 134.393 204.923C133.379 204.886 133.308 206.464 134.326 206.501C134.411 206.505 134.495 206.503 134.58 206.507C134.7 207.318 135.772 207.193 136.045 206.539C140.754 206.577 145.232 205.915 148.478 202.001C152.412 197.26 152.8 190.815 154.058 185.011C158.245 182.693 163.862 179.861 162.596 175.154Z" fill="#FFA587"/>
<path d="M143.056 165.153C142.757 165.057 142.51 164.817 142.422 164.493C142.281 163.98 142.582 163.45 143.095 163.309L152.089 160.839C152.605 160.698 153.133 161.001 153.273 161.512C153.414 162.025 153.113 162.555 152.599 162.695L143.605 165.165C143.416 165.217 143.227 165.208 143.056 165.153Z" fill="#ED835C"/>
<path d="M148.748 169.702C148.406 169.592 148.14 169.295 148.088 168.913C148.017 168.387 148.387 167.903 148.913 167.832L158.146 166.594C158.678 166.522 159.158 166.893 159.228 167.419C159.298 167.946 158.929 168.431 158.403 168.501L149.17 169.739C149.023 169.76 148.88 169.745 148.748 169.702Z" fill="#ED835C"/>
<path d="M151.812 175.771C151.439 175.651 151.162 175.308 151.145 174.893C151.124 174.362 151.538 173.913 152.069 173.892L161.136 173.525C161.666 173.502 162.115 173.917 162.138 174.448C162.158 174.979 161.745 175.426 161.214 175.448L152.147 175.816C152.03 175.821 151.917 175.805 151.812 175.771Z" fill="#ED835C"/>
<path d="M130.817 170.759C130.817 170.759 133.999 128.024 136.991 128.383C143.156 129.122 140.222 170.337 140.222 170.337" fill="#FFA587"/>
<path d="M350.536 260.099C350.536 260.099 345.391 254.363 344.669 250.763C343.947 247.162 367.893 241.414 368.769 244.11C369.952 247.754 351.071 255.241 351.071 255.241L350.536 260.099Z" fill="#FFA587"/>
<path d="M350.536 265.397C350.536 265.397 345.391 259.661 344.669 256.061C343.947 252.46 367.893 246.712 368.769 249.408C369.952 253.052 351.071 260.539 351.071 260.539L350.536 265.397Z" fill="#FFA587"/>
<path d="M350.536 270.772C350.536 270.772 345.391 265.036 344.669 261.436C343.947 257.835 367.893 252.087 368.769 254.783C369.952 258.427 351.071 265.914 351.071 265.914L350.536 270.772Z" fill="#FFA587"/>
<path d="M347.911 275.897C347.911 275.897 342.766 270.161 342.044 266.561C341.322 262.96 365.268 257.212 366.144 259.908C367.327 263.552 348.446 271.039 348.446 271.039L347.911 275.897Z" fill="#FFA587"/>
<path d="M358.919 210.3H309.149V287.122H358.919V210.3Z" fill="url(#paint1_linear)"/>
<path d="M307.387 205.38V292.569C307.387 295.354 309.483 297.615 312.069 297.615H355.993C358.579 297.615 360.676 295.355 360.676 292.569V205.38C360.676 202.602 358.579 200.342 355.993 200.342H312.069C309.483 200.342 307.387 202.601 307.387 205.38ZM358.92 287.122H309.15V210.3H358.92V287.122Z" fill="#103B52"/>
<path d="M339.699 206.44H328.363C327.977 206.44 327.666 206.121 327.666 205.736C327.666 205.351 327.977 205.039 328.363 205.039H339.699C340.092 205.039 340.403 205.35 340.403 205.736C340.403 206.121 340.092 206.44 339.699 206.44Z" fill="#56538E"/>
<path d="M337.18 292.856C337.18 294.597 335.773 296.006 334.031 296.006C332.297 296.006 330.889 294.598 330.889 292.856C330.889 291.115 332.297 289.707 334.031 289.707C335.773 289.708 337.18 291.116 337.18 292.856Z" fill="#56538E"/>
<path d="M337.165 212.182H330.896V213.805H337.165V212.182Z" fill="#B1B2F5"/>
<path d="M355.283 212.182H349.036V213.805H355.283V212.182Z" fill="#B1B2F5"/>
<path d="M318.916 212.182H312.663V213.805H318.916V212.182Z" fill="#B1B2F5"/>
<path d="M307.387 274.229C307.387 274.229 300.534 269.263 300.534 265.591C300.534 255.424 300.534 248.978 304.756 246.764C308.149 244.985 307.387 269.341 307.387 269.341V274.229Z" fill="#FFA587"/>
<path d="M334.035 254.561C339.542 254.561 344.005 248.971 344.005 242.077C344.005 235.182 339.542 229.593 334.035 229.593C328.529 229.593 324.065 235.182 324.065 242.077C324.065 248.971 328.529 254.561 334.035 254.561Z" fill="#2E2E2E"/>
<path d="M349.148 273.918H318.922V266.56C318.922 259.96 324.322 254.56 330.922 254.56H337.148C343.748 254.56 349.148 259.96 349.148 266.56V273.918Z" fill="#2E2E2E"/>
<path d="M201.409 295.206C204.113 285.456 206.705 268.206 201.409 255.456C196.113 242.706 189.705 240.206 188.548 240.545C188.548 240.545 200.213 249.956 196.459 264.956" stroke="black" stroke-miterlimit="10"/>
</g>
<defs>
<linearGradient id="paint0_linear" x1="81.1198" y1="423.826" x2="440.859" y2="-109.581" gradientUnits="userSpaceOnUse">
<stop offset="0.0064" stop-color="#FFFF00"/>
<stop offset="0.1184" stop-color="#D1F800"/>
<stop offset="0.253" stop-color="#92EF00"/>
<stop offset="0.3861" stop-color="#5EE700"/>
<stop offset="0.5058" stop-color="#35E100"/>
<stop offset="0.6001" stop-color="#18DD00"/>
<stop offset="0.665" stop-color="#06DA00"/>
<stop offset="0.7442" stop-color="#00D900"/>
</linearGradient>
<linearGradient id="paint1_linear" x1="309.15" y1="248.711" x2="358.92" y2="248.711" gradientUnits="userSpaceOnUse">
<stop offset="0.0064" stop-color="#FFFF00"/>
<stop offset="0.1184" stop-color="#D1F800"/>
<stop offset="0.253" stop-color="#92EF00"/>
<stop offset="0.3861" stop-color="#5EE700"/>
<stop offset="0.5058" stop-color="#35E100"/>
<stop offset="0.6001" stop-color="#18DD00"/>
<stop offset="0.665" stop-color="#06DA00"/>
<stop offset="0.7442" stop-color="#00D900"/>
</linearGradient>
<clipPath id="clip0">
<rect width="370.593" height="375" fill="white" transform="translate(64 25)"/>
</clipPath>
</defs>
</svg>
