<svg width="371" height="488" viewBox="0 0 371 488" fill="none" xmlns="http://www.w3.org/2000/svg">
<path opacity="0.6" d="M85.9878 6.25385C13.9958 18.9298 119.795 95.6119 70.6018 125.648C21.4078 155.684 -27.7942 258.855 18.5648 317.332C94.8498 413.557 295.663 382.891 352.869 268.279C423.389 126.991 260.33 -24.4432 85.9878 6.25385Z" fill="url(#paint0_linear)"/>
<path d="M247.232 175.045C243.389 177.668 239.37 176.258 236.696 173.339C231.349 175.306 224.848 174.538 219.06 173.506C218.826 173.458 218.622 173.246 218.556 173.021C218.559 173.009 218.562 172.998 218.553 172.984C213.823 174.465 208.028 173.74 203.326 173.082C199.66 172.566 195.799 171.607 192.14 170.144C191.519 171.514 190.908 172.899 190.308 174.287C189.707 175.674 189.095 177.059 188.496 178.435C188.233 179.034 187.984 179.623 187.72 180.222C185.253 185.93 182.763 191.632 180.285 197.337C179.412 199.358 178.547 201.394 177.606 203.397C177.39 203.861 177.176 204.311 176.947 204.771C176.241 206.231 175.466 207.672 174.62 209.06C167.127 204.943 160.778 201.214 152.488 198.817C148.552 197.666 144.526 196.675 140.656 195.319C135.904 193.65 133.971 190.641 130.106 187.906C128.977 187.113 127.769 186.483 126.491 185.985C127.544 183.159 129.795 180.28 132.059 178.072C132.225 177.905 132.402 177.74 132.565 177.584C138.282 172.286 138.042 164.038 143.094 158.201C147.86 152.71 153.685 148.918 156.402 141.843C157.053 140.143 157.547 138.402 157.932 136.633C156.365 131.72 153.961 126.769 153.27 122.618C152.642 118.851 152.979 115.029 155 111.721C157.28 107.991 161.15 105.159 161.892 100.637C162.583 96.419 161.53 92.171 162.464 87.913C163.292 84.133 164.948 80.5561 167.115 77.3601C172.74 69.0611 180.93 64.1071 189.937 60.7561C200.514 54.5311 213.048 52.294 225.334 56.671C228.67 57.077 231.981 57.7741 235.146 58.8031C238.337 59.8261 241.396 61.173 244.245 62.911C247.022 64.593 249.597 66.6311 251.895 69.0791C258.881 76.4951 261.354 85.941 260.467 95.948C259.396 107.881 255.909 119.765 253.376 131.436C253.326 131.666 253.276 131.895 253.226 132.126C252.252 136.623 254.855 143.035 255.244 147.622C255.29 148.174 255.33 148.728 255.363 149.283C255.818 157.177 254.382 170.159 247.232 175.045Z" fill="#6A433E"/>
<path d="M207.948 142.683L236.576 127.902L239.621 185.537L221.467 193.558L202.949 185.781L203.599 153.581L207.948 142.683Z" fill="#FFA587"/>
<path d="M187.944 148.612L187.211 128.389C187.183 127.627 186.544 127.032 185.782 127.06L182.502 127.179C181.741 127.206 181.146 127.846 181.172 128.608L181.905 148.831C181.933 149.593 182.572 150.188 183.334 150.16L186.614 150.041C187.376 150.013 187.971 149.373 187.944 148.612Z" fill="#8F0051"/>
<path d="M201.487 77.2429C206.545 72.6759 215.135 70.7069 218.435 69.8519C221.735 68.9979 244.201 89.677 245.996 91.985C247.79 94.292 249.027 110.635 249.027 110.635L239.61 140.91C239.61 140.91 219.413 156.771 209.752 158.602C200.091 160.434 187.595 141.819 186.243 137.005C184.891 132.191 184.556 101.436 184.556 101.436C184.556 101.436 196.429 81.8089 201.487 77.2429Z" fill="#FFA587"/>
<path d="M221.175 120.717C222.373 120.746 223.393 118.725 223.454 116.203C223.515 113.681 222.593 111.613 221.395 111.584C220.197 111.555 219.177 113.576 219.116 116.098C219.055 118.621 219.977 120.689 221.175 120.717Z" fill="#36303A"/>
<path d="M198.911 112.707C200.109 112.736 201.031 114.803 200.97 117.325C200.909 119.847 199.89 121.867 198.691 121.839C197.493 121.81 196.571 119.743 196.633 117.221C196.693 114.699 197.713 112.677 198.911 112.707Z" fill="#36303A"/>
<path d="M204.8 104.686C204.226 105.36 203.42 105.275 202.644 105.282C200.445 105.304 198.375 105.184 196.168 105.531C194.743 105.755 191.399 107.526 190.394 105.847C190.272 105.642 190.3 105.368 190.421 105.172C192.687 101.478 198.731 100.799 202.57 101.721C203.775 102.011 206.179 103.064 204.8 104.686Z" fill="#6A433E"/>
<path d="M217.67 101.553C221.418 100.331 227.487 100.525 230.036 104.022C230.171 104.208 230.222 104.478 230.116 104.692C229.248 106.443 225.78 104.946 224.343 104.836C222.12 104.666 220.07 104.949 217.878 105.102C217.104 105.155 216.309 105.305 215.685 104.68C214.183 103.175 216.491 101.936 217.67 101.553Z" fill="#6A433E"/>
<path d="M248.931 122.938C247.455 130.928 245.846 139.231 240.975 145.734C239.527 145.266 239.019 131.4 239.808 128.232C240.102 127.049 240.433 125.856 241.059 124.81C241.623 123.87 242.406 123.084 243.065 122.208C244.394 120.442 245.197 118.334 245.795 116.206C246.599 113.35 247.064 110.399 247.178 107.434C247.248 105.618 247.153 103.686 246.144 102.175C245.135 100.664 242.918 99.8312 241.43 100.874C239.545 96.9462 236.192 97.4492 232.971 94.5142C229.238 91.1132 224.535 88.2543 222.861 83.4903C215.055 92.3163 200.62 91.9682 191.992 99.9932C186.421 105.176 184.92 108.942 183.753 116.461C182.585 123.981 182.173 131.755 179.195 138.758C178.354 138.904 177.659 137.712 178.201 137.053C176.369 136.722 175.003 135.069 174.46 133.288C173.917 131.507 174.04 129.601 174.168 127.744C174.606 121.416 175.042 115.088 175.48 108.759C176.037 100.687 176.612 92.5222 179.103 84.8242C180.094 81.7582 181.411 78.7892 183.089 76.0352C184.836 73.1652 186.988 70.5242 189.559 68.3522C190.723 67.3692 192.22 66.6432 193.225 65.5152C194.27 64.3422 195.79 63.4672 197.113 62.6332C202.793 59.0532 209.304 56.7911 215.987 56.1201C219.594 55.7581 223.881 56.1822 225.801 59.2572C230.993 57.9042 236.787 58.2012 241.375 60.9822C246.322 63.9812 249.311 69.5052 250.531 75.1592C251.751 80.8152 251.418 86.6742 251.078 92.4492C251.807 91.9282 252.528 93.3332 252.05 94.0902C251.572 94.8482 250.629 95.2583 250.27 96.0793C251.887 103.45 251.008 111.063 249.719 118.549C249.468 120.017 249.2 121.482 248.931 122.938Z" fill="#6A433E"/>
<path d="M215.217 159.024C219.828 158.457 235.312 141.364 237.063 139.417C237.384 139.059 237.355 138.507 236.996 138.186C236.641 137.866 236.088 137.892 235.765 138.252C229.323 145.419 217.989 156.927 215.005 157.294C211.045 157.782 209.401 157.03 209.351 157.005C208.93 156.79 208.407 156.95 208.183 157.373C207.957 157.799 208.119 158.326 208.544 158.552C208.679 158.625 209.567 159.057 211.488 159.176C212.456 159.234 213.687 159.213 215.217 159.024Z" fill="#ED835C"/>
<path d="M210.947 133.444C211.405 133.296 211.655 132.805 211.508 132.347C211.36 131.888 210.867 131.638 210.41 131.784C209.55 132.06 206.905 132.62 206.07 131.643C205.379 130.539 206.13 121.98 207.224 114.684C207.295 114.207 206.961 113.765 206.491 113.692C206.015 113.62 205.57 113.948 205.499 114.425C204.761 119.342 203.212 130.972 204.728 132.755C205.184 133.29 205.791 133.603 206.451 133.771C208.326 134.25 210.613 133.553 210.947 133.444Z" fill="#FFA587"/>
<path d="M240.712 118.087C239.31 117.73 237.707 119.261 237.134 121.509C236.561 123.757 237.233 125.869 238.636 126.227C240.038 126.585 241.641 125.053 242.214 122.805C242.788 120.558 242.115 118.445 240.712 118.087Z" fill="white"/>
<path d="M242.447 146.983L241.947 126.753C241.928 125.991 241.295 125.388 240.533 125.407L237.252 125.488C236.49 125.507 235.887 126.14 235.906 126.902L236.407 147.132C236.426 147.894 237.059 148.497 237.821 148.478L241.102 148.397C241.864 148.378 242.466 147.745 242.447 146.983Z" fill="#8F0051"/>
<path d="M221.055 81.356C221.368 81.423 221.679 81.223 221.746 80.909C221.754 80.872 222.563 77.163 224.117 75.418C224.675 74.791 225.199 74.4899 225.755 74.1709C226.739 73.6069 227.755 73.025 228.496 70.751C228.939 69.392 229.292 68.021 229.604 66.811C230.051 65.083 230.436 63.5899 230.92 62.6919C231.674 61.2929 233.678 60.607 233.697 60.6C234.002 60.498 234.166 60.1679 234.064 59.8639C233.963 59.5599 233.635 59.395 233.329 59.497C233.229 59.53 230.872 60.332 229.896 62.139C229.345 63.16 228.943 64.7169 228.477 66.5199C228.168 67.7139 227.821 69.0659 227.389 70.3899C226.788 72.2389 226.076 72.647 225.175 73.163C224.592 73.497 223.931 73.8759 223.246 74.6449C221.486 76.6209 220.643 80.5029 220.606 80.6669C220.54 80.9739 220.729 81.276 221.031 81.352C221.039 81.355 221.047 81.357 221.055 81.356Z" fill="#36303A"/>
<path d="M142.441 197.882C142.463 197.802 144.677 189.853 148.966 184.204C150.346 182.385 151.722 180.702 153.18 178.921C156.342 175.056 159.612 171.058 163.211 165.284C166.056 160.715 166.27 157.011 166.477 153.43C166.659 150.264 166.832 147.273 168.731 143.684C170.728 139.906 172.644 137.802 174.182 136.111C175.888 134.237 177.236 132.756 177.934 130.021C178.443 128.026 178.399 125.367 178.349 122.287C178.268 117.338 178.166 111.179 180.323 104.943C183.704 95.1585 194.369 91.9436 194.477 91.9126C194.786 91.8226 194.961 91.4995 194.872 91.1925C194.781 90.8835 194.461 90.7075 194.152 90.7965C193.691 90.9305 182.806 94.2006 179.223 104.564C177.001 110.994 177.103 117.266 177.186 122.307C177.235 125.303 177.277 127.891 176.807 129.735C176.181 132.189 174.983 133.506 173.323 135.33C171.739 137.069 169.77 139.234 167.703 143.142C165.687 146.955 165.499 150.215 165.316 153.365C165.109 156.959 164.912 160.355 162.223 164.672C158.664 170.382 155.419 174.351 152.278 178.188C150.814 179.978 149.431 181.668 148.037 183.503C143.61 189.335 141.41 197.244 141.319 197.578C141.234 197.887 141.417 198.208 141.726 198.293C141.729 198.294 141.732 198.294 141.735 198.296C142.045 198.371 142.358 198.19 142.441 197.882Z" fill="#36303A"/>
<path d="M171.394 112.707C171.716 112.707 171.976 112.446 171.976 112.125C171.976 112.013 172.091 100.797 181.287 89.4935C190.451 78.2275 205.057 77.5825 205.203 77.5775C205.523 77.5665 205.774 77.2966 205.763 76.9756C205.752 76.6556 205.487 76.4015 205.162 76.4145C205.011 76.4205 189.891 77.0745 180.384 88.7585C170.914 100.401 170.813 111.652 170.813 112.125C170.813 112.396 170.998 112.625 171.249 112.689C171.296 112.701 171.345 112.707 171.394 112.707Z" fill="#36303A"/>
<path d="M240.862 97.6033C241.102 97.3903 241.124 97.0233 240.911 96.7833C240.788 96.6443 237.836 93.3573 232.468 90.1343C227.334 87.0513 224.841 82.1473 224.816 82.0993C224.673 81.8103 224.323 81.6963 224.036 81.8383C223.75 81.9823 223.633 82.3303 223.775 82.6183C223.881 82.8313 226.433 87.8683 231.869 91.1323C237.074 94.2573 240.011 97.5243 240.041 97.5573C240.119 97.6473 240.222 97.7063 240.33 97.7343C240.512 97.7793 240.71 97.7383 240.862 97.6033Z" fill="#36303A"/>
<path d="M188.702 168.751C188.797 168.502 191.012 162.601 191.893 158.102C192.77 153.625 192.904 152.297 192.91 152.242C192.94 151.923 192.718 151.645 192.387 151.608C192.068 151.577 191.783 151.811 191.752 152.13C191.752 152.143 191.613 153.485 190.753 157.88C189.889 162.281 187.638 168.282 187.615 168.342C187.502 168.643 187.654 168.978 187.954 169.091C187.976 169.099 187.994 169.104 188.016 169.11C188.297 169.181 188.597 169.032 188.702 168.751Z" fill="#36303A"/>
<path d="M210.122 132.219C209.262 132.495 206.617 133.055 205.782 132.078C204.274 131.114 204.903 126.638 205.997 119.342" stroke="#ED835C" stroke-opacity="0.2" stroke-width="1.5775" stroke-miterlimit="10" stroke-linecap="round"/>
<path d="M201.967 191.6C210.181 195.782 213.765 194.288 222.277 194.288C230.789 194.288 239.749 190.256 243.196 189.062C246.644 187.867 255.727 174.278 255.727 174.278C255.727 174.278 252.441 173.83 247.215 170.844C241.988 167.857 235.268 163.227 235.268 163.227L204.885 166.81C204.885 166.81 201.668 170.394 197.518 175.024C193.368 179.653 185.838 181.743 185.838 181.743C185.838 181.743 193.754 187.42 201.967 191.6Z" fill="#FFA587"/>
<path d="M145.928 413.109C145.907 409.579 145.874 406.049 145.871 402.519C145.855 384.657 156.973 340.905 156.973 340.905C195.293 328.299 238.302 331.999 277.336 339.71C277.336 339.71 285.289 371.946 290.508 413.109H145.928Z" fill="#015E7E"/>
<path d="M287.442 309.461C289.703 323.622 299.348 367.221 298.145 381.526C297.117 393.748 294.262 410.061 279.377 408.292C278.83 409.102 277.801 409.611 276.673 409.7C276.431 409.807 276.195 409.917 275.947 410.016C275.561 410.169 275.301 409.904 275.248 409.582C274.686 409.444 274.142 409.199 273.668 408.818C271.31 406.925 270.637 403.182 269.73 400.487L265.539 388.034C260.58 373.298 255.622 358.562 250.662 343.827C235.084 342.084 219.429 341.069 203.752 340.827C187.929 340.582 171.226 340.768 156.731 347.624C152.344 358.303 154.957 402.118 153.588 405.419C152.604 407.789 133.875 400.042 130.412 380.909C128.564 370.704 131.429 358.383 134.16 348.561C134.625 346.886 137.9 333.928 139.473 333.83C138.571 333.885 137.661 333.902 136.742 333.853C129.367 333.463 123.6 329.167 120.375 322.63C117.223 316.238 116.191 308.706 116.65 301.646C117.155 293.88 121.685 280.588 124.575 273.495C127.39 266.578 125.313 252.859 126.907 245.799C128.722 237.757 132.133 234.737 134.896 226.993C137.529 219.609 138.962 211.918 143.806 205.874C149.256 199.073 155.391 193.398 163.327 189.592C167.37 187.653 171.483 185.871 175.611 184.127C177.621 183.277 179.634 182.439 181.647 181.596C183.542 180.8 184.961 179.266 187.048 180.544C188.006 181.13 188.681 181.947 189.655 182.498C190.633 183.05 191.739 183.406 192.769 183.853C195.417 185.003 198.103 186.085 200.889 186.857C209.657 189.284 219.042 189.268 227.807 186.836C232.199 185.618 236.422 183.8 240.324 181.446C242.689 180.018 245.026 178.508 247.121 176.711C248.685 175.371 249.872 173.227 251.789 172.361C254.115 171.309 256.658 173.372 258.882 173.96C261.924 174.762 264.969 175.545 268.003 176.368C274.048 178.007 280.068 179.783 285.889 182.107C293.952 185.326 301.55 190.924 303.833 199.633C309.41 211.075 310.974 217.935 311.76 230.564C312.649 244.853 313.03 254.394 314.032 268.675C316.942 325.278 291.109 310.225 287.442 309.461Z" fill="#B40057"/>
<path d="M273.852 330.852C279.626 330.852 286.994 342.797 287.192 343.395C287.392 343.992 297.167 389.489 297.167 389.489C297.167 389.489 295.157 409.302 281.02 408.505C266.883 407.708 252.348 334.833 252.348 334.833C252.348 334.833 268.078 330.852 273.852 330.852Z" fill="#B40057"/>
<path d="M210.962 413.109C211.283 413.097 211.53 412.872 211.514 412.608L207.459 344.24C207.445 343.975 207.218 343.774 206.85 343.786C206.529 343.799 206.282 344.023 206.298 344.286L210.353 412.655C210.367 412.91 210.624 413.109 210.933 413.109C210.943 413.11 210.951 413.11 210.962 413.109Z" fill="black"/>
<path d="M209.815 404.736C210.059 404.726 215.817 404.382 217.674 394.881C219.463 385.749 216.229 344.825 216.09 343.089C216.065 342.768 215.788 342.539 215.464 342.556C215.144 342.582 214.906 342.861 214.932 343.182C214.965 343.606 218.291 385.681 216.534 394.658C214.861 403.206 209.972 403.564 209.763 403.574C209.444 403.589 209.196 403.859 209.209 404.179C209.222 404.492 209.48 404.736 209.79 404.736C209.798 404.736 209.806 404.736 209.815 404.736Z" fill="black"/>
<path d="M199.664 173.134C199.242 175.283 198.679 177.4 197.884 179.452C196 184.317 192.801 187.953 188.778 191.178C184.859 194.321 180.328 197.237 178.124 201.934C176.278 205.87 176.466 210.885 173.533 214.309C172.91 215.038 172.199 215.606 171.43 216.045C169.236 215.748 167.002 215.002 165.162 214.45C160.591 213.076 156.267 212.05 151.455 212.314C146.911 212.564 142.839 214.325 138.414 215.028C134.94 212.056 133.524 206.222 134.217 201.56C135.51 192.863 141.784 186.669 148.373 181.371C152.966 172.939 160.577 166.262 169.645 162.83C178.497 159.479 194.295 158.513 199.216 168.02C199.481 165.732 199.648 163.434 199.798 161.183C199.849 160.416 201.021 160.656 200.97 161.413C200.772 164.385 200.557 167.392 200.133 170.361C200.336 171.072 200.497 171.82 200.595 172.623C200.665 173.189 200.036 173.378 199.664 173.134Z" fill="#6A433E"/>
<path d="M270.865 269.904C271.185 269.877 271.422 269.595 271.394 269.276C271.378 269.096 269.863 251.12 272.135 237.915C273.288 231.207 298.628 201.508 298.883 201.208C299.091 200.966 299.063 200.598 298.819 200.39C298.575 200.183 298.209 200.208 297.999 200.453C296.945 201.684 272.195 230.697 270.987 237.717C268.69 251.071 270.218 269.194 270.234 269.375C270.26 269.677 270.515 269.905 270.812 269.905C270.83 269.906 270.847 269.906 270.865 269.904Z" fill="black"/>
<path d="M274.923 361.027C275.231 360.936 275.406 360.611 275.316 360.304C275.141 359.712 270.976 345.762 266.278 341.519C261.6 337.295 254.376 335.247 254.072 335.162C253.763 335.077 253.442 335.258 253.355 335.565C253.269 335.875 253.45 336.196 253.758 336.282C253.831 336.303 261.021 338.34 265.497 342.383C269.951 346.406 274.156 360.492 274.198 360.633C274.272 360.887 274.504 361.05 274.755 361.05C274.811 361.05 274.866 361.044 274.923 361.027Z" fill="black"/>
<path d="M156.85 350.88C157.064 350.832 178.447 346.089 202.824 344.173C224.046 342.506 250.843 345.927 251.111 345.961C251.435 346 251.721 345.777 251.763 345.459C251.804 345.141 251.58 344.849 251.261 344.808C250.992 344.773 224.074 341.337 202.733 343.013C178.275 344.937 156.811 349.698 156.596 349.747C156.283 349.817 156.086 350.128 156.156 350.441C156.216 350.71 156.457 350.896 156.724 350.896C156.765 350.895 156.806 350.89 156.85 350.88Z" fill="black"/>
<path d="M209.588 337.36C209.588 335.003 208.398 333.158 206.878 333.158C205.358 333.158 204.169 335.004 204.169 337.36C204.169 339.717 205.359 341.564 206.878 341.564C208.399 341.563 209.588 339.717 209.588 337.36ZM208.425 337.361C208.425 339.152 207.61 340.401 206.877 340.401C206.145 340.401 205.33 339.152 205.33 337.361C205.33 335.569 206.146 334.32 206.877 334.32C207.611 334.32 208.425 335.569 208.425 337.361Z" fill="black"/>
<path d="M154.299 376.328L169.629 348.197C169.782 347.915 169.678 347.562 169.396 347.409C169.114 347.256 168.763 347.359 168.607 347.641L153.277 375.772C153.125 376.054 153.228 376.407 153.51 376.561C153.599 376.609 153.694 376.631 153.788 376.631C153.994 376.631 154.194 376.522 154.299 376.328Z" fill="black"/>
<path d="M259.038 369.168C259.306 368.992 259.381 368.631 259.205 368.362L243.322 344.171C243.144 343.899 242.782 343.829 242.517 344.004C242.249 344.18 242.174 344.541 242.35 344.81L258.233 369.001C258.345 369.172 258.531 369.264 258.719 369.264C258.83 369.263 258.94 369.232 259.038 369.168Z" fill="black"/>
<path d="M206.564 144.954C207.582 145.15 209.168 145.382 210.209 145.363C211.948 145.331 213.698 144.941 215.093 144.083C216.446 143.25 217.302 142.033 218.05 140.799C218.076 140.781 218.09 140.755 218.093 140.727C218.141 140.647 218.189 140.567 218.237 140.488C216.95 141.315 215.108 141.756 213.648 141.674C212.777 141.625 212.008 141.486 211.306 141.035C211.115 141.024 210.923 141.014 210.732 141.002C208.3 140.855 203.12 140.538 203.151 140.606C203.556 141.469 204.504 144.557 206.564 144.954Z" fill="white"/>
<path d="M203.212 140.811C204.398 142.478 206.816 142.726 210.136 142.559C212.856 142.422 216.021 142.311 218.243 140.639C218.281 140.61 218.295 140.572 218.295 140.534C218.329 140.443 218.252 140.316 218.132 140.357C216.773 140.824 215.405 140.741 214.087 140.191C213.069 139.766 212.118 139.177 211.04 138.899C210.225 138.689 209.081 138.588 208.405 139.207C208.069 139.516 208.021 139.872 208.107 140.228C207.289 139.557 206.473 138.753 205.395 138.627C203.997 138.465 203.685 139.477 203.141 140.514C203.086 140.62 203.142 140.683 203.212 140.811Z" fill="#D56C4E"/>
<path d="M113.907 303.475C102.872 287.882 97.2271 270.849 88.1061 257.376C87.9461 257.14 87.943 256.697 88.177 256.496C91.132 253.947 85.9051 250.864 87.5451 247.366C86.2711 246.197 92.478 245.134 91.203 243.965C90.511 243.331 90.9291 242.265 91.6231 242.899C92.8251 244.002 94.5811 245.089 95.7841 246.19C96.2751 245.958 96.9922 246.455 96.7822 247.106C105.738 255.332 114.668 263.592 123.365 272.092C128.544 277.152 133.643 282.297 138.61 287.564C142.39 291.574 146.244 295.725 148.586 300.78C152.26 308.708 151.803 322.231 137.749 323.017C125.279 323.713 119.781 311.773 113.907 303.475Z" fill="#FFA587"/>
<path d="M287.819 275.723C288.131 275.793 288.442 275.599 288.513 275.286C288.565 275.056 289.751 269.571 285.701 261.788C281.666 254.031 273.376 249.627 273.026 249.443C272.74 249.296 272.39 249.403 272.241 249.688C272.092 249.972 272.203 250.323 272.487 250.472C272.571 250.516 280.804 254.889 284.672 262.325C288.51 269.7 287.394 274.976 287.382 275.028C287.317 275.32 287.484 275.611 287.76 275.706C287.778 275.713 287.799 275.718 287.819 275.723Z" fill="black"/>
<path d="M285.125 237.597C285.125 237.597 302.914 234.901 308.473 262.319C314.031 289.736 312.283 330.454 291.598 336.65C258.291 346.627 261.086 310.701 257.286 291.371C253.486 272.041 244.724 253.947 257.364 241.832C270.004 229.716 285.125 237.597 285.125 237.597Z" fill="#B40057"/>
<path d="M270.208 247.556C270.208 247.556 290.903 245.408 301.136 269.906" stroke="black" stroke-miterlimit="10"/>
<path d="M282.709 249.905C282.709 249.905 297.711 245.659 305.692 254.526" stroke="black" stroke-miterlimit="10"/>
<path d="M96.6306 256.35C96.6306 256.35 91.2806 258.48 87.2506 257.213C83.2206 255.945 80.7836 254.183 78.5216 253.696C76.2586 253.208 68.2805 255.104 66.4085 254.587C64.5375 254.07 65.5275 251.509 65.5275 251.509C65.5275 251.509 62.3926 251.61 60.0006 251.13C57.6076 250.651 57.6776 248.027 57.6776 248.027C57.6776 248.027 55.5515 245.827 57.3995 244.25C59.2475 242.674 68.4815 240.031 67.5325 239.586C66.5835 239.142 58.1995 243.321 57.7645 240.305C57.4085 237.834 62.1205 235.641 65.1655 234.12C68.0395 232.685 74.1676 231.887 78.2296 231.98C82.2916 232.074 93.1765 244.63 93.1765 244.63L96.6306 256.35Z" fill="#FFA587"/>
<path d="M76.8173 244.243C76.8643 243.576 76.3623 242.999 75.6973 242.952C75.5423 242.943 71.8752 242.696 68.3272 243.363C64.8422 244.018 58.3252 246.298 58.0502 246.395C57.4332 246.621 57.0883 247.308 57.3093 247.938C57.5313 248.567 58.2213 248.899 58.8513 248.678C58.9163 248.655 65.4712 246.36 68.7742 245.74C72.0082 245.132 75.4933 245.363 75.5293 245.366C75.7243 245.379 75.9123 245.345 76.0803 245.275C76.4883 245.101 76.7853 244.713 76.8173 244.243Z" fill="#E27E66"/>
<path d="M76.8091 249.102C76.7771 248.435 76.2081 247.921 75.5411 247.955C73.7881 248.044 67.008 249.8 66.242 250C65.612 250.163 65.2081 250.826 65.3761 251.475C65.5451 252.121 66.2051 252.508 66.8511 252.339C69.6571 251.609 74.5311 250.428 75.6631 250.371C75.8081 250.363 75.944 250.33 76.07 250.277C76.527 250.084 76.8361 249.623 76.8091 249.102Z" fill="#E27E66"/>
<path d="M75.0885 238.581C75.1455 237.916 74.6525 237.33 73.9855 237.273L73.1244 237.198C72.1544 237.114 69.3645 237.826 68.2095 238.135C67.5535 238.317 67.1814 238.971 67.3534 239.617C67.5254 240.262 68.1895 240.644 68.8345 240.471C70.4455 240.039 72.4745 239.589 72.9175 239.607L73.7794 239.681C73.9824 239.697 74.1755 239.664 74.3505 239.591C74.7525 239.422 75.0475 239.043 75.0885 238.581Z" fill="#E27E66"/>
<path d="M59.4839 266.006L84.6182 260.934L75.3483 214.997L50.214 220.069L59.4839 266.006Z" fill="#151730"/>
<path opacity="0.6" d="M60.7974 263.368L82.1813 259.052L73.8273 217.66L52.4434 221.976L60.7974 263.368Z" fill="url(#paint1_linear)"/>
<path d="M82.4563 243.999C82.4563 243.999 67.8573 243.28 67.0323 247.556C66.2073 251.832 77.7063 248.083 83.7903 251.249" fill="#FFA587"/>
<path d="M141.3 333.156C141.3 333.156 156.088 333.915 170.814 318.582" stroke="black" stroke-miterlimit="10"/>
<path d="M281.594 166.188C281.594 166.188 265.225 263.556 266.564 275.619C267.902 287.682 284.839 297.131 295.985 284.613C311.212 258.116 297.995 168.648 297.995 168.648L281.594 166.188Z" fill="#FFA587"/>
<path d="M269.333 245.824C269.333 245.824 249.207 253.879 246.873 291.064" stroke="black" stroke-miterlimit="10"/>
<path d="M303.459 252.377C303.459 252.377 311.873 262.839 309.873 282.877" stroke="black" stroke-miterlimit="10"/>
<path d="M175.113 304.649C175.113 304.649 181.977 281.533 181.17 261.283" stroke="black" stroke-miterlimit="10"/>
<path d="M309.176 111.3C309.03 111.187 308.855 111.085 308.622 111.004C306.465 110.248 305.562 117.259 305.031 119.011C304.679 120.172 303.024 123.116 302.541 123.714C302.681 122.393 302.91 121.04 303.006 120.611C303.38 118.948 303.727 116.504 303.65 115.54C303.573 114.577 301.392 102.797 300.965 102.623C300.642 102.438 300.22 102.426 299.663 102.684C297.626 103.63 297.587 111.494 297.791 113.756C297.07 112.231 296.144 110.764 295.282 109.41C293.711 106.941 293.52 105.853 292.428 103.405C291.867 102.146 290.519 101.603 289.576 102.098C288.264 102.583 287.693 104.229 288.155 106.257C288.562 108.045 290.365 112.073 290.916 113.177C290.916 113.177 292.189 116.953 292.735 118.177C293.281 119.401 293.643 122.057 293.934 123.629C294.053 124.275 294.095 125.751 294.103 127.263C294.096 127.256 294.087 127.257 294.081 127.25C291.99 124.87 286.068 120.082 283.777 119.98C280.903 119.853 272.042 128.499 271.354 129.589C271.098 129.995 271.153 130.56 271.498 131.026C270.46 130.657 269.946 130.783 269.741 131.208C268.866 132.022 269.739 134.952 270.323 136.623C270.962 138.451 276.104 155.116 276.738 157.063C277.372 159.011 279.557 161.147 279.557 161.147C279.557 161.147 279.557 161.147 279.967 162.725C280.377 164.303 280.921 172.447 280.921 172.447L298.617 173.172C298.617 173.172 297.663 164.108 297.519 161.942C297.375 159.776 297.611 157.147 298.289 155.377C298.967 153.607 300.586 146.84 300.895 145.294C301.203 143.748 301.538 141.603 302.091 139.948C302.585 138.47 303.218 136.159 303.5 135.211C303.782 134.264 307.011 126.368 307.886 125.567C308.761 124.766 309.112 122.262 309.41 120.955C309.708 119.648 309.428 117.836 309.93 114.619C310.304 112.224 309.574 111.51 309.176 111.3ZM279.391 140.161C277.46 138.642 275.817 137.239 275.039 135.146C274.767 134.413 274.312 133.434 273.619 132.589C273.869 132.585 274.153 132.557 274.465 132.487C276.04 132.137 277.656 131.207 279.744 129.781C280.981 128.936 282.954 126.384 283.547 126.53C283.547 126.53 286.25 129.169 287.112 131.367C287.335 131.936 286.006 138.431 285.179 139.8C284.626 140.715 283.441 141.289 282.346 141.641C281.449 141.48 280.461 141.002 279.391 140.161Z" fill="#FFA587"/>
<path d="M290.698 132.631C290.698 132.631 290.448 140.429 292.698 146.929" stroke="#ED835C" stroke-miterlimit="10"/>
<path d="M281.198 143.678C281.198 143.678 289.573 148.553 289.198 153.928" stroke="#ED835C" stroke-miterlimit="10"/>
<path d="M38.9718 319.935C38.8798 319.469 38.7799 318.966 38.6939 318.531C37.9309 315.14 37.1029 311.621 35.1789 308.671C33.2559 305.721 31.0098 303.328 29.6598 300.073C28.3028 296.427 27.2479 292.674 26.5109 288.853C25.5709 284.777 25.5468 280.544 26.4368 276.458C28.3778 267.995 32.9848 260.378 39.5808 254.731C55.2088 241.276 78.2188 237.288 95.1508 250.758C97.0978 252.312 98.8818 254.064 100.474 255.982C105.185 261.574 109.217 267.703 112.487 274.241C116.076 281.48 119.591 290.274 116.856 298.354C115.919 301.229 114.413 303.885 112.426 306.166C113.402 312.866 108.915 320.79 104.658 325.509C101.361 329.182 96.4758 329.415 91.3468 326.237C87.2308 326.188 81.1359 329.097 78.9079 325.935C77.8679 327.933 76.5069 329.746 74.8809 331.302C71.7069 334.177 66.5658 330.476 62.4938 331.364C59.2438 332.078 53.0019 336.124 53.0019 336.124C51.3609 335.712 49.7589 335.157 48.2149 334.467C42.6409 331.435 40.3928 325.732 38.9718 319.935Z" fill="#522C26"/>
<path d="M153.189 454.621C153.189 454.621 134.633 447.038 123.014 428.951C121.376 419.092 120.079 408.259 119.757 397.573C119.757 397.573 129.673 389.896 135.79 386.678C137.771 385.636 138.62 383.261 137.751 381.198C133.849 371.932 109.269 335.077 107.318 334.482C96.7077 331.25 71.3077 299.446 38.0917 340.32C23.8367 357.862 26.3747 356.792 15.3057 376.631L89.1437 487.579L153.189 454.621Z" fill="#FAF3F2"/>
<path d="M51.7812 328.222C58.2822 332.618 66.1572 334.543 73.9492 334.661C81.5822 334.776 91.0452 333.88 95.9832 327.27L95.6382 327.244C92.9732 330.728 88.8333 332.606 84.6193 333.489C80.4513 334.307 76.1942 334.588 71.9552 334.324C67.6652 334.122 63.4312 333.278 59.3932 331.82C56.8542 330.887 54.4342 329.66 52.1832 328.163L51.7812 328.222Z" fill="#1F2144"/>
<path d="M59.8525 327.183C59.8525 327.183 66.0075 331.316 76.1505 331.49C86.2945 331.665 89.0756 329.665 89.0756 329.665L90.5596 323.045L91.1906 320.28L92.1965 315.852L63.6815 295.623L59.8525 327.183Z" fill="#F5A983"/>
<path d="M84.5621 324.876C87.5401 325.236 87.156 325.552 90.111 325.045L91.564 317.757L92.459 315.078C89.645 315.797 86.758 316.19 83.856 316.249C79.128 316.322 78.064 317.113 77.23 319.193C76.396 321.272 79.6791 324.08 84.5621 324.876Z" fill="#ED9368"/>
<path d="M59.1945 309.579C63.9565 317.582 86.1194 319.592 90.8875 318.178C97.6285 316.2 106.802 303.795 106.766 293.785C106.763 288.524 104.961 279.798 103.13 272.07C103.13 272.07 103.13 272.02 103.13 272.001C102.843 270.846 102.556 269.691 102.279 268.596C102.251 268.443 102.215 268.291 102.17 268.143C100.528 261.697 99.0845 256.782 99.0845 256.782L79.6105 244.949C79.6105 244.949 57.1614 258.308 56.7954 258.852C56.4304 259.395 47.2734 283.054 47.2734 283.054C47.2734 283.054 54.4605 301.605 59.1945 309.579Z" fill="#F5A983"/>
<path d="M47.3305 283.14C47.3305 283.14 43.6584 282.658 41.8734 287.092C40.2774 291.041 44.3184 297.742 49.7794 300.7C54.5284 303.274 60.2045 302.737 60.1465 302.392C60.0865 302.048 59.4185 290.961 59.1515 290.073C58.8845 289.184 47.3305 283.14 47.3305 283.14Z" fill="#FF924F"/>
<path d="M91.2304 296.848C91.3794 296.783 91.5054 296.676 91.5944 296.542C92.2304 295.608 92.7123 294.577 93.0243 293.491C93.3593 292.049 91.1364 287.934 89.7924 285.595C89.6674 285.387 89.4673 285.235 89.2333 285.172C88.9983 285.11 88.7484 285.141 88.5374 285.26C88.4324 285.32 88.3404 285.401 88.2654 285.495C88.1914 285.59 88.1384 285.701 88.1064 285.817C88.0754 285.933 88.0664 286.055 88.0844 286.176C88.1004 286.295 88.1413 286.411 88.2023 286.515C89.7043 289.11 91.2753 292.368 91.2273 293.088C90.9673 293.937 90.5824 294.742 90.0834 295.478C89.9464 295.678 89.8934 295.925 89.9394 296.163C89.9834 296.403 90.1213 296.614 90.3213 296.751C90.4493 296.849 90.6024 296.908 90.7624 296.926C90.9224 296.941 91.0844 296.914 91.2304 296.848Z" fill="#D56B49"/>
<path d="M95.0141 302.578L95.3602 302.411C95.5752 302.298 95.7382 302.103 95.8122 301.869C95.8872 301.637 95.8661 301.384 95.7541 301.166C95.7021 301.057 95.6261 300.958 95.5341 300.878C95.4401 300.799 95.3332 300.739 95.2162 300.702C95.0982 300.667 94.9762 300.654 94.8552 300.668C94.7332 300.682 94.6172 300.721 94.5112 300.782C92.6072 301.686 90.5371 302.185 88.4311 302.247C86.7841 302.346 85.1372 302.032 83.6432 301.331C83.4362 301.199 83.1852 301.157 82.9472 301.211C82.7072 301.265 82.5012 301.411 82.3692 301.618C82.2392 301.825 82.1951 302.074 82.2491 302.314C82.3031 302.552 82.4492 302.76 82.6562 302.891C84.4442 303.788 86.4352 304.203 88.4322 304.092C90.7052 304.041 92.9451 303.525 95.0141 302.578Z" fill="#D56B49"/>
<path d="M98.593 277.91C97.122 277.575 96.4899 278.78 96.4129 279.965C96.2849 281.939 97.7869 283.913 99.2369 282.273C100.156 281.235 99.778 278.186 98.593 277.91Z" fill="#361A09"/>
<path d="M69.177 281.412C67.706 281.077 67.0859 282.282 66.9969 283.457C66.8689 285.431 68.3709 287.405 69.8209 285.775C70.7389 284.689 70.351 281.628 69.177 281.412Z" fill="#361A09"/>
<path d="M64.2496 277.545C65.2346 275.569 67.9796 275.193 69.8846 274.876C71.2066 274.658 74.6817 274.41 74.3967 276.611C74.2497 277.736 72.7197 277.787 71.8707 277.837C69.5277 278.044 67.1997 278.374 64.8917 278.828C64.7827 278.842 64.6717 278.83 64.5677 278.793C64.4637 278.756 64.3697 278.697 64.2927 278.616C64.2157 278.537 64.1597 278.44 64.1267 278.335C64.0927 278.23 64.0856 278.118 64.1026 278.009C64.1296 277.847 64.1796 277.691 64.2496 277.545Z" fill="#522C26"/>
<path d="M97.3178 274.176C97.7238 275.38 99.4017 275.161 100.349 275.013C101.297 274.865 102.945 274.805 104.07 274.734C104.08 274.708 104.08 274.68 104.07 274.655C103.793 273.5 103.496 272.355 103.229 271.25C102.746 271.25 102.143 271.34 101.946 271.34C100.416 271.371 96.5668 271.807 97.3178 274.176Z" fill="#522C26"/>
<path d="M48.3101 270.761C48.6931 268.886 48.7111 266.605 49.2931 264.778C51.6681 257.264 59.4341 251.762 66.2931 248.796C73.8141 245.533 80.1871 241.73 87.9401 246.562L88.2161 246.759C90.0921 246.917 91.8461 247.752 93.1541 249.106C94.1761 249.199 95.1751 249.455 96.1161 249.864C97.9961 250.943 99.6042 252.438 100.817 254.235C103.891 258.508 104.87 263.966 105.426 269.039C105.463 269.283 105.416 269.531 105.295 269.743C105.173 269.957 104.982 270.123 104.755 270.215C104.527 270.309 104.275 270.322 104.038 270.252C103.803 270.184 103.596 270.038 103.452 269.839C101.792 267.412 99.9221 265.137 97.8611 263.041C96.0331 261.354 93.9092 259.894 92.2502 258.108C91.1132 256.869 90.2231 255.421 89.6311 253.845C82.6331 253.849 74.9901 252.571 68.8041 256.583C61.7391 261.178 60.7282 271.721 59.0942 279.185C59.0602 279.402 58.9611 279.605 58.8081 279.763C58.6551 279.921 58.4572 280.028 58.2402 280.07C58.0232 280.111 57.7992 280.084 57.5992 279.994C57.3982 279.902 57.2302 279.752 57.1202 279.561C56.8862 279.605 56.6442 279.564 56.4382 279.444C53.9702 278.034 49.0621 276.408 48.1321 273.467C47.9431 272.566 48.0031 271.63 48.3101 270.761Z" fill="#522C26"/>
<path d="M34.1173 257.987C36.9893 250.308 42.5623 243.941 49.7943 240.079C57.4213 236.081 66.1013 234.546 74.6383 235.692C81.4973 236.661 87.8984 239.695 92.9954 244.387C94.8114 244.465 96.5984 244.661 98.1484 244.819C102.59 245.27 107.724 246.342 111.31 249.173C115.437 252.439 118.117 258.705 117.924 264.451C118.062 264.904 118.221 265.349 118.339 265.842C119.724 271.696 116.934 277.254 117.363 283.178C117.79 288.675 117.754 295.319 114.411 299.961C114.301 300.096 114.15 300.191 113.982 300.233C113.815 300.276 113.636 300.262 113.476 300.195C113.316 300.13 113.181 300.014 113.092 299.865C113.003 299.716 112.963 299.542 112.98 299.369C113.233 293.733 114.504 288.579 114.085 282.843C113.998 281.525 114.044 280.203 114.221 278.895C114.095 278.777 113.987 278.641 113.905 278.49C113.29 276.906 112.891 275.245 112.717 273.554L112.658 273.604C112.48 273.742 112.271 273.835 112.052 273.879C111.831 273.922 111.603 273.915 111.386 273.857C111.168 273.799 110.966 273.691 110.798 273.544C110.628 273.395 110.495 273.211 110.408 273.003C110.191 272.411 109.974 271.779 109.755 271.128C109.707 271.114 109.66 271.094 109.617 271.069C107.404 269.679 106.495 266.886 105.556 264.576C105.12 263.499 104.706 262.424 104.31 261.338C103.323 259.917 102.226 258.516 101.119 257.155C98.6704 255.024 95.9634 253.041 94.1474 250.515C94.0054 250.321 93.9164 250.093 93.8904 249.853C93.8104 249.606 93.8104 249.34 93.8904 249.093C92.9024 248.708 91.9734 248.343 90.9973 248.018H90.9374C90.8364 247.971 90.7564 247.892 90.7034 247.794C90.6504 247.696 90.6294 247.584 90.6454 247.475C90.6614 247.364 90.7104 247.262 90.7884 247.183C90.8654 247.104 90.9654 247.05 91.0744 247.031C91.2434 247.031 91.4204 247.031 91.5894 247.031C91.5304 247.021 91.4733 247.001 91.4203 246.972L90.9463 246.696C90.2843 246.696 89.6043 246.647 88.9723 246.697C89.6803 247.462 90.2063 248.376 90.5133 249.372C90.5543 249.485 90.5613 249.61 90.5343 249.728C90.5093 249.846 90.4483 249.955 90.3633 250.04C90.2773 250.127 90.1693 250.186 90.0513 250.213C89.9323 250.24 89.8094 250.233 89.6944 250.192C87.4634 249.522 85.9133 247.845 83.7693 246.888C81.3723 245.929 78.9073 245.148 76.3943 244.554C73.6193 243.753 70.7924 243.149 67.9324 242.742C67.7974 243.014 67.5654 243.225 67.2824 243.335L67.0343 243.434C66.9363 243.693 66.7444 243.909 66.4964 244.035C66.2484 244.161 65.9624 244.19 65.6934 244.115C65.5954 244.105 65.4964 244.105 65.3974 244.115C63.9064 244.698 62.4374 245.272 60.9174 245.806C56.3574 247.566 51.8763 249.533 48.2063 252.784C44.2603 256.271 41.8734 261.672 37.1974 264.153C37.0884 264.213 36.9894 264.292 36.8814 264.342C36.7154 264.434 36.5284 264.483 36.3384 264.483C36.1484 264.483 35.9613 264.435 35.7953 264.343C34.6343 270.622 35.4474 276.9 35.1454 283.346C35.1454 284.038 34.1573 283.999 33.9313 283.496C30.0033 275.935 31.2793 265.549 34.1173 257.987Z" fill="#522C26"/>
<path d="M46.9324 276.774C46.9324 276.774 44.4254 260.408 57.2514 248.919C71.3704 236.265 88.3014 237.805 91.2834 240.231C91.8944 240.725 92.3713 241.364 92.6703 242.09C92.9683 242.817 93.0813 243.606 92.9933 244.387C92.9933 244.387 76.1413 242.491 63.9663 252.508C52.8363 261.667 54.1094 277.42 54.1094 277.42L46.9324 276.774Z" fill="#73453E"/>
<path d="M61.3881 281.554C65.2241 289.912 65.3471 298.836 59.7531 303.943C53.0931 310.078 45.8441 306.46 42.3851 300.401C38.9261 294.342 38.4261 281.913 42.5901 278.061C48.4701 272.687 57.1971 272.504 61.3881 281.554Z" fill="#361A09"/>
<path d="M40.371 280.569C41.682 279.147 53.2 274.45 57.156 287.203C61.112 299.954 51.4799 303.811 48.7849 304.433C43.7709 305.601 39.584 301.478 37.397 294.509C34.599 285.656 39.048 282.021 40.371 280.569Z" fill="#28AA65"/>
<path d="M62.0309 347.764C62.0309 347.764 52.5269 331.424 37.6689 345.562" stroke="#1F2144" stroke-width="0.75" stroke-miterlimit="10"/>
<path d="M75.3903 131.458C95.0588 131.458 111.003 115.514 111.003 95.8455C111.003 76.1769 95.0588 60.2324 75.3903 60.2324C55.7217 60.2324 39.7773 76.1769 39.7773 95.8455C39.7773 115.514 55.7217 131.458 75.3903 131.458Z" fill="white"/>
<path d="M76.5338 120.057L51.5078 100.161L56.6918 93.6425L73.5568 107.051L90.1398 72.6484L97.6407 76.2644L76.5338 120.057Z" fill="#17DA17"/>
<path d="M15.7098 36.5016C20.7682 36.5016 24.8688 32.4009 24.8688 27.3425C24.8688 22.2842 20.7682 18.1836 15.7098 18.1836C10.6515 18.1836 6.55078 22.2842 6.55078 27.3425C6.55078 32.4009 10.6515 36.5016 15.7098 36.5016Z" fill="white"/>
<path d="M16.0043 33.569L9.56836 28.4519L10.9012 26.7759L15.2393 30.2239L19.5033 21.377L21.4333 22.3069L16.0043 33.569Z" fill="#17DA17"/>
<path d="M161.454 41.2129C170.406 41.2129 177.662 33.9563 177.662 25.0049C177.662 16.0535 170.406 8.79688 161.454 8.79688C152.503 8.79688 145.246 16.0535 145.246 25.0049C145.246 33.9563 152.503 41.2129 161.454 41.2129Z" fill="white"/>
<path d="M157.356 35.2476L150.749 22.2836L154.126 20.5625L158.579 29.2996L171.94 18.1836L174.364 21.0975L157.356 35.2476Z" fill="#17DA17"/>
<path d="M17.5928 198.607C26.5442 198.607 33.8008 191.351 33.8008 182.399C33.8008 173.448 26.5442 166.191 17.5928 166.191C8.64134 166.191 1.38477 173.448 1.38477 182.399C1.38477 191.351 8.64134 198.607 17.5928 198.607Z" fill="white"/>
<path d="M15.8918 193.299L6.55078 182.142L9.45679 179.709L15.7518 187.228L26.2869 173.404L29.3018 175.701L15.8918 193.299Z" fill="#17DA17"/>
<path d="M351.188 226.943C360.139 226.943 367.396 219.687 367.396 210.735C367.396 201.784 360.139 194.527 351.188 194.527C342.236 194.527 334.979 201.784 334.979 210.735C334.979 219.687 342.236 226.943 351.188 226.943Z" fill="white"/>
<path d="M349.486 221.635L340.145 210.479L343.052 208.046L349.347 215.564L359.882 201.74L362.896 204.038L349.486 221.635Z" fill="#17DA17"/>
<defs>
<linearGradient id="paint0_linear" x1="36.7694" y1="336.178" x2="434.861" y2="-103.439" gradientUnits="userSpaceOnUse">
<stop offset="0.0064" stop-color="#FFFF00"/>
<stop offset="0.1184" stop-color="#D1F800"/>
<stop offset="0.253" stop-color="#92EF00"/>
<stop offset="0.3861" stop-color="#5EE700"/>
<stop offset="0.5058" stop-color="#35E100"/>
<stop offset="0.6001" stop-color="#18DD00"/>
<stop offset="0.665" stop-color="#06DA00"/>
<stop offset="0.7442" stop-color="#00D900"/>
</linearGradient>
<linearGradient id="paint1_linear" x1="52.4432" y1="240.514" x2="82.1813" y2="240.514" gradientUnits="userSpaceOnUse">
<stop offset="0.0064" stop-color="#FFFF00"/>
<stop offset="0.1184" stop-color="#D1F800"/>
<stop offset="0.253" stop-color="#92EF00"/>
<stop offset="0.3861" stop-color="#5EE700"/>
<stop offset="0.5058" stop-color="#35E100"/>
<stop offset="0.6001" stop-color="#18DD00"/>
<stop offset="0.665" stop-color="#06DA00"/>
<stop offset="0.7442" stop-color="#00D900"/>
</linearGradient>
</defs>
</svg>
