<svg width="498" height="424" viewBox="0 0 498 424" fill="none" xmlns="http://www.w3.org/2000/svg">
<path opacity="0.6" d="M177.131 25.6154C143.852 18.8194 98.4467 27.7704 70.5627 166.736C42.6787 305.701 188.742 474.6 343.83 362.414C480.903 263.261 450.732 140.828 327.127 131.075C247.989 124.83 243.316 39.1314 177.131 25.6154Z" fill="url(#paint0_linear)"/>
<path d="M184.117 269.87C184.117 269.87 196.73 277.809 226.94 259.271C257.15 240.733 271.585 232.816 276.084 202.396C279.019 182.551 279.099 175.755 279.099 175.755L271.754 172.266C271.754 172.266 255.757 212.181 250.017 216.531C214.41 243.519 167.355 253.394 184.117 269.87Z" fill="#F2A470"/>
<path d="M192.751 247.93L224.588 232.702C224.588 232.702 234.889 244.44 231.938 256.207C229.098 257.918 218.953 265.655 213.529 264.599C201.706 262.297 192.751 247.93 192.751 247.93Z" fill="white"/>
<path d="M264.533 273.882C264.533 273.882 200.975 361.923 215.759 375.192C230.543 388.46 243.908 386.315 258.573 383.476C273.238 380.638 292.745 307.743 291.589 299.064C290.431 290.384 282.031 263.745 264.533 273.882Z" fill="#F2A470"/>
<path d="M264.533 273.882C264.533 273.882 264.862 304.682 271.336 328.611C277.81 352.541 286.525 385.608 286.525 385.608H303.884C303.884 385.608 296.507 295.11 296.94 284.068C297.373 273.026 284.41 254.763 264.533 273.882Z" fill="#F2A470"/>
<path d="M239.723 311.121C239.723 311.121 235.977 350.206 275.445 358.6C275.445 358.6 271.944 386.725 257.536 388.895C243.128 391.065 195.826 388.474 186.279 383.476C186.279 383.476 211.148 340.536 239.723 311.121Z" fill="#21A19A"/>
<path d="M303.211 377.257C303.211 377.257 311.26 387.882 315.6 388.46C319.94 389.039 329.487 391.064 328.619 394.825C327.751 398.586 312.52 400.314 303.211 398.582C293.902 396.85 284.354 401.85 286.525 385.608L282.128 368.985C282.128 368.985 291.906 370.385 302.307 365.825L303.16 374.863L303.211 377.257Z" fill="white"/>
<path d="M219.065 272.396C218.555 261.29 216.718 254.229 206.362 250.186C191.038 244.203 160.759 243.537 141.794 255.056C138.562 257.019 129.947 278.668 137.064 325.579C141.769 356.596 147.289 388.417 184.548 384.593C221.807 380.769 241.506 378.609 239.775 370.104C238.044 361.599 222.258 323.446 221.09 308.929C220.425 300.649 219.628 284.633 219.065 272.396Z" fill="white"/>
<path d="M239.881 273.882C239.881 273.882 176.323 361.923 191.107 375.192C205.891 388.46 219.256 386.315 233.921 383.476C248.585 380.638 268.093 307.743 266.936 299.064C265.779 290.384 257.38 263.745 239.881 273.882Z" fill="#F5A983"/>
<path d="M239.881 273.882C239.881 273.882 240.211 304.682 246.684 328.611C253.158 352.541 261.873 385.608 261.873 385.608H279.231C279.231 385.608 271.854 295.11 272.288 284.068C272.722 273.026 259.759 254.763 239.881 273.882Z" fill="#F5A983"/>
<path d="M215.072 311.121C215.072 311.121 211.326 350.206 250.794 358.6C250.794 358.6 247.293 386.725 232.885 388.895C218.477 391.065 171.175 388.474 161.627 383.476C161.627 383.476 186.497 340.536 215.072 311.121Z" fill="#31C2A7"/>
<path d="M278.56 377.257C278.56 377.257 286.61 387.882 290.949 388.46C295.289 389.039 304.836 391.064 303.968 394.825C303.1 398.586 287.869 400.314 278.56 398.582C269.251 396.85 259.703 401.85 261.874 385.608L257.477 368.985C257.477 368.985 267.255 370.385 277.655 365.825L278.509 374.863L278.56 377.257Z" fill="white"/>
<path d="M305.493 224.215L272.793 227.979C271.84 228.089 271.127 228.552 271.056 229.106L268.622 248.133C268.515 248.967 269.867 249.604 271.28 249.386L303.108 244.47C303.973 244.336 304.609 243.91 304.703 243.401L308.008 225.527C308.159 224.71 306.898 224.053 305.493 224.215Z" fill="#2B4366"/>
<path d="M308.332 223.886L275.632 227.65C274.679 227.76 273.966 228.223 273.895 228.777L271.461 247.804C271.355 248.638 272.706 249.275 274.119 249.056L305.947 244.14C306.811 244.007 307.447 243.58 307.542 243.071L310.847 225.196C310.998 224.381 309.737 223.724 308.332 223.886Z" fill="#071D41"/>
<path d="M142.001 265.738C142.001 265.738 147.362 279.645 182.66 282.853C217.959 286.06 234.263 288.348 256.062 266.657C270.282 252.507 274.411 247.108 274.411 247.108L270.611 239.919C270.611 239.919 233.919 262.343 226.718 262.398C182.038 262.735 138.419 242.509 142.001 265.738Z" fill="#F5A983"/>
<path d="M290.75 236.909C289.418 236.653 286.562 235.576 283.67 234.781C284.534 234.111 285.494 233.287 285.762 232.442C286.277 230.812 286.622 230.288 284.902 230.804C283.182 231.319 277.164 234.08 277.164 234.08C277.164 234.08 277.177 234.086 277.18 234.088C273.76 235.087 270.61 239.92 270.61 239.92L274.41 247.109C274.41 247.109 279.226 244.908 283.01 245.596C286.794 246.284 295.566 245.596 297.457 242.5C299.35 239.403 292.986 237.339 290.75 236.909Z" fill="#FFB27D"/>
<path d="M173.02 243.65C173.02 243.65 161.339 241.491 147.452 249.881C133.565 258.271 137.615 278.233 137.615 278.233L153.816 284.29C153.816 284.29 149.033 257.62 172.798 252.412L173.02 243.65Z" fill="white"/>
<path d="M187.478 256.08C192.406 255.339 194.833 249.809 192.26 245.542C191.434 244.173 190.828 242.681 190.393 241.139C190.264 240.682 190.154 240.232 190.049 239.775C189.223 235.97 189.323 231.982 189.638 228.864C189.664 228.595 189.696 228.339 189.728 228.089C190.086 225.115 190.62 223.098 190.62 223.098L168.842 211.814C169.222 217.529 168.879 222.691 168.215 227.121C167.074 234.68 164.973 240.122 163.88 242.587C163.88 242.587 163.88 242.587 163.88 242.593C163.199 251.309 173.565 253.197 182.325 255.675C183.992 256.145 185.636 256.334 187.187 256.122C187.285 256.108 187.381 256.094 187.478 256.08Z" fill="#F5A983"/>
<path d="M190.393 241.137C181.098 241.978 168.216 227.119 168.216 227.119C177.703 225.417 184.935 226.591 189.639 228.864C189.32 231.985 189.223 235.973 190.05 239.773C190.153 240.23 190.264 240.683 190.393 241.137Z" fill="#E8945B"/>
<path d="M196.104 232.886C196.104 232.886 171.311 239.309 162.86 219.58C153.739 198.287 163.924 182.851 172.338 181.845C189.116 179.84 198.827 186.278 201.742 193.051C204.657 199.822 209.783 229.463 196.104 232.886Z" fill="#F5A983"/>
<path d="M196.149 215.927C196.261 215.871 196.354 215.784 196.418 215.677C196.872 214.933 197.203 214.12 197.401 213.272C197.603 212.149 195.732 209.065 194.606 207.315C194.502 207.159 194.342 207.05 194.159 207.01C193.975 206.971 193.784 207.005 193.627 207.105C193.549 207.155 193.481 207.221 193.427 207.297C193.374 207.373 193.337 207.46 193.317 207.551C193.297 207.642 193.296 207.736 193.314 207.828C193.331 207.919 193.367 208.007 193.418 208.084C194.676 210.025 196.011 212.473 196.002 213.029C195.834 213.693 195.569 214.328 195.214 214.914C195.116 215.073 195.085 215.265 195.129 215.447C195.172 215.63 195.286 215.787 195.446 215.885C195.548 215.955 195.668 215.995 195.792 216.003C195.915 216.011 196.039 215.984 196.149 215.927Z" fill="#D56B49"/>
<path d="M201.25 221.557L201.51 221.415C201.671 221.319 201.789 221.163 201.837 220.98C201.886 220.798 201.86 220.605 201.765 220.441C201.72 220.359 201.659 220.286 201.585 220.228C201.51 220.171 201.425 220.129 201.334 220.105C201.242 220.082 201.148 220.077 201.054 220.093C200.961 220.109 200.873 220.143 200.793 220.194C199.361 220.964 197.786 221.428 196.166 221.557C194.901 221.697 193.621 221.519 192.443 221.037C192.278 220.944 192.084 220.921 191.902 220.971C191.72 221.022 191.566 221.142 191.473 221.307C191.381 221.471 191.357 221.665 191.407 221.848C191.458 222.029 191.578 222.184 191.743 222.276C193.155 222.898 194.705 223.14 196.238 222.978C197.987 222.85 199.693 222.366 201.25 221.557Z" fill="#D56B49"/>
<path d="M201.703 202.447C200.557 202.246 200.117 203.198 200.103 204.114C200.081 205.64 201.314 207.101 202.368 205.783C203.035 204.947 202.626 202.613 201.703 202.447Z" fill="#361A09"/>
<path d="M180.925 206.281C179.779 206.08 179.348 207.032 179.325 207.94C179.303 209.466 180.536 210.927 181.59 209.616C182.255 208.745 181.839 206.402 180.925 206.281Z" fill="#361A09"/>
<path d="M172.836 202.35C173.518 200.79 175.618 200.394 177.073 200.076C178.083 199.857 180.75 199.531 180.615 201.238C180.546 202.11 179.369 202.209 178.717 202.28C176.921 202.53 175.14 202.874 173.38 203.313C173.296 203.328 173.211 203.323 173.129 203.298C173.048 203.274 172.972 203.232 172.91 203.172C172.848 203.114 172.801 203.042 172.771 202.962C172.741 202.883 172.731 202.797 172.74 202.712C172.755 202.587 172.787 202.465 172.836 202.35Z" fill="#522C26"/>
<path d="M198.176 198.478C198.535 199.39 199.819 199.156 200.543 199.006C201.267 198.855 202.535 198.745 203.399 198.647C203.406 198.627 203.405 198.605 203.396 198.586C203.138 197.707 202.865 196.837 202.617 195.996C202.245 196.015 201.784 196.107 201.633 196.115C200.454 196.197 197.506 196.682 198.176 198.478Z" fill="#522C26"/>
<path d="M167.249 226.489C167.249 226.489 164.383 217.953 164.752 213.405C164.752 213.405 158.328 205.136 162.103 203.114C165.877 201.092 167.886 205.976 168.754 205.024C169.621 204.071 171.043 187.886 175.612 188.419C180.183 188.951 197.074 194.272 204.52 187.91C211.966 181.549 194.089 156.479 163.555 165.99C133.02 175.501 139.09 209.43 167.249 226.489Z" fill="#522C26"/>
<path d="M148.452 179.215C148.452 179.215 147.089 175.089 148.586 172.154C148.586 172.154 148.64 176.207 150.223 178.018C151.806 179.829 148.452 179.215 148.452 179.215Z" fill="#522C26"/>
<path d="M149.1 176.338C149.1 176.338 145.33 175.893 143.537 178.785C143.537 178.785 146.201 177.001 148.879 178.918L149.1 176.338Z" fill="#522C26"/>
<path d="M194.764 334.711C194.764 334.711 190.271 377.164 174.647 386.718C159.023 396.272 139.505 361.588 139.283 339.15C139.061 316.711 194.764 334.711 194.764 334.711Z" fill="white"/>
<path d="M202.698 189.139C202.698 189.139 212.735 185.334 208.735 166.334C208.735 166.334 202.86 171.735 189.235 165.972L202.698 189.139Z" fill="#522C26"/>
<path d="M147.884 192.834C147.884 192.834 148.61 205.084 155.11 210.126" stroke="#73453E" stroke-miterlimit="10" stroke-linecap="round" stroke-linejoin="round"/>
<path d="M170.193 182C170.193 182 177.226 186.557 188.56 187.224C199.894 187.891 204.56 182 204.56 182" stroke="#73453E" stroke-miterlimit="10" stroke-linecap="round" stroke-linejoin="round"/>
<path d="M168.754 205.023C168.754 205.023 164.704 199.887 160.829 201.609C156.954 203.331 160.176 211.727 164.752 213.404C164.752 213.405 167.554 212.215 168.754 205.023Z" fill="#FF924F"/>
<path opacity="0.5" d="M159.06 140.049H87.0779C82.0209 140.049 77.9219 135.95 77.9219 130.893V94.8328C77.9219 89.7758 82.0209 85.6768 87.0779 85.6768H159.06C164.117 85.6768 168.216 89.7758 168.216 94.8328V130.893C168.216 135.95 164.117 140.049 159.06 140.049Z" fill="white"/>
<path opacity="0.5" d="M397.953 191.803H325.932C320.192 191.803 315.539 187.15 315.539 181.41V146.311C315.539 140.571 320.192 135.918 325.932 135.918H397.953C403.693 135.918 408.346 140.571 408.346 146.311V181.41C408.346 187.15 403.693 191.803 397.953 191.803Z" fill="white"/>
<path opacity="0.5" d="M393.378 319.119H337.435C333.044 319.119 329.485 315.56 329.485 311.169V283.808C329.485 279.417 333.044 275.858 337.435 275.858H393.378C397.769 275.858 401.328 279.417 401.328 283.808V311.169C401.329 315.56 397.769 319.119 393.378 319.119Z" fill="white"/>
<path d="M376.935 313.124H355.31V310.304C355.31 304.332 360.151 299.492 366.122 299.492C372.094 299.492 376.934 304.333 376.934 310.304V313.124H376.935Z" fill="#17DA17"/>
<path d="M366.122 298.354C369.884 298.354 372.934 294.66 372.934 290.104C372.934 285.547 369.884 281.854 366.122 281.854C362.359 281.854 359.31 285.547 359.31 290.104C359.31 294.66 362.359 298.354 366.122 298.354Z" fill="#17DA17"/>
<path opacity="0.5" d="M342.896 121.065H240.377C235.515 121.065 231.573 117.123 231.573 112.261V57.5335C231.573 52.6715 235.515 48.7295 240.377 48.7295H342.896C347.758 48.7295 351.7 52.6715 351.7 57.5335V112.261C351.7 117.124 347.759 121.065 342.896 121.065Z" fill="white"/>
<path d="M357.768 78.9449C369.005 78.9449 378.114 69.8357 378.114 58.5989C378.114 47.3621 369.005 38.2529 357.768 38.2529C346.531 38.2529 337.422 47.3621 337.422 58.5989C337.422 69.8357 346.531 78.9449 357.768 78.9449Z" fill="white"/>
<path d="M358.421 72.4307L344.123 61.0637L347.085 57.3397L356.72 65.0007L366.193 45.3457L370.479 47.4127L358.421 72.4307Z" fill="#17DA17"/>
<path d="M89.6888 161.757C100.926 161.757 110.035 152.648 110.035 141.411C110.035 130.175 100.926 121.065 89.6888 121.065C78.452 121.065 69.3428 130.175 69.3428 141.411C69.3428 152.648 78.452 161.757 89.6888 161.757Z" fill="white"/>
<path d="M90.3429 155.244L76.0449 143.877L79.0069 140.153L88.6419 147.813L98.1149 128.159L102.401 130.225L90.3429 155.244Z" fill="#17DA17"/>
<path d="M318.15 205.764C329.387 205.764 338.496 196.655 338.496 185.418C338.496 174.181 329.387 165.072 318.15 165.072C306.913 165.072 297.804 174.181 297.804 185.418C297.804 196.655 306.913 205.764 318.15 205.764Z" fill="white"/>
<path d="M318.804 199.251L304.506 187.884L307.468 184.16L317.103 191.82L326.576 172.166L330.862 174.232L318.804 199.251Z" fill="#17DA17"/>
<path d="M394.419 294.06C405.656 294.06 414.765 284.951 414.765 273.714C414.765 262.477 405.656 253.368 394.419 253.368C383.182 253.368 374.073 262.477 374.073 273.714C374.073 284.951 383.182 294.06 394.419 294.06Z" fill="white"/>
<path d="M395.072 287.546L380.775 276.179L383.736 272.455L393.372 280.116L402.845 260.461L407.131 262.527L395.072 287.546Z" fill="#17DA17"/>
<path d="M107.153 101.082H102.79C101.546 101.082 101.294 101.666 101.294 102.309C101.294 103.459 102.773 109.161 108.181 116.701C111.789 121.854 116.865 124.643 121.49 124.643C124.262 124.643 124.605 124.024 124.605 122.955V119.064C124.605 117.823 124.867 117.575 125.745 117.575C126.392 117.575 127.503 117.897 130.09 120.382C133.047 123.325 133.537 124.643 135.201 124.643H139.564C140.808 124.643 141.434 124.024 141.074 122.801C140.679 121.581 139.267 119.812 137.393 117.715C136.376 116.519 134.851 115.229 134.39 114.586C133.743 113.757 133.929 113.39 134.39 112.656C134.39 112.656 139.704 105.206 140.259 102.676C140.535 101.757 140.259 101.082 138.938 101.082H134.579C133.467 101.082 132.957 101.666 132.681 102.309C132.681 102.309 130.461 107.689 127.318 111.185C126.301 112.195 125.839 112.517 125.283 112.517C125.007 112.517 124.605 112.195 124.605 111.276V102.676C124.605 101.571 124.283 101.082 123.357 101.082H116.502C115.81 101.082 115.394 101.592 115.394 102.078C115.394 103.123 116.964 103.364 117.128 106.308V112.702C117.128 114.104 116.873 114.359 116.317 114.359C114.838 114.359 111.241 108.951 109.109 102.767C108.687 101.568 108.268 101.082 107.153 101.082Z" fill="#50E217"/>
<path d="M298.563 69.1544C300.286 69.2074 301.228 69.4824 301.853 69.7144C302.682 70.0224 303.276 70.3964 303.904 71.0054C304.532 71.6144 304.923 72.1974 305.255 73.0174C305.506 73.6354 305.809 74.5684 305.914 76.2894C306.025 78.1504 306.052 78.7084 306.122 83.4264C306.19 88.1424 306.182 88.7024 306.126 90.5674C306.072 92.2904 305.797 93.2294 305.564 93.8554C305.257 94.6854 304.882 95.2794 304.273 95.9064C303.664 96.5334 303.082 96.9264 302.262 97.2584C301.643 97.5094 300.712 97.8114 298.991 97.9164C297.129 98.0284 296.571 98.0554 291.853 98.1244C287.135 98.1934 286.577 98.1854 284.713 98.1274C282.99 98.0744 282.048 97.7994 281.423 97.5674C280.594 97.2594 280 96.8854 279.373 96.2764C278.745 95.6674 278.354 95.0844 278.022 94.2654C277.769 93.6454 277.468 92.7144 277.363 90.9924C277.252 89.1314 277.225 88.5734 277.155 83.8554C277.084 79.1384 277.095 78.5794 277.152 76.7144C277.206 74.9914 277.481 74.0524 277.714 73.4264C278.021 72.5964 278.396 72.0024 279.005 71.3754C279.614 70.7484 280.196 70.3554 281.016 70.0234C281.635 69.7724 282.566 69.4704 284.287 69.3654C286.149 69.2534 286.707 69.2264 291.425 69.1574C296.141 69.0874 296.699 69.0964 298.563 69.1544ZM284.093 66.1884C282.215 66.3024 280.933 66.6194 279.817 67.0734C278.662 67.5424 277.686 68.1614 276.719 69.1584C275.75 70.1534 275.16 71.1484 274.728 72.3174C274.306 73.4464 274.027 74.7354 273.971 76.6174C273.913 78.5024 273.901 79.1044 273.97 83.9014C274.042 88.7004 274.071 89.3014 274.184 91.1834C274.299 93.0634 274.618 94.3434 275.069 95.4594C275.539 96.6154 276.158 97.5914 277.153 98.5584C278.151 99.5274 279.145 100.116 280.313 100.55C281.444 100.971 282.733 101.25 284.615 101.308C286.501 101.366 287.102 101.377 291.901 101.307C296.698 101.235 297.298 101.205 299.183 101.093C301.061 100.979 302.34 100.661 303.46 100.208C304.615 99.7394 305.591 99.1204 306.557 98.1234C307.526 97.1274 308.116 96.1334 308.548 94.9644C308.968 93.8344 309.249 92.5464 309.305 90.6644C309.363 88.7794 309.375 88.1774 309.303 83.3784C309.234 78.5814 309.205 77.9804 309.089 76.0964C308.977 74.2184 308.658 72.9374 308.204 71.8204C307.736 70.6664 307.118 69.6904 306.12 68.7214C305.124 67.7544 304.13 67.1654 302.963 66.7314C301.832 66.3104 300.543 66.0314 298.661 65.9734C296.775 65.9154 296.174 65.9044 291.375 65.9744C286.578 66.0454 285.975 66.0734 284.093 66.1884ZM282.566 83.7754C282.64 88.7854 286.761 92.7864 291.773 92.7134C296.782 92.6384 300.783 88.5154 300.709 83.5054C300.635 78.4954 296.514 74.4944 291.502 74.5674C286.493 74.6434 282.49 78.7644 282.566 83.7754ZM285.747 83.7274C285.701 80.4764 288.298 77.8004 291.55 77.7524C294.802 77.7044 297.479 80.3024 297.525 83.5534C297.574 86.8064 294.976 89.4814 291.725 89.5304C288.471 89.5774 285.796 86.9804 285.747 83.7274ZM282.034 72.2294C283.207 72.2134 284.168 73.1474 284.187 74.3184C284.203 75.4884 283.268 76.4514 282.098 76.4694C280.927 76.4874 279.964 75.5514 279.948 74.3814C279.929 73.2104 280.864 72.2464 282.034 72.2294Z" fill="#17DA17"/>
<path d="M377.542 155.309C375.987 155.264 374.567 154.707 373.439 153.805C372.146 152.77 371.239 151.281 370.952 149.587C370.881 149.168 370.849 148.737 370.857 148.297L366.414 148.169L366.064 160.309L365.867 166.958C365.816 168.736 364.614 170.21 362.994 170.694C362.524 170.834 362.019 170.893 361.496 170.849C360.828 170.793 360.208 170.573 359.673 170.232C358.534 169.506 357.785 168.226 357.805 166.787C357.836 164.538 359.706 162.758 361.953 162.823C362.396 162.836 362.82 162.921 363.215 163.064L363.311 159.746L363.345 158.553C362.926 158.479 362.499 158.434 362.067 158.421C359.608 158.35 357.28 159.306 355.583 161.099C354.3 162.454 353.504 164.208 353.335 166.066C353.114 168.507 353.941 170.857 355.627 172.622C355.875 172.881 356.136 173.122 356.409 173.346C357.864 174.534 359.664 175.207 361.58 175.262C362.013 175.275 362.442 175.255 362.864 175.205C364.661 174.992 366.336 174.22 367.676 172.97C369.323 171.434 370.268 169.358 370.342 167.123L370.606 157.192C371.353 157.803 372.174 158.315 373.059 158.719C374.436 159.347 375.905 159.688 377.427 159.731L377.52 156.505L377.555 155.308C377.556 155.31 377.543 155.309 377.542 155.309Z" fill="#17DA17"/>
<path d="M64 299.831C64 299.831 80.951 326.203 113.675 301.281L115.708 306.482L122.32 289.896L105.72 291.387L109.662 295.298C109.662 295.298 84.212 319.723 64 299.831Z" fill="#17DA17"/>
<path d="M398.308 102.497C398.308 102.497 370.697 72.3637 334.166 111.621L330.404 105.388L325.578 128.159L346.576 122.571L340.647 118.418C340.646 118.42 367.941 81.4107 398.308 102.497Z" fill="#17DA17"/>
<path d="M369.288 393.569C369.288 393.569 402.137 369.252 366.906 328.825L373.497 325.734L351.353 318.558L354.719 340.024L359.468 334.561C359.468 334.56 393.427 365.567 369.288 393.569Z" fill="#17DA17"/>
<path d="M271.636 158.483C271.363 159.811 270.25 162.654 269.419 165.536C268.76 164.664 267.948 163.693 267.106 163.414C265.483 162.878 264.963 162.527 265.458 164.253C265.952 165.98 268.636 172.032 268.636 172.032C268.636 172.032 268.643 172.019 268.644 172.016C269.6 175.448 269.588 177.555 269.588 177.555L278.995 177.892C278.995 177.892 279.489 170.106 280.224 166.332C280.96 162.557 280.382 153.777 277.31 151.847C274.238 149.916 272.094 156.253 271.636 158.483Z" fill="#FFB27D"/>
<path d="M206.204 170.559C206.204 170.559 204.56 180.809 191.81 180.476" stroke="#73453E" stroke-miterlimit="10" stroke-linecap="round" stroke-linejoin="round"/>
<path d="M87.4233 199.17H80.4893V194.534H87.4233V187.439H92.6233V194.534H99.4773V199.17H92.6233V206.306H87.4233V199.17Z" fill="white"/>
<path d="M155.066 40.8892H148.132V36.2532H155.066V29.1572H160.266V36.2522H167.12V40.8882H160.266V48.0242H155.066V40.8892Z" fill="white"/>
<path d="M417.095 195.651H410.161V191.015H417.095V183.92H422.295V191.015H429.149V195.651H422.295V202.787H417.095V195.651Z" fill="white"/>
<path d="M329.095 339.792H322.161V335.156H329.095V328.061H334.295V335.156H341.149V339.792H334.295V346.928H329.095V339.792Z" fill="white"/>
<defs>
<linearGradient id="paint0_linear" x1="66.3924" y1="232.467" x2="346.791" y2="190.03" gradientUnits="userSpaceOnUse">
<stop offset="0.0064" stop-color="#FFFF00"/>
<stop offset="0.1184" stop-color="#D1F800"/>
<stop offset="0.253" stop-color="#92EF00"/>
<stop offset="0.3861" stop-color="#5EE700"/>
<stop offset="0.5058" stop-color="#35E100"/>
<stop offset="0.6001" stop-color="#18DD00"/>
<stop offset="0.665" stop-color="#06DA00"/>
<stop offset="0.7442" stop-color="#00D900"/>
</linearGradient>
</defs>
</svg>
